<svg width="1920" height="1080" viewBox="0 0 1920 1080" fill="none" xmlns="http://www.w3.org/2000/svg">
<rect width="1920" height="1080" fill="#E4E9DF"/>
<g filter="url(#filter0_ddd)">
<path d="M825 574H1141V688H825V574Z" fill="#C4C4C4"/>
<path d="M825 574H1141V688H825V574Z" stroke="black" stroke-width="3" stroke-linecap="round" stroke-linejoin="round"/>
<path d="M825 574H1141V688H825V574Z" stroke="url(#paint0_linear)" stroke-width="3" stroke-linecap="round" stroke-linejoin="round"/>
</g>
<g filter="url(#filter1_dd)">
<path d="M881.003 650C880.226 650 879.572 649.735 879.042 649.205C878.547 648.675 878.3 648.021 878.3 647.244V611.363C878.3 610.586 878.565 609.932 879.095 609.402C879.625 608.872 880.261 608.607 881.003 608.607C881.78 608.607 882.434 608.872 882.964 609.402C883.494 609.932 883.759 610.586 883.759 611.363V644.488H902.945C903.722 644.488 904.376 644.753 904.906 645.283C905.436 645.813 905.701 646.467 905.701 647.244C905.701 648.021 905.436 648.675 904.906 649.205C904.376 649.735 903.722 650 902.945 650H881.003ZM924.124 650.212C921.262 650.212 918.736 649.594 916.545 648.357C914.354 647.085 912.623 645.354 911.351 643.163C910.114 640.937 909.496 638.393 909.496 635.531C909.496 632.634 910.114 630.09 911.351 627.899C912.623 625.673 914.354 623.942 916.545 622.705C918.736 621.433 921.262 620.797 924.124 620.797C926.951 620.797 929.459 621.433 931.65 622.705C933.841 623.942 935.554 625.673 936.791 627.899C938.063 630.09 938.699 632.634 938.699 635.531C938.699 638.393 938.081 640.937 936.844 643.163C935.607 645.354 933.894 647.085 931.703 648.357C929.512 649.594 926.986 650.212 924.124 650.212ZM924.124 645.442C925.961 645.442 927.587 645.018 929 644.17C930.413 643.322 931.509 642.156 932.286 640.672C933.099 639.188 933.505 637.474 933.505 635.531C933.505 633.588 933.099 631.874 932.286 630.39C931.509 628.871 930.413 627.687 929 626.839C927.587 625.991 925.961 625.567 924.124 625.567C922.287 625.567 920.661 625.991 919.248 626.839C917.835 627.687 916.722 628.871 915.909 630.39C915.096 631.874 914.69 633.588 914.69 635.531C914.69 637.474 915.096 639.188 915.909 640.672C916.722 642.156 917.835 643.322 919.248 644.17C920.661 645.018 922.287 645.442 924.124 645.442ZM958.034 650.212C955.384 650.212 953.034 649.594 950.985 648.357C948.971 647.085 947.381 645.354 946.215 643.163C945.049 640.937 944.466 638.393 944.466 635.531C944.466 632.634 945.084 630.09 946.321 627.899C947.593 625.673 949.324 623.942 951.515 622.705C953.705 621.433 956.232 620.797 959.094 620.797C961.92 620.797 964.429 621.433 966.62 622.705C968.81 623.942 970.524 625.673 971.761 627.899C973.033 630.09 973.669 632.634 973.669 635.531V646.979C973.669 649.77 973.05 652.297 971.814 654.558C970.577 656.855 968.846 658.674 966.62 660.017C964.429 661.36 961.885 662.031 958.988 662.031C956.479 662.031 954.129 661.536 951.939 660.547C949.748 659.558 947.893 658.109 946.374 656.201C945.914 655.6 945.738 654.982 945.844 654.346C945.985 653.71 946.338 653.198 946.904 652.809C947.54 652.385 948.193 652.244 948.865 652.385C949.571 652.526 950.137 652.88 950.561 653.445C951.515 654.646 952.716 655.583 954.165 656.254C955.613 656.925 957.256 657.261 959.094 657.261C960.79 657.261 962.344 656.855 963.758 656.042C965.206 655.229 966.355 654.028 967.203 652.438C968.051 650.848 968.475 648.905 968.475 646.608V644.011C967.379 645.919 965.931 647.438 964.129 648.569C962.327 649.664 960.295 650.212 958.034 650.212ZM959.094 645.442C960.931 645.442 962.556 645.018 963.97 644.17C965.383 643.322 966.478 642.156 967.256 640.672C968.068 639.188 968.475 637.474 968.475 635.531C968.475 633.588 968.068 631.874 967.256 630.39C966.478 628.871 965.383 627.687 963.97 626.839C962.556 625.991 960.931 625.567 959.094 625.567C957.256 625.567 955.631 625.991 954.218 626.839C952.804 627.687 951.691 628.871 950.879 630.39C950.066 631.874 949.66 633.588 949.66 635.531C949.66 637.474 950.066 639.188 950.879 640.672C951.691 642.156 952.804 643.322 954.218 644.17C955.631 645.018 957.256 645.442 959.094 645.442ZM1015.31 650.53C1012.21 650.53 1009.36 650.018 1006.78 648.993C1004.2 647.933 1001.98 646.467 1000.1 644.594C998.266 642.686 996.835 640.442 995.811 637.863C994.786 635.248 994.274 632.386 994.274 629.277C994.274 626.168 994.786 623.323 995.811 620.744C996.835 618.165 998.266 615.939 1000.1 614.066C1001.98 612.158 1004.2 610.692 1006.78 609.667C1009.36 608.607 1012.21 608.077 1015.31 608.077C1018.42 608.077 1021.25 608.607 1023.79 609.667C1026.37 610.692 1028.6 612.158 1030.47 614.066C1032.35 615.939 1033.79 618.165 1034.82 620.744C1035.84 623.323 1036.36 626.168 1036.36 629.277C1036.36 632.386 1035.84 635.248 1034.82 637.863C1033.79 640.442 1032.35 642.686 1030.47 644.594C1028.6 646.467 1026.37 647.933 1023.79 648.993C1021.25 650.018 1018.42 650.53 1015.31 650.53ZM1015.31 645.548C1018.39 645.548 1021.11 644.841 1023.48 643.428C1025.84 641.979 1027.7 640.036 1029.04 637.598C1030.38 635.125 1031.06 632.351 1031.06 629.277C1031.06 626.203 1030.38 623.447 1029.04 621.009C1027.7 618.536 1025.84 616.592 1023.48 615.179C1021.11 613.766 1018.39 613.059 1015.31 613.059C1012.24 613.059 1009.52 613.766 1007.15 615.179C1004.79 616.592 1002.93 618.536 1001.59 621.009C1000.24 623.447 999.574 626.203 999.574 629.277C999.574 632.351 1000.24 635.125 1001.59 637.598C1002.93 640.036 1004.79 641.979 1007.15 643.428C1009.52 644.841 1012.24 645.548 1015.31 645.548ZM1055.85 650.265C1053.42 650.265 1051.23 649.753 1049.28 648.728C1047.37 647.668 1045.85 646.131 1044.72 644.117C1043.63 642.103 1043.08 639.63 1043.08 636.697V623.659C1043.08 622.882 1043.33 622.246 1043.82 621.751C1044.35 621.221 1045.01 620.956 1045.78 620.956C1046.56 620.956 1047.2 621.221 1047.69 621.751C1048.22 622.246 1048.49 622.882 1048.49 623.659V636.697C1048.49 639.7 1049.28 641.909 1050.87 643.322C1052.5 644.7 1054.51 645.389 1056.91 645.389C1058.43 645.389 1059.78 645.089 1060.94 644.488C1062.14 643.887 1063.1 643.075 1063.8 642.05C1064.51 641.025 1064.86 639.877 1064.86 638.605V623.659C1064.86 622.846 1065.11 622.193 1065.61 621.698C1066.14 621.203 1066.79 620.956 1067.57 620.956C1068.38 620.956 1069.03 621.203 1069.53 621.698C1070.02 622.193 1070.27 622.846 1070.27 623.659V647.297C1070.27 648.074 1070.02 648.728 1069.53 649.258C1069.03 649.753 1068.38 650 1067.57 650C1066.79 650 1066.14 649.753 1065.61 649.258C1065.11 648.728 1064.86 648.074 1064.86 647.297V646.714C1063.77 647.809 1062.44 648.675 1060.89 649.311C1059.33 649.947 1057.66 650.265 1055.85 650.265ZM1089.54 650C1087.78 650 1086.19 649.558 1084.77 648.675C1083.36 647.756 1082.25 646.52 1081.43 644.965C1080.62 643.41 1080.22 641.661 1080.22 639.718V626.627H1077.78C1077.04 626.627 1076.43 626.415 1075.98 625.991C1075.52 625.567 1075.29 625.037 1075.29 624.401C1075.29 623.694 1075.52 623.129 1075.98 622.705C1076.43 622.281 1077.04 622.069 1077.78 622.069H1080.22V614.437C1080.22 613.66 1080.46 613.024 1080.96 612.529C1081.45 612.034 1082.09 611.787 1082.87 611.787C1083.64 611.787 1084.28 612.034 1084.77 612.529C1085.27 613.024 1085.52 613.66 1085.52 614.437V622.069H1090.02C1090.76 622.069 1091.36 622.281 1091.82 622.705C1092.28 623.129 1092.51 623.694 1092.51 624.401C1092.51 625.037 1092.28 625.567 1091.82 625.991C1091.36 626.415 1090.76 626.627 1090.02 626.627H1085.52V639.718C1085.52 641.131 1085.9 642.315 1086.68 643.269C1087.46 644.223 1088.41 644.7 1089.54 644.7H1091.35C1091.98 644.7 1092.51 644.947 1092.94 645.442C1093.39 645.937 1093.62 646.573 1093.62 647.35C1093.62 648.127 1093.32 648.763 1092.72 649.258C1092.16 649.753 1091.42 650 1090.5 650H1089.54Z" fill="#141313"/>
</g>
<g filter="url(#filter2_dd)">
<path d="M190.12 406C189.24 406 188.5 405.7 187.9 405.1C187.3 404.5 187 403.76 187 402.88V362.26C187 361.34 187.3 360.6 187.9 360.04C188.5 359.44 189.24 359.14 190.12 359.14H200.98C204.42 359.14 207.54 359.72 210.34 360.88C213.18 362 215.64 363.62 217.72 365.74C219.8 367.82 221.4 370.28 222.52 373.12C223.64 375.96 224.2 379.1 224.2 382.54C224.2 385.98 223.64 389.14 222.52 392.02C221.4 394.86 219.8 397.34 217.72 399.46C215.64 401.54 213.18 403.16 210.34 404.32C207.54 405.44 204.42 406 200.98 406H190.12ZM193.24 400.48H200.98C204.34 400.48 207.3 399.72 209.86 398.2C212.46 396.64 214.5 394.52 215.98 391.84C217.46 389.12 218.2 386.02 218.2 382.54C218.2 379.02 217.46 375.92 215.98 373.24C214.5 370.56 212.46 368.46 209.86 366.94C207.3 365.42 204.34 364.66 200.98 364.66H193.24V400.48ZM247.912 406.24C244.592 406.24 241.632 405.54 239.032 404.14C236.472 402.7 234.452 400.74 232.972 398.26C231.532 395.74 230.812 392.86 230.812 389.62C230.812 386.34 231.492 383.46 232.852 380.98C234.252 378.46 236.172 376.5 238.612 375.1C241.052 373.66 243.852 372.94 247.012 372.94C250.132 372.94 252.812 373.64 255.052 375.04C257.292 376.4 258.992 378.3 260.152 380.74C261.352 383.14 261.952 385.92 261.952 389.08C261.952 389.84 261.692 390.48 261.172 391C260.652 391.48 259.992 391.72 259.192 391.72H236.392C236.832 394.48 238.092 396.74 240.172 398.5C242.292 400.22 244.872 401.08 247.912 401.08C249.152 401.08 250.412 400.86 251.692 400.42C253.012 399.94 254.072 399.4 254.872 398.8C255.472 398.36 256.112 398.14 256.792 398.14C257.512 398.1 258.132 398.3 258.652 398.74C259.332 399.34 259.692 400 259.732 400.72C259.772 401.44 259.452 402.06 258.772 402.58C257.412 403.66 255.712 404.54 253.672 405.22C251.672 405.9 249.752 406.24 247.912 406.24ZM247.012 378.1C244.052 378.1 241.672 378.92 239.872 380.56C238.072 382.2 236.932 384.32 236.452 386.92H256.432C256.072 384.36 255.092 382.26 253.492 380.62C251.892 378.94 249.732 378.1 247.012 378.1ZM271.918 406.06C271.038 406.06 270.298 405.78 269.698 405.22C269.138 404.62 268.858 403.88 268.858 403V376.3C268.858 375.38 269.138 374.64 269.698 374.08C270.298 373.52 271.038 373.24 271.918 373.24C272.838 373.24 273.578 373.52 274.138 374.08C274.698 374.64 274.978 375.34 274.978 376.18C276.018 375.14 277.258 374.34 278.698 373.78C280.138 373.18 281.698 372.88 283.378 372.88C287.578 372.88 290.738 374.46 292.858 377.62C294.018 376.14 295.498 374.98 297.298 374.14C299.098 373.3 301.118 372.88 303.358 372.88C306.798 372.88 309.598 374 311.758 376.24C313.918 378.48 314.998 381.68 314.998 385.84V403C314.998 403.88 314.718 404.62 314.158 405.22C313.598 405.78 312.858 406.06 311.938 406.06C311.058 406.06 310.318 405.78 309.718 405.22C309.158 404.62 308.878 403.88 308.878 403V385.84C308.878 383.32 308.258 381.46 307.018 380.26C305.778 379.02 304.158 378.4 302.158 378.4C300.078 378.4 298.358 379.12 296.998 380.56C295.678 382 295.018 383.84 295.018 386.08V403C295.018 403.88 294.738 404.62 294.178 405.22C293.618 405.78 292.878 406.06 291.958 406.06C291.078 406.06 290.338 405.78 289.738 405.22C289.178 404.62 288.898 403.88 288.898 403V385.84C288.898 383.32 288.278 381.46 287.038 380.26C285.798 379.02 284.178 378.4 282.178 378.4C280.098 378.4 278.378 379.12 277.018 380.56C275.658 382 274.978 383.84 274.978 386.08V403C274.978 403.88 274.698 404.62 274.138 405.22C273.578 405.78 272.838 406.06 271.918 406.06ZM339.146 406.24C335.906 406.24 333.046 405.54 330.566 404.14C328.086 402.7 326.126 400.74 324.686 398.26C323.286 395.74 322.586 392.86 322.586 389.62C322.586 386.34 323.286 383.46 324.686 380.98C326.126 378.46 328.086 376.5 330.566 375.1C333.046 373.66 335.906 372.94 339.146 372.94C342.346 372.94 345.186 373.66 347.666 375.1C350.146 376.5 352.086 378.46 353.486 380.98C354.926 383.46 355.646 386.34 355.646 389.62C355.646 392.86 354.946 395.74 353.546 398.26C352.146 400.74 350.206 402.7 347.726 404.14C345.246 405.54 342.386 406.24 339.146 406.24ZM339.146 400.84C341.226 400.84 343.066 400.36 344.666 399.4C346.266 398.44 347.506 397.12 348.386 395.44C349.306 393.76 349.766 391.82 349.766 389.62C349.766 387.42 349.306 385.48 348.386 383.8C347.506 382.08 346.266 380.74 344.666 379.78C343.066 378.82 341.226 378.34 339.146 378.34C337.066 378.34 335.226 378.82 333.626 379.78C332.026 380.74 330.766 382.08 329.846 383.8C328.926 385.48 328.466 387.42 328.466 389.62C328.466 391.82 328.926 393.76 329.846 395.44C330.766 397.12 332.026 398.44 333.626 399.4C335.226 400.36 337.066 400.84 339.146 400.84ZM395.413 406.24C392.213 406.24 389.353 405.52 386.833 404.08C384.353 402.6 382.393 400.62 380.953 398.14C379.553 395.62 378.853 392.78 378.853 389.62C378.853 386.38 379.553 383.5 380.953 380.98C382.353 378.46 384.273 376.5 386.713 375.1C389.153 373.66 391.953 372.94 395.113 372.94C399.833 372.94 403.753 374.74 406.873 378.34C407.433 378.98 407.633 379.64 407.473 380.32C407.313 381 406.873 381.6 406.153 382.12C405.593 382.52 404.973 382.66 404.293 382.54C403.613 382.38 402.993 382.02 402.433 381.46C400.473 379.38 398.033 378.34 395.113 378.34C392.033 378.34 389.533 379.38 387.613 381.46C385.693 383.5 384.733 386.22 384.733 389.62C384.733 391.78 385.173 393.7 386.053 395.38C386.973 397.06 388.233 398.4 389.833 399.4C391.433 400.36 393.293 400.84 395.413 400.84C398.133 400.84 400.333 400.14 402.013 398.74C402.653 398.22 403.313 397.94 403.993 397.9C404.673 397.82 405.273 398 405.793 398.44C406.473 399 406.853 399.64 406.933 400.36C407.013 401.04 406.773 401.66 406.213 402.22C403.333 404.9 399.733 406.24 395.413 406.24ZM430.548 406.24C427.308 406.24 424.448 405.54 421.968 404.14C419.488 402.7 417.528 400.74 416.088 398.26C414.688 395.74 413.988 392.86 413.988 389.62C413.988 386.34 414.688 383.46 416.088 380.98C417.528 378.46 419.488 376.5 421.968 375.1C424.448 373.66 427.308 372.94 430.548 372.94C433.748 372.94 436.588 373.66 439.068 375.1C441.548 376.5 443.488 378.46 444.888 380.98C446.328 383.46 447.048 386.34 447.048 389.62C447.048 392.86 446.348 395.74 444.948 398.26C443.548 400.74 441.608 402.7 439.128 404.14C436.648 405.54 433.788 406.24 430.548 406.24ZM430.548 400.84C432.628 400.84 434.468 400.36 436.068 399.4C437.668 398.44 438.908 397.12 439.788 395.44C440.708 393.76 441.168 391.82 441.168 389.62C441.168 387.42 440.708 385.48 439.788 383.8C438.908 382.08 437.668 380.74 436.068 379.78C434.468 378.82 432.628 378.34 430.548 378.34C428.468 378.34 426.628 378.82 425.028 379.78C423.428 380.74 422.168 382.08 421.248 383.8C420.328 385.48 419.868 387.42 419.868 389.62C419.868 391.82 420.328 393.76 421.248 395.44C422.168 397.12 423.428 398.44 425.028 399.4C426.628 400.36 428.468 400.84 430.548 400.84ZM458.316 406.06C457.436 406.06 456.696 405.78 456.096 405.22C455.536 404.62 455.256 403.88 455.256 403V376.3C455.256 375.38 455.536 374.64 456.096 374.08C456.696 373.52 457.436 373.24 458.316 373.24C459.236 373.24 459.976 373.52 460.536 374.08C461.096 374.64 461.376 375.34 461.376 376.18C462.416 375.14 463.656 374.34 465.096 373.78C466.536 373.18 468.096 372.88 469.776 372.88C473.976 372.88 477.136 374.46 479.256 377.62C480.416 376.14 481.896 374.98 483.696 374.14C485.496 373.3 487.516 372.88 489.756 372.88C493.196 372.88 495.996 374 498.156 376.24C500.316 378.48 501.396 381.68 501.396 385.84V403C501.396 403.88 501.116 404.62 500.556 405.22C499.996 405.78 499.256 406.06 498.336 406.06C497.456 406.06 496.716 405.78 496.116 405.22C495.556 404.62 495.276 403.88 495.276 403V385.84C495.276 383.32 494.656 381.46 493.416 380.26C492.176 379.02 490.556 378.4 488.556 378.4C486.476 378.4 484.756 379.12 483.396 380.56C482.076 382 481.416 383.84 481.416 386.08V403C481.416 403.88 481.136 404.62 480.576 405.22C480.016 405.78 479.276 406.06 478.356 406.06C477.476 406.06 476.736 405.78 476.136 405.22C475.576 404.62 475.296 403.88 475.296 403V385.84C475.296 383.32 474.676 381.46 473.436 380.26C472.196 379.02 470.576 378.4 468.576 378.4C466.496 378.4 464.776 379.12 463.416 380.56C462.056 382 461.376 383.84 461.376 386.08V403C461.376 403.88 461.096 404.62 460.536 405.22C459.976 405.78 459.236 406.06 458.316 406.06ZM513.725 420.04C512.845 420.04 512.105 419.74 511.505 419.14C510.945 418.58 510.665 417.86 510.665 416.98V389.62C510.705 386.46 511.445 383.62 512.885 381.1C514.325 378.58 516.285 376.6 518.765 375.16C521.245 373.68 524.045 372.94 527.165 372.94C530.325 372.94 533.145 373.68 535.625 375.16C538.105 376.6 540.065 378.58 541.505 381.1C542.985 383.62 543.725 386.46 543.725 389.62C543.725 392.78 543.045 395.62 541.685 398.14C540.365 400.62 538.545 402.6 536.225 404.08C533.905 405.52 531.285 406.24 528.365 406.24C526.005 406.24 523.825 405.76 521.825 404.8C519.865 403.8 518.185 402.46 516.785 400.78V416.98C516.785 417.86 516.505 418.58 515.945 419.14C515.385 419.74 514.645 420.04 513.725 420.04ZM527.165 400.84C529.205 400.84 531.025 400.36 532.625 399.4C534.225 398.4 535.485 397.06 536.405 395.38C537.365 393.66 537.845 391.74 537.845 389.62C537.845 387.46 537.365 385.54 536.405 383.86C535.485 382.14 534.225 380.8 532.625 379.84C531.025 378.84 529.205 378.34 527.165 378.34C525.165 378.34 523.345 378.84 521.705 379.84C520.105 380.8 518.845 382.14 517.925 383.86C517.005 385.54 516.545 387.46 516.545 389.62C516.545 391.74 517.005 393.66 517.925 395.38C518.845 397.06 520.105 398.4 521.705 399.4C523.345 400.36 525.165 400.84 527.165 400.84ZM559.752 406C557.992 406 556.432 405.52 555.072 404.56C553.712 403.6 552.652 402.3 551.892 400.66C551.132 398.98 550.752 397.06 550.752 394.9V362.14C550.752 361.26 551.032 360.54 551.592 359.98C552.152 359.42 552.872 359.14 553.752 359.14C554.632 359.14 555.352 359.42 555.912 359.98C556.472 360.54 556.752 361.26 556.752 362.14V394.9C556.752 396.38 557.032 397.6 557.592 398.56C558.152 399.52 558.872 400 559.752 400H561.252C562.052 400 562.692 400.28 563.172 400.84C563.692 401.4 563.952 402.12 563.952 403C563.952 403.88 563.572 404.6 562.812 405.16C562.052 405.72 561.072 406 559.872 406H559.752ZM582.644 406.24C579.324 406.24 576.364 405.54 573.764 404.14C571.204 402.7 569.184 400.74 567.704 398.26C566.264 395.74 565.544 392.86 565.544 389.62C565.544 386.34 566.224 383.46 567.584 380.98C568.984 378.46 570.904 376.5 573.344 375.1C575.784 373.66 578.584 372.94 581.744 372.94C584.864 372.94 587.544 373.64 589.784 375.04C592.024 376.4 593.724 378.3 594.884 380.74C596.084 383.14 596.684 385.92 596.684 389.08C596.684 389.84 596.424 390.48 595.904 391C595.384 391.48 594.724 391.72 593.924 391.72H571.124C571.564 394.48 572.824 396.74 574.904 398.5C577.024 400.22 579.604 401.08 582.644 401.08C583.884 401.08 585.144 400.86 586.424 400.42C587.744 399.94 588.804 399.4 589.604 398.8C590.204 398.36 590.844 398.14 591.524 398.14C592.244 398.1 592.864 398.3 593.384 398.74C594.064 399.34 594.424 400 594.464 400.72C594.504 401.44 594.184 402.06 593.504 402.58C592.144 403.66 590.444 404.54 588.404 405.22C586.404 405.9 584.484 406.24 582.644 406.24ZM581.744 378.1C578.784 378.1 576.404 378.92 574.604 380.56C572.804 382.2 571.664 384.32 571.184 386.92H591.164C590.804 384.36 589.824 382.26 588.224 380.62C586.624 378.94 584.464 378.1 581.744 378.1ZM615.53 406C613.53 406 611.73 405.5 610.13 404.5C608.53 403.46 607.27 402.06 606.35 400.3C605.43 398.54 604.97 396.56 604.97 394.36V379.54H602.21C601.37 379.54 600.69 379.3 600.17 378.82C599.65 378.34 599.39 377.74 599.39 377.02C599.39 376.22 599.65 375.58 600.17 375.1C600.69 374.62 601.37 374.38 602.21 374.38H604.97V365.74C604.97 364.86 605.25 364.14 605.81 363.58C606.37 363.02 607.09 362.74 607.97 362.74C608.85 362.74 609.57 363.02 610.13 363.58C610.69 364.14 610.97 364.86 610.97 365.74V374.38H616.07C616.91 374.38 617.59 374.62 618.11 375.1C618.63 375.58 618.89 376.22 618.89 377.02C618.89 377.74 618.63 378.34 618.11 378.82C617.59 379.3 616.91 379.54 616.07 379.54H610.97V394.36C610.97 395.96 611.41 397.3 612.29 398.38C613.17 399.46 614.25 400 615.53 400H617.57C618.29 400 618.89 400.28 619.37 400.84C619.89 401.4 620.15 402.12 620.15 403C620.15 403.88 619.81 404.6 619.13 405.16C618.49 405.72 617.65 406 616.61 406H615.53ZM642.192 406.24C638.872 406.24 635.912 405.54 633.312 404.14C630.752 402.7 628.732 400.74 627.252 398.26C625.812 395.74 625.092 392.86 625.092 389.62C625.092 386.34 625.772 383.46 627.132 380.98C628.532 378.46 630.452 376.5 632.892 375.1C635.332 373.66 638.132 372.94 641.292 372.94C644.412 372.94 647.092 373.64 649.332 375.04C651.572 376.4 653.272 378.3 654.432 380.74C655.632 383.14 656.232 385.92 656.232 389.08C656.232 389.84 655.972 390.48 655.452 391C654.932 391.48 654.272 391.72 653.472 391.72H630.672C631.112 394.48 632.372 396.74 634.452 398.5C636.572 400.22 639.152 401.08 642.192 401.08C643.432 401.08 644.692 400.86 645.972 400.42C647.292 399.94 648.352 399.4 649.152 398.8C649.752 398.36 650.392 398.14 651.072 398.14C651.792 398.1 652.412 398.3 652.932 398.74C653.612 399.34 653.972 400 654.012 400.72C654.052 401.44 653.732 402.06 653.052 402.58C651.692 403.66 649.992 404.54 647.952 405.22C645.952 405.9 644.032 406.24 642.192 406.24ZM641.292 378.1C638.332 378.1 635.952 378.92 634.152 380.56C632.352 382.2 631.212 384.32 630.732 386.92H650.712C650.352 384.36 649.372 382.26 647.772 380.62C646.172 378.94 644.012 378.1 641.292 378.1ZM664.877 394.9C663.997 394.9 663.257 394.6 662.657 394C662.097 393.36 661.817 392.64 661.817 391.84V362.26C661.817 361.38 662.097 360.64 662.657 360.04C663.257 359.44 663.997 359.14 664.877 359.14C665.757 359.14 666.477 359.44 667.037 360.04C667.637 360.64 667.937 361.38 667.937 362.26V391.84C667.937 392.68 667.617 393.4 666.977 394C666.377 394.6 665.677 394.9 664.877 394.9ZM664.877 406C663.757 406 662.777 405.6 661.937 404.8C661.137 404 660.737 403.02 660.737 401.86C660.737 400.7 661.137 399.72 661.937 398.92C662.777 398.08 663.757 397.66 664.877 397.66C666.037 397.66 667.017 398.08 667.817 398.92C668.617 399.72 669.017 400.7 669.017 401.86C669.017 403.02 668.597 404 667.757 404.8C666.957 405.6 665.997 406 664.877 406ZM727.339 406C726.459 406 725.719 405.7 725.119 405.1C724.519 404.5 724.219 403.76 724.219 402.88V364.9H711.259C710.419 364.9 709.719 364.64 709.159 364.12C708.639 363.56 708.379 362.86 708.379 362.02C708.379 361.18 708.639 360.5 709.159 359.98C709.719 359.42 710.419 359.14 711.259 359.14H743.359C744.199 359.14 744.879 359.42 745.399 359.98C745.959 360.5 746.239 361.18 746.239 362.02C746.239 362.86 745.959 363.56 745.399 364.12C744.879 364.64 744.199 364.9 743.359 364.9H730.459V402.88C730.459 403.76 730.159 404.5 729.559 405.1C728.959 405.7 728.219 406 727.339 406ZM754.707 406.06C753.827 406.06 753.087 405.78 752.487 405.22C751.927 404.62 751.647 403.88 751.647 403V376.24C751.647 375.32 751.927 374.58 752.487 374.02C753.087 373.46 753.827 373.18 754.707 373.18C755.627 373.18 756.367 373.46 756.927 374.02C757.487 374.58 757.767 375.32 757.767 376.24V376.9C759.007 375.66 760.507 374.68 762.267 373.96C764.027 373.24 765.927 372.88 767.967 372.88C770.727 372.88 773.187 373.48 775.347 374.68C777.547 375.84 779.267 377.56 780.507 379.84C781.787 382.12 782.427 384.92 782.427 388.24V403C782.427 403.88 782.127 404.62 781.527 405.22C780.967 405.78 780.247 406.06 779.367 406.06C778.487 406.06 777.747 405.78 777.147 405.22C776.587 404.62 776.307 403.88 776.307 403V388.24C776.307 384.84 775.387 382.36 773.547 380.8C771.747 379.2 769.487 378.4 766.767 378.4C765.087 378.4 763.567 378.74 762.207 379.42C760.847 380.1 759.767 381.02 758.967 382.18C758.167 383.3 757.767 384.6 757.767 386.08V403C757.767 403.88 757.487 404.62 756.927 405.22C756.367 405.78 755.627 406.06 754.707 406.06ZM754.707 394.06C753.827 394.06 753.087 393.78 752.487 393.22C751.927 392.62 751.647 391.88 751.647 391V362.2C751.647 361.28 751.927 360.54 752.487 359.98C753.087 359.42 753.827 359.14 754.707 359.14C755.627 359.14 756.367 359.42 756.927 359.98C757.487 360.54 757.767 361.28 757.767 362.2V391C757.767 391.88 757.487 392.62 756.927 393.22C756.367 393.78 755.627 394.06 754.707 394.06ZM805.384 406.24C802.464 406.24 799.844 405.52 797.524 404.08C795.204 402.6 793.364 400.62 792.004 398.14C790.684 395.62 790.024 392.78 790.024 389.62C790.024 386.46 790.744 383.62 792.184 381.1C793.664 378.58 795.644 376.6 798.124 375.16C800.644 373.68 803.464 372.94 806.584 372.94C809.704 372.94 812.504 373.68 814.984 375.16C817.464 376.6 819.424 378.58 820.864 381.1C822.344 383.62 823.084 386.46 823.084 389.62V403C823.084 403.88 822.784 404.62 822.184 405.22C821.624 405.78 820.904 406.06 820.024 406.06C819.144 406.06 818.404 405.78 817.804 405.22C817.244 404.62 816.964 403.88 816.964 403V400.78C815.564 402.46 813.864 403.8 811.864 404.8C809.904 405.76 807.744 406.24 805.384 406.24ZM806.584 400.84C808.624 400.84 810.444 400.36 812.044 399.4C813.644 398.4 814.904 397.06 815.824 395.38C816.744 393.66 817.204 391.74 817.204 389.62C817.204 387.46 816.744 385.54 815.824 383.86C814.904 382.14 813.644 380.8 812.044 379.84C810.444 378.84 808.624 378.34 806.584 378.34C804.584 378.34 802.764 378.84 801.124 379.84C799.524 380.8 798.244 382.14 797.284 383.86C796.364 385.54 795.904 387.46 795.904 389.62C795.904 391.74 796.364 393.66 797.284 395.38C798.244 397.06 799.524 398.4 801.124 399.4C802.764 400.36 804.584 400.84 806.584 400.84ZM834.352 406.06C833.472 406.06 832.732 405.78 832.132 405.22C831.572 404.62 831.292 403.88 831.292 403V376.24C831.292 375.32 831.572 374.58 832.132 374.02C832.732 373.46 833.472 373.18 834.352 373.18C835.272 373.18 836.012 373.46 836.572 374.02C837.132 374.58 837.412 375.32 837.412 376.24V376.9C838.652 375.66 840.152 374.68 841.912 373.96C843.672 373.24 845.572 372.88 847.612 372.88C850.372 372.88 852.832 373.48 854.992 374.68C857.192 375.84 858.912 377.56 860.152 379.84C861.432 382.12 862.072 384.92 862.072 388.24V403C862.072 403.88 861.772 404.62 861.172 405.22C860.612 405.78 859.892 406.06 859.012 406.06C858.132 406.06 857.392 405.78 856.792 405.22C856.232 404.62 855.952 403.88 855.952 403V388.24C855.952 384.84 855.032 382.36 853.192 380.8C851.392 379.2 849.132 378.4 846.412 378.4C844.732 378.4 843.212 378.74 841.852 379.42C840.492 380.1 839.412 381.02 838.612 382.18C837.812 383.3 837.412 384.6 837.412 386.08V403C837.412 403.88 837.132 404.62 836.572 405.22C836.012 405.78 835.272 406.06 834.352 406.06ZM874.231 406C873.351 406 872.631 405.74 872.071 405.22C871.551 404.66 871.291 403.94 871.291 403.06V362.08C871.291 361.2 871.551 360.5 872.071 359.98C872.631 359.42 873.351 359.14 874.231 359.14C875.111 359.14 875.811 359.42 876.331 359.98C876.891 360.5 877.171 361.2 877.171 362.08V386.5L891.751 373.48C892.351 372.92 893.011 372.66 893.731 372.7C894.491 372.74 895.131 373.06 895.651 373.66C896.211 374.26 896.471 374.92 896.431 375.64C896.391 376.36 896.071 377 895.471 377.56L884.431 387.4L896.071 401.68C896.591 402.32 896.811 403.02 896.731 403.78C896.691 404.5 896.331 405.14 895.651 405.7C895.011 406.22 894.291 406.44 893.491 406.36C892.731 406.32 892.091 405.98 891.571 405.34L880.171 391.24L877.171 393.88V403.06C877.171 403.94 876.891 404.66 876.331 405.22C875.811 405.74 875.111 406 874.231 406ZM927.109 420.4C926.709 420.4 926.229 420.28 925.669 420.04C923.909 419.24 923.429 417.98 924.229 416.26L930.229 402.76L916.729 377.14C916.329 376.38 916.269 375.66 916.549 374.98C916.869 374.26 917.409 373.74 918.169 373.42C918.929 373.1 919.649 373.08 920.329 373.36C921.009 373.6 921.529 374.1 921.889 374.86L932.869 396.7L942.529 374.92C943.329 373.24 944.589 372.76 946.309 373.48C948.109 374.24 948.609 375.5 947.809 377.26L929.449 418.54C928.969 419.78 928.189 420.4 927.109 420.4ZM966.381 406.24C963.141 406.24 960.281 405.54 957.801 404.14C955.321 402.7 953.361 400.74 951.921 398.26C950.521 395.74 949.821 392.86 949.821 389.62C949.821 386.34 950.521 383.46 951.921 380.98C953.361 378.46 955.321 376.5 957.801 375.1C960.281 373.66 963.141 372.94 966.381 372.94C969.581 372.94 972.421 373.66 974.901 375.1C977.381 376.5 979.321 378.46 980.721 380.98C982.161 383.46 982.881 386.34 982.881 389.62C982.881 392.86 982.181 395.74 980.781 398.26C979.381 400.74 977.441 402.7 974.961 404.14C972.481 405.54 969.621 406.24 966.381 406.24ZM966.381 400.84C968.461 400.84 970.301 400.36 971.901 399.4C973.501 398.44 974.741 397.12 975.621 395.44C976.541 393.76 977.001 391.82 977.001 389.62C977.001 387.42 976.541 385.48 975.621 383.8C974.741 382.08 973.501 380.74 971.901 379.78C970.301 378.82 968.461 378.34 966.381 378.34C964.301 378.34 962.461 378.82 960.861 379.78C959.261 380.74 958.001 382.08 957.081 383.8C956.161 385.48 955.701 387.42 955.701 389.62C955.701 391.82 956.161 393.76 957.081 395.44C958.001 397.12 959.261 398.44 960.861 399.4C962.461 400.36 964.301 400.84 966.381 400.84ZM1004.89 406.3C1002.13 406.3 999.649 405.72 997.449 404.56C995.289 403.36 993.569 401.62 992.289 399.34C991.049 397.06 990.429 394.26 990.429 390.94V376.18C990.429 375.3 990.709 374.58 991.269 374.02C991.869 373.42 992.609 373.12 993.489 373.12C994.369 373.12 995.089 373.42 995.649 374.02C996.249 374.58 996.549 375.3 996.549 376.18V390.94C996.549 394.34 997.449 396.84 999.249 398.44C1001.09 400 1003.37 400.78 1006.09 400.78C1007.81 400.78 1009.33 400.44 1010.65 399.76C1012.01 399.08 1013.09 398.16 1013.89 397C1014.69 395.84 1015.09 394.54 1015.09 393.1V376.18C1015.09 375.26 1015.37 374.52 1015.93 373.96C1016.53 373.4 1017.27 373.12 1018.15 373.12C1019.07 373.12 1019.81 373.4 1020.37 373.96C1020.93 374.52 1021.21 375.26 1021.21 376.18V402.94C1021.21 403.82 1020.93 404.56 1020.37 405.16C1019.81 405.72 1019.07 406 1018.15 406C1017.27 406 1016.53 405.72 1015.93 405.16C1015.37 404.56 1015.09 403.82 1015.09 402.94V402.28C1013.85 403.52 1012.35 404.5 1010.59 405.22C1008.83 405.94 1006.93 406.3 1004.89 406.3ZM1051.31 406C1050.55 406 1049.87 405.72 1049.27 405.16C1048.67 404.6 1048.37 403.86 1048.37 402.94V379.54H1045.79C1044.95 379.54 1044.27 379.3 1043.75 378.82C1043.23 378.34 1042.97 377.74 1042.97 377.02C1042.97 376.22 1043.23 375.58 1043.75 375.1C1044.27 374.62 1044.95 374.38 1045.79 374.38H1048.37V373.36C1048.37 370.48 1048.93 367.98 1050.05 365.86C1051.21 363.74 1052.81 362.1 1054.85 360.94C1056.89 359.74 1059.25 359.14 1061.93 359.14C1062.81 359.14 1063.53 359.4 1064.09 359.92C1064.69 360.44 1064.99 361.1 1064.99 361.9C1064.99 362.66 1064.69 363.32 1064.09 363.88C1063.53 364.4 1062.81 364.66 1061.93 364.66C1059.69 364.66 1057.89 365.4 1056.53 366.88C1055.17 368.36 1054.49 370.32 1054.49 372.76V374.38H1060.61C1061.45 374.38 1062.13 374.62 1062.65 375.1C1063.17 375.58 1063.43 376.22 1063.43 377.02C1063.43 377.74 1063.17 378.34 1062.65 378.82C1062.13 379.3 1061.45 379.54 1060.61 379.54H1054.49V402.94C1054.49 403.86 1054.21 404.6 1053.65 405.16C1053.09 405.72 1052.31 406 1051.31 406ZM1082.61 406.24C1079.37 406.24 1076.51 405.54 1074.03 404.14C1071.55 402.7 1069.59 400.74 1068.15 398.26C1066.75 395.74 1066.05 392.86 1066.05 389.62C1066.05 386.34 1066.75 383.46 1068.15 380.98C1069.59 378.46 1071.55 376.5 1074.03 375.1C1076.51 373.66 1079.37 372.94 1082.61 372.94C1085.81 372.94 1088.65 373.66 1091.13 375.1C1093.61 376.5 1095.55 378.46 1096.95 380.98C1098.39 383.46 1099.11 386.34 1099.11 389.62C1099.11 392.86 1098.41 395.74 1097.01 398.26C1095.61 400.74 1093.67 402.7 1091.19 404.14C1088.71 405.54 1085.85 406.24 1082.61 406.24ZM1082.61 400.84C1084.69 400.84 1086.53 400.36 1088.13 399.4C1089.73 398.44 1090.97 397.12 1091.85 395.44C1092.77 393.76 1093.23 391.82 1093.23 389.62C1093.23 387.42 1092.77 385.48 1091.85 383.8C1090.97 382.08 1089.73 380.74 1088.13 379.78C1086.53 378.82 1084.69 378.34 1082.61 378.34C1080.53 378.34 1078.69 378.82 1077.09 379.78C1075.49 380.74 1074.23 382.08 1073.31 383.8C1072.39 385.48 1071.93 387.42 1071.93 389.62C1071.93 391.82 1072.39 393.76 1073.31 395.44C1074.23 397.12 1075.49 398.44 1077.09 399.4C1078.69 400.36 1080.53 400.84 1082.61 400.84ZM1110.31 406C1108.31 406 1107.31 405 1107.31 403V376.18C1107.31 374.18 1108.31 373.18 1110.31 373.18C1112.31 373.18 1113.31 374.18 1113.31 376.18V377.32C1114.51 375.92 1115.97 374.82 1117.69 374.02C1119.45 373.22 1121.35 372.82 1123.39 372.82C1125.79 372.82 1127.57 373.22 1128.73 374.02C1129.93 374.78 1130.39 375.7 1130.11 376.78C1129.91 377.62 1129.51 378.18 1128.91 378.46C1128.31 378.7 1127.61 378.74 1126.81 378.58C1124.25 378.06 1121.95 378.02 1119.91 378.46C1117.87 378.9 1116.25 379.72 1115.05 380.92C1113.89 382.12 1113.31 383.64 1113.31 385.48V403C1113.31 405 1112.31 406 1110.31 406ZM1166.07 406.3C1163.31 406.3 1160.83 405.72 1158.63 404.56C1156.47 403.36 1154.75 401.62 1153.47 399.34C1152.23 397.06 1151.61 394.26 1151.61 390.94V376.18C1151.61 375.3 1151.89 374.58 1152.45 374.02C1153.05 373.42 1153.79 373.12 1154.67 373.12C1155.55 373.12 1156.27 373.42 1156.83 374.02C1157.43 374.58 1157.73 375.3 1157.73 376.18V390.94C1157.73 394.34 1158.63 396.84 1160.43 398.44C1162.27 400 1164.55 400.78 1167.27 400.78C1168.99 400.78 1170.51 400.44 1171.83 399.76C1173.19 399.08 1174.27 398.16 1175.07 397C1175.87 395.84 1176.27 394.54 1176.27 393.1V376.18C1176.27 375.26 1176.55 374.52 1177.11 373.96C1177.71 373.4 1178.45 373.12 1179.33 373.12C1180.25 373.12 1180.99 373.4 1181.55 373.96C1182.11 374.52 1182.39 375.26 1182.39 376.18V402.94C1182.39 403.82 1182.11 404.56 1181.55 405.16C1180.99 405.72 1180.25 406 1179.33 406C1178.45 406 1177.71 405.72 1177.11 405.16C1176.55 404.56 1176.27 403.82 1176.27 402.94V402.28C1175.03 403.52 1173.53 404.5 1171.77 405.22C1170.01 405.94 1168.11 406.3 1166.07 406.3ZM1204.21 406.24C1201.41 406.24 1198.81 405.82 1196.41 404.98C1194.05 404.1 1192.21 403 1190.89 401.68C1190.29 401.04 1190.03 400.32 1190.11 399.52C1190.23 398.68 1190.63 398 1191.31 397.48C1192.11 396.84 1192.89 396.58 1193.65 396.7C1194.45 396.78 1195.13 397.12 1195.69 397.72C1196.37 398.48 1197.45 399.2 1198.93 399.88C1200.45 400.52 1202.13 400.84 1203.97 400.84C1206.29 400.84 1208.05 400.46 1209.25 399.7C1210.49 398.94 1211.13 397.96 1211.17 396.76C1211.21 395.56 1210.63 394.52 1209.43 393.64C1208.27 392.76 1206.13 392.04 1203.01 391.48C1198.97 390.68 1196.03 389.48 1194.19 387.88C1192.39 386.28 1191.49 384.32 1191.49 382C1191.49 379.96 1192.09 378.28 1193.29 376.96C1194.49 375.6 1196.03 374.6 1197.91 373.96C1199.79 373.28 1201.75 372.94 1203.79 372.94C1206.43 372.94 1208.77 373.36 1210.81 374.2C1212.85 375.04 1214.47 376.2 1215.67 377.68C1216.23 378.32 1216.49 379 1216.45 379.72C1216.41 380.4 1216.07 380.98 1215.43 381.46C1214.79 381.9 1214.03 382.04 1213.15 381.88C1212.27 381.72 1211.53 381.36 1210.93 380.8C1209.93 379.84 1208.85 379.18 1207.69 378.82C1206.53 378.46 1205.19 378.28 1203.67 378.28C1201.91 378.28 1200.41 378.58 1199.17 379.18C1197.97 379.78 1197.37 380.66 1197.37 381.82C1197.37 382.54 1197.55 383.2 1197.91 383.8C1198.31 384.36 1199.07 384.88 1200.19 385.36C1201.31 385.8 1202.95 386.24 1205.11 386.68C1209.63 387.56 1212.75 388.82 1214.47 390.46C1216.23 392.06 1217.11 394.04 1217.11 396.4C1217.11 398.24 1216.61 399.9 1215.61 401.38C1214.65 402.86 1213.21 404.04 1211.29 404.92C1209.41 405.8 1207.05 406.24 1204.21 406.24ZM1227.61 406C1226.73 406 1225.99 405.72 1225.39 405.16C1224.83 404.56 1224.55 403.82 1224.55 402.94V376.24C1224.55 375.32 1224.83 374.58 1225.39 374.02C1225.99 373.46 1226.73 373.18 1227.61 373.18C1228.53 373.18 1229.27 373.46 1229.83 374.02C1230.39 374.58 1230.67 375.32 1230.67 376.24V402.94C1230.67 403.82 1230.39 404.56 1229.83 405.16C1229.27 405.72 1228.53 406 1227.61 406ZM1227.61 367.84C1226.53 367.84 1225.59 367.46 1224.79 366.7C1224.03 365.9 1223.65 364.96 1223.65 363.88C1223.65 362.8 1224.03 361.88 1224.79 361.12C1225.59 360.32 1226.53 359.92 1227.61 359.92C1228.69 359.92 1229.61 360.32 1230.37 361.12C1231.17 361.88 1231.57 362.8 1231.57 363.88C1231.57 364.96 1231.17 365.9 1230.37 366.7C1229.61 367.46 1228.69 367.84 1227.61 367.84ZM1244.21 406.06C1243.33 406.06 1242.59 405.78 1241.99 405.22C1241.43 404.62 1241.15 403.88 1241.15 403V376.24C1241.15 375.32 1241.43 374.58 1241.99 374.02C1242.59 373.46 1243.33 373.18 1244.21 373.18C1245.13 373.18 1245.87 373.46 1246.43 374.02C1246.99 374.58 1247.27 375.32 1247.27 376.24V376.9C1248.51 375.66 1250.01 374.68 1251.77 373.96C1253.53 373.24 1255.43 372.88 1257.47 372.88C1260.23 372.88 1262.69 373.48 1264.85 374.68C1267.05 375.84 1268.77 377.56 1270.01 379.84C1271.29 382.12 1271.93 384.92 1271.93 388.24V403C1271.93 403.88 1271.63 404.62 1271.03 405.22C1270.47 405.78 1269.75 406.06 1268.87 406.06C1267.99 406.06 1267.25 405.78 1266.65 405.22C1266.09 404.62 1265.81 403.88 1265.81 403V388.24C1265.81 384.84 1264.89 382.36 1263.05 380.8C1261.25 379.2 1258.99 378.4 1256.27 378.4C1254.59 378.4 1253.07 378.74 1251.71 379.42C1250.35 380.1 1249.27 381.02 1248.47 382.18C1247.67 383.3 1247.27 384.6 1247.27 386.08V403C1247.27 403.88 1246.99 404.62 1246.43 405.22C1245.87 405.78 1245.13 406.06 1244.21 406.06ZM1294.83 406.24C1291.83 406.24 1289.17 405.54 1286.85 404.14C1284.57 402.7 1282.77 400.74 1281.45 398.26C1280.13 395.74 1279.47 392.86 1279.47 389.62C1279.47 386.34 1280.17 383.46 1281.57 380.98C1283.01 378.46 1284.97 376.5 1287.45 375.1C1289.93 373.66 1292.79 372.94 1296.03 372.94C1299.23 372.94 1302.07 373.66 1304.55 375.1C1307.03 376.5 1308.97 378.46 1310.37 380.98C1311.81 383.46 1312.53 386.34 1312.53 389.62V402.58C1312.53 405.74 1311.83 408.6 1310.43 411.16C1309.03 413.76 1307.07 415.82 1304.55 417.34C1302.07 418.86 1299.19 419.62 1295.91 419.62C1293.07 419.62 1290.41 419.06 1287.93 417.94C1285.45 416.82 1283.35 415.18 1281.63 413.02C1281.11 412.34 1280.91 411.64 1281.03 410.92C1281.19 410.2 1281.59 409.62 1282.23 409.18C1282.95 408.7 1283.69 408.54 1284.45 408.7C1285.25 408.86 1285.89 409.26 1286.37 409.9C1287.45 411.26 1288.81 412.32 1290.45 413.08C1292.09 413.84 1293.95 414.22 1296.03 414.22C1297.95 414.22 1299.71 413.76 1301.31 412.84C1302.95 411.92 1304.25 410.56 1305.21 408.76C1306.17 406.96 1306.65 404.76 1306.65 402.16V399.22C1305.41 401.38 1303.77 403.1 1301.73 404.38C1299.69 405.62 1297.39 406.24 1294.83 406.24ZM1296.03 400.84C1298.11 400.84 1299.95 400.36 1301.55 399.4C1303.15 398.44 1304.39 397.12 1305.27 395.44C1306.19 393.76 1306.65 391.82 1306.65 389.62C1306.65 387.42 1306.19 385.48 1305.27 383.8C1304.39 382.08 1303.15 380.74 1301.55 379.78C1299.95 378.82 1298.11 378.34 1296.03 378.34C1293.95 378.34 1292.11 378.82 1290.51 379.78C1288.91 380.74 1287.65 382.08 1286.73 383.8C1285.81 385.48 1285.35 387.42 1285.35 389.62C1285.35 391.82 1285.81 393.76 1286.73 395.44C1287.65 397.12 1288.91 398.44 1290.51 399.4C1292.11 400.36 1293.95 400.84 1296.03 400.84ZM1352.3 406.24C1349.06 406.24 1346.2 405.54 1343.72 404.14C1341.24 402.7 1339.28 400.74 1337.84 398.26C1336.44 395.74 1335.74 392.86 1335.74 389.62C1335.74 386.34 1336.44 383.46 1337.84 380.98C1339.28 378.46 1341.24 376.5 1343.72 375.1C1346.2 373.66 1349.06 372.94 1352.3 372.94C1355.5 372.94 1358.34 373.66 1360.82 375.1C1363.3 376.5 1365.24 378.46 1366.64 380.98C1368.08 383.46 1368.8 386.34 1368.8 389.62C1368.8 392.86 1368.1 395.74 1366.7 398.26C1365.3 400.74 1363.36 402.7 1360.88 404.14C1358.4 405.54 1355.54 406.24 1352.3 406.24ZM1352.3 400.84C1354.38 400.84 1356.22 400.36 1357.82 399.4C1359.42 398.44 1360.66 397.12 1361.54 395.44C1362.46 393.76 1362.92 391.82 1362.92 389.62C1362.92 387.42 1362.46 385.48 1361.54 383.8C1360.66 382.08 1359.42 380.74 1357.82 379.78C1356.22 378.82 1354.38 378.34 1352.3 378.34C1350.22 378.34 1348.38 378.82 1346.78 379.78C1345.18 380.74 1343.92 382.08 1343 383.8C1342.08 385.48 1341.62 387.42 1341.62 389.62C1341.62 391.82 1342.08 393.76 1343 395.44C1343.92 397.12 1345.18 398.44 1346.78 399.4C1348.38 400.36 1350.22 400.84 1352.3 400.84ZM1390.81 406.3C1388.05 406.3 1385.57 405.72 1383.37 404.56C1381.21 403.36 1379.49 401.62 1378.21 399.34C1376.97 397.06 1376.35 394.26 1376.35 390.94V376.18C1376.35 375.3 1376.63 374.58 1377.19 374.02C1377.79 373.42 1378.53 373.12 1379.41 373.12C1380.29 373.12 1381.01 373.42 1381.57 374.02C1382.17 374.58 1382.47 375.3 1382.47 376.18V390.94C1382.47 394.34 1383.37 396.84 1385.17 398.44C1387.01 400 1389.29 400.78 1392.01 400.78C1393.73 400.78 1395.25 400.44 1396.57 399.76C1397.93 399.08 1399.01 398.16 1399.81 397C1400.61 395.84 1401.01 394.54 1401.01 393.1V376.18C1401.01 375.26 1401.29 374.52 1401.85 373.96C1402.45 373.4 1403.19 373.12 1404.07 373.12C1404.99 373.12 1405.73 373.4 1406.29 373.96C1406.85 374.52 1407.13 375.26 1407.13 376.18V402.94C1407.13 403.82 1406.85 404.56 1406.29 405.16C1405.73 405.72 1404.99 406 1404.07 406C1403.19 406 1402.45 405.72 1401.85 405.16C1401.29 404.56 1401.01 403.82 1401.01 402.94V402.28C1399.77 403.52 1398.27 404.5 1396.51 405.22C1394.75 405.94 1392.85 406.3 1390.81 406.3ZM1420 406C1418 406 1417 405 1417 403V376.18C1417 374.18 1418 373.18 1420 373.18C1422 373.18 1423 374.18 1423 376.18V377.32C1424.2 375.92 1425.66 374.82 1427.38 374.02C1429.14 373.22 1431.04 372.82 1433.08 372.82C1435.48 372.82 1437.26 373.22 1438.42 374.02C1439.62 374.78 1440.08 375.7 1439.8 376.78C1439.6 377.62 1439.2 378.18 1438.6 378.46C1438 378.7 1437.3 378.74 1436.5 378.58C1433.94 378.06 1431.64 378.02 1429.6 378.46C1427.56 378.9 1425.94 379.72 1424.74 380.92C1423.58 382.12 1423 383.64 1423 385.48V403C1423 405 1422 406 1420 406ZM1473.9 406.24C1471.1 406.24 1468.5 405.82 1466.1 404.98C1463.74 404.1 1461.9 403 1460.58 401.68C1459.98 401.04 1459.72 400.32 1459.8 399.52C1459.92 398.68 1460.32 398 1461 397.48C1461.8 396.84 1462.58 396.58 1463.34 396.7C1464.14 396.78 1464.82 397.12 1465.38 397.72C1466.06 398.48 1467.14 399.2 1468.62 399.88C1470.14 400.52 1471.82 400.84 1473.66 400.84C1475.98 400.84 1477.74 400.46 1478.94 399.7C1480.18 398.94 1480.82 397.96 1480.86 396.76C1480.9 395.56 1480.32 394.52 1479.12 393.64C1477.96 392.76 1475.82 392.04 1472.7 391.48C1468.66 390.68 1465.72 389.48 1463.88 387.88C1462.08 386.28 1461.18 384.32 1461.18 382C1461.18 379.96 1461.78 378.28 1462.98 376.96C1464.18 375.6 1465.72 374.6 1467.6 373.96C1469.48 373.28 1471.44 372.94 1473.48 372.94C1476.12 372.94 1478.46 373.36 1480.5 374.2C1482.54 375.04 1484.16 376.2 1485.36 377.68C1485.92 378.32 1486.18 379 1486.14 379.72C1486.1 380.4 1485.76 380.98 1485.12 381.46C1484.48 381.9 1483.72 382.04 1482.84 381.88C1481.96 381.72 1481.22 381.36 1480.62 380.8C1479.62 379.84 1478.54 379.18 1477.38 378.82C1476.22 378.46 1474.88 378.28 1473.36 378.28C1471.6 378.28 1470.1 378.58 1468.86 379.18C1467.66 379.78 1467.06 380.66 1467.06 381.82C1467.06 382.54 1467.24 383.2 1467.6 383.8C1468 384.36 1468.76 384.88 1469.88 385.36C1471 385.8 1472.64 386.24 1474.8 386.68C1479.32 387.56 1482.44 388.82 1484.16 390.46C1485.92 392.06 1486.8 394.04 1486.8 396.4C1486.8 398.24 1486.3 399.9 1485.3 401.38C1484.34 402.86 1482.9 404.04 1480.98 404.92C1479.1 405.8 1476.74 406.24 1473.9 406.24ZM1499.52 420.4C1499.12 420.4 1498.64 420.28 1498.08 420.04C1496.32 419.24 1495.84 417.98 1496.64 416.26L1502.64 402.76L1489.14 377.14C1488.74 376.38 1488.68 375.66 1488.96 374.98C1489.28 374.26 1489.82 373.74 1490.58 373.42C1491.34 373.1 1492.06 373.08 1492.74 373.36C1493.42 373.6 1493.94 374.1 1494.3 374.86L1505.28 396.7L1514.94 374.92C1515.74 373.24 1517 372.76 1518.72 373.48C1520.52 374.24 1521.02 375.5 1520.22 377.26L1501.86 418.54C1501.38 419.78 1500.6 420.4 1499.52 420.4ZM1537.02 406.24C1534.22 406.24 1531.62 405.82 1529.22 404.98C1526.86 404.1 1525.02 403 1523.7 401.68C1523.1 401.04 1522.84 400.32 1522.92 399.52C1523.04 398.68 1523.44 398 1524.12 397.48C1524.92 396.84 1525.7 396.58 1526.46 396.7C1527.26 396.78 1527.94 397.12 1528.5 397.72C1529.18 398.48 1530.26 399.2 1531.74 399.88C1533.26 400.52 1534.94 400.84 1536.78 400.84C1539.1 400.84 1540.86 400.46 1542.06 399.7C1543.3 398.94 1543.94 397.96 1543.98 396.76C1544.02 395.56 1543.44 394.52 1542.24 393.64C1541.08 392.76 1538.94 392.04 1535.82 391.48C1531.78 390.68 1528.84 389.48 1527 387.88C1525.2 386.28 1524.3 384.32 1524.3 382C1524.3 379.96 1524.9 378.28 1526.1 376.96C1527.3 375.6 1528.84 374.6 1530.72 373.96C1532.6 373.28 1534.56 372.94 1536.6 372.94C1539.24 372.94 1541.58 373.36 1543.62 374.2C1545.66 375.04 1547.28 376.2 1548.48 377.68C1549.04 378.32 1549.3 379 1549.26 379.72C1549.22 380.4 1548.88 380.98 1548.24 381.46C1547.6 381.9 1546.84 382.04 1545.96 381.88C1545.08 381.72 1544.34 381.36 1543.74 380.8C1542.74 379.84 1541.66 379.18 1540.5 378.82C1539.34 378.46 1538 378.28 1536.48 378.28C1534.72 378.28 1533.22 378.58 1531.98 379.18C1530.78 379.78 1530.18 380.66 1530.18 381.82C1530.18 382.54 1530.36 383.2 1530.72 383.8C1531.12 384.36 1531.88 384.88 1533 385.36C1534.12 385.8 1535.76 386.24 1537.92 386.68C1542.44 387.56 1545.56 388.82 1547.28 390.46C1549.04 392.06 1549.92 394.04 1549.92 396.4C1549.92 398.24 1549.42 399.9 1548.42 401.38C1547.46 402.86 1546.02 404.04 1544.1 404.92C1542.22 405.8 1539.86 406.24 1537.02 406.24ZM1568.7 406C1566.7 406 1564.9 405.5 1563.3 404.5C1561.7 403.46 1560.44 402.06 1559.52 400.3C1558.6 398.54 1558.14 396.56 1558.14 394.36V379.54H1555.38C1554.54 379.54 1553.86 379.3 1553.34 378.82C1552.82 378.34 1552.56 377.74 1552.56 377.02C1552.56 376.22 1552.82 375.58 1553.34 375.1C1553.86 374.62 1554.54 374.38 1555.38 374.38H1558.14V365.74C1558.14 364.86 1558.42 364.14 1558.98 363.58C1559.54 363.02 1560.26 362.74 1561.14 362.74C1562.02 362.74 1562.74 363.02 1563.3 363.58C1563.86 364.14 1564.14 364.86 1564.14 365.74V374.38H1569.24C1570.08 374.38 1570.76 374.62 1571.28 375.1C1571.8 375.58 1572.06 376.22 1572.06 377.02C1572.06 377.74 1571.8 378.34 1571.28 378.82C1570.76 379.3 1570.08 379.54 1569.24 379.54H1564.14V394.36C1564.14 395.96 1564.58 397.3 1565.46 398.38C1566.34 399.46 1567.42 400 1568.7 400H1570.74C1571.46 400 1572.06 400.28 1572.54 400.84C1573.06 401.4 1573.32 402.12 1573.32 403C1573.32 403.88 1572.98 404.6 1572.3 405.16C1571.66 405.72 1570.82 406 1569.78 406H1568.7ZM1595.36 406.24C1592.04 406.24 1589.08 405.54 1586.48 404.14C1583.92 402.7 1581.9 400.74 1580.42 398.26C1578.98 395.74 1578.26 392.86 1578.26 389.62C1578.26 386.34 1578.94 383.46 1580.3 380.98C1581.7 378.46 1583.62 376.5 1586.06 375.1C1588.5 373.66 1591.3 372.94 1594.46 372.94C1597.58 372.94 1600.26 373.64 1602.5 375.04C1604.74 376.4 1606.44 378.3 1607.6 380.74C1608.8 383.14 1609.4 385.92 1609.4 389.08C1609.4 389.84 1609.14 390.48 1608.62 391C1608.1 391.48 1607.44 391.72 1606.64 391.72H1583.84C1584.28 394.48 1585.54 396.74 1587.62 398.5C1589.74 400.22 1592.32 401.08 1595.36 401.08C1596.6 401.08 1597.86 400.86 1599.14 400.42C1600.46 399.94 1601.52 399.4 1602.32 398.8C1602.92 398.36 1603.56 398.14 1604.24 398.14C1604.96 398.1 1605.58 398.3 1606.1 398.74C1606.78 399.34 1607.14 400 1607.18 400.72C1607.22 401.44 1606.9 402.06 1606.22 402.58C1604.86 403.66 1603.16 404.54 1601.12 405.22C1599.12 405.9 1597.2 406.24 1595.36 406.24ZM1594.46 378.1C1591.5 378.1 1589.12 378.92 1587.32 380.56C1585.52 382.2 1584.38 384.32 1583.9 386.92H1603.88C1603.52 384.36 1602.54 382.26 1600.94 380.62C1599.34 378.94 1597.18 378.1 1594.46 378.1ZM1619.37 406.06C1618.49 406.06 1617.75 405.78 1617.15 405.22C1616.59 404.62 1616.31 403.88 1616.31 403V376.3C1616.31 375.38 1616.59 374.64 1617.15 374.08C1617.75 373.52 1618.49 373.24 1619.37 373.24C1620.29 373.24 1621.03 373.52 1621.59 374.08C1622.15 374.64 1622.43 375.34 1622.43 376.18C1623.47 375.14 1624.71 374.34 1626.15 373.78C1627.59 373.18 1629.15 372.88 1630.83 372.88C1635.03 372.88 1638.19 374.46 1640.31 377.62C1641.47 376.14 1642.95 374.98 1644.75 374.14C1646.55 373.3 1648.57 372.88 1650.81 372.88C1654.25 372.88 1657.05 374 1659.21 376.24C1661.37 378.48 1662.45 381.68 1662.45 385.84V403C1662.45 403.88 1662.17 404.62 1661.61 405.22C1661.05 405.78 1660.31 406.06 1659.39 406.06C1658.51 406.06 1657.77 405.78 1657.17 405.22C1656.61 404.62 1656.33 403.88 1656.33 403V385.84C1656.33 383.32 1655.71 381.46 1654.47 380.26C1653.23 379.02 1651.61 378.4 1649.61 378.4C1647.53 378.4 1645.81 379.12 1644.45 380.56C1643.13 382 1642.47 383.84 1642.47 386.08V403C1642.47 403.88 1642.19 404.62 1641.63 405.22C1641.07 405.78 1640.33 406.06 1639.41 406.06C1638.53 406.06 1637.79 405.78 1637.19 405.22C1636.63 404.62 1636.35 403.88 1636.35 403V385.84C1636.35 383.32 1635.73 381.46 1634.49 380.26C1633.25 379.02 1631.63 378.4 1629.63 378.4C1627.55 378.4 1625.83 379.12 1624.47 380.56C1623.11 382 1622.43 383.84 1622.43 386.08V403C1622.43 403.88 1622.15 404.62 1621.59 405.22C1621.03 405.78 1620.29 406.06 1619.37 406.06ZM1673.46 406.96C1672.34 406.96 1671.36 406.56 1670.52 405.76C1669.72 404.92 1669.32 403.94 1669.32 402.82C1669.32 401.66 1669.72 400.68 1670.52 399.88C1671.36 399.04 1672.34 398.62 1673.46 398.62C1674.62 398.62 1675.6 399.04 1676.4 399.88C1677.2 400.68 1677.6 401.66 1677.6 402.82C1677.6 403.94 1677.2 404.92 1676.4 405.76C1675.6 406.56 1674.62 406.96 1673.46 406.96Z" fill="black"/>
</g>
<defs>
<filter id="filter0_ddd" x="819.5" y="572.5" width="327" height="125" filterUnits="userSpaceOnUse" color-interpolation-filters="sRGB">
<feFlood flood-opacity="0" result="BackgroundImageFix"/>
<feColorMatrix in="SourceAlpha" type="matrix" values="0 0 0 0 0 0 0 0 0 0 0 0 0 0 0 0 0 0 127 0"/>
<feOffset dy="4"/>
<feGaussianBlur stdDeviation="2"/>
<feColorMatrix type="matrix" values="0 0 0 0 0 0 0 0 0 0 0 0 0 0 0 0 0 0 0.25 0"/>
<feBlend mode="normal" in2="BackgroundImageFix" result="effect1_dropShadow"/>
<feColorMatrix in="SourceAlpha" type="matrix" values="0 0 0 0 0 0 0 0 0 0 0 0 0 0 0 0 0 0 127 0"/>
<feOffset dy="4"/>
<feGaussianBlur stdDeviation="2"/>
<feColorMatrix type="matrix" values="0 0 0 0 0 0 0 0 0 0 0 0 0 0 0 0 0 0 0.25 0"/>
<feBlend mode="normal" in2="effect1_dropShadow" result="effect2_dropShadow"/>
<feColorMatrix in="SourceAlpha" type="matrix" values="0 0 0 0 0 0 0 0 0 0 0 0 0 0 0 0 0 0 127 0"/>
<feOffset dy="4"/>
<feGaussianBlur stdDeviation="2"/>
<feColorMatrix type="matrix" values="0 0 0 0 0 0 0 0 0 0 0 0 0 0 0 0 0 0 0.25 0"/>
<feBlend mode="normal" in2="effect2_dropShadow" result="effect3_dropShadow"/>
<feBlend mode="normal" in="SourceGraphic" in2="effect3_dropShadow" result="shape"/>
</filter>
<filter id="filter1_dd" x="874.3" y="608.077" width="223.324" height="61.954" filterUnits="userSpaceOnUse" color-interpolation-filters="sRGB">
<feFlood flood-opacity="0" result="BackgroundImageFix"/>
<feColorMatrix in="SourceAlpha" type="matrix" values="0 0 0 0 0 0 0 0 0 0 0 0 0 0 0 0 0 0 127 0"/>
<feOffset dy="4"/>
<feGaussianBlur stdDeviation="2"/>
<feColorMatrix type="matrix" values="0 0 0 0 0 0 0 0 0 0 0 0 0 0 0 0 0 0 0.25 0"/>
<feBlend mode="normal" in2="BackgroundImageFix" result="effect1_dropShadow"/>
<feColorMatrix in="SourceAlpha" type="matrix" values="0 0 0 0 0 0 0 0 0 0 0 0 0 0 0 0 0 0 127 0"/>
<feOffset dy="4"/>
<feGaussianBlur stdDeviation="2"/>
<feColorMatrix type="matrix" values="0 0 0 0 0 0 0 0 0 0 0 0 0 0 0 0 0 0 0.25 0"/>
<feBlend mode="normal" in2="effect1_dropShadow" result="effect2_dropShadow"/>
<feBlend mode="normal" in="SourceGraphic" in2="effect2_dropShadow" result="shape"/>
</filter>
<filter id="filter2_dd" x="183" y="359.14" width="1498.6" height="69.26" filterUnits="userSpaceOnUse" color-interpolation-filters="sRGB">
<feFlood flood-opacity="0" result="BackgroundImageFix"/>
<feColorMatrix in="SourceAlpha" type="matrix" values="0 0 0 0 0 0 0 0 0 0 0 0 0 0 0 0 0 0 127 0"/>
<feOffset dy="4"/>
<feGaussianBlur stdDeviation="2"/>
<feColorMatrix type="matrix" values="0 0 0 0 0 0 0 0 0 0 0 0 0 0 0 0 0 0 0.25 0"/>
<feBlend mode="normal" in2="BackgroundImageFix" result="effect1_dropShadow"/>
<feColorMatrix in="SourceAlpha" type="matrix" values="0 0 0 0 0 0 0 0 0 0 0 0 0 0 0 0 0 0 127 0"/>
<feOffset dy="4"/>
<feGaussianBlur stdDeviation="2"/>
<feColorMatrix type="matrix" values="0 0 0 0 0 0 0 0 0 0 0 0 0 0 0 0 0 0 0.25 0"/>
<feBlend mode="normal" in2="effect1_dropShadow" result="effect2_dropShadow"/>
<feBlend mode="normal" in="SourceGraphic" in2="effect2_dropShadow" result="shape"/>
</filter>
<linearGradient id="paint0_linear" x1="983" y1="574" x2="983" y2="688" gradientUnits="userSpaceOnUse">
<stop stop-color="white"/>
<stop offset="1" stop-color="white" stop-opacity="0"/>
</linearGradient>
</defs>
</svg>
