<svg width="590" height="185" viewBox="0 0 590 185" fill="none" xmlns="http://www.w3.org/2000/svg">
<g filter="url(#filter0_ddd)">
<path d="M6 34H322V148H6V34Z" fill="#F1D793"/>
<path d="M6 34H322V148H6V34Z" stroke="black" stroke-width="3" stroke-linecap="round" stroke-linejoin="round"/>
<path d="M6 34H322V148H6V34Z" stroke="url(#paint0_linear)" stroke-width="3" stroke-linecap="round" stroke-linejoin="round"/>
</g>
<g filter="url(#filter1_dd)">
<path d="M76.05 109.49C73.404 109.49 70.9213 109 68.602 108.02C66.3153 107.007 64.3063 105.619 62.575 103.855C60.8763 102.058 59.537 99.9677 58.557 97.583C57.6097 95.1983 57.136 92.6177 57.136 89.841C57.136 87.097 57.6097 84.549 58.557 82.197C59.537 79.8123 60.8763 77.738 62.575 75.974C64.3063 74.1773 66.3153 72.7727 68.602 71.76C70.8887 70.7473 73.3713 70.241 76.05 70.241C78.5653 70.241 80.7213 70.5677 82.518 71.221C84.3473 71.8743 86.1767 72.9523 88.006 74.455C88.398 74.7817 88.6593 75.092 88.79 75.386C88.9207 75.68 88.986 76.0393 88.986 76.464C88.986 77.0847 88.7573 77.6073 88.3 78.032C87.8753 78.4567 87.3363 78.6853 86.683 78.718C86.0623 78.7507 85.4743 78.5383 84.919 78.081C83.7103 77.0357 82.4527 76.2353 81.146 75.68C79.872 75.1247 78.1733 74.847 76.05 74.847C74.1227 74.847 72.3097 75.239 70.611 76.023C68.9123 76.807 67.4097 77.885 66.103 79.257C64.829 80.629 63.8327 82.2297 63.114 84.059C62.3953 85.8557 62.036 87.783 62.036 89.841C62.036 91.9317 62.3953 93.8917 63.114 95.721C63.8327 97.5177 64.829 99.102 66.103 100.474C67.4097 101.846 68.9123 102.924 70.611 103.708C72.3097 104.459 74.1227 104.835 76.05 104.835C77.4873 104.835 78.8593 104.623 80.166 104.198C81.4727 103.773 82.7303 103.169 83.939 102.385V93.663H77.177C76.4583 93.663 75.854 93.4507 75.364 93.026C74.874 92.6013 74.629 92.0623 74.629 91.409C74.629 90.7557 74.874 90.2167 75.364 89.792C75.854 89.3673 76.4583 89.155 77.177 89.155H86.34C87.0913 89.155 87.6957 89.4 88.153 89.89C88.6103 90.3473 88.839 90.9517 88.839 91.703V103.414C88.839 103.741 88.7737 104.067 88.643 104.394C88.545 104.688 88.349 104.966 88.055 105.227C86.3237 106.664 84.4453 107.742 82.42 108.461C80.3947 109.147 78.2713 109.49 76.05 109.49ZM105.955 109.196C103.309 109.196 100.973 108.624 98.9479 107.481C96.9226 106.305 95.3219 104.704 94.1459 102.679C93.0026 100.621 92.4309 98.269 92.4309 95.623C92.4309 92.9443 93.0026 90.5923 94.1459 88.567C95.3219 86.509 96.9226 84.9083 98.9479 83.765C100.973 82.589 103.309 82.001 105.955 82.001C108.568 82.001 110.888 82.589 112.913 83.765C114.938 84.9083 116.523 86.509 117.666 88.567C118.842 90.5923 119.43 92.9443 119.43 95.623C119.43 98.269 118.858 100.621 117.715 102.679C116.572 104.704 114.987 106.305 112.962 107.481C110.937 108.624 108.601 109.196 105.955 109.196ZM105.955 104.786C107.654 104.786 109.156 104.394 110.463 103.61C111.77 102.826 112.782 101.748 113.501 100.376C114.252 99.004 114.628 97.4197 114.628 95.623C114.628 93.8263 114.252 92.242 113.501 90.87C112.782 89.4653 111.77 88.371 110.463 87.587C109.156 86.803 107.654 86.411 105.955 86.411C104.256 86.411 102.754 86.803 101.447 87.587C100.14 88.371 99.1113 89.4653 98.3599 90.87C97.6086 92.242 97.2329 93.8263 97.2329 95.623C97.2329 97.4197 97.6086 99.004 98.3599 100.376C99.1113 101.748 100.14 102.826 101.447 103.61C102.754 104.394 104.256 104.786 105.955 104.786ZM142.792 109C142.073 109 141.469 108.755 140.979 108.265C140.489 107.775 140.244 107.171 140.244 106.452V73.279C140.244 72.5277 140.489 71.9233 140.979 71.466C141.469 70.976 142.073 70.731 142.792 70.731H154.503C156.724 70.731 158.668 71.172 160.334 72.054C162.032 72.9033 163.355 74.0957 164.303 75.631C165.283 77.1663 165.773 78.9303 165.773 80.923C165.773 82.5237 165.332 83.9773 164.45 85.284C163.6 86.558 162.424 87.5707 160.922 88.322C163.078 88.8447 164.809 89.8737 166.116 91.409C167.422 92.9443 168.076 94.9533 168.076 97.436C168.076 99.69 167.537 101.683 166.459 103.414C165.413 105.145 163.943 106.517 162.049 107.53C160.154 108.51 157.982 109 155.532 109H142.792ZM145.34 86.46H154.503C156.365 86.46 157.884 86.0027 159.06 85.088C160.268 84.1733 160.873 82.785 160.873 80.923C160.873 79.061 160.268 77.689 159.06 76.807C157.884 75.8923 156.365 75.435 154.503 75.435H145.34V86.46ZM145.34 104.296H155.532C157.753 104.296 159.582 103.724 161.02 102.581C162.457 101.405 163.176 99.69 163.176 97.436C163.176 95.3453 162.457 93.7773 161.02 92.732C159.582 91.6867 157.753 91.164 155.532 91.164H145.34V104.296ZM185.601 109.196C183.216 109.196 181.077 108.608 179.182 107.432C177.287 106.223 175.785 104.606 174.674 102.581C173.596 100.523 173.057 98.2037 173.057 95.623C173.057 93.0423 173.645 90.723 174.821 88.665C176.03 86.607 177.647 84.99 179.672 83.814C181.73 82.6053 184.033 82.001 186.581 82.001C189.129 82.001 191.416 82.6053 193.441 83.814C195.466 84.99 197.067 86.607 198.243 88.665C199.452 90.723 200.056 93.0423 200.056 95.623V106.55C200.056 107.269 199.811 107.873 199.321 108.363C198.864 108.82 198.276 109.049 197.557 109.049C196.838 109.049 196.234 108.82 195.744 108.363C195.287 107.873 195.058 107.269 195.058 106.55V104.737C193.915 106.109 192.526 107.203 190.893 108.02C189.292 108.804 187.528 109.196 185.601 109.196ZM186.581 104.786C188.247 104.786 189.733 104.394 191.04 103.61C192.347 102.793 193.376 101.699 194.127 100.327C194.878 98.9223 195.254 97.3543 195.254 95.623C195.254 93.859 194.878 92.291 194.127 90.919C193.376 89.5143 192.347 88.42 191.04 87.636C189.733 86.8193 188.247 86.411 186.581 86.411C184.948 86.411 183.461 86.8193 182.122 87.636C180.815 88.42 179.77 89.5143 178.986 90.919C178.235 92.291 177.859 93.859 177.859 95.623C177.859 97.3543 178.235 98.9223 178.986 100.327C179.77 101.699 180.815 102.793 182.122 103.61C183.461 104.394 184.948 104.786 186.581 104.786ZM218.911 109.196C216.298 109.196 213.962 108.608 211.904 107.432C209.879 106.223 208.278 104.606 207.102 102.581C205.959 100.523 205.387 98.2037 205.387 95.623C205.387 92.977 205.959 90.625 207.102 88.567C208.246 86.509 209.814 84.9083 211.806 83.765C213.799 82.589 216.086 82.001 218.666 82.001C222.521 82.001 225.722 83.471 228.27 86.411C228.728 86.9337 228.891 87.4727 228.76 88.028C228.63 88.5833 228.27 89.0733 227.682 89.498C227.225 89.8247 226.719 89.939 226.163 89.841C225.608 89.7103 225.102 89.4163 224.644 88.959C223.044 87.2603 221.051 86.411 218.666 86.411C216.151 86.411 214.109 87.2603 212.541 88.959C210.973 90.625 210.189 92.8463 210.189 95.623C210.189 97.387 210.549 98.955 211.267 100.327C212.019 101.699 213.048 102.793 214.354 103.61C215.661 104.394 217.18 104.786 218.911 104.786C221.133 104.786 222.929 104.214 224.301 103.071C224.824 102.646 225.363 102.418 225.918 102.385C226.474 102.32 226.964 102.467 227.388 102.826C227.944 103.283 228.254 103.806 228.319 104.394C228.385 104.949 228.189 105.456 227.731 105.913C225.379 108.102 222.439 109.196 218.911 109.196ZM237.854 109C237.135 109 236.547 108.788 236.09 108.363C235.665 107.906 235.453 107.318 235.453 106.599V73.132C235.453 72.4133 235.665 71.8417 236.09 71.417C236.547 70.9597 237.135 70.731 237.854 70.731C238.573 70.731 239.144 70.9597 239.569 71.417C240.026 71.8417 240.255 72.4133 240.255 73.132V93.075L252.162 82.442C252.652 81.9847 253.191 81.7723 253.779 81.805C254.4 81.8377 254.922 82.099 255.347 82.589C255.804 83.079 256.017 83.618 255.984 84.206C255.951 84.794 255.69 85.3167 255.2 85.774L246.184 93.81L255.69 105.472C256.115 105.995 256.294 106.566 256.229 107.187C256.196 107.775 255.902 108.298 255.347 108.755C254.824 109.18 254.236 109.359 253.583 109.294C252.962 109.261 252.44 108.984 252.015 108.461L242.705 96.946L240.255 99.102V106.599C240.255 107.318 240.026 107.906 239.569 108.363C239.144 108.788 238.573 109 237.854 109Z" fill="#141313"/>
</g>
<defs>
<filter id="filter0_ddd" x="0.5" y="32.5" width="327" height="125" filterUnits="userSpaceOnUse" color-interpolation-filters="sRGB">
<feFlood flood-opacity="0" result="BackgroundImageFix"/>
<feColorMatrix in="SourceAlpha" type="matrix" values="0 0 0 0 0 0 0 0 0 0 0 0 0 0 0 0 0 0 127 0"/>
<feOffset dy="4"/>
<feGaussianBlur stdDeviation="2"/>
<feColorMatrix type="matrix" values="0 0 0 0 0 0 0 0 0 0 0 0 0 0 0 0 0 0 0.25 0"/>
<feBlend mode="normal" in2="BackgroundImageFix" result="effect1_dropShadow"/>
<feColorMatrix in="SourceAlpha" type="matrix" values="0 0 0 0 0 0 0 0 0 0 0 0 0 0 0 0 0 0 127 0"/>
<feOffset dy="4"/>
<feGaussianBlur stdDeviation="2"/>
<feColorMatrix type="matrix" values="0 0 0 0 0 0 0 0 0 0 0 0 0 0 0 0 0 0 0.25 0"/>
<feBlend mode="normal" in2="effect1_dropShadow" result="effect2_dropShadow"/>
<feColorMatrix in="SourceAlpha" type="matrix" values="0 0 0 0 0 0 0 0 0 0 0 0 0 0 0 0 0 0 127 0"/>
<feOffset dy="4"/>
<feGaussianBlur stdDeviation="2"/>
<feColorMatrix type="matrix" values="0 0 0 0 0 0 0 0 0 0 0 0 0 0 0 0 0 0 0.25 0"/>
<feBlend mode="normal" in2="effect2_dropShadow" result="effect3_dropShadow"/>
<feBlend mode="normal" in="SourceGraphic" in2="effect3_dropShadow" result="shape"/>
</filter>
<filter id="filter1_dd" x="53.1357" y="70.2412" width="207.106" height="47.249" filterUnits="userSpaceOnUse" color-interpolation-filters="sRGB">
<feFlood flood-opacity="0" result="BackgroundImageFix"/>
<feColorMatrix in="SourceAlpha" type="matrix" values="0 0 0 0 0 0 0 0 0 0 0 0 0 0 0 0 0 0 127 0"/>
<feOffset dy="4"/>
<feGaussianBlur stdDeviation="2"/>
<feColorMatrix type="matrix" values="0 0 0 0 0 0 0 0 0 0 0 0 0 0 0 0 0 0 0.25 0"/>
<feBlend mode="normal" in2="BackgroundImageFix" result="effect1_dropShadow"/>
<feColorMatrix in="SourceAlpha" type="matrix" values="0 0 0 0 0 0 0 0 0 0 0 0 0 0 0 0 0 0 127 0"/>
<feOffset dy="4"/>
<feGaussianBlur stdDeviation="2"/>
<feColorMatrix type="matrix" values="0 0 0 0 0 0 0 0 0 0 0 0 0 0 0 0 0 0 0.25 0"/>
<feBlend mode="normal" in2="effect1_dropShadow" result="effect2_dropShadow"/>
<feBlend mode="normal" in="SourceGraphic" in2="effect2_dropShadow" result="shape"/>
</filter>
<linearGradient id="paint0_linear" x1="164" y1="34" x2="164" y2="148" gradientUnits="userSpaceOnUse">
<stop stop-color="white"/>
<stop offset="1" stop-color="white" stop-opacity="0"/>
</linearGradient>
</defs>
</svg>
