<svg width="590" height="185" viewBox="0 0 590 185" fill="none" xmlns="http://www.w3.org/2000/svg">
<g filter="url(#filter0_ddd)">
<path d="M6 34H322V148H6V34Z" fill="#F1D793"/>
<path d="M6 34H322V148H6V34Z" stroke="black" stroke-width="3" stroke-linecap="round" stroke-linejoin="round"/>
<path d="M6 34H322V148H6V34Z" stroke="url(#paint0_linear)" stroke-width="3" stroke-linecap="round" stroke-linejoin="round"/>
</g>
<g filter="url(#filter1_dd)">
<path d="M61.144 108C60.4547 108 59.875 107.765 59.405 107.295C58.935 106.825 58.7 106.245 58.7 105.556V73.737C58.7 73.0163 58.935 72.4367 59.405 71.998C59.875 71.528 60.4547 71.293 61.144 71.293C61.8647 71.293 62.4443 71.528 62.883 71.998C63.353 72.4367 63.588 73.0163 63.588 73.737V105.556C63.588 106.245 63.353 106.825 62.883 107.295C62.4443 107.765 61.8647 108 61.144 108ZM68.9324 84.406C68.4311 84.406 68.0394 84.1867 67.7574 83.748C67.5067 83.278 67.4911 82.7923 67.7104 82.291C68.2744 81.0063 68.6191 79.9567 68.7444 79.142C68.8697 78.3273 68.8697 77.6223 68.7444 77.027C68.6504 76.4317 68.5251 75.8677 68.3684 75.335C68.2117 74.771 68.1334 74.1443 68.1334 73.455C68.1334 72.6403 68.4154 71.9667 68.9794 71.434C69.5434 70.9013 70.2171 70.635 71.0004 70.635C71.9717 70.635 72.7237 71.0423 73.2564 71.857C73.7891 72.6717 74.0554 73.69 74.0554 74.912C74.0554 75.7267 73.8831 76.6667 73.5384 77.732C73.1937 78.7973 72.7551 79.847 72.2224 80.881C71.7211 81.8837 71.1727 82.7297 70.5774 83.419C69.9821 84.077 69.4337 84.406 68.9324 84.406ZM82.3498 108.047C81.6605 108.047 81.0808 107.828 80.6108 107.389C80.1721 106.919 79.9528 106.339 79.9528 105.65V84.735C79.9528 84.0143 80.1721 83.4347 80.6108 82.996C81.0808 82.5573 81.6605 82.338 82.3498 82.338C83.0705 82.338 83.6501 82.5573 84.0888 82.996C84.5275 83.4347 84.7468 83.983 84.7468 84.641C85.5615 83.8263 86.5328 83.1997 87.6608 82.761C88.7888 82.291 90.0108 82.056 91.3268 82.056C94.6168 82.056 97.0921 83.2937 98.7528 85.769C99.6615 84.6097 100.821 83.701 102.231 83.043C103.641 82.385 105.223 82.056 106.978 82.056C109.672 82.056 111.866 82.9333 113.558 84.688C115.25 86.4427 116.096 88.9493 116.096 92.208V105.65C116.096 106.339 115.876 106.919 115.438 107.389C114.999 107.828 114.419 108.047 113.699 108.047C113.009 108.047 112.43 107.828 111.96 107.389C111.521 106.919 111.302 106.339 111.302 105.65V92.208C111.302 90.234 110.816 88.777 109.845 87.837C108.873 86.8657 107.604 86.38 106.038 86.38C104.408 86.38 103.061 86.944 101.996 88.072C100.962 89.2 100.445 90.6413 100.445 92.396V105.65C100.445 106.339 100.225 106.919 99.7868 107.389C99.3481 107.828 98.7685 108.047 98.0478 108.047C97.3585 108.047 96.7788 107.828 96.3088 107.389C95.8701 106.919 95.6508 106.339 95.6508 105.65V92.208C95.6508 90.234 95.1651 88.777 94.1938 87.837C93.2225 86.8657 91.9535 86.38 90.3868 86.38C88.7575 86.38 87.4101 86.944 86.3448 88.072C85.2795 89.2 84.7468 90.6413 84.7468 92.396V105.65C84.7468 106.339 84.5275 106.919 84.0888 107.389C83.6501 107.828 83.0705 108.047 82.3498 108.047ZM139.335 108C138.645 108 138.066 107.765 137.596 107.295C137.126 106.825 136.891 106.245 136.891 105.556V73.737C136.891 73.0163 137.126 72.4367 137.596 71.998C138.066 71.528 138.645 71.293 139.335 71.293H147.795C150.145 71.293 152.228 71.7943 154.046 72.797C155.863 73.7683 157.273 75.1157 158.276 76.839C159.31 78.5623 159.827 80.5677 159.827 82.855C159.827 85.111 159.263 87.1007 158.135 88.824C157.007 90.516 155.471 91.8007 153.529 92.678L160.72 104.24C161.284 105.149 161.362 106.01 160.955 106.825C160.547 107.608 159.842 108 158.84 108C157.931 108 157.226 107.608 156.725 106.825L148.641 93.853C148.359 93.853 148.077 93.853 147.795 93.853H141.779V105.556C141.779 106.245 141.544 106.825 141.074 107.295C140.635 107.765 140.055 108 139.335 108ZM141.779 89.341H147.795C149.925 89.341 151.68 88.7457 153.059 87.555C154.437 86.333 155.127 84.7663 155.127 82.855C155.127 80.787 154.437 79.095 153.059 77.779C151.68 76.463 149.925 75.805 147.795 75.805H141.779V89.341ZM177.491 108.188C174.89 108.188 172.572 107.64 170.535 106.543C168.53 105.415 166.947 103.88 165.788 101.937C164.66 99.963 164.096 97.707 164.096 95.169C164.096 92.5997 164.629 90.3437 165.694 88.401C166.791 86.427 168.295 84.8917 170.206 83.795C172.117 82.667 174.311 82.103 176.786 82.103C179.23 82.103 181.329 82.6513 183.084 83.748C184.839 84.8133 186.17 86.3017 187.079 88.213C188.019 90.093 188.489 92.2707 188.489 94.746C188.489 95.3413 188.285 95.8427 187.878 96.25C187.471 96.626 186.954 96.814 186.327 96.814H168.467C168.812 98.976 169.799 100.746 171.428 102.125C173.089 103.472 175.11 104.146 177.491 104.146C178.462 104.146 179.449 103.974 180.452 103.629C181.486 103.253 182.316 102.83 182.943 102.36C183.413 102.015 183.914 101.843 184.447 101.843C185.011 101.812 185.497 101.968 185.904 102.313C186.437 102.783 186.719 103.3 186.75 103.864C186.781 104.428 186.531 104.914 185.998 105.321C184.933 106.167 183.601 106.856 182.003 107.389C180.436 107.922 178.932 108.188 177.491 108.188ZM176.786 86.145C174.467 86.145 172.603 86.7873 171.193 88.072C169.783 89.3567 168.89 91.0173 168.514 93.054H184.165C183.883 91.0487 183.115 89.4037 181.862 88.119C180.609 86.803 178.917 86.145 176.786 86.145ZM203.696 108.188C201.409 108.188 199.357 107.624 197.539 106.496C195.722 105.337 194.281 103.786 193.215 101.843C192.181 99.869 191.664 97.6443 191.664 95.169C191.664 92.6937 192.228 90.469 193.356 88.495C194.516 86.521 196.067 84.97 198.009 83.842C199.983 82.6827 202.192 82.103 204.636 82.103C207.08 82.103 209.274 82.6827 211.216 83.842C213.159 84.97 214.694 86.521 215.822 88.495C216.982 90.469 217.561 92.6937 217.561 95.169V105.65C217.561 106.339 217.326 106.919 216.856 107.389C216.418 107.828 215.854 108.047 215.164 108.047C214.475 108.047 213.895 107.828 213.425 107.389C212.987 106.919 212.767 106.339 212.767 105.65V103.911C211.671 105.227 210.339 106.277 208.772 107.06C207.237 107.812 205.545 108.188 203.696 108.188ZM204.636 103.958C206.234 103.958 207.66 103.582 208.913 102.83C210.167 102.047 211.154 100.997 211.874 99.681C212.595 98.3337 212.955 96.8297 212.955 95.169C212.955 93.477 212.595 91.973 211.874 90.657C211.154 89.3097 210.167 88.26 208.913 87.508C207.66 86.7247 206.234 86.333 204.636 86.333C203.07 86.333 201.644 86.7247 200.359 87.508C199.106 88.26 198.103 89.3097 197.351 90.657C196.631 91.973 196.27 93.477 196.27 95.169C196.27 96.8297 196.631 98.3337 197.351 99.681C198.103 100.997 199.106 102.047 200.359 102.83C201.644 103.582 203.07 103.958 204.636 103.958ZM235.647 108.188C233.203 108.188 230.994 107.624 229.02 106.496C227.078 105.337 225.527 103.77 224.367 101.796C223.239 99.822 222.675 97.5973 222.675 95.122C222.675 92.6467 223.192 90.4377 224.226 88.495C225.292 86.521 226.733 84.97 228.55 83.842C230.368 82.6827 232.42 82.103 234.707 82.103C236.556 82.103 238.264 82.4947 239.83 83.278C241.397 84.03 242.713 85.064 243.778 86.38V73.69C243.778 72.9693 243.998 72.3897 244.436 71.951C244.906 71.5123 245.486 71.293 246.175 71.293C246.896 71.293 247.476 71.5123 247.914 71.951C248.353 72.3897 248.572 72.9693 248.572 73.69V95.122C248.572 97.5973 247.993 99.822 246.833 101.796C245.705 103.77 244.17 105.337 242.227 106.496C240.285 107.624 238.091 108.188 235.647 108.188ZM235.647 103.958C237.245 103.958 238.671 103.582 239.924 102.83C241.178 102.047 242.165 100.981 242.885 99.634C243.606 98.2867 243.966 96.7827 243.966 95.122C243.966 93.43 243.606 91.926 242.885 90.61C242.165 89.294 241.178 88.26 239.924 87.508C238.671 86.7247 237.245 86.333 235.647 86.333C234.081 86.333 232.655 86.7247 231.37 87.508C230.117 88.26 229.114 89.294 228.362 90.61C227.642 91.926 227.281 93.43 227.281 95.122C227.281 96.7827 227.642 98.2867 228.362 99.634C229.114 100.981 230.117 102.047 231.37 102.83C232.655 103.582 234.081 103.958 235.647 103.958ZM260.939 119.28C260.626 119.28 260.25 119.186 259.811 118.998C258.432 118.371 258.056 117.384 258.683 116.037L263.383 105.462L252.808 85.393C252.495 84.7977 252.448 84.2337 252.667 83.701C252.918 83.137 253.341 82.7297 253.936 82.479C254.531 82.2283 255.095 82.2127 255.628 82.432C256.161 82.62 256.568 83.0117 256.85 83.607L265.451 100.715L273.018 83.654C273.645 82.338 274.632 81.962 275.979 82.526C277.389 83.1213 277.781 84.1083 277.154 85.487L262.772 117.823C262.396 118.794 261.785 119.28 260.939 119.28Z" fill="#141313"/>
</g>
<defs>
<filter id="filter0_ddd" x="0.5" y="32.5" width="327" height="125" filterUnits="userSpaceOnUse" color-interpolation-filters="sRGB">
<feFlood flood-opacity="0" result="BackgroundImageFix"/>
<feColorMatrix in="SourceAlpha" type="matrix" values="0 0 0 0 0 0 0 0 0 0 0 0 0 0 0 0 0 0 127 0"/>
<feOffset dy="4"/>
<feGaussianBlur stdDeviation="2"/>
<feColorMatrix type="matrix" values="0 0 0 0 0 0 0 0 0 0 0 0 0 0 0 0 0 0 0.25 0"/>
<feBlend mode="normal" in2="BackgroundImageFix" result="effect1_dropShadow"/>
<feColorMatrix in="SourceAlpha" type="matrix" values="0 0 0 0 0 0 0 0 0 0 0 0 0 0 0 0 0 0 127 0"/>
<feOffset dy="4"/>
<feGaussianBlur stdDeviation="2"/>
<feColorMatrix type="matrix" values="0 0 0 0 0 0 0 0 0 0 0 0 0 0 0 0 0 0 0.25 0"/>
<feBlend mode="normal" in2="effect1_dropShadow" result="effect2_dropShadow"/>
<feColorMatrix in="SourceAlpha" type="matrix" values="0 0 0 0 0 0 0 0 0 0 0 0 0 0 0 0 0 0 127 0"/>
<feOffset dy="4"/>
<feGaussianBlur stdDeviation="2"/>
<feColorMatrix type="matrix" values="0 0 0 0 0 0 0 0 0 0 0 0 0 0 0 0 0 0 0.25 0"/>
<feBlend mode="normal" in2="effect2_dropShadow" result="effect3_dropShadow"/>
<feBlend mode="normal" in="SourceGraphic" in2="effect3_dropShadow" result="shape"/>
</filter>
<filter id="filter1_dd" x="54.7002" y="70.6348" width="226.743" height="56.645" filterUnits="userSpaceOnUse" color-interpolation-filters="sRGB">
<feFlood flood-opacity="0" result="BackgroundImageFix"/>
<feColorMatrix in="SourceAlpha" type="matrix" values="0 0 0 0 0 0 0 0 0 0 0 0 0 0 0 0 0 0 127 0"/>
<feOffset dy="4"/>
<feGaussianBlur stdDeviation="2"/>
<feColorMatrix type="matrix" values="0 0 0 0 0 0 0 0 0 0 0 0 0 0 0 0 0 0 0.25 0"/>
<feBlend mode="normal" in2="BackgroundImageFix" result="effect1_dropShadow"/>
<feColorMatrix in="SourceAlpha" type="matrix" values="0 0 0 0 0 0 0 0 0 0 0 0 0 0 0 0 0 0 127 0"/>
<feOffset dy="4"/>
<feGaussianBlur stdDeviation="2"/>
<feColorMatrix type="matrix" values="0 0 0 0 0 0 0 0 0 0 0 0 0 0 0 0 0 0 0.25 0"/>
<feBlend mode="normal" in2="effect1_dropShadow" result="effect2_dropShadow"/>
<feBlend mode="normal" in="SourceGraphic" in2="effect2_dropShadow" result="shape"/>
</filter>
<linearGradient id="paint0_linear" x1="164" y1="34" x2="164" y2="148" gradientUnits="userSpaceOnUse">
<stop stop-color="white"/>
<stop offset="1" stop-color="white" stop-opacity="0"/>
</linearGradient>
</defs>
</svg>
