<svg width="590" height="185" viewBox="0 0 590 185" fill="none" xmlns="http://www.w3.org/2000/svg">
<g filter="url(#filter0_ddd)">
<path d="M6 34H322V148H6V34Z" fill="#F1D793"/>
<path d="M6 34H322V148H6V34Z" stroke="black" stroke-width="3" stroke-linecap="round" stroke-linejoin="round"/>
<path d="M6 34H322V148H6V34Z" stroke="url(#paint0_linear)" stroke-width="3" stroke-linecap="round" stroke-linejoin="round"/>
</g>
<g filter="url(#filter1_dd)">
<path d="M62.003 110C61.2257 110 60.572 109.735 60.042 109.205C59.5473 108.675 59.3 108.021 59.3 107.244V71.363C59.3 70.5857 59.565 69.932 60.095 69.402C60.625 68.872 61.261 68.607 62.003 68.607C62.7803 68.607 63.434 68.872 63.964 69.402C64.494 69.932 64.759 70.5857 64.759 71.363V104.488H83.945C84.7223 104.488 85.376 104.753 85.906 105.283C86.436 105.813 86.701 106.467 86.701 107.244C86.701 108.021 86.436 108.675 85.906 109.205C85.376 109.735 84.7223 110 83.945 110H62.003ZM105.124 110.212C102.262 110.212 99.7356 109.594 97.5449 108.357C95.3542 107.085 93.6229 105.354 92.3509 103.163C91.1142 100.937 90.4959 98.393 90.4959 95.531C90.4959 92.6337 91.1142 90.0897 92.3509 87.899C93.6229 85.673 95.3542 83.9417 97.5449 82.705C99.7356 81.433 102.262 80.797 105.124 80.797C107.951 80.797 110.459 81.433 112.65 82.705C114.841 83.9417 116.554 85.673 117.791 87.899C119.063 90.0897 119.699 92.6337 119.699 95.531C119.699 98.393 119.081 100.937 117.844 103.163C116.607 105.354 114.894 107.085 112.703 108.357C110.512 109.594 107.986 110.212 105.124 110.212ZM105.124 105.442C106.961 105.442 108.587 105.018 110 104.17C111.413 103.322 112.509 102.156 113.286 100.672C114.099 99.188 114.505 97.4743 114.505 95.531C114.505 93.5877 114.099 91.874 113.286 90.39C112.509 88.8707 111.413 87.687 110 86.839C108.587 85.991 106.961 85.567 105.124 85.567C103.287 85.567 101.661 85.991 100.248 86.839C98.8346 87.687 97.7216 88.8707 96.9089 90.39C96.0962 91.874 95.6899 93.5877 95.6899 95.531C95.6899 97.4743 96.0962 99.188 96.9089 100.672C97.7216 102.156 98.8346 103.322 100.248 104.17C101.661 105.018 103.287 105.442 105.124 105.442ZM139.034 110.212C136.384 110.212 134.034 109.594 131.985 108.357C129.971 107.085 128.381 105.354 127.215 103.163C126.049 100.937 125.466 98.393 125.466 95.531C125.466 92.6337 126.084 90.0897 127.321 87.899C128.593 85.673 130.324 83.9417 132.515 82.705C134.705 81.433 137.232 80.797 140.094 80.797C142.92 80.797 145.429 81.433 147.62 82.705C149.81 83.9417 151.524 85.673 152.761 87.899C154.033 90.0897 154.669 92.6337 154.669 95.531V106.979C154.669 109.77 154.05 112.297 152.814 114.558C151.577 116.855 149.846 118.674 147.62 120.017C145.429 121.36 142.885 122.031 139.988 122.031C137.479 122.031 135.129 121.536 132.939 120.547C130.748 119.558 128.893 118.109 127.374 116.201C126.914 115.6 126.738 114.982 126.844 114.346C126.985 113.71 127.338 113.198 127.904 112.809C128.54 112.385 129.193 112.244 129.865 112.385C130.571 112.526 131.137 112.88 131.561 113.445C132.515 114.646 133.716 115.583 135.165 116.254C136.613 116.925 138.256 117.261 140.094 117.261C141.79 117.261 143.344 116.855 144.758 116.042C146.206 115.229 147.355 114.028 148.203 112.438C149.051 110.848 149.475 108.905 149.475 106.608V104.011C148.379 105.919 146.931 107.438 145.129 108.569C143.327 109.664 141.295 110.212 139.034 110.212ZM140.094 105.442C141.931 105.442 143.556 105.018 144.97 104.17C146.383 103.322 147.478 102.156 148.256 100.672C149.068 99.188 149.475 97.4743 149.475 95.531C149.475 93.5877 149.068 91.874 148.256 90.39C147.478 88.8707 146.383 87.687 144.97 86.839C143.556 85.991 141.931 85.567 140.094 85.567C138.256 85.567 136.631 85.991 135.218 86.839C133.804 87.687 132.691 88.8707 131.879 90.39C131.066 91.874 130.66 93.5877 130.66 95.531C130.66 97.4743 131.066 99.188 131.879 100.672C132.691 102.156 133.804 103.322 135.218 104.17C136.631 105.018 138.256 105.442 140.094 105.442ZM196.315 110.53C193.205 110.53 190.361 110.018 187.782 108.993C185.202 107.933 182.976 106.467 181.104 104.594C179.266 102.686 177.835 100.442 176.811 97.863C175.786 95.2483 175.274 92.3863 175.274 89.277C175.274 86.1677 175.786 83.3233 176.811 80.744C177.835 78.1647 179.266 75.9387 181.104 74.066C182.976 72.158 185.202 70.6917 187.782 69.667C190.361 68.607 193.205 68.077 196.315 68.077C199.424 68.077 202.251 68.607 204.795 69.667C207.374 70.6917 209.6 72.158 211.473 74.066C213.345 75.9387 214.794 78.1647 215.819 80.744C216.843 83.3233 217.356 86.1677 217.356 89.277C217.356 92.3863 216.843 95.2483 215.819 97.863C214.794 100.442 213.345 102.686 211.473 104.594C209.6 106.467 207.374 107.933 204.795 108.993C202.251 110.018 199.424 110.53 196.315 110.53ZM196.315 105.548C199.389 105.548 202.109 104.841 204.477 103.428C206.844 101.979 208.699 100.036 210.042 97.598C211.384 95.1247 212.056 92.351 212.056 89.277C212.056 86.203 211.384 83.447 210.042 81.009C208.699 78.5357 206.844 76.5923 204.477 75.179C202.109 73.7657 199.389 73.059 196.315 73.059C193.241 73.059 190.52 73.7657 188.153 75.179C185.785 76.5923 183.93 78.5357 182.588 81.009C181.245 83.447 180.574 86.203 180.574 89.277C180.574 92.351 181.245 95.1247 182.588 97.598C183.93 100.036 185.785 101.979 188.153 103.428C190.52 104.841 193.241 105.548 196.315 105.548ZM236.854 110.265C234.416 110.265 232.225 109.753 230.282 108.728C228.374 107.668 226.855 106.131 225.724 104.117C224.629 102.103 224.081 99.6297 224.081 96.697V83.659C224.081 82.8817 224.328 82.2457 224.823 81.751C225.353 81.221 226.007 80.956 226.784 80.956C227.561 80.956 228.197 81.221 228.692 81.751C229.222 82.2457 229.487 82.8817 229.487 83.659V96.697C229.487 99.7003 230.282 101.909 231.872 103.322C233.497 104.7 235.511 105.389 237.914 105.389C239.433 105.389 240.776 105.089 241.942 104.488C243.143 103.887 244.097 103.075 244.804 102.05C245.511 101.025 245.864 99.877 245.864 98.605V83.659C245.864 82.8463 246.111 82.1927 246.606 81.698C247.136 81.2033 247.79 80.956 248.567 80.956C249.38 80.956 250.033 81.2033 250.528 81.698C251.023 82.1927 251.27 82.8463 251.27 83.659V107.297C251.27 108.074 251.023 108.728 250.528 109.258C250.033 109.753 249.38 110 248.567 110C247.79 110 247.136 109.753 246.606 109.258C246.111 108.728 245.864 108.074 245.864 107.297V106.714C244.769 107.809 243.444 108.675 241.889 109.311C240.334 109.947 238.656 110.265 236.854 110.265ZM270.543 110C268.776 110 267.186 109.558 265.773 108.675C264.36 107.756 263.247 106.52 262.434 104.965C261.621 103.41 261.215 101.661 261.215 99.718V86.627H258.777C258.035 86.627 257.434 86.415 256.975 85.991C256.516 85.567 256.286 85.037 256.286 84.401C256.286 83.6943 256.516 83.129 256.975 82.705C257.434 82.281 258.035 82.069 258.777 82.069H261.215V74.437C261.215 73.6597 261.462 73.0237 261.957 72.529C262.452 72.0343 263.088 71.787 263.865 71.787C264.642 71.787 265.278 72.0343 265.773 72.529C266.268 73.0237 266.515 73.6597 266.515 74.437V82.069H271.02C271.762 82.069 272.363 82.281 272.822 82.705C273.281 83.129 273.511 83.6943 273.511 84.401C273.511 85.037 273.281 85.567 272.822 85.991C272.363 86.415 271.762 86.627 271.02 86.627H266.515V99.718C266.515 101.131 266.904 102.315 267.681 103.269C268.458 104.223 269.412 104.7 270.543 104.7H272.345C272.981 104.7 273.511 104.947 273.935 105.442C274.394 105.937 274.624 106.573 274.624 107.35C274.624 108.127 274.324 108.763 273.723 109.258C273.158 109.753 272.416 110 271.497 110H270.543Z" fill="#141313"/>
</g>
<defs>
<filter id="filter0_ddd" x="0.5" y="32.5" width="327" height="125" filterUnits="userSpaceOnUse" color-interpolation-filters="sRGB">
<feFlood flood-opacity="0" result="BackgroundImageFix"/>
<feColorMatrix in="SourceAlpha" type="matrix" values="0 0 0 0 0 0 0 0 0 0 0 0 0 0 0 0 0 0 127 0"/>
<feOffset dy="4"/>
<feGaussianBlur stdDeviation="2"/>
<feColorMatrix type="matrix" values="0 0 0 0 0 0 0 0 0 0 0 0 0 0 0 0 0 0 0.25 0"/>
<feBlend mode="normal" in2="BackgroundImageFix" result="effect1_dropShadow"/>
<feColorMatrix in="SourceAlpha" type="matrix" values="0 0 0 0 0 0 0 0 0 0 0 0 0 0 0 0 0 0 127 0"/>
<feOffset dy="4"/>
<feGaussianBlur stdDeviation="2"/>
<feColorMatrix type="matrix" values="0 0 0 0 0 0 0 0 0 0 0 0 0 0 0 0 0 0 0.25 0"/>
<feBlend mode="normal" in2="effect1_dropShadow" result="effect2_dropShadow"/>
<feColorMatrix in="SourceAlpha" type="matrix" values="0 0 0 0 0 0 0 0 0 0 0 0 0 0 0 0 0 0 127 0"/>
<feOffset dy="4"/>
<feGaussianBlur stdDeviation="2"/>
<feColorMatrix type="matrix" values="0 0 0 0 0 0 0 0 0 0 0 0 0 0 0 0 0 0 0.25 0"/>
<feBlend mode="normal" in2="effect2_dropShadow" result="effect3_dropShadow"/>
<feBlend mode="normal" in="SourceGraphic" in2="effect3_dropShadow" result="shape"/>
</filter>
<filter id="filter1_dd" x="55.2998" y="68.0771" width="223.324" height="61.954" filterUnits="userSpaceOnUse" color-interpolation-filters="sRGB">
<feFlood flood-opacity="0" result="BackgroundImageFix"/>
<feColorMatrix in="SourceAlpha" type="matrix" values="0 0 0 0 0 0 0 0 0 0 0 0 0 0 0 0 0 0 127 0"/>
<feOffset dy="4"/>
<feGaussianBlur stdDeviation="2"/>
<feColorMatrix type="matrix" values="0 0 0 0 0 0 0 0 0 0 0 0 0 0 0 0 0 0 0.25 0"/>
<feBlend mode="normal" in2="BackgroundImageFix" result="effect1_dropShadow"/>
<feColorMatrix in="SourceAlpha" type="matrix" values="0 0 0 0 0 0 0 0 0 0 0 0 0 0 0 0 0 0 127 0"/>
<feOffset dy="4"/>
<feGaussianBlur stdDeviation="2"/>
<feColorMatrix type="matrix" values="0 0 0 0 0 0 0 0 0 0 0 0 0 0 0 0 0 0 0.25 0"/>
<feBlend mode="normal" in2="effect1_dropShadow" result="effect2_dropShadow"/>
<feBlend mode="normal" in="SourceGraphic" in2="effect2_dropShadow" result="shape"/>
</filter>
<linearGradient id="paint0_linear" x1="164" y1="34" x2="164" y2="148" gradientUnits="userSpaceOnUse">
<stop stop-color="white"/>
<stop offset="1" stop-color="white" stop-opacity="0"/>
</linearGradient>
</defs>
</svg>
