<svg width="590" height="185" viewBox="0 0 590 185" fill="none" xmlns="http://www.w3.org/2000/svg">
<g filter="url(#filter0_ddd)">
<path d="M6 34H322V148H6V34Z" fill="#F1D793"/>
<path d="M6 34H322V148H6V34Z" stroke="black" stroke-width="3" stroke-linecap="round" stroke-linejoin="round"/>
<path d="M6 34H322V148H6V34Z" stroke="url(#paint0_linear)" stroke-width="3" stroke-linecap="round" stroke-linejoin="round"/>
</g>
<g filter="url(#filter1_dd)">
<path d="M63.06 112C62.18 112 61.44 111.7 60.84 111.1C60.28 110.5 60 109.76 60 108.88V68.26C60 67.38 60.3 66.64 60.9 66.04C61.5 65.44 62.22 65.14 63.06 65.14C63.94 65.14 64.68 65.44 65.28 66.04C65.88 66.64 66.18 67.38 66.18 68.26V105.76H87.9C88.78 105.76 89.52 106.06 90.12 106.66C90.72 107.26 91.02 108 91.02 108.88C91.02 109.76 90.72 110.5 90.12 111.1C89.52 111.7 88.78 112 87.9 112H63.06ZM111.876 112.24C108.636 112.24 105.776 111.54 103.296 110.14C100.816 108.7 98.8561 106.74 97.4161 104.26C96.0161 101.74 95.3161 98.86 95.3161 95.62C95.3161 92.34 96.0161 89.46 97.4161 86.98C98.8561 84.46 100.816 82.5 103.296 81.1C105.776 79.66 108.636 78.94 111.876 78.94C115.076 78.94 117.916 79.66 120.396 81.1C122.876 82.5 124.816 84.46 126.216 86.98C127.656 89.46 128.376 92.34 128.376 95.62C128.376 98.86 127.676 101.74 126.276 104.26C124.876 106.74 122.936 108.7 120.456 110.14C117.976 111.54 115.116 112.24 111.876 112.24ZM111.876 106.84C113.956 106.84 115.796 106.36 117.396 105.4C118.996 104.44 120.236 103.12 121.116 101.44C122.036 99.76 122.496 97.82 122.496 95.62C122.496 93.42 122.036 91.48 121.116 89.8C120.236 88.08 118.996 86.74 117.396 85.78C115.796 84.82 113.956 84.34 111.876 84.34C109.796 84.34 107.956 84.82 106.356 85.78C104.756 86.74 103.496 88.08 102.576 89.8C101.656 91.48 101.196 93.42 101.196 95.62C101.196 97.82 101.656 99.76 102.576 101.44C103.496 103.12 104.756 104.44 106.356 105.4C107.956 106.36 109.796 106.84 111.876 106.84ZM150.264 112.24C147.264 112.24 144.604 111.54 142.284 110.14C140.004 108.7 138.204 106.74 136.884 104.26C135.564 101.74 134.904 98.86 134.904 95.62C134.904 92.34 135.604 89.46 137.004 86.98C138.444 84.46 140.404 82.5 142.884 81.1C145.364 79.66 148.224 78.94 151.464 78.94C154.664 78.94 157.504 79.66 159.984 81.1C162.464 82.5 164.404 84.46 165.804 86.98C167.244 89.46 167.964 92.34 167.964 95.62V108.58C167.964 111.74 167.264 114.6 165.864 117.16C164.464 119.76 162.504 121.82 159.984 123.34C157.504 124.86 154.624 125.62 151.344 125.62C148.504 125.62 145.844 125.06 143.364 123.94C140.884 122.82 138.784 121.18 137.064 119.02C136.544 118.34 136.344 117.64 136.464 116.92C136.624 116.2 137.024 115.62 137.664 115.18C138.384 114.7 139.124 114.54 139.884 114.7C140.684 114.86 141.324 115.26 141.804 115.9C142.884 117.26 144.244 118.32 145.884 119.08C147.524 119.84 149.384 120.22 151.464 120.22C153.384 120.22 155.144 119.76 156.744 118.84C158.384 117.92 159.684 116.56 160.644 114.76C161.604 112.96 162.084 110.76 162.084 108.16V105.22C160.844 107.38 159.204 109.1 157.164 110.38C155.124 111.62 152.824 112.24 150.264 112.24ZM151.464 106.84C153.544 106.84 155.384 106.36 156.984 105.4C158.584 104.44 159.824 103.12 160.704 101.44C161.624 99.76 162.084 97.82 162.084 95.62C162.084 93.42 161.624 91.48 160.704 89.8C159.824 88.08 158.584 86.74 156.984 85.78C155.384 84.82 153.544 84.34 151.464 84.34C149.384 84.34 147.544 84.82 145.944 85.78C144.344 86.74 143.084 88.08 142.164 89.8C141.244 91.48 140.784 93.42 140.784 95.62C140.784 97.82 141.244 99.76 142.164 101.44C143.084 103.12 144.344 104.44 145.944 105.4C147.544 106.36 149.384 106.84 151.464 106.84ZM196.571 112C195.691 112 194.951 111.7 194.351 111.1C193.751 110.5 193.451 109.76 193.451 108.88V68.26C193.451 67.34 193.751 66.6 194.351 66.04C194.951 65.44 195.691 65.14 196.571 65.14C197.491 65.14 198.231 65.44 198.791 66.04C199.391 66.6 199.691 67.34 199.691 68.26V108.88C199.691 109.76 199.391 110.5 198.791 111.1C198.231 111.7 197.491 112 196.571 112ZM213.233 112.06C212.353 112.06 211.613 111.78 211.013 111.22C210.453 110.62 210.173 109.88 210.173 109V82.24C210.173 81.32 210.453 80.58 211.013 80.02C211.613 79.46 212.353 79.18 213.233 79.18C214.153 79.18 214.893 79.46 215.453 80.02C216.013 80.58 216.293 81.32 216.293 82.24V82.9C217.533 81.66 219.033 80.68 220.793 79.96C222.553 79.24 224.453 78.88 226.493 78.88C229.253 78.88 231.713 79.48 233.873 80.68C236.073 81.84 237.793 83.56 239.033 85.84C240.313 88.12 240.953 90.92 240.953 94.24V109C240.953 109.88 240.653 110.62 240.053 111.22C239.493 111.78 238.773 112.06 237.893 112.06C237.013 112.06 236.273 111.78 235.673 111.22C235.113 110.62 234.833 109.88 234.833 109V94.24C234.833 90.84 233.913 88.36 232.073 86.8C230.273 85.2 228.013 84.4 225.293 84.4C223.613 84.4 222.093 84.74 220.733 85.42C219.373 86.1 218.293 87.02 217.493 88.18C216.693 89.3 216.293 90.6 216.293 92.08V109C216.293 109.88 216.013 110.62 215.453 111.22C214.893 111.78 214.153 112.06 213.233 112.06Z" fill="#141313"/>
</g>
<defs>
<filter id="filter0_ddd" x="0.5" y="32.5" width="327" height="125" filterUnits="userSpaceOnUse" color-interpolation-filters="sRGB">
<feFlood flood-opacity="0" result="BackgroundImageFix"/>
<feColorMatrix in="SourceAlpha" type="matrix" values="0 0 0 0 0 0 0 0 0 0 0 0 0 0 0 0 0 0 127 0"/>
<feOffset dy="4"/>
<feGaussianBlur stdDeviation="2"/>
<feColorMatrix type="matrix" values="0 0 0 0 0 0 0 0 0 0 0 0 0 0 0 0 0 0 0.25 0"/>
<feBlend mode="normal" in2="BackgroundImageFix" result="effect1_dropShadow"/>
<feColorMatrix in="SourceAlpha" type="matrix" values="0 0 0 0 0 0 0 0 0 0 0 0 0 0 0 0 0 0 127 0"/>
<feOffset dy="4"/>
<feGaussianBlur stdDeviation="2"/>
<feColorMatrix type="matrix" values="0 0 0 0 0 0 0 0 0 0 0 0 0 0 0 0 0 0 0.25 0"/>
<feBlend mode="normal" in2="effect1_dropShadow" result="effect2_dropShadow"/>
<feColorMatrix in="SourceAlpha" type="matrix" values="0 0 0 0 0 0 0 0 0 0 0 0 0 0 0 0 0 0 127 0"/>
<feOffset dy="4"/>
<feGaussianBlur stdDeviation="2"/>
<feColorMatrix type="matrix" values="0 0 0 0 0 0 0 0 0 0 0 0 0 0 0 0 0 0 0.25 0"/>
<feBlend mode="normal" in2="effect2_dropShadow" result="effect3_dropShadow"/>
<feBlend mode="normal" in="SourceGraphic" in2="effect3_dropShadow" result="shape"/>
</filter>
<filter id="filter1_dd" x="56" y="65.1401" width="188.953" height="68.48" filterUnits="userSpaceOnUse" color-interpolation-filters="sRGB">
<feFlood flood-opacity="0" result="BackgroundImageFix"/>
<feColorMatrix in="SourceAlpha" type="matrix" values="0 0 0 0 0 0 0 0 0 0 0 0 0 0 0 0 0 0 127 0"/>
<feOffset dy="4"/>
<feGaussianBlur stdDeviation="2"/>
<feColorMatrix type="matrix" values="0 0 0 0 0 0 0 0 0 0 0 0 0 0 0 0 0 0 0.25 0"/>
<feBlend mode="normal" in2="BackgroundImageFix" result="effect1_dropShadow"/>
<feColorMatrix in="SourceAlpha" type="matrix" values="0 0 0 0 0 0 0 0 0 0 0 0 0 0 0 0 0 0 127 0"/>
<feOffset dy="4"/>
<feGaussianBlur stdDeviation="2"/>
<feColorMatrix type="matrix" values="0 0 0 0 0 0 0 0 0 0 0 0 0 0 0 0 0 0 0.25 0"/>
<feBlend mode="normal" in2="effect1_dropShadow" result="effect2_dropShadow"/>
<feBlend mode="normal" in="SourceGraphic" in2="effect2_dropShadow" result="shape"/>
</filter>
<linearGradient id="paint0_linear" x1="164" y1="34" x2="164" y2="148" gradientUnits="userSpaceOnUse">
<stop stop-color="white"/>
<stop offset="1" stop-color="white" stop-opacity="0"/>
</linearGradient>
</defs>
</svg>
