<svg width="1920" height="229" viewBox="0 0 1920 229" fill="none" xmlns="http://www.w3.org/2000/svg">
<path d="M0 0H1920V229H0V0Z" fill="#E5E5E5"/>
<g filter="url(#filter0_dd)">
<path d="M563.217 74C562.65 74 562.183 73.8167 561.817 73.45C561.45 73.0833 561.267 72.6167 561.267 72.05V36.9C561.267 36.3333 561.45 35.8667 561.817 35.5C562.183 35.1333 562.65 34.95 563.217 34.95H573.217C575.683 34.95 577.867 35.5 579.767 36.6C581.667 37.6667 583.15 39.15 584.217 41.05C585.283 42.95 585.817 45.15 585.817 47.65C585.817 50.0833 585.283 52.25 584.217 54.15C583.15 56.0167 581.667 57.5 579.767 58.6C577.867 59.6667 575.683 60.2 573.217 60.2H565.167V72.05C565.167 72.6167 564.983 73.0833 564.617 73.45C564.25 73.8167 563.783 74 563.217 74ZM565.167 56.45H573.217C574.917 56.45 576.433 56.0833 577.767 55.35C579.1 54.5833 580.133 53.5333 580.867 52.2C581.633 50.8667 582.017 49.35 582.017 47.65C582.017 45.8833 581.633 44.3333 580.867 43C580.133 41.6667 579.1 40.6167 577.767 39.85C576.433 39.0833 574.917 38.7 573.217 38.7H565.167V56.45ZM601.705 74.25C599.139 74.25 596.839 73.65 594.805 72.45C592.772 71.2167 591.155 69.55 589.955 67.45C588.789 65.35 588.205 62.9833 588.205 60.35C588.205 57.6833 588.805 55.3 590.005 53.2C591.239 51.1 592.905 49.45 595.005 48.25C597.105 47.0167 599.472 46.4 602.105 46.4C604.739 46.4 607.089 47.0167 609.155 48.25C611.255 49.45 612.905 51.1 614.105 53.2C615.339 55.3 615.972 57.6833 616.005 60.35L614.455 61.55C614.455 63.95 613.889 66.1167 612.755 68.05C611.655 69.95 610.139 71.4667 608.205 72.6C606.305 73.7 604.139 74.25 601.705 74.25ZM602.105 70.75C604.039 70.75 605.755 70.3 607.255 69.4C608.789 68.5 609.989 67.2667 610.855 65.7C611.755 64.1 612.205 62.3167 612.205 60.35C612.205 58.35 611.755 56.5667 610.855 55C609.989 53.4333 608.789 52.2 607.255 51.3C605.755 50.3667 604.039 49.9 602.105 49.9C600.205 49.9 598.489 50.3667 596.955 51.3C595.422 52.2 594.205 53.4333 593.305 55C592.405 56.5667 591.955 58.35 591.955 60.35C591.955 62.3167 592.405 64.1 593.305 65.7C594.205 67.2667 595.422 68.5 596.955 69.4C598.489 70.3 600.205 70.75 602.105 70.75ZM614.055 74C613.489 74 613.022 73.8333 612.655 73.5C612.289 73.1333 612.105 72.6667 612.105 72.1V63.55L613.055 59.6L616.005 60.35V72.1C616.005 72.6667 615.822 73.1333 615.455 73.5C615.089 73.8333 614.622 74 614.055 74ZM632.293 74.25C630.326 74.25 628.376 73.9167 626.443 73.25C624.51 72.5833 622.943 71.5833 621.743 70.25C621.376 69.85 621.226 69.4 621.293 68.9C621.36 68.4 621.61 67.9667 622.043 67.6C622.51 67.2667 622.993 67.1333 623.493 67.2C623.993 67.2667 624.41 67.4833 624.743 67.85C625.543 68.7833 626.593 69.5 627.893 70C629.226 70.5 630.693 70.75 632.293 70.75C634.76 70.75 636.543 70.3333 637.643 69.5C638.743 68.6333 639.31 67.6 639.343 66.4C639.343 65.2 638.776 64.2167 637.643 63.45C636.51 62.65 634.643 62.0333 632.043 61.6C628.676 61.0667 626.21 60.1333 624.643 58.8C623.076 57.4667 622.293 55.8833 622.293 54.05C622.293 52.35 622.743 50.9333 623.643 49.8C624.543 48.6667 625.743 47.8167 627.243 47.25C628.743 46.6833 630.393 46.4 632.193 46.4C634.426 46.4 636.343 46.7833 637.943 47.55C639.576 48.3167 640.893 49.35 641.893 50.65C642.226 51.0833 642.36 51.5333 642.293 52C642.226 52.4667 641.96 52.85 641.493 53.15C641.093 53.3833 640.626 53.4667 640.093 53.4C639.593 53.3 639.16 53.05 638.793 52.65C637.96 51.6833 636.993 50.9833 635.893 50.55C634.793 50.0833 633.526 49.85 632.093 49.85C630.26 49.85 628.793 50.2333 627.693 51C626.593 51.7333 626.043 52.6667 626.043 53.8C626.043 54.5667 626.243 55.2333 626.643 55.8C627.076 56.3667 627.793 56.8667 628.793 57.3C629.826 57.7333 631.26 58.1 633.093 58.4C635.593 58.8 637.56 59.4 638.993 60.2C640.46 60.9667 641.493 61.8833 642.093 62.95C642.726 63.9833 643.043 65.1167 643.043 66.35C643.043 67.9167 642.576 69.3 641.643 70.5C640.743 71.6667 639.476 72.5833 637.843 73.25C636.243 73.9167 634.393 74.25 632.293 74.25ZM658.496 74.25C656.53 74.25 654.58 73.9167 652.646 73.25C650.713 72.5833 649.146 71.5833 647.946 70.25C647.58 69.85 647.43 69.4 647.496 68.9C647.563 68.4 647.813 67.9667 648.246 67.6C648.713 67.2667 649.196 67.1333 649.696 67.2C650.196 67.2667 650.613 67.4833 650.946 67.85C651.746 68.7833 652.796 69.5 654.096 70C655.43 70.5 656.896 70.75 658.496 70.75C660.963 70.75 662.746 70.3333 663.846 69.5C664.946 68.6333 665.513 67.6 665.546 66.4C665.546 65.2 664.98 64.2167 663.846 63.45C662.713 62.65 660.846 62.0333 658.246 61.6C654.88 61.0667 652.413 60.1333 650.846 58.8C649.28 57.4667 648.496 55.8833 648.496 54.05C648.496 52.35 648.946 50.9333 649.846 49.8C650.746 48.6667 651.946 47.8167 653.446 47.25C654.946 46.6833 656.596 46.4 658.396 46.4C660.63 46.4 662.546 46.7833 664.146 47.55C665.78 48.3167 667.096 49.35 668.096 50.65C668.43 51.0833 668.563 51.5333 668.496 52C668.43 52.4667 668.163 52.85 667.696 53.15C667.296 53.3833 666.83 53.4667 666.296 53.4C665.796 53.3 665.363 53.05 664.996 52.65C664.163 51.6833 663.196 50.9833 662.096 50.55C660.996 50.0833 659.73 49.85 658.296 49.85C656.463 49.85 654.996 50.2333 653.896 51C652.796 51.7333 652.246 52.6667 652.246 53.8C652.246 54.5667 652.446 55.2333 652.846 55.8C653.28 56.3667 653.996 56.8667 654.996 57.3C656.03 57.7333 657.463 58.1 659.296 58.4C661.796 58.8 663.763 59.4 665.196 60.2C666.663 60.9667 667.696 61.8833 668.296 62.95C668.93 63.9833 669.246 65.1167 669.246 66.35C669.246 67.9167 668.78 69.3 667.846 70.5C666.946 71.6667 665.68 72.5833 664.046 73.25C662.446 73.9167 660.596 74.25 658.496 74.25ZM681.349 74C680.916 74 680.533 73.8833 680.199 73.65C679.866 73.4167 679.633 73.1167 679.499 72.75L671.699 49.35C671.499 48.5167 671.516 47.8667 671.749 47.4C671.983 46.9 672.449 46.65 673.149 46.65C673.583 46.65 673.966 46.7667 674.299 47C674.633 47.2333 674.883 47.6 675.049 48.1L681.999 69.35H680.899L687.349 48.15C687.483 47.7167 687.699 47.3667 687.999 47.1C688.333 46.8 688.749 46.65 689.249 46.65C689.749 46.65 690.149 46.7833 690.449 47.05C690.783 47.3167 691.016 47.6833 691.149 48.15L697.299 68.85H696.449L703.249 48.1C703.583 47.1333 704.199 46.65 705.099 46.65C705.833 46.65 706.333 46.9333 706.599 47.5C706.866 48.0333 706.866 48.65 706.599 49.35L698.799 72.75C698.666 73.1167 698.433 73.4167 698.099 73.65C697.799 73.8833 697.433 74 696.999 74C696.566 74 696.166 73.8833 695.799 73.65C695.466 73.4167 695.249 73.1167 695.149 72.75L688.849 51.85H689.449L683.149 72.75C683.016 73.15 682.783 73.4667 682.449 73.7C682.116 73.9 681.749 74 681.349 74ZM722.885 74.25C720.218 74.25 717.835 73.65 715.735 72.45C713.635 71.25 711.985 69.6 710.785 67.5C709.585 65.4 708.985 63.0167 708.985 60.35C708.985 57.65 709.585 55.25 710.785 53.15C711.985 51.05 713.635 49.4 715.735 48.2C717.835 47 720.218 46.4 722.885 46.4C725.551 46.4 727.918 47 729.985 48.2C732.085 49.4 733.735 51.05 734.935 53.15C736.135 55.25 736.751 57.65 736.785 60.35C736.785 63.0167 736.168 65.4 734.935 67.5C733.735 69.6 732.085 71.25 729.985 72.45C727.918 73.65 725.551 74.25 722.885 74.25ZM722.885 70.75C724.818 70.75 726.551 70.3 728.085 69.4C729.618 68.5 730.818 67.2667 731.685 65.7C732.551 64.1333 732.985 62.35 732.985 60.35C732.985 58.35 732.551 56.5667 731.685 55C730.818 53.4 729.618 52.15 728.085 51.25C726.551 50.35 724.818 49.9 722.885 49.9C720.951 49.9 719.218 50.35 717.685 51.25C716.151 52.15 714.935 53.4 714.035 55C713.168 56.5667 712.735 58.35 712.735 60.35C712.735 62.35 713.168 64.1333 714.035 65.7C714.935 67.2667 716.151 68.5 717.685 69.4C719.218 70.3 720.951 70.75 722.885 70.75ZM745.122 57.15C745.222 55.0833 745.756 53.2333 746.722 51.6C747.722 49.9667 749.006 48.6833 750.572 47.75C752.172 46.8167 753.939 46.35 755.872 46.35C757.406 46.35 758.589 46.5667 759.422 47C760.256 47.4333 760.572 48.0667 760.372 48.9C760.239 49.4 760.006 49.7333 759.672 49.9C759.372 50.0667 758.989 50.1333 758.522 50.1C758.089 50.0667 757.589 50.0333 757.022 50C755.156 49.8333 753.489 50.0333 752.022 50.6C750.589 51.1333 749.439 51.9667 748.572 53.1C747.739 54.2333 747.322 55.5833 747.322 57.15H745.122ZM745.422 74C744.822 74 744.356 73.8333 744.022 73.5C743.689 73.1667 743.522 72.7 743.522 72.1V48.55C743.522 47.95 743.689 47.4833 744.022 47.15C744.356 46.8167 744.822 46.65 745.422 46.65C746.022 46.65 746.489 46.8167 746.822 47.15C747.156 47.4833 747.322 47.95 747.322 48.55V72.1C747.322 72.7 747.156 73.1667 746.822 73.5C746.489 73.8333 746.022 74 745.422 74ZM776.121 74.25C773.488 74.25 771.121 73.65 769.021 72.45C766.921 71.2167 765.254 69.55 764.021 67.45C762.821 65.35 762.221 62.9667 762.221 60.3C762.221 57.6667 762.804 55.3 763.971 53.2C765.171 51.1 766.788 49.45 768.821 48.25C770.854 47.0167 773.154 46.4 775.721 46.4C777.954 46.4 779.971 46.8833 781.771 47.85C783.571 48.7833 785.021 50.0333 786.121 51.6V36.9C786.121 36.3 786.304 35.8333 786.671 35.5C787.038 35.1333 787.504 34.95 788.071 34.95C788.638 34.95 789.104 35.1333 789.471 35.5C789.838 35.8333 790.021 36.3 790.021 36.9V60.5C789.954 63.1 789.304 65.45 788.071 67.55C786.871 69.6167 785.221 71.25 783.121 72.45C781.054 73.65 778.721 74.25 776.121 74.25ZM776.121 70.75C778.054 70.75 779.771 70.3 781.271 69.4C782.804 68.4667 784.004 67.2167 784.871 65.65C785.771 64.0833 786.221 62.3 786.221 60.3C786.221 58.3333 785.771 56.5667 784.871 55C784.004 53.4 782.804 52.15 781.271 51.25C779.771 50.35 778.054 49.9 776.121 49.9C774.221 49.9 772.504 50.35 770.971 51.25C769.438 52.15 768.221 53.4 767.321 55C766.421 56.5667 765.971 58.3333 765.971 60.3C765.971 62.3 766.421 64.0833 767.321 65.65C768.221 67.2167 769.438 68.4667 770.971 69.4C772.504 70.3 774.221 70.75 776.121 70.75ZM814.621 74C814.054 74 813.588 73.8167 813.221 73.45C812.854 73.0833 812.671 72.6167 812.671 72.05V36.9C812.671 36.3333 812.854 35.8667 813.221 35.5C813.588 35.1333 814.054 34.95 814.621 34.95C815.188 34.95 815.654 35.1333 816.021 35.5C816.388 35.8667 816.571 36.3333 816.571 36.9V72.05C816.571 72.6167 816.388 73.0833 816.021 73.45C815.654 73.8167 815.188 74 814.621 74ZM848.787 74C848.22 74 847.754 73.8167 847.387 73.45C847.02 73.0833 846.837 72.6333 846.837 72.1V59.1C846.837 57.0333 846.437 55.3333 845.637 54C844.87 52.6667 843.804 51.6667 842.437 51C841.104 50.3333 839.587 50 837.887 50C836.254 50 834.77 50.3167 833.437 50.95C832.137 51.5833 831.104 52.45 830.337 53.55C829.57 54.65 829.187 55.9 829.187 57.3H826.437C826.504 55.2 827.07 53.3333 828.137 51.7C829.204 50.0333 830.62 48.7333 832.387 47.8C834.154 46.8333 836.12 46.35 838.287 46.35C840.654 46.35 842.77 46.85 844.637 47.85C846.504 48.8167 847.97 50.25 849.037 52.15C850.137 54.05 850.687 56.3667 850.687 59.1V72.1C850.687 72.6333 850.504 73.0833 850.137 73.45C849.77 73.8167 849.32 74 848.787 74ZM827.287 74C826.687 74 826.204 73.8333 825.837 73.5C825.504 73.1333 825.337 72.6667 825.337 72.1V48.6C825.337 48 825.504 47.5333 825.837 47.2C826.204 46.8333 826.687 46.65 827.287 46.65C827.854 46.65 828.304 46.8333 828.637 47.2C829.004 47.5333 829.187 48 829.187 48.6V72.1C829.187 72.6667 829.004 73.1333 828.637 73.5C828.304 73.8333 827.854 74 827.287 74ZM870.625 74.25C867.991 74.25 865.641 73.65 863.575 72.45C861.541 71.2167 859.925 69.55 858.725 67.45C857.558 65.35 856.975 62.9833 856.975 60.35C856.975 57.6833 857.541 55.3 858.675 53.2C859.808 51.1 861.358 49.45 863.325 48.25C865.291 47.0167 867.558 46.4 870.125 46.4C872.158 46.4 874.025 46.8 875.725 47.6C877.458 48.4 878.975 49.6 880.275 51.2C880.641 51.6 880.775 52.0333 880.675 52.5C880.575 52.9333 880.291 53.3167 879.825 53.65C879.458 53.9167 879.041 54.0167 878.575 53.95C878.141 53.85 877.758 53.6 877.425 53.2C875.491 51 873.058 49.9 870.125 49.9C868.258 49.9 866.608 50.35 865.175 51.25C863.775 52.15 862.675 53.3833 861.875 54.95C861.108 56.5167 860.725 58.3167 860.725 60.35C860.725 62.35 861.141 64.1333 861.975 65.7C862.808 67.2667 863.975 68.5 865.475 69.4C866.975 70.3 868.691 70.75 870.625 70.75C871.925 70.75 873.108 70.5833 874.175 70.25C875.275 69.8833 876.241 69.3333 877.075 68.6C877.475 68.2667 877.891 68.0833 878.325 68.05C878.758 68.0167 879.158 68.15 879.525 68.45C879.925 68.8167 880.141 69.2333 880.175 69.7C880.241 70.1667 880.091 70.5667 879.725 70.9C877.291 73.1333 874.258 74.25 870.625 74.25ZM899.91 74.25C897.243 74.25 894.86 73.65 892.76 72.45C890.66 71.25 889.01 69.6 887.81 67.5C886.61 65.4 886.01 63.0167 886.01 60.35C886.01 57.65 886.61 55.25 887.81 53.15C889.01 51.05 890.66 49.4 892.76 48.2C894.86 47 897.243 46.4 899.91 46.4C902.577 46.4 904.943 47 907.01 48.2C909.11 49.4 910.76 51.05 911.96 53.15C913.16 55.25 913.777 57.65 913.81 60.35C913.81 63.0167 913.193 65.4 911.96 67.5C910.76 69.6 909.11 71.25 907.01 72.45C904.943 73.65 902.577 74.25 899.91 74.25ZM899.91 70.75C901.843 70.75 903.577 70.3 905.11 69.4C906.643 68.5 907.843 67.2667 908.71 65.7C909.577 64.1333 910.01 62.35 910.01 60.35C910.01 58.35 909.577 56.5667 908.71 55C907.843 53.4 906.643 52.15 905.11 51.25C903.577 50.35 901.843 49.9 899.91 49.9C897.977 49.9 896.243 50.35 894.71 51.25C893.177 52.15 891.96 53.4 891.06 55C890.193 56.5667 889.76 58.35 889.76 60.35C889.76 62.35 890.193 64.1333 891.06 65.7C891.96 67.2667 893.177 68.5 894.71 69.4C896.243 70.3 897.977 70.75 899.91 70.75ZM922.148 57.15C922.248 55.0833 922.781 53.2333 923.748 51.6C924.748 49.9667 926.031 48.6833 927.598 47.75C929.198 46.8167 930.965 46.35 932.898 46.35C934.431 46.35 935.615 46.5667 936.448 47C937.281 47.4333 937.598 48.0667 937.398 48.9C937.265 49.4 937.031 49.7333 936.698 49.9C936.398 50.0667 936.015 50.1333 935.548 50.1C935.115 50.0667 934.615 50.0333 934.048 50C932.181 49.8333 930.515 50.0333 929.048 50.6C927.615 51.1333 926.465 51.9667 925.598 53.1C924.765 54.2333 924.348 55.5833 924.348 57.15H922.148ZM922.448 74C921.848 74 921.381 73.8333 921.048 73.5C920.715 73.1667 920.548 72.7 920.548 72.1V48.55C920.548 47.95 920.715 47.4833 921.048 47.15C921.381 46.8167 921.848 46.65 922.448 46.65C923.048 46.65 923.515 46.8167 923.848 47.15C924.181 47.4833 924.348 47.95 924.348 48.55V72.1C924.348 72.7 924.181 73.1667 923.848 73.5C923.515 73.8333 923.048 74 922.448 74ZM944.298 57.15C944.398 55.0833 944.932 53.2333 945.898 51.6C946.898 49.9667 948.182 48.6833 949.748 47.75C951.348 46.8167 953.115 46.35 955.048 46.35C956.582 46.35 957.765 46.5667 958.598 47C959.432 47.4333 959.748 48.0667 959.548 48.9C959.415 49.4 959.182 49.7333 958.848 49.9C958.548 50.0667 958.165 50.1333 957.698 50.1C957.265 50.0667 956.765 50.0333 956.198 50C954.332 49.8333 952.665 50.0333 951.198 50.6C949.765 51.1333 948.615 51.9667 947.748 53.1C946.915 54.2333 946.498 55.5833 946.498 57.15H944.298ZM944.598 74C943.998 74 943.532 73.8333 943.198 73.5C942.865 73.1667 942.698 72.7 942.698 72.1V48.55C942.698 47.95 942.865 47.4833 943.198 47.15C943.532 46.8167 943.998 46.65 944.598 46.65C945.198 46.65 945.665 46.8167 945.998 47.15C946.332 47.4833 946.498 47.95 946.498 48.55V72.1C946.498 72.7 946.332 73.1667 945.998 73.5C945.665 73.8333 945.198 74 944.598 74ZM975.247 74.25C972.547 74.25 970.147 73.6667 968.047 72.5C965.98 71.3 964.347 69.65 963.147 67.55C961.98 65.45 961.397 63.05 961.397 60.35C961.397 57.6167 961.947 55.2167 963.047 53.15C964.18 51.05 965.73 49.4 967.697 48.2C969.663 47 971.93 46.4 974.497 46.4C977.03 46.4 979.23 46.9833 981.097 48.15C982.997 49.2833 984.463 50.8667 985.497 52.9C986.53 54.9333 987.047 57.25 987.047 59.85C987.047 60.3833 986.88 60.8167 986.547 61.15C986.213 61.45 985.78 61.6 985.247 61.6H963.997V58.4H985.647L983.497 59.95C983.53 58.0167 983.18 56.2833 982.447 54.75C981.713 53.2167 980.663 52.0167 979.297 51.15C977.963 50.2833 976.363 49.85 974.497 49.85C972.597 49.85 970.93 50.3 969.497 51.2C968.063 52.1 966.947 53.35 966.147 54.95C965.38 56.5167 964.997 58.3167 964.997 60.35C964.997 62.3833 965.43 64.1833 966.297 65.75C967.197 67.3167 968.413 68.55 969.947 69.45C971.48 70.35 973.247 70.8 975.247 70.8C976.447 70.8 977.647 70.6 978.847 70.2C980.08 69.7667 981.063 69.2333 981.797 68.6C982.163 68.3 982.58 68.15 983.047 68.15C983.513 68.1167 983.913 68.2333 984.247 68.5C984.68 68.9 984.897 69.3333 984.897 69.8C984.93 70.2667 984.747 70.6667 984.347 71C983.247 71.9333 981.847 72.7167 980.147 73.35C978.447 73.95 976.813 74.25 975.247 74.25ZM1004.03 74.25C1001.4 74.25 999.05 73.65 996.983 72.45C994.95 71.2167 993.333 69.55 992.133 67.45C990.966 65.35 990.383 62.9833 990.383 60.35C990.383 57.6833 990.95 55.3 992.083 53.2C993.216 51.1 994.766 49.45 996.733 48.25C998.7 47.0167 1000.97 46.4 1003.53 46.4C1005.57 46.4 1007.43 46.8 1009.13 47.6C1010.87 48.4 1012.38 49.6 1013.68 51.2C1014.05 51.6 1014.18 52.0333 1014.08 52.5C1013.98 52.9333 1013.7 53.3167 1013.23 53.65C1012.87 53.9167 1012.45 54.0167 1011.98 53.95C1011.55 53.85 1011.17 53.6 1010.83 53.2C1008.9 51 1006.47 49.9 1003.53 49.9C1001.67 49.9 1000.02 50.35 998.583 51.25C997.183 52.15 996.083 53.3833 995.283 54.95C994.516 56.5167 994.133 58.3167 994.133 60.35C994.133 62.35 994.55 64.1333 995.383 65.7C996.216 67.2667 997.383 68.5 998.883 69.4C1000.38 70.3 1002.1 70.75 1004.03 70.75C1005.33 70.75 1006.52 70.5833 1007.58 70.25C1008.68 69.8833 1009.65 69.3333 1010.48 68.6C1010.88 68.2667 1011.3 68.0833 1011.73 68.05C1012.17 68.0167 1012.57 68.15 1012.93 68.45C1013.33 68.8167 1013.55 69.2333 1013.58 69.7C1013.65 70.1667 1013.5 70.5667 1013.13 70.9C1010.7 73.1333 1007.67 74.25 1004.03 74.25ZM1031.57 74C1029.8 74 1028.22 73.5833 1026.82 72.75C1025.45 71.9167 1024.37 70.7833 1023.57 69.35C1022.77 67.8833 1022.37 66.2167 1022.37 64.35V39.9C1022.37 39.3333 1022.53 38.8667 1022.87 38.5C1023.23 38.1333 1023.7 37.95 1024.27 37.95C1024.83 37.95 1025.3 38.1333 1025.67 38.5C1026.03 38.8667 1026.22 39.3333 1026.22 39.9V64.35C1026.22 66.05 1026.72 67.45 1027.72 68.55C1028.72 69.6167 1030 70.15 1031.57 70.15H1032.92C1033.45 70.15 1033.88 70.3333 1034.22 70.7C1034.55 71.0667 1034.72 71.5333 1034.72 72.1C1034.72 72.6667 1034.52 73.1333 1034.12 73.5C1033.72 73.8333 1033.22 74 1032.62 74H1031.57ZM1019.12 51C1018.62 51 1018.2 50.85 1017.87 50.55C1017.53 50.2167 1017.37 49.8167 1017.37 49.35C1017.37 48.85 1017.53 48.45 1017.87 48.15C1018.2 47.8167 1018.62 47.65 1019.12 47.65H1031.87C1032.37 47.65 1032.78 47.8167 1033.12 48.15C1033.45 48.45 1033.62 48.85 1033.62 49.35C1033.62 49.8167 1033.45 50.2167 1033.12 50.55C1032.78 50.85 1032.37 51 1031.87 51H1019.12ZM1041.14 65.15C1040.6 65.15 1040.14 64.9667 1039.74 64.6C1039.37 64.2 1039.19 63.7333 1039.19 63.2V36.9C1039.19 36.3333 1039.37 35.8667 1039.74 35.5C1040.14 35.1 1040.6 34.9 1041.14 34.9C1041.7 34.9 1042.17 35.1 1042.54 35.5C1042.9 35.8667 1043.09 36.3333 1043.09 36.9V63.2C1043.09 63.7333 1042.89 64.2 1042.49 64.6C1042.09 64.9667 1041.64 65.15 1041.14 65.15ZM1041.14 74C1040.34 74 1039.65 73.7167 1039.09 73.15C1038.52 72.5833 1038.24 71.9 1038.24 71.1C1038.24 70.2667 1038.52 69.5667 1039.09 69C1039.65 68.4333 1040.34 68.15 1041.14 68.15C1041.94 68.15 1042.62 68.45 1043.19 69.05C1043.75 69.6167 1044.04 70.3 1044.04 71.1C1044.04 71.9 1043.75 72.5833 1043.19 73.15C1042.62 73.7167 1041.94 74 1041.14 74ZM1069.12 74C1068.55 74 1068.08 73.8167 1067.72 73.45C1067.35 73.0833 1067.17 72.6167 1067.17 72.05V36.9C1067.17 36.3333 1067.35 35.8667 1067.72 35.5C1068.08 35.1333 1068.55 34.95 1069.12 34.95H1079.12C1081.58 34.95 1083.77 35.5 1085.67 36.6C1087.57 37.6667 1089.05 39.15 1090.12 41.05C1091.18 42.95 1091.72 45.15 1091.72 47.65C1091.72 50.0833 1091.18 52.25 1090.12 54.15C1089.05 56.0167 1087.57 57.5 1085.67 58.6C1083.77 59.6667 1081.58 60.2 1079.12 60.2H1071.07V72.05C1071.07 72.6167 1070.88 73.0833 1070.52 73.45C1070.15 73.8167 1069.68 74 1069.12 74ZM1071.07 56.45H1079.12C1080.82 56.45 1082.33 56.0833 1083.67 55.35C1085 54.5833 1086.03 53.5333 1086.77 52.2C1087.53 50.8667 1087.92 49.35 1087.92 47.65C1087.92 45.8833 1087.53 44.3333 1086.77 43C1086.03 41.6667 1085 40.6167 1083.67 39.85C1082.33 39.0833 1080.82 38.7 1079.12 38.7H1071.07V56.45ZM1102.43 74C1101.1 74 1099.9 73.6333 1098.83 72.9C1097.8 72.1667 1096.98 71.15 1096.38 69.85C1095.81 68.55 1095.53 67.05 1095.53 65.35V36.85C1095.53 36.2833 1095.7 35.8333 1096.03 35.5C1096.4 35.1333 1096.86 34.95 1097.43 34.95C1098 34.95 1098.45 35.1333 1098.78 35.5C1099.15 35.8333 1099.33 36.2833 1099.33 36.85V65.35C1099.33 66.7833 1099.61 67.95 1100.18 68.85C1100.78 69.75 1101.53 70.2 1102.43 70.2H1103.68C1104.18 70.2 1104.58 70.3833 1104.88 70.75C1105.18 71.0833 1105.33 71.5333 1105.33 72.1C1105.33 72.6667 1105.11 73.1333 1104.68 73.5C1104.28 73.8333 1103.75 74 1103.08 74H1102.43ZM1120.78 74.25C1118.08 74.25 1115.68 73.6667 1113.58 72.5C1111.51 71.3 1109.88 69.65 1108.68 67.55C1107.51 65.45 1106.93 63.05 1106.93 60.35C1106.93 57.6167 1107.48 55.2167 1108.58 53.15C1109.71 51.05 1111.26 49.4 1113.23 48.2C1115.19 47 1117.46 46.4 1120.03 46.4C1122.56 46.4 1124.76 46.9833 1126.63 48.15C1128.53 49.2833 1129.99 50.8667 1131.03 52.9C1132.06 54.9333 1132.58 57.25 1132.58 59.85C1132.58 60.3833 1132.41 60.8167 1132.08 61.15C1131.74 61.45 1131.31 61.6 1130.78 61.6H1109.53V58.4H1131.18L1129.03 59.95C1129.06 58.0167 1128.71 56.2833 1127.98 54.75C1127.24 53.2167 1126.19 52.0167 1124.83 51.15C1123.49 50.2833 1121.89 49.85 1120.03 49.85C1118.13 49.85 1116.46 50.3 1115.03 51.2C1113.59 52.1 1112.48 53.35 1111.68 54.95C1110.91 56.5167 1110.53 58.3167 1110.53 60.35C1110.53 62.3833 1110.96 64.1833 1111.83 65.75C1112.73 67.3167 1113.94 68.55 1115.48 69.45C1117.01 70.35 1118.78 70.8 1120.78 70.8C1121.98 70.8 1123.18 70.6 1124.38 70.2C1125.61 69.7667 1126.59 69.2333 1127.33 68.6C1127.69 68.3 1128.11 68.15 1128.58 68.15C1129.04 68.1167 1129.44 68.2333 1129.78 68.5C1130.21 68.9 1130.43 69.3333 1130.43 69.8C1130.46 70.2667 1130.28 70.6667 1129.88 71C1128.78 71.9333 1127.38 72.7167 1125.68 73.35C1123.98 73.95 1122.34 74.25 1120.78 74.25ZM1149.41 74.25C1146.85 74.25 1144.55 73.65 1142.51 72.45C1140.48 71.2167 1138.86 69.55 1137.66 67.45C1136.5 65.35 1135.91 62.9833 1135.91 60.35C1135.91 57.6833 1136.51 55.3 1137.71 53.2C1138.95 51.1 1140.61 49.45 1142.71 48.25C1144.81 47.0167 1147.18 46.4 1149.81 46.4C1152.45 46.4 1154.8 47.0167 1156.86 48.25C1158.96 49.45 1160.61 51.1 1161.81 53.2C1163.05 55.3 1163.68 57.6833 1163.71 60.35L1162.16 61.55C1162.16 63.95 1161.6 66.1167 1160.46 68.05C1159.36 69.95 1157.85 71.4667 1155.91 72.6C1154.01 73.7 1151.85 74.25 1149.41 74.25ZM1149.81 70.75C1151.75 70.75 1153.46 70.3 1154.96 69.4C1156.5 68.5 1157.7 67.2667 1158.56 65.7C1159.46 64.1 1159.91 62.3167 1159.91 60.35C1159.91 58.35 1159.46 56.5667 1158.56 55C1157.7 53.4333 1156.5 52.2 1154.96 51.3C1153.46 50.3667 1151.75 49.9 1149.81 49.9C1147.91 49.9 1146.2 50.3667 1144.66 51.3C1143.13 52.2 1141.91 53.4333 1141.01 55C1140.11 56.5667 1139.66 58.35 1139.66 60.35C1139.66 62.3167 1140.11 64.1 1141.01 65.7C1141.91 67.2667 1143.13 68.5 1144.66 69.4C1146.2 70.3 1147.91 70.75 1149.81 70.75ZM1161.76 74C1161.2 74 1160.73 73.8333 1160.36 73.5C1160 73.1333 1159.81 72.6667 1159.81 72.1V63.55L1160.76 59.6L1163.71 60.35V72.1C1163.71 72.6667 1163.53 73.1333 1163.16 73.5C1162.8 73.8333 1162.33 74 1161.76 74ZM1180 74.25C1178.04 74.25 1176.09 73.9167 1174.15 73.25C1172.22 72.5833 1170.65 71.5833 1169.45 70.25C1169.09 69.85 1168.94 69.4 1169 68.9C1169.07 68.4 1169.32 67.9667 1169.75 67.6C1170.22 67.2667 1170.7 67.1333 1171.2 67.2C1171.7 67.2667 1172.12 67.4833 1172.45 67.85C1173.25 68.7833 1174.3 69.5 1175.6 70C1176.94 70.5 1178.4 70.75 1180 70.75C1182.47 70.75 1184.25 70.3333 1185.35 69.5C1186.45 68.6333 1187.02 67.6 1187.05 66.4C1187.05 65.2 1186.49 64.2167 1185.35 63.45C1184.22 62.65 1182.35 62.0333 1179.75 61.6C1176.39 61.0667 1173.92 60.1333 1172.35 58.8C1170.79 57.4667 1170 55.8833 1170 54.05C1170 52.35 1170.45 50.9333 1171.35 49.8C1172.25 48.6667 1173.45 47.8167 1174.95 47.25C1176.45 46.6833 1178.1 46.4 1179.9 46.4C1182.14 46.4 1184.05 46.7833 1185.65 47.55C1187.29 48.3167 1188.6 49.35 1189.6 50.65C1189.94 51.0833 1190.07 51.5333 1190 52C1189.94 52.4667 1189.67 52.85 1189.2 53.15C1188.8 53.3833 1188.34 53.4667 1187.8 53.4C1187.3 53.3 1186.87 53.05 1186.5 52.65C1185.67 51.6833 1184.7 50.9833 1183.6 50.55C1182.5 50.0833 1181.24 49.85 1179.8 49.85C1177.97 49.85 1176.5 50.2333 1175.4 51C1174.3 51.7333 1173.75 52.6667 1173.75 53.8C1173.75 54.5667 1173.95 55.2333 1174.35 55.8C1174.79 56.3667 1175.5 56.8667 1176.5 57.3C1177.54 57.7333 1178.97 58.1 1180.8 58.4C1183.3 58.8 1185.27 59.4 1186.7 60.2C1188.17 60.9667 1189.2 61.8833 1189.8 62.95C1190.44 63.9833 1190.75 65.1167 1190.75 66.35C1190.75 67.9167 1190.29 69.3 1189.35 70.5C1188.45 71.6667 1187.19 72.5833 1185.55 73.25C1183.95 73.9167 1182.1 74.25 1180 74.25ZM1209.06 74.25C1206.36 74.25 1203.96 73.6667 1201.86 72.5C1199.79 71.3 1198.16 69.65 1196.96 67.55C1195.79 65.45 1195.21 63.05 1195.21 60.35C1195.21 57.6167 1195.76 55.2167 1196.86 53.15C1197.99 51.05 1199.54 49.4 1201.51 48.2C1203.47 47 1205.74 46.4 1208.31 46.4C1210.84 46.4 1213.04 46.9833 1214.91 48.15C1216.81 49.2833 1218.27 50.8667 1219.31 52.9C1220.34 54.9333 1220.86 57.25 1220.86 59.85C1220.86 60.3833 1220.69 60.8167 1220.36 61.15C1220.02 61.45 1219.59 61.6 1219.06 61.6H1197.81V58.4H1219.46L1217.31 59.95C1217.34 58.0167 1216.99 56.2833 1216.26 54.75C1215.52 53.2167 1214.47 52.0167 1213.11 51.15C1211.77 50.2833 1210.17 49.85 1208.31 49.85C1206.41 49.85 1204.74 50.3 1203.31 51.2C1201.87 52.1 1200.76 53.35 1199.96 54.95C1199.19 56.5167 1198.81 58.3167 1198.81 60.35C1198.81 62.3833 1199.24 64.1833 1200.11 65.75C1201.01 67.3167 1202.22 68.55 1203.76 69.45C1205.29 70.35 1207.06 70.8 1209.06 70.8C1210.26 70.8 1211.46 70.6 1212.66 70.2C1213.89 69.7667 1214.87 69.2333 1215.61 68.6C1215.97 68.3 1216.39 68.15 1216.86 68.15C1217.32 68.1167 1217.72 68.2333 1218.06 68.5C1218.49 68.9 1218.71 69.3333 1218.71 69.8C1218.74 70.2667 1218.56 70.6667 1218.16 71C1217.06 71.9333 1215.66 72.7167 1213.96 73.35C1212.26 73.95 1210.62 74.25 1209.06 74.25ZM1251.22 74C1249.45 74 1247.87 73.5833 1246.47 72.75C1245.1 71.9167 1244.02 70.7833 1243.22 69.35C1242.42 67.8833 1242.02 66.2167 1242.02 64.35V39.9C1242.02 39.3333 1242.18 38.8667 1242.52 38.5C1242.88 38.1333 1243.35 37.95 1243.92 37.95C1244.48 37.95 1244.95 38.1333 1245.32 38.5C1245.68 38.8667 1245.87 39.3333 1245.87 39.9V64.35C1245.87 66.05 1246.37 67.45 1247.37 68.55C1248.37 69.6167 1249.65 70.15 1251.22 70.15H1252.57C1253.1 70.15 1253.53 70.3333 1253.87 70.7C1254.2 71.0667 1254.37 71.5333 1254.37 72.1C1254.37 72.6667 1254.17 73.1333 1253.77 73.5C1253.37 73.8333 1252.87 74 1252.27 74H1251.22ZM1238.77 51C1238.27 51 1237.85 50.85 1237.52 50.55C1237.18 50.2167 1237.02 49.8167 1237.02 49.35C1237.02 48.85 1237.18 48.45 1237.52 48.15C1237.85 47.8167 1238.27 47.65 1238.77 47.65H1251.52C1252.02 47.65 1252.43 47.8167 1252.77 48.15C1253.1 48.45 1253.27 48.85 1253.27 49.35C1253.27 49.8167 1253.1 50.2167 1252.77 50.55C1252.43 50.85 1252.02 51 1251.52 51H1238.77ZM1261.48 57.15C1261.58 55.0833 1262.12 53.2333 1263.08 51.6C1264.08 49.9667 1265.37 48.6833 1266.93 47.75C1268.53 46.8167 1270.3 46.35 1272.23 46.35C1273.77 46.35 1274.95 46.5667 1275.78 47C1276.62 47.4333 1276.93 48.0667 1276.73 48.9C1276.6 49.4 1276.37 49.7333 1276.03 49.9C1275.73 50.0667 1275.35 50.1333 1274.88 50.1C1274.45 50.0667 1273.95 50.0333 1273.38 50C1271.52 49.8333 1269.85 50.0333 1268.38 50.6C1266.95 51.1333 1265.8 51.9667 1264.93 53.1C1264.1 54.2333 1263.68 55.5833 1263.68 57.15H1261.48ZM1261.78 74C1261.18 74 1260.72 73.8333 1260.38 73.5C1260.05 73.1667 1259.88 72.7 1259.88 72.1V48.55C1259.88 47.95 1260.05 47.4833 1260.38 47.15C1260.72 46.8167 1261.18 46.65 1261.78 46.65C1262.38 46.65 1262.85 46.8167 1263.18 47.15C1263.52 47.4833 1263.68 47.95 1263.68 48.55V72.1C1263.68 72.7 1263.52 73.1667 1263.18 73.5C1262.85 73.8333 1262.38 74 1261.78 74ZM1286.73 85.9C1286.47 85.9 1286.17 85.8333 1285.83 85.7C1284.7 85.2 1284.38 84.4 1284.88 83.3L1301.03 47.7C1301.53 46.6333 1302.33 46.3333 1303.43 46.8C1304.57 47.2667 1304.88 48.05 1304.38 49.15L1288.18 84.75C1287.85 85.5167 1287.37 85.9 1286.73 85.9ZM1292.28 73.15C1291.78 73.3833 1291.32 73.4333 1290.88 73.3C1290.45 73.1333 1290.1 72.8 1289.83 72.3L1278.68 49.2C1278.45 48.7 1278.42 48.2333 1278.58 47.8C1278.75 47.3667 1279.08 47.0333 1279.58 46.8C1280.08 46.5667 1280.55 46.5333 1280.98 46.7C1281.42 46.8333 1281.75 47.15 1281.98 47.65L1292.93 70.75C1293.2 71.25 1293.28 71.7167 1293.18 72.15C1293.08 72.5833 1292.78 72.9167 1292.28 73.15ZM1334.63 74.25C1332.06 74.25 1329.76 73.65 1327.73 72.45C1325.69 71.2167 1324.08 69.55 1322.88 67.45C1321.71 65.35 1321.13 62.9833 1321.13 60.35C1321.13 57.6833 1321.73 55.3 1322.93 53.2C1324.16 51.1 1325.83 49.45 1327.93 48.25C1330.03 47.0167 1332.39 46.4 1335.03 46.4C1337.66 46.4 1340.01 47.0167 1342.08 48.25C1344.18 49.45 1345.83 51.1 1347.03 53.2C1348.26 55.3 1348.89 57.6833 1348.93 60.35L1347.38 61.55C1347.38 63.95 1346.81 66.1167 1345.68 68.05C1344.58 69.95 1343.06 71.4667 1341.13 72.6C1339.23 73.7 1337.06 74.25 1334.63 74.25ZM1335.03 70.75C1336.96 70.75 1338.68 70.3 1340.18 69.4C1341.71 68.5 1342.91 67.2667 1343.78 65.7C1344.68 64.1 1345.13 62.3167 1345.13 60.35C1345.13 58.35 1344.68 56.5667 1343.78 55C1342.91 53.4333 1341.71 52.2 1340.18 51.3C1338.68 50.3667 1336.96 49.9 1335.03 49.9C1333.13 49.9 1331.41 50.3667 1329.88 51.3C1328.34 52.2 1327.13 53.4333 1326.23 55C1325.33 56.5667 1324.88 58.35 1324.88 60.35C1324.88 62.3167 1325.33 64.1 1326.23 65.7C1327.13 67.2667 1328.34 68.5 1329.88 69.4C1331.41 70.3 1333.13 70.75 1335.03 70.75ZM1346.98 74C1346.41 74 1345.94 73.8333 1345.58 73.5C1345.21 73.1333 1345.03 72.6667 1345.03 72.1V63.55L1345.98 59.6L1348.93 60.35V72.1C1348.93 72.6667 1348.74 73.1333 1348.38 73.5C1348.01 73.8333 1347.54 74 1346.98 74ZM1367.71 74.25C1365.08 74.25 1362.75 73.6667 1360.71 72.5C1358.68 71.3 1357.08 69.65 1355.91 67.55C1354.78 65.45 1354.21 63.05 1354.21 60.35C1354.21 57.6167 1354.81 55.2 1356.01 53.1C1357.21 51 1358.86 49.3667 1360.96 48.2C1363.06 47 1365.45 46.4 1368.11 46.4C1370.81 46.4 1373.2 47 1375.26 48.2C1377.36 49.3667 1379 51 1380.16 53.1C1381.36 55.2 1381.98 57.6167 1382.01 60.35L1379.76 61.55C1379.76 64.0167 1379.25 66.2167 1378.21 68.15C1377.18 70.05 1375.75 71.55 1373.91 72.65C1372.11 73.7167 1370.05 74.25 1367.71 74.25ZM1368.21 84.8C1365.58 84.8 1363.26 84.3 1361.26 83.3C1359.26 82.3333 1357.61 81 1356.31 79.3C1355.95 78.9 1355.78 78.4667 1355.81 78C1355.88 77.5333 1356.13 77.15 1356.56 76.85C1357 76.55 1357.48 76.45 1358.01 76.55C1358.55 76.65 1358.96 76.9 1359.26 77.3C1360.23 78.5 1361.46 79.4667 1362.96 80.2C1364.5 80.9333 1366.26 81.3 1368.26 81.3C1370.13 81.3 1371.81 80.85 1373.31 79.95C1374.81 79.05 1376 77.7833 1376.86 76.15C1377.76 74.5167 1378.21 72.6 1378.21 70.4V62.8L1379.66 59.9L1382.01 60.35V70.55C1382.01 73.25 1381.41 75.6667 1380.21 77.8C1379.01 79.9667 1377.38 81.6667 1375.31 82.9C1373.25 84.1667 1370.88 84.8 1368.21 84.8ZM1368.11 70.75C1370.08 70.75 1371.81 70.3167 1373.31 69.45C1374.85 68.55 1376.05 67.3167 1376.91 65.75C1377.78 64.1833 1378.21 62.3833 1378.21 60.35C1378.21 58.3167 1377.78 56.5167 1376.91 54.95C1376.05 53.35 1374.85 52.1167 1373.31 51.25C1371.81 50.35 1370.08 49.9 1368.11 49.9C1366.15 49.9 1364.4 50.35 1362.86 51.25C1361.33 52.1167 1360.13 53.35 1359.26 54.95C1358.4 56.5167 1357.96 58.3167 1357.96 60.35C1357.96 62.3833 1358.4 64.1833 1359.26 65.75C1360.13 67.3167 1361.33 68.55 1362.86 69.45C1364.4 70.3167 1366.15 70.75 1368.11 70.75ZM1400.8 74.25C1398.23 74.25 1395.93 73.65 1393.9 72.45C1391.87 71.2167 1390.25 69.55 1389.05 67.45C1387.88 65.35 1387.3 62.9833 1387.3 60.35C1387.3 57.6833 1387.9 55.3 1389.1 53.2C1390.33 51.1 1392 49.45 1394.1 48.25C1396.2 47.0167 1398.57 46.4 1401.2 46.4C1403.83 46.4 1406.18 47.0167 1408.25 48.25C1410.35 49.45 1412 51.1 1413.2 53.2C1414.43 55.3 1415.07 57.6833 1415.1 60.35L1413.55 61.55C1413.55 63.95 1412.98 66.1167 1411.85 68.05C1410.75 69.95 1409.23 71.4667 1407.3 72.6C1405.4 73.7 1403.23 74.25 1400.8 74.25ZM1401.2 70.75C1403.13 70.75 1404.85 70.3 1406.35 69.4C1407.88 68.5 1409.08 67.2667 1409.95 65.7C1410.85 64.1 1411.3 62.3167 1411.3 60.35C1411.3 58.35 1410.85 56.5667 1409.95 55C1409.08 53.4333 1407.88 52.2 1406.35 51.3C1404.85 50.3667 1403.13 49.9 1401.2 49.9C1399.3 49.9 1397.58 50.3667 1396.05 51.3C1394.52 52.2 1393.3 53.4333 1392.4 55C1391.5 56.5667 1391.05 58.35 1391.05 60.35C1391.05 62.3167 1391.5 64.1 1392.4 65.7C1393.3 67.2667 1394.52 68.5 1396.05 69.4C1397.58 70.3 1399.3 70.75 1401.2 70.75ZM1413.15 74C1412.58 74 1412.12 73.8333 1411.75 73.5C1411.38 73.1333 1411.2 72.6667 1411.2 72.1V63.55L1412.15 59.6L1415.1 60.35V72.1C1415.1 72.6667 1414.92 73.1333 1414.55 73.5C1414.18 73.8333 1413.72 74 1413.15 74ZM1424.59 74C1423.99 74 1423.51 73.8333 1423.14 73.5C1422.81 73.1333 1422.64 72.65 1422.64 72.05V48.6C1422.64 48 1422.81 47.5333 1423.14 47.2C1423.51 46.8333 1423.99 46.65 1424.59 46.65C1425.16 46.65 1425.61 46.8333 1425.94 47.2C1426.31 47.5333 1426.49 48 1426.49 48.6V72.05C1426.49 72.65 1426.31 73.1333 1425.94 73.5C1425.61 73.8333 1425.16 74 1424.59 74ZM1424.54 41.45C1423.81 41.45 1423.17 41.1833 1422.64 40.65C1422.11 40.1167 1421.84 39.4667 1421.84 38.7C1421.84 37.8667 1422.11 37.2167 1422.64 36.75C1423.21 36.25 1423.86 36 1424.59 36C1425.29 36 1425.91 36.25 1426.44 36.75C1427.01 37.2167 1427.29 37.8667 1427.29 38.7C1427.29 39.4667 1427.02 40.1167 1426.49 40.65C1425.96 41.1833 1425.31 41.45 1424.54 41.45ZM1458.99 74C1458.43 74 1457.96 73.8167 1457.59 73.45C1457.23 73.0833 1457.04 72.6333 1457.04 72.1V59.1C1457.04 57.0333 1456.64 55.3333 1455.84 54C1455.08 52.6667 1454.01 51.6667 1452.64 51C1451.31 50.3333 1449.79 50 1448.09 50C1446.46 50 1444.98 50.3167 1443.64 50.95C1442.34 51.5833 1441.31 52.45 1440.54 53.55C1439.78 54.65 1439.39 55.9 1439.39 57.3H1436.64C1436.71 55.2 1437.28 53.3333 1438.34 51.7C1439.41 50.0333 1440.83 48.7333 1442.59 47.8C1444.36 46.8333 1446.33 46.35 1448.49 46.35C1450.86 46.35 1452.98 46.85 1454.84 47.85C1456.71 48.8167 1458.18 50.25 1459.24 52.15C1460.34 54.05 1460.89 56.3667 1460.89 59.1V72.1C1460.89 72.6333 1460.71 73.0833 1460.34 73.45C1459.98 73.8167 1459.53 74 1458.99 74ZM1437.49 74C1436.89 74 1436.41 73.8333 1436.04 73.5C1435.71 73.1333 1435.54 72.6667 1435.54 72.1V48.6C1435.54 48 1435.71 47.5333 1436.04 47.2C1436.41 46.8333 1436.89 46.65 1437.49 46.65C1438.06 46.65 1438.51 46.8333 1438.84 47.2C1439.21 47.5333 1439.39 48 1439.39 48.6V72.1C1439.39 72.6667 1439.21 73.1333 1438.84 73.5C1438.51 73.8333 1438.06 74 1437.49 74ZM1469.53 74.8C1468.73 74.8 1468.05 74.5167 1467.48 73.95C1466.91 73.3833 1466.63 72.7 1466.63 71.9C1466.63 71.0667 1466.91 70.3667 1467.48 69.8C1468.08 69.2333 1468.76 68.95 1469.53 68.95C1470.33 68.95 1471.01 69.25 1471.58 69.85C1472.15 70.4167 1472.43 71.1 1472.43 71.9C1472.43 72.6667 1472.15 73.35 1471.58 73.95C1471.05 74.5167 1470.36 74.8 1469.53 74.8ZM469.503 186C468.97 186 468.503 185.817 468.103 185.45C467.737 185.05 467.553 184.583 467.553 184.05V146.95H471.453V184.05C471.453 184.583 471.27 185.05 470.903 185.45C470.537 185.817 470.07 186 469.503 186ZM455.703 150.5C455.17 150.5 454.737 150.333 454.403 150C454.07 149.667 453.903 149.25 453.903 148.75C453.903 148.217 454.07 147.783 454.403 147.45C454.737 147.117 455.17 146.95 455.703 146.95H483.353C483.887 146.95 484.32 147.117 484.653 147.45C484.987 147.783 485.153 148.217 485.153 148.75C485.153 149.25 484.987 149.667 484.653 150C484.32 150.333 483.887 150.5 483.353 150.5H455.703ZM484.285 169.15C484.385 167.083 484.918 165.233 485.885 163.6C486.885 161.967 488.168 160.683 489.735 159.75C491.335 158.817 493.101 158.35 495.035 158.35C496.568 158.35 497.751 158.567 498.585 159C499.418 159.433 499.735 160.067 499.535 160.9C499.401 161.4 499.168 161.733 498.835 161.9C498.535 162.067 498.151 162.133 497.685 162.1C497.251 162.067 496.751 162.033 496.185 162C494.318 161.833 492.651 162.033 491.185 162.6C489.751 163.133 488.601 163.967 487.735 165.1C486.901 166.233 486.485 167.583 486.485 169.15H484.285ZM484.585 186C483.985 186 483.518 185.833 483.185 185.5C482.851 185.167 482.685 184.7 482.685 184.1V160.55C482.685 159.95 482.851 159.483 483.185 159.15C483.518 158.817 483.985 158.65 484.585 158.65C485.185 158.65 485.651 158.817 485.985 159.15C486.318 159.483 486.485 159.95 486.485 160.55V184.1C486.485 184.7 486.318 185.167 485.985 185.5C485.651 185.833 485.185 186 484.585 186ZM507.585 186C506.985 186 506.502 185.833 506.135 185.5C505.802 185.133 505.635 184.65 505.635 184.05V160.6C505.635 160 505.802 159.533 506.135 159.2C506.502 158.833 506.985 158.65 507.585 158.65C508.152 158.65 508.602 158.833 508.935 159.2C509.302 159.533 509.485 160 509.485 160.6V184.05C509.485 184.65 509.302 185.133 508.935 185.5C508.602 185.833 508.152 186 507.585 186ZM507.535 153.45C506.802 153.45 506.168 153.183 505.635 152.65C505.102 152.117 504.835 151.467 504.835 150.7C504.835 149.867 505.102 149.217 505.635 148.75C506.202 148.25 506.852 148 507.585 148C508.285 148 508.902 148.25 509.435 148.75C510.002 149.217 510.285 149.867 510.285 150.7C510.285 151.467 510.018 152.117 509.485 152.65C508.952 153.183 508.302 153.45 507.535 153.45ZM530.938 186.25C528.238 186.25 525.838 185.667 523.738 184.5C521.671 183.3 520.038 181.65 518.838 179.55C517.671 177.45 517.088 175.05 517.088 172.35C517.088 169.617 517.638 167.217 518.738 165.15C519.871 163.05 521.421 161.4 523.388 160.2C525.355 159 527.621 158.4 530.188 158.4C532.721 158.4 534.921 158.983 536.788 160.15C538.688 161.283 540.155 162.867 541.188 164.9C542.221 166.933 542.738 169.25 542.738 171.85C542.738 172.383 542.571 172.817 542.238 173.15C541.905 173.45 541.471 173.6 540.938 173.6H519.688V170.4H541.338L539.188 171.95C539.221 170.017 538.871 168.283 538.138 166.75C537.405 165.217 536.355 164.017 534.988 163.15C533.655 162.283 532.055 161.85 530.188 161.85C528.288 161.85 526.621 162.3 525.188 163.2C523.755 164.1 522.638 165.35 521.838 166.95C521.071 168.517 520.688 170.317 520.688 172.35C520.688 174.383 521.121 176.183 521.988 177.75C522.888 179.317 524.105 180.55 525.638 181.45C527.171 182.35 528.938 182.8 530.938 182.8C532.138 182.8 533.338 182.6 534.538 182.2C535.771 181.767 536.755 181.233 537.488 180.6C537.855 180.3 538.271 180.15 538.738 180.15C539.205 180.117 539.605 180.233 539.938 180.5C540.371 180.9 540.588 181.333 540.588 181.8C540.621 182.267 540.438 182.667 540.038 183C538.938 183.933 537.538 184.717 535.838 185.35C534.138 185.95 532.505 186.25 530.938 186.25ZM558.051 186.25C556.084 186.25 554.134 185.917 552.201 185.25C550.268 184.583 548.701 183.583 547.501 182.25C547.134 181.85 546.984 181.4 547.051 180.9C547.118 180.4 547.368 179.967 547.801 179.6C548.268 179.267 548.751 179.133 549.251 179.2C549.751 179.267 550.168 179.483 550.501 179.85C551.301 180.783 552.351 181.5 553.651 182C554.984 182.5 556.451 182.75 558.051 182.75C560.518 182.75 562.301 182.333 563.401 181.5C564.501 180.633 565.068 179.6 565.101 178.4C565.101 177.2 564.534 176.217 563.401 175.45C562.268 174.65 560.401 174.033 557.801 173.6C554.434 173.067 551.968 172.133 550.401 170.8C548.834 169.467 548.051 167.883 548.051 166.05C548.051 164.35 548.501 162.933 549.401 161.8C550.301 160.667 551.501 159.817 553.001 159.25C554.501 158.683 556.151 158.4 557.951 158.4C560.184 158.4 562.101 158.783 563.701 159.55C565.334 160.317 566.651 161.35 567.651 162.65C567.984 163.083 568.118 163.533 568.051 164C567.984 164.467 567.718 164.85 567.251 165.15C566.851 165.383 566.384 165.467 565.851 165.4C565.351 165.3 564.918 165.05 564.551 164.65C563.718 163.683 562.751 162.983 561.651 162.55C560.551 162.083 559.284 161.85 557.851 161.85C556.018 161.85 554.551 162.233 553.451 163C552.351 163.733 551.801 164.667 551.801 165.8C551.801 166.567 552.001 167.233 552.401 167.8C552.834 168.367 553.551 168.867 554.551 169.3C555.584 169.733 557.018 170.1 558.851 170.4C561.351 170.8 563.318 171.4 564.751 172.2C566.218 172.967 567.251 173.883 567.851 174.95C568.484 175.983 568.801 177.117 568.801 178.35C568.801 179.917 568.334 181.3 567.401 182.5C566.501 183.667 565.234 184.583 563.601 185.25C562.001 185.917 560.151 186.25 558.051 186.25ZM590.203 169.15C590.303 167.083 590.836 165.233 591.803 163.6C592.803 161.967 594.086 160.683 595.653 159.75C597.253 158.817 599.019 158.35 600.953 158.35C602.486 158.35 603.669 158.567 604.503 159C605.336 159.433 605.653 160.067 605.453 160.9C605.319 161.4 605.086 161.733 604.753 161.9C604.453 162.067 604.069 162.133 603.603 162.1C603.169 162.067 602.669 162.033 602.103 162C600.236 161.833 598.569 162.033 597.103 162.6C595.669 163.133 594.519 163.967 593.653 165.1C592.819 166.233 592.403 167.583 592.403 169.15H590.203ZM590.503 186C589.903 186 589.436 185.833 589.103 185.5C588.769 185.167 588.603 184.7 588.603 184.1V160.55C588.603 159.95 588.769 159.483 589.103 159.15C589.436 158.817 589.903 158.65 590.503 158.65C591.103 158.65 591.569 158.817 591.903 159.15C592.236 159.483 592.403 159.95 592.403 160.55V184.1C592.403 184.7 592.236 185.167 591.903 185.5C591.569 185.833 591.103 186 590.503 186ZM621.151 186.25C618.451 186.25 616.051 185.667 613.951 184.5C611.884 183.3 610.251 181.65 609.051 179.55C607.884 177.45 607.301 175.05 607.301 172.35C607.301 169.617 607.851 167.217 608.951 165.15C610.084 163.05 611.634 161.4 613.601 160.2C615.568 159 617.834 158.4 620.401 158.4C622.934 158.4 625.134 158.983 627.001 160.15C628.901 161.283 630.368 162.867 631.401 164.9C632.434 166.933 632.951 169.25 632.951 171.85C632.951 172.383 632.784 172.817 632.451 173.15C632.118 173.45 631.684 173.6 631.151 173.6H609.901V170.4H631.551L629.401 171.95C629.434 170.017 629.084 168.283 628.351 166.75C627.618 165.217 626.568 164.017 625.201 163.15C623.868 162.283 622.268 161.85 620.401 161.85C618.501 161.85 616.834 162.3 615.401 163.2C613.968 164.1 612.851 165.35 612.051 166.95C611.284 168.517 610.901 170.317 610.901 172.35C610.901 174.383 611.334 176.183 612.201 177.75C613.101 179.317 614.318 180.55 615.851 181.45C617.384 182.35 619.151 182.8 621.151 182.8C622.351 182.8 623.551 182.6 624.751 182.2C625.984 181.767 626.968 181.233 627.701 180.6C628.068 180.3 628.484 180.15 628.951 180.15C629.418 180.117 629.818 180.233 630.151 180.5C630.584 180.9 630.801 181.333 630.801 181.8C630.834 182.267 630.651 182.667 630.251 183C629.151 183.933 627.751 184.717 626.051 185.35C624.351 185.95 622.718 186.25 621.151 186.25ZM675.664 186C675.097 186 674.631 185.833 674.264 185.5C673.897 185.133 673.714 184.667 673.714 184.1V169.7C673.714 167.333 673.097 165.467 671.864 164.1C670.631 162.7 669.047 162 667.114 162C665.047 162 663.347 162.7 662.014 164.1C660.714 165.467 660.081 167.3 660.114 169.6H656.664C656.697 167.367 657.181 165.4 658.114 163.7C659.047 162 660.331 160.683 661.964 159.75C663.597 158.817 665.447 158.35 667.514 158.35C669.481 158.35 671.214 158.817 672.714 159.75C674.247 160.683 675.431 162 676.264 163.7C677.131 165.4 677.564 167.4 677.564 169.7V184.1C677.564 184.667 677.381 185.133 677.014 185.5C676.681 185.833 676.231 186 675.664 186ZM640.664 186C640.064 186 639.581 185.833 639.214 185.5C638.881 185.133 638.714 184.667 638.714 184.1V160.6C638.714 160.033 638.881 159.567 639.214 159.2C639.581 158.833 640.064 158.65 640.664 158.65C641.231 158.65 641.681 158.833 642.014 159.2C642.381 159.567 642.564 160.033 642.564 160.6V184.1C642.564 184.667 642.381 185.133 642.014 185.5C641.681 185.833 641.231 186 640.664 186ZM658.214 186C657.647 186 657.181 185.833 656.814 185.5C656.447 185.133 656.264 184.667 656.264 184.1V169.7C656.264 167.333 655.647 165.467 654.414 164.1C653.181 162.7 651.597 162 649.664 162C647.597 162 645.897 162.683 644.564 164.05C643.231 165.383 642.564 167.133 642.564 169.3H639.814C639.881 167.167 640.347 165.283 641.214 163.65C642.114 161.983 643.331 160.683 644.864 159.75C646.397 158.817 648.131 158.35 650.064 158.35C652.031 158.35 653.764 158.817 655.264 159.75C656.797 160.683 657.981 162 658.814 163.7C659.681 165.4 660.114 167.4 660.114 169.7V184.1C660.114 184.667 659.931 185.133 659.564 185.5C659.231 185.833 658.781 186 658.214 186ZM697.377 186.25C694.81 186.25 692.51 185.65 690.477 184.45C688.444 183.217 686.827 181.55 685.627 179.45C684.46 177.35 683.877 174.983 683.877 172.35C683.877 169.683 684.477 167.3 685.677 165.2C686.91 163.1 688.577 161.45 690.677 160.25C692.777 159.017 695.144 158.4 697.777 158.4C700.41 158.4 702.76 159.017 704.827 160.25C706.927 161.45 708.577 163.1 709.777 165.2C711.01 167.3 711.644 169.683 711.677 172.35L710.127 173.55C710.127 175.95 709.56 178.117 708.427 180.05C707.327 181.95 705.81 183.467 703.877 184.6C701.977 185.7 699.81 186.25 697.377 186.25ZM697.777 182.75C699.71 182.75 701.427 182.3 702.927 181.4C704.46 180.5 705.66 179.267 706.527 177.7C707.427 176.1 707.877 174.317 707.877 172.35C707.877 170.35 707.427 168.567 706.527 167C705.66 165.433 704.46 164.2 702.927 163.3C701.427 162.367 699.71 161.9 697.777 161.9C695.877 161.9 694.16 162.367 692.627 163.3C691.094 164.2 689.877 165.433 688.977 167C688.077 168.567 687.627 170.35 687.627 172.35C687.627 174.317 688.077 176.1 688.977 177.7C689.877 179.267 691.094 180.5 692.627 181.4C694.16 182.3 695.877 182.75 697.777 182.75ZM709.727 186C709.16 186 708.694 185.833 708.327 185.5C707.96 185.133 707.777 184.667 707.777 184.1V175.55L708.727 171.6L711.677 172.35V184.1C711.677 184.667 711.494 185.133 711.127 185.5C710.76 185.833 710.294 186 709.727 186ZM721.165 186C720.565 186 720.082 185.833 719.715 185.5C719.382 185.133 719.215 184.65 719.215 184.05V160.6C719.215 160 719.382 159.533 719.715 159.2C720.082 158.833 720.565 158.65 721.165 158.65C721.732 158.65 722.182 158.833 722.515 159.2C722.882 159.533 723.065 160 723.065 160.6V184.05C723.065 184.65 722.882 185.133 722.515 185.5C722.182 185.833 721.732 186 721.165 186ZM721.115 153.45C720.382 153.45 719.748 153.183 719.215 152.65C718.682 152.117 718.415 151.467 718.415 150.7C718.415 149.867 718.682 149.217 719.215 148.75C719.782 148.25 720.432 148 721.165 148C721.865 148 722.482 148.25 723.015 148.75C723.582 149.217 723.865 149.867 723.865 150.7C723.865 151.467 723.598 152.117 723.065 152.65C722.532 153.183 721.882 153.45 721.115 153.45ZM755.568 186C755.001 186 754.535 185.817 754.168 185.45C753.801 185.083 753.618 184.633 753.618 184.1V171.1C753.618 169.033 753.218 167.333 752.418 166C751.651 164.667 750.585 163.667 749.218 163C747.885 162.333 746.368 162 744.668 162C743.035 162 741.551 162.317 740.218 162.95C738.918 163.583 737.885 164.45 737.118 165.55C736.351 166.65 735.968 167.9 735.968 169.3H733.218C733.285 167.2 733.851 165.333 734.918 163.7C735.985 162.033 737.401 160.733 739.168 159.8C740.935 158.833 742.901 158.35 745.068 158.35C747.435 158.35 749.551 158.85 751.418 159.85C753.285 160.817 754.751 162.25 755.818 164.15C756.918 166.05 757.468 168.367 757.468 171.1V184.1C757.468 184.633 757.285 185.083 756.918 185.45C756.551 185.817 756.101 186 755.568 186ZM734.068 186C733.468 186 732.985 185.833 732.618 185.5C732.285 185.133 732.118 184.667 732.118 184.1V160.6C732.118 160 732.285 159.533 732.618 159.2C732.985 158.833 733.468 158.65 734.068 158.65C734.635 158.65 735.085 158.833 735.418 159.2C735.785 159.533 735.968 160 735.968 160.6V184.1C735.968 184.667 735.785 185.133 735.418 185.5C735.085 185.833 734.635 186 734.068 186ZM767.956 186C767.356 186 766.873 185.833 766.506 185.5C766.173 185.133 766.006 184.65 766.006 184.05V160.6C766.006 160 766.173 159.533 766.506 159.2C766.873 158.833 767.356 158.65 767.956 158.65C768.523 158.65 768.973 158.833 769.306 159.2C769.673 159.533 769.856 160 769.856 160.6V184.05C769.856 184.65 769.673 185.133 769.306 185.5C768.973 185.833 768.523 186 767.956 186ZM767.906 153.45C767.173 153.45 766.539 153.183 766.006 152.65C765.473 152.117 765.206 151.467 765.206 150.7C765.206 149.867 765.473 149.217 766.006 148.75C766.573 148.25 767.223 148 767.956 148C768.656 148 769.273 148.25 769.806 148.75C770.373 149.217 770.656 149.867 770.656 150.7C770.656 151.467 770.389 152.117 769.856 152.65C769.323 153.183 768.673 153.45 767.906 153.45ZM802.359 186C801.793 186 801.326 185.817 800.959 185.45C800.593 185.083 800.409 184.633 800.409 184.1V171.1C800.409 169.033 800.009 167.333 799.209 166C798.443 164.667 797.376 163.667 796.009 163C794.676 162.333 793.159 162 791.459 162C789.826 162 788.343 162.317 787.009 162.95C785.709 163.583 784.676 164.45 783.909 165.55C783.143 166.65 782.759 167.9 782.759 169.3H780.009C780.076 167.2 780.643 165.333 781.709 163.7C782.776 162.033 784.193 160.733 785.959 159.8C787.726 158.833 789.693 158.35 791.859 158.35C794.226 158.35 796.343 158.85 798.209 159.85C800.076 160.817 801.543 162.25 802.609 164.15C803.709 166.05 804.259 168.367 804.259 171.1V184.1C804.259 184.633 804.076 185.083 803.709 185.45C803.343 185.817 802.893 186 802.359 186ZM780.859 186C780.259 186 779.776 185.833 779.409 185.5C779.076 185.133 778.909 184.667 778.909 184.1V160.6C778.909 160 779.076 159.533 779.409 159.2C779.776 158.833 780.259 158.65 780.859 158.65C781.426 158.65 781.876 158.833 782.209 159.2C782.576 159.533 782.759 160 782.759 160.6V184.1C782.759 184.667 782.576 185.133 782.209 185.5C781.876 185.833 781.426 186 780.859 186ZM824.047 186.25C821.414 186.25 819.08 185.667 817.047 184.5C815.014 183.3 813.414 181.65 812.247 179.55C811.114 177.45 810.547 175.05 810.547 172.35C810.547 169.617 811.147 167.2 812.347 165.1C813.547 163 815.197 161.367 817.297 160.2C819.397 159 821.78 158.4 824.447 158.4C827.147 158.4 829.53 159 831.597 160.2C833.697 161.367 835.33 163 836.497 165.1C837.697 167.2 838.314 169.617 838.347 172.35L836.097 173.55C836.097 176.017 835.58 178.217 834.547 180.15C833.514 182.05 832.08 183.55 830.247 184.65C828.447 185.717 826.38 186.25 824.047 186.25ZM824.547 196.8C821.914 196.8 819.597 196.3 817.597 195.3C815.597 194.333 813.947 193 812.647 191.3C812.28 190.9 812.114 190.467 812.147 190C812.214 189.533 812.464 189.15 812.897 188.85C813.33 188.55 813.814 188.45 814.347 188.55C814.88 188.65 815.297 188.9 815.597 189.3C816.564 190.5 817.797 191.467 819.297 192.2C820.83 192.933 822.597 193.3 824.597 193.3C826.464 193.3 828.147 192.85 829.647 191.95C831.147 191.05 832.33 189.783 833.197 188.15C834.097 186.517 834.547 184.6 834.547 182.4V174.8L835.997 171.9L838.347 172.35V182.55C838.347 185.25 837.747 187.667 836.547 189.8C835.347 191.967 833.714 193.667 831.647 194.9C829.58 196.167 827.214 196.8 824.547 196.8ZM824.447 182.75C826.414 182.75 828.147 182.317 829.647 181.45C831.18 180.55 832.38 179.317 833.247 177.75C834.114 176.183 834.547 174.383 834.547 172.35C834.547 170.317 834.114 168.517 833.247 166.95C832.38 165.35 831.18 164.117 829.647 163.25C828.147 162.35 826.414 161.9 824.447 161.9C822.48 161.9 820.73 162.35 819.197 163.25C817.664 164.117 816.464 165.35 815.597 166.95C814.73 168.517 814.297 170.317 814.297 172.35C814.297 174.383 814.73 176.183 815.597 177.75C816.464 179.317 817.664 180.55 819.197 181.45C820.73 182.317 822.48 182.75 824.447 182.75ZM845.085 164.8C844.285 164.8 843.585 164.533 842.985 164C842.418 163.433 842.135 162.733 842.135 161.9C842.135 161.067 842.418 160.367 842.985 159.8C843.552 159.233 844.252 158.95 845.085 158.95C845.885 158.95 846.552 159.25 847.085 159.85C847.652 160.417 847.935 161.1 847.935 161.9C847.935 162.7 847.652 163.383 847.085 163.95C846.552 164.517 845.885 164.8 845.085 164.8ZM845.185 186.8C844.385 186.8 843.702 186.517 843.135 185.95C842.568 185.383 842.285 184.7 842.285 183.9C842.285 183.067 842.568 182.367 843.135 181.8C843.735 181.233 844.418 180.95 845.185 180.95C845.985 180.95 846.668 181.25 847.235 181.85C847.802 182.417 848.085 183.1 848.085 183.9C848.085 184.667 847.802 185.35 847.235 185.95C846.702 186.517 846.018 186.8 845.185 186.8ZM1037.23 186C1036.66 186 1036.2 185.817 1035.83 185.45C1035.46 185.083 1035.28 184.617 1035.28 184.05V148.9C1035.28 148.333 1035.46 147.867 1035.83 147.5C1036.2 147.133 1036.66 146.95 1037.23 146.95C1037.83 146.95 1038.33 147.183 1038.73 147.65L1062.63 179.05V148.9C1062.63 148.333 1062.81 147.867 1063.18 147.5C1063.55 147.133 1064.01 146.95 1064.58 146.95C1065.11 146.95 1065.56 147.133 1065.93 147.5C1066.33 147.867 1066.53 148.333 1066.53 148.9V184.05C1066.53 184.617 1066.33 185.083 1065.93 185.45C1065.56 185.817 1065.11 186 1064.58 186C1064.31 186 1064.05 185.95 1063.78 185.85C1063.51 185.75 1063.3 185.583 1063.13 185.35L1039.18 153.95V184.05C1039.18 184.617 1038.98 185.083 1038.58 185.45C1038.21 185.817 1037.76 186 1037.23 186ZM1087.69 186.25C1084.99 186.25 1082.59 185.667 1080.49 184.5C1078.42 183.3 1076.79 181.65 1075.59 179.55C1074.42 177.45 1073.84 175.05 1073.84 172.35C1073.84 169.617 1074.39 167.217 1075.49 165.15C1076.62 163.05 1078.17 161.4 1080.14 160.2C1082.11 159 1084.37 158.4 1086.94 158.4C1089.47 158.4 1091.67 158.983 1093.54 160.15C1095.44 161.283 1096.91 162.867 1097.94 164.9C1098.97 166.933 1099.49 169.25 1099.49 171.85C1099.49 172.383 1099.32 172.817 1098.99 173.15C1098.66 173.45 1098.22 173.6 1097.69 173.6H1076.44V170.4H1098.09L1095.94 171.95C1095.97 170.017 1095.62 168.283 1094.89 166.75C1094.16 165.217 1093.11 164.017 1091.74 163.15C1090.41 162.283 1088.81 161.85 1086.94 161.85C1085.04 161.85 1083.37 162.3 1081.94 163.2C1080.51 164.1 1079.39 165.35 1078.59 166.95C1077.82 168.517 1077.44 170.317 1077.44 172.35C1077.44 174.383 1077.87 176.183 1078.74 177.75C1079.64 179.317 1080.86 180.55 1082.39 181.45C1083.92 182.35 1085.69 182.8 1087.69 182.8C1088.89 182.8 1090.09 182.6 1091.29 182.2C1092.52 181.767 1093.51 181.233 1094.24 180.6C1094.61 180.3 1095.02 180.15 1095.49 180.15C1095.96 180.117 1096.36 180.233 1096.69 180.5C1097.12 180.9 1097.34 181.333 1097.34 181.8C1097.37 182.267 1097.19 182.667 1096.79 183C1095.69 183.933 1094.29 184.717 1092.59 185.35C1090.89 185.95 1089.26 186.25 1087.69 186.25ZM1122.84 186C1122.44 186 1122.11 185.933 1121.84 185.8C1121.61 185.667 1121.36 185.433 1121.09 185.1L1112.44 174.1L1110.94 172.8L1102.24 161.75C1101.87 161.317 1101.69 160.867 1101.69 160.4C1101.72 159.933 1101.89 159.533 1102.19 159.2C1102.49 158.833 1102.92 158.65 1103.49 158.65C1104.06 158.65 1104.54 158.85 1104.94 159.25L1113.34 170L1114.69 171.1L1123.99 183C1124.42 183.533 1124.61 184.033 1124.54 184.5C1124.47 184.967 1124.26 185.333 1123.89 185.6C1123.56 185.867 1123.21 186 1122.84 186ZM1103.04 186C1102.51 186 1102.07 185.833 1101.74 185.5C1101.44 185.167 1101.27 184.767 1101.24 184.3C1101.24 183.833 1101.42 183.383 1101.79 182.95L1110.99 171.45L1113.14 174.3L1104.39 185.4C1104.09 185.8 1103.64 186 1103.04 186ZM1114.74 173L1112.29 170.5L1120.94 159.55C1121.17 159.217 1121.42 158.983 1121.69 158.85C1121.99 158.717 1122.29 158.65 1122.59 158.65C1123.16 158.65 1123.59 158.833 1123.89 159.2C1124.19 159.533 1124.32 159.95 1124.29 160.45C1124.29 160.917 1124.12 161.367 1123.79 161.8L1114.74 173ZM1141.08 186C1139.32 186 1137.73 185.583 1136.33 184.75C1134.97 183.917 1133.88 182.783 1133.08 181.35C1132.28 179.883 1131.88 178.217 1131.88 176.35V151.9C1131.88 151.333 1132.05 150.867 1132.38 150.5C1132.75 150.133 1133.22 149.95 1133.78 149.95C1134.35 149.95 1134.82 150.133 1135.18 150.5C1135.55 150.867 1135.73 151.333 1135.73 151.9V176.35C1135.73 178.05 1136.23 179.45 1137.23 180.55C1138.23 181.617 1139.52 182.15 1141.08 182.15H1142.43C1142.97 182.15 1143.4 182.333 1143.73 182.7C1144.07 183.067 1144.23 183.533 1144.23 184.1C1144.23 184.667 1144.03 185.133 1143.63 185.5C1143.23 185.833 1142.73 186 1142.13 186H1141.08ZM1128.63 163C1128.13 163 1127.72 162.85 1127.38 162.55C1127.05 162.217 1126.88 161.817 1126.88 161.35C1126.88 160.85 1127.05 160.45 1127.38 160.15C1127.72 159.817 1128.13 159.65 1128.63 159.65H1141.38C1141.88 159.65 1142.3 159.817 1142.63 160.15C1142.97 160.45 1143.13 160.85 1143.13 161.35C1143.13 161.817 1142.97 162.217 1142.63 162.55C1142.3 162.85 1141.88 163 1141.38 163H1128.63ZM1179.7 186.8C1176.66 186.8 1173.96 186.217 1171.6 185.05C1169.26 183.883 1167.43 182.267 1166.1 180.2C1164.8 178.133 1164.15 175.767 1164.15 173.1V148.9C1164.15 148.333 1164.33 147.867 1164.7 147.5C1165.06 147.133 1165.53 146.95 1166.1 146.95C1166.66 146.95 1167.13 147.133 1167.5 147.5C1167.86 147.867 1168.05 148.333 1168.05 148.9V173.1C1168.05 175.067 1168.53 176.8 1169.5 178.3C1170.5 179.8 1171.88 180.983 1173.65 181.85C1175.41 182.683 1177.43 183.1 1179.7 183.1C1181.93 183.1 1183.91 182.683 1185.65 181.85C1187.38 180.983 1188.73 179.8 1189.7 178.3C1190.7 176.8 1191.2 175.067 1191.2 173.1V148.9C1191.2 148.333 1191.38 147.867 1191.75 147.5C1192.11 147.133 1192.58 146.95 1193.15 146.95C1193.75 146.95 1194.21 147.133 1194.55 147.5C1194.91 147.867 1195.1 148.333 1195.1 148.9V173.1C1195.1 175.767 1194.43 178.133 1193.1 180.2C1191.8 182.267 1189.98 183.883 1187.65 185.05C1185.35 186.217 1182.7 186.8 1179.7 186.8ZM1227.31 186C1226.75 186 1226.28 185.817 1225.91 185.45C1225.55 185.083 1225.36 184.633 1225.36 184.1V171.1C1225.36 169.033 1224.96 167.333 1224.16 166C1223.4 164.667 1222.33 163.667 1220.96 163C1219.63 162.333 1218.11 162 1216.41 162C1214.78 162 1213.3 162.317 1211.96 162.95C1210.66 163.583 1209.63 164.45 1208.86 165.55C1208.1 166.65 1207.71 167.9 1207.71 169.3H1204.96C1205.03 167.2 1205.6 165.333 1206.66 163.7C1207.73 162.033 1209.15 160.733 1210.91 159.8C1212.68 158.833 1214.65 158.35 1216.81 158.35C1219.18 158.35 1221.3 158.85 1223.16 159.85C1225.03 160.817 1226.5 162.25 1227.56 164.15C1228.66 166.05 1229.21 168.367 1229.21 171.1V184.1C1229.21 184.633 1229.03 185.083 1228.66 185.45C1228.3 185.817 1227.85 186 1227.31 186ZM1205.81 186C1205.21 186 1204.73 185.833 1204.36 185.5C1204.03 185.133 1203.86 184.667 1203.86 184.1V160.6C1203.86 160 1204.03 159.533 1204.36 159.2C1204.73 158.833 1205.21 158.65 1205.81 158.65C1206.38 158.65 1206.83 158.833 1207.16 159.2C1207.53 159.533 1207.71 160 1207.71 160.6V184.1C1207.71 184.667 1207.53 185.133 1207.16 185.5C1206.83 185.833 1206.38 186 1205.81 186ZM1242.85 186C1241.52 186 1240.32 185.633 1239.25 184.9C1238.22 184.167 1237.4 183.15 1236.8 181.85C1236.24 180.55 1235.95 179.05 1235.95 177.35V148.85C1235.95 148.283 1236.12 147.833 1236.45 147.5C1236.82 147.133 1237.29 146.95 1237.85 146.95C1238.42 146.95 1238.87 147.133 1239.2 147.5C1239.57 147.833 1239.75 148.283 1239.75 148.85V177.35C1239.75 178.783 1240.04 179.95 1240.6 180.85C1241.2 181.75 1241.95 182.2 1242.85 182.2H1244.1C1244.6 182.2 1245 182.383 1245.3 182.75C1245.6 183.083 1245.75 183.533 1245.75 184.1C1245.75 184.667 1245.54 185.133 1245.1 185.5C1244.7 185.833 1244.17 186 1243.5 186H1242.85ZM1261.25 186.25C1258.58 186.25 1256.2 185.65 1254.1 184.45C1252 183.25 1250.35 181.6 1249.15 179.5C1247.95 177.4 1247.35 175.017 1247.35 172.35C1247.35 169.65 1247.95 167.25 1249.15 165.15C1250.35 163.05 1252 161.4 1254.1 160.2C1256.2 159 1258.58 158.4 1261.25 158.4C1263.92 158.4 1266.28 159 1268.35 160.2C1270.45 161.4 1272.1 163.05 1273.3 165.15C1274.5 167.25 1275.12 169.65 1275.15 172.35C1275.15 175.017 1274.53 177.4 1273.3 179.5C1272.1 181.6 1270.45 183.25 1268.35 184.45C1266.28 185.65 1263.92 186.25 1261.25 186.25ZM1261.25 182.75C1263.18 182.75 1264.92 182.3 1266.45 181.4C1267.98 180.5 1269.18 179.267 1270.05 177.7C1270.92 176.133 1271.35 174.35 1271.35 172.35C1271.35 170.35 1270.92 168.567 1270.05 167C1269.18 165.4 1267.98 164.15 1266.45 163.25C1264.92 162.35 1263.18 161.9 1261.25 161.9C1259.32 161.9 1257.58 162.35 1256.05 163.25C1254.52 164.15 1253.3 165.4 1252.4 167C1251.53 168.567 1251.1 170.35 1251.1 172.35C1251.1 174.35 1251.53 176.133 1252.4 177.7C1253.3 179.267 1254.52 180.5 1256.05 181.4C1257.58 182.3 1259.32 182.75 1261.25 182.75ZM1294.09 186.25C1291.45 186.25 1289.1 185.65 1287.04 184.45C1285 183.217 1283.39 181.55 1282.19 179.45C1281.02 177.35 1280.44 174.983 1280.44 172.35C1280.44 169.683 1281 167.3 1282.14 165.2C1283.27 163.1 1284.82 161.45 1286.79 160.25C1288.75 159.017 1291.02 158.4 1293.59 158.4C1295.62 158.4 1297.49 158.8 1299.19 159.6C1300.92 160.4 1302.44 161.6 1303.74 163.2C1304.1 163.6 1304.24 164.033 1304.14 164.5C1304.04 164.933 1303.75 165.317 1303.29 165.65C1302.92 165.917 1302.5 166.017 1302.04 165.95C1301.6 165.85 1301.22 165.6 1300.89 165.2C1298.95 163 1296.52 161.9 1293.59 161.9C1291.72 161.9 1290.07 162.35 1288.64 163.25C1287.24 164.15 1286.14 165.383 1285.34 166.95C1284.57 168.517 1284.19 170.317 1284.19 172.35C1284.19 174.35 1284.6 176.133 1285.44 177.7C1286.27 179.267 1287.44 180.5 1288.94 181.4C1290.44 182.3 1292.15 182.75 1294.09 182.75C1295.39 182.75 1296.57 182.583 1297.64 182.25C1298.74 181.883 1299.7 181.333 1300.54 180.6C1300.94 180.267 1301.35 180.083 1301.79 180.05C1302.22 180.017 1302.62 180.15 1302.99 180.45C1303.39 180.817 1303.6 181.233 1303.64 181.7C1303.7 182.167 1303.55 182.567 1303.19 182.9C1300.75 185.133 1297.72 186.25 1294.09 186.25ZM1314.07 176.85L1311.72 174.3L1328.82 158.85C1329.22 158.483 1329.64 158.317 1330.07 158.35C1330.51 158.35 1330.91 158.55 1331.27 158.95C1331.64 159.35 1331.81 159.783 1331.77 160.25C1331.77 160.683 1331.57 161.067 1331.17 161.4L1314.07 176.85ZM1312.82 186C1312.26 186 1311.79 185.833 1311.42 185.5C1311.09 185.133 1310.92 184.667 1310.92 184.1V148.85C1310.92 148.283 1311.09 147.833 1311.42 147.5C1311.79 147.133 1312.26 146.95 1312.82 146.95C1313.39 146.95 1313.84 147.133 1314.17 147.5C1314.54 147.833 1314.72 148.283 1314.72 148.85V184.1C1314.72 184.667 1314.54 185.133 1314.17 185.5C1313.84 185.833 1313.39 186 1312.82 186ZM1331.32 185.75C1330.89 186.117 1330.44 186.267 1329.97 186.2C1329.51 186.167 1329.11 185.933 1328.77 185.5L1317.62 171.8L1320.32 169.4L1331.57 183.25C1331.91 183.65 1332.06 184.083 1332.02 184.55C1331.99 184.983 1331.76 185.383 1331.32 185.75ZM1363.38 186C1361.62 186 1360.03 185.583 1358.63 184.75C1357.27 183.917 1356.18 182.783 1355.38 181.35C1354.58 179.883 1354.18 178.217 1354.18 176.35V151.9C1354.18 151.333 1354.35 150.867 1354.68 150.5C1355.05 150.133 1355.52 149.95 1356.08 149.95C1356.65 149.95 1357.12 150.133 1357.48 150.5C1357.85 150.867 1358.03 151.333 1358.03 151.9V176.35C1358.03 178.05 1358.53 179.45 1359.53 180.55C1360.53 181.617 1361.82 182.15 1363.38 182.15H1364.73C1365.27 182.15 1365.7 182.333 1366.03 182.7C1366.37 183.067 1366.53 183.533 1366.53 184.1C1366.53 184.667 1366.33 185.133 1365.93 185.5C1365.53 185.833 1365.03 186 1364.43 186H1363.38ZM1350.93 163C1350.43 163 1350.02 162.85 1349.68 162.55C1349.35 162.217 1349.18 161.817 1349.18 161.35C1349.18 160.85 1349.35 160.45 1349.68 160.15C1350.02 159.817 1350.43 159.65 1350.93 159.65H1363.68C1364.18 159.65 1364.6 159.817 1364.93 160.15C1365.27 160.45 1365.43 160.85 1365.43 161.35C1365.43 161.817 1365.27 162.217 1364.93 162.55C1364.6 162.85 1364.18 163 1363.68 163H1350.93ZM1374.8 186C1374.2 186 1373.72 185.833 1373.35 185.5C1373.02 185.133 1372.85 184.65 1372.85 184.05V160.6C1372.85 160 1373.02 159.533 1373.35 159.2C1373.72 158.833 1374.2 158.65 1374.8 158.65C1375.37 158.65 1375.82 158.833 1376.15 159.2C1376.52 159.533 1376.7 160 1376.7 160.6V184.05C1376.7 184.65 1376.52 185.133 1376.15 185.5C1375.82 185.833 1375.37 186 1374.8 186ZM1374.75 153.45C1374.02 153.45 1373.39 153.183 1372.85 152.65C1372.32 152.117 1372.05 151.467 1372.05 150.7C1372.05 149.867 1372.32 149.217 1372.85 148.75C1373.42 148.25 1374.07 148 1374.8 148C1375.5 148 1376.12 148.25 1376.65 148.75C1377.22 149.217 1377.5 149.867 1377.5 150.7C1377.5 151.467 1377.24 152.117 1376.7 152.65C1376.17 153.183 1375.52 153.45 1374.75 153.45ZM1422.7 186C1422.14 186 1421.67 185.833 1421.3 185.5C1420.94 185.133 1420.75 184.667 1420.75 184.1V169.7C1420.75 167.333 1420.14 165.467 1418.9 164.1C1417.67 162.7 1416.09 162 1414.15 162C1412.09 162 1410.39 162.7 1409.05 164.1C1407.75 165.467 1407.12 167.3 1407.15 169.6H1403.7C1403.74 167.367 1404.22 165.4 1405.15 163.7C1406.09 162 1407.37 160.683 1409 159.75C1410.64 158.817 1412.49 158.35 1414.55 158.35C1416.52 158.35 1418.25 158.817 1419.75 159.75C1421.29 160.683 1422.47 162 1423.3 163.7C1424.17 165.4 1424.6 167.4 1424.6 169.7V184.1C1424.6 184.667 1424.42 185.133 1424.05 185.5C1423.72 185.833 1423.27 186 1422.7 186ZM1387.7 186C1387.1 186 1386.62 185.833 1386.25 185.5C1385.92 185.133 1385.75 184.667 1385.75 184.1V160.6C1385.75 160.033 1385.92 159.567 1386.25 159.2C1386.62 158.833 1387.1 158.65 1387.7 158.65C1388.27 158.65 1388.72 158.833 1389.05 159.2C1389.42 159.567 1389.6 160.033 1389.6 160.6V184.1C1389.6 184.667 1389.42 185.133 1389.05 185.5C1388.72 185.833 1388.27 186 1387.7 186ZM1405.25 186C1404.69 186 1404.22 185.833 1403.85 185.5C1403.49 185.133 1403.3 184.667 1403.3 184.1V169.7C1403.3 167.333 1402.69 165.467 1401.45 164.1C1400.22 162.7 1398.64 162 1396.7 162C1394.64 162 1392.94 162.683 1391.6 164.05C1390.27 165.383 1389.6 167.133 1389.6 169.3H1386.85C1386.92 167.167 1387.39 165.283 1388.25 163.65C1389.15 161.983 1390.37 160.683 1391.9 159.75C1393.44 158.817 1395.17 158.35 1397.1 158.35C1399.07 158.35 1400.8 158.817 1402.3 159.75C1403.84 160.683 1405.02 162 1405.85 163.7C1406.72 165.4 1407.15 167.4 1407.15 169.7V184.1C1407.15 184.667 1406.97 185.133 1406.6 185.5C1406.27 185.833 1405.82 186 1405.25 186ZM1444.77 186.25C1442.07 186.25 1439.67 185.667 1437.57 184.5C1435.5 183.3 1433.87 181.65 1432.67 179.55C1431.5 177.45 1430.92 175.05 1430.92 172.35C1430.92 169.617 1431.47 167.217 1432.57 165.15C1433.7 163.05 1435.25 161.4 1437.22 160.2C1439.18 159 1441.45 158.4 1444.02 158.4C1446.55 158.4 1448.75 158.983 1450.62 160.15C1452.52 161.283 1453.98 162.867 1455.02 164.9C1456.05 166.933 1456.57 169.25 1456.57 171.85C1456.57 172.383 1456.4 172.817 1456.07 173.15C1455.73 173.45 1455.3 173.6 1454.77 173.6H1433.52V170.4H1455.17L1453.02 171.95C1453.05 170.017 1452.7 168.283 1451.97 166.75C1451.23 165.217 1450.18 164.017 1448.82 163.15C1447.48 162.283 1445.88 161.85 1444.02 161.85C1442.12 161.85 1440.45 162.3 1439.02 163.2C1437.58 164.1 1436.47 165.35 1435.67 166.95C1434.9 168.517 1434.52 170.317 1434.52 172.35C1434.52 174.383 1434.95 176.183 1435.82 177.75C1436.72 179.317 1437.93 180.55 1439.47 181.45C1441 182.35 1442.77 182.8 1444.77 182.8C1445.97 182.8 1447.17 182.6 1448.37 182.2C1449.6 181.767 1450.58 181.233 1451.32 180.6C1451.68 180.3 1452.1 180.15 1452.57 180.15C1453.03 180.117 1453.43 180.233 1453.77 180.5C1454.2 180.9 1454.42 181.333 1454.42 181.8C1454.45 182.267 1454.27 182.667 1453.87 183C1452.77 183.933 1451.37 184.717 1449.67 185.35C1447.97 185.95 1446.33 186.25 1444.77 186.25ZM1462.33 164.8C1461.53 164.8 1460.83 164.533 1460.23 164C1459.66 163.433 1459.38 162.733 1459.38 161.9C1459.38 161.067 1459.66 160.367 1460.23 159.8C1460.8 159.233 1461.5 158.95 1462.33 158.95C1463.13 158.95 1463.8 159.25 1464.33 159.85C1464.9 160.417 1465.18 161.1 1465.18 161.9C1465.18 162.7 1464.9 163.383 1464.33 163.95C1463.8 164.517 1463.13 164.8 1462.33 164.8ZM1462.43 186.8C1461.63 186.8 1460.95 186.517 1460.38 185.95C1459.81 185.383 1459.53 184.7 1459.53 183.9C1459.53 183.067 1459.81 182.367 1460.38 181.8C1460.98 181.233 1461.66 180.95 1462.43 180.95C1463.23 180.95 1463.91 181.25 1464.48 181.85C1465.05 182.417 1465.33 183.1 1465.33 183.9C1465.33 184.667 1465.05 185.35 1464.48 185.95C1463.95 186.517 1463.26 186.8 1462.43 186.8Z" fill="black"/>
</g>
<defs>
<filter id="filter0_dd" x="449.903" y="34.9004" width="1026.53" height="169.9" filterUnits="userSpaceOnUse" color-interpolation-filters="sRGB">
<feFlood flood-opacity="0" result="BackgroundImageFix"/>
<feColorMatrix in="SourceAlpha" type="matrix" values="0 0 0 0 0 0 0 0 0 0 0 0 0 0 0 0 0 0 127 0"/>
<feOffset dy="4"/>
<feGaussianBlur stdDeviation="2"/>
<feColorMatrix type="matrix" values="0 0 0 0 0 0 0 0 0 0 0 0 0 0 0 0 0 0 0.25 0"/>
<feBlend mode="normal" in2="BackgroundImageFix" result="effect1_dropShadow"/>
<feColorMatrix in="SourceAlpha" type="matrix" values="0 0 0 0 0 0 0 0 0 0 0 0 0 0 0 0 0 0 127 0"/>
<feOffset dy="4"/>
<feGaussianBlur stdDeviation="2"/>
<feColorMatrix type="matrix" values="0 0 0 0 0 0 0 0 0 0 0 0 0 0 0 0 0 0 0.25 0"/>
<feBlend mode="normal" in2="effect1_dropShadow" result="effect2_dropShadow"/>
<feBlend mode="normal" in="SourceGraphic" in2="effect2_dropShadow" result="shape"/>
</filter>
</defs>
</svg>
