<svg width="2300" height="1088" viewBox="0 0 2300 1088" fill="none" xmlns="http://www.w3.org/2000/svg">
<path d="M405 4H1485V1084H405V4Z" fill="black"/>
<g filter="url(#filter0_bf)">
<rect x="405" y="4" width="1080" height="1080" fill="#A9A9A0"/>
<rect x="415" y="14" width="1060" height="1060" stroke="#95F193" stroke-width="20" stroke-linejoin="bevel"/>
</g>
<g filter="url(#filter1_dd)">
<circle cx="945" cy="872" r="90" fill="#CCFFEB"/>
<circle cx="945" cy="872" r="89.5" stroke="#AEA3A3"/>
</g>
<g filter="url(#filter2_dd)">
<circle cx="602" cy="216" r="90" fill="#CCFFEB"/>
<circle cx="602" cy="216" r="89.5" stroke="#AEA3A3"/>
</g>
<g filter="url(#filter3_dd)">
<circle cx="602" cy="544" r="90" fill="#CCFFEB"/>
<circle cx="602" cy="544" r="89.5" stroke="#AEA3A3"/>
</g>
<g filter="url(#filter4_dd)">
<circle cx="602" cy="872" r="90" fill="#CCFFEB"/>
<circle cx="602" cy="872" r="89.5" stroke="#AEA3A3"/>
</g>
<g filter="url(#filter5_dd)">
<circle cx="1288" cy="544" r="90" fill="#CCFFEB"/>
<circle cx="1288" cy="544" r="89.5" stroke="#AEA3A3"/>
</g>
<g filter="url(#filter6_dd)">
<circle cx="1288" cy="872" r="90" fill="#CCFFEB"/>
<circle cx="1288" cy="872" r="89.5" stroke="#AEA3A3"/>
</g>
<g filter="url(#filter7_dd)">
<circle cx="945" cy="216" r="90" fill="#CCFFEB"/>
<circle cx="945" cy="216" r="89.5" stroke="#BC6E6E"/>
</g>
<circle cx="602" cy="544" r="15" fill="#9A9999"/>
<circle cx="1288" cy="544" r="15" fill="#9A9999"/>
<circle cx="602" cy="872" r="15" fill="#9A9999"/>
<circle cx="945" cy="872" r="15" fill="#9A9999"/>
<circle cx="1288" cy="872" r="15" fill="#9A9999"/>
<circle cx="602" cy="216" r="15" fill="#9A9999"/>
<circle cx="945" cy="216" r="15" fill="#9A9999"/>
<g filter="url(#filter8_dd)">
<circle cx="1273" cy="201" r="100" fill="#FFF4B9"/>
<circle cx="1273" cy="201" r="100.5" stroke="#FFE663"/>
</g>
<g filter="url(#filter9_d)">
<circle cx="1273" cy="201" r="15" fill="#FFE663"/>
</g>
<g filter="url(#filter10_df)">
<path d="M930.5 529.5L1273 201" stroke="#FFE663" stroke-width="15"/>
</g>
<path d="M0 405H1920V634H0V405Z" fill="#E5E5E5"/>
<g filter="url(#filter11_dd)">
<path d="M498.138 536C497.571 536 497.104 535.817 496.738 535.45C496.371 535.083 496.188 534.617 496.188 534.05V498.9C496.188 498.333 496.371 497.867 496.738 497.5C497.104 497.133 497.571 496.95 498.138 496.95H508.138C510.604 496.95 512.788 497.5 514.688 498.6C516.588 499.667 518.071 501.15 519.138 503.05C520.204 504.95 520.738 507.15 520.738 509.65C520.738 512.083 520.204 514.25 519.138 516.15C518.071 518.017 516.588 519.5 514.688 520.6C512.788 521.667 510.604 522.2 508.138 522.2H500.088V534.05C500.088 534.617 499.904 535.083 499.538 535.45C499.171 535.817 498.704 536 498.138 536ZM500.088 518.45H508.138C509.838 518.45 511.354 518.083 512.688 517.35C514.021 516.583 515.054 515.533 515.788 514.2C516.554 512.867 516.938 511.35 516.938 509.65C516.938 507.883 516.554 506.333 515.788 505C515.054 503.667 514.021 502.617 512.688 501.85C511.354 501.083 509.838 500.7 508.138 500.7H500.088V518.45ZM536.626 536.25C534.06 536.25 531.76 535.65 529.726 534.45C527.693 533.217 526.076 531.55 524.876 529.45C523.71 527.35 523.126 524.983 523.126 522.35C523.126 519.683 523.726 517.3 524.926 515.2C526.16 513.1 527.826 511.45 529.926 510.25C532.026 509.017 534.393 508.4 537.026 508.4C539.66 508.4 542.01 509.017 544.076 510.25C546.176 511.45 547.826 513.1 549.026 515.2C550.26 517.3 550.893 519.683 550.926 522.35L549.376 523.55C549.376 525.95 548.81 528.117 547.676 530.05C546.576 531.95 545.06 533.467 543.126 534.6C541.226 535.7 539.06 536.25 536.626 536.25ZM537.026 532.75C538.96 532.75 540.676 532.3 542.176 531.4C543.71 530.5 544.91 529.267 545.776 527.7C546.676 526.1 547.126 524.317 547.126 522.35C547.126 520.35 546.676 518.567 545.776 517C544.91 515.433 543.71 514.2 542.176 513.3C540.676 512.367 538.96 511.9 537.026 511.9C535.126 511.9 533.41 512.367 531.876 513.3C530.343 514.2 529.126 515.433 528.226 517C527.326 518.567 526.876 520.35 526.876 522.35C526.876 524.317 527.326 526.1 528.226 527.7C529.126 529.267 530.343 530.5 531.876 531.4C533.41 532.3 535.126 532.75 537.026 532.75ZM548.976 536C548.41 536 547.943 535.833 547.576 535.5C547.21 535.133 547.026 534.667 547.026 534.1V525.55L547.976 521.6L550.926 522.35V534.1C550.926 534.667 550.743 535.133 550.376 535.5C550.01 535.833 549.543 536 548.976 536ZM567.214 536.25C565.247 536.25 563.297 535.917 561.364 535.25C559.431 534.583 557.864 533.583 556.664 532.25C556.297 531.85 556.147 531.4 556.214 530.9C556.281 530.4 556.531 529.967 556.964 529.6C557.431 529.267 557.914 529.133 558.414 529.2C558.914 529.267 559.331 529.483 559.664 529.85C560.464 530.783 561.514 531.5 562.814 532C564.147 532.5 565.614 532.75 567.214 532.75C569.681 532.75 571.464 532.333 572.564 531.5C573.664 530.633 574.231 529.6 574.264 528.4C574.264 527.2 573.697 526.217 572.564 525.45C571.431 524.65 569.564 524.033 566.964 523.6C563.597 523.067 561.131 522.133 559.564 520.8C557.997 519.467 557.214 517.883 557.214 516.05C557.214 514.35 557.664 512.933 558.564 511.8C559.464 510.667 560.664 509.817 562.164 509.25C563.664 508.683 565.314 508.4 567.114 508.4C569.347 508.4 571.264 508.783 572.864 509.55C574.497 510.317 575.814 511.35 576.814 512.65C577.147 513.083 577.281 513.533 577.214 514C577.147 514.467 576.881 514.85 576.414 515.15C576.014 515.383 575.547 515.467 575.014 515.4C574.514 515.3 574.081 515.05 573.714 514.65C572.881 513.683 571.914 512.983 570.814 512.55C569.714 512.083 568.447 511.85 567.014 511.85C565.181 511.85 563.714 512.233 562.614 513C561.514 513.733 560.964 514.667 560.964 515.8C560.964 516.567 561.164 517.233 561.564 517.8C561.997 518.367 562.714 518.867 563.714 519.3C564.747 519.733 566.181 520.1 568.014 520.4C570.514 520.8 572.481 521.4 573.914 522.2C575.381 522.967 576.414 523.883 577.014 524.95C577.647 525.983 577.964 527.117 577.964 528.35C577.964 529.917 577.497 531.3 576.564 532.5C575.664 533.667 574.397 534.583 572.764 535.25C571.164 535.917 569.314 536.25 567.214 536.25ZM593.417 536.25C591.451 536.25 589.501 535.917 587.567 535.25C585.634 534.583 584.067 533.583 582.867 532.25C582.501 531.85 582.351 531.4 582.417 530.9C582.484 530.4 582.734 529.967 583.167 529.6C583.634 529.267 584.117 529.133 584.617 529.2C585.117 529.267 585.534 529.483 585.867 529.85C586.667 530.783 587.717 531.5 589.017 532C590.351 532.5 591.817 532.75 593.417 532.75C595.884 532.75 597.667 532.333 598.767 531.5C599.867 530.633 600.434 529.6 600.467 528.4C600.467 527.2 599.901 526.217 598.767 525.45C597.634 524.65 595.767 524.033 593.167 523.6C589.801 523.067 587.334 522.133 585.767 520.8C584.201 519.467 583.417 517.883 583.417 516.05C583.417 514.35 583.867 512.933 584.767 511.8C585.667 510.667 586.867 509.817 588.367 509.25C589.867 508.683 591.517 508.4 593.317 508.4C595.551 508.4 597.467 508.783 599.067 509.55C600.701 510.317 602.017 511.35 603.017 512.65C603.351 513.083 603.484 513.533 603.417 514C603.351 514.467 603.084 514.85 602.617 515.15C602.217 515.383 601.751 515.467 601.217 515.4C600.717 515.3 600.284 515.05 599.917 514.65C599.084 513.683 598.117 512.983 597.017 512.55C595.917 512.083 594.651 511.85 593.217 511.85C591.384 511.85 589.917 512.233 588.817 513C587.717 513.733 587.167 514.667 587.167 515.8C587.167 516.567 587.367 517.233 587.767 517.8C588.201 518.367 588.917 518.867 589.917 519.3C590.951 519.733 592.384 520.1 594.217 520.4C596.717 520.8 598.684 521.4 600.117 522.2C601.584 522.967 602.617 523.883 603.217 524.95C603.851 525.983 604.167 527.117 604.167 528.35C604.167 529.917 603.701 531.3 602.767 532.5C601.867 533.667 600.601 534.583 598.967 535.25C597.367 535.917 595.517 536.25 593.417 536.25ZM616.27 536C615.837 536 615.454 535.883 615.12 535.65C614.787 535.417 614.554 535.117 614.42 534.75L606.62 511.35C606.42 510.517 606.437 509.867 606.67 509.4C606.904 508.9 607.37 508.65 608.07 508.65C608.504 508.65 608.887 508.767 609.22 509C609.554 509.233 609.804 509.6 609.97 510.1L616.92 531.35H615.82L622.27 510.15C622.404 509.717 622.62 509.367 622.92 509.1C623.254 508.8 623.67 508.65 624.17 508.65C624.67 508.65 625.07 508.783 625.37 509.05C625.704 509.317 625.937 509.683 626.07 510.15L632.22 530.85H631.37L638.17 510.1C638.504 509.133 639.12 508.65 640.02 508.65C640.754 508.65 641.254 508.933 641.52 509.5C641.787 510.033 641.787 510.65 641.52 511.35L633.72 534.75C633.587 535.117 633.354 535.417 633.02 535.65C632.72 535.883 632.354 536 631.92 536C631.487 536 631.087 535.883 630.72 535.65C630.387 535.417 630.17 535.117 630.07 534.75L623.77 513.85H624.37L618.07 534.75C617.937 535.15 617.704 535.467 617.37 535.7C617.037 535.9 616.67 536 616.27 536ZM657.805 536.25C655.139 536.25 652.755 535.65 650.655 534.45C648.555 533.25 646.905 531.6 645.705 529.5C644.505 527.4 643.905 525.017 643.905 522.35C643.905 519.65 644.505 517.25 645.705 515.15C646.905 513.05 648.555 511.4 650.655 510.2C652.755 509 655.139 508.4 657.805 508.4C660.472 508.4 662.839 509 664.905 510.2C667.005 511.4 668.655 513.05 669.855 515.15C671.055 517.25 671.672 519.65 671.705 522.35C671.705 525.017 671.089 527.4 669.855 529.5C668.655 531.6 667.005 533.25 664.905 534.45C662.839 535.65 660.472 536.25 657.805 536.25ZM657.805 532.75C659.739 532.75 661.472 532.3 663.005 531.4C664.539 530.5 665.739 529.267 666.605 527.7C667.472 526.133 667.905 524.35 667.905 522.35C667.905 520.35 667.472 518.567 666.605 517C665.739 515.4 664.539 514.15 663.005 513.25C661.472 512.35 659.739 511.9 657.805 511.9C655.872 511.9 654.139 512.35 652.605 513.25C651.072 514.15 649.855 515.4 648.955 517C648.089 518.567 647.655 520.35 647.655 522.35C647.655 524.35 648.089 526.133 648.955 527.7C649.855 529.267 651.072 530.5 652.605 531.4C654.139 532.3 655.872 532.75 657.805 532.75ZM680.043 519.15C680.143 517.083 680.677 515.233 681.643 513.6C682.643 511.967 683.927 510.683 685.493 509.75C687.093 508.817 688.86 508.35 690.793 508.35C692.327 508.35 693.51 508.567 694.343 509C695.177 509.433 695.493 510.067 695.293 510.9C695.16 511.4 694.927 511.733 694.593 511.9C694.293 512.067 693.91 512.133 693.443 512.1C693.01 512.067 692.51 512.033 691.943 512C690.077 511.833 688.41 512.033 686.943 512.6C685.51 513.133 684.36 513.967 683.493 515.1C682.66 516.233 682.243 517.583 682.243 519.15H680.043ZM680.343 536C679.743 536 679.277 535.833 678.943 535.5C678.61 535.167 678.443 534.7 678.443 534.1V510.55C678.443 509.95 678.61 509.483 678.943 509.15C679.277 508.817 679.743 508.65 680.343 508.65C680.943 508.65 681.41 508.817 681.743 509.15C682.077 509.483 682.243 509.95 682.243 510.55V534.1C682.243 534.7 682.077 535.167 681.743 535.5C681.41 535.833 680.943 536 680.343 536ZM711.042 536.25C708.408 536.25 706.042 535.65 703.942 534.45C701.842 533.217 700.175 531.55 698.942 529.45C697.742 527.35 697.142 524.967 697.142 522.3C697.142 519.667 697.725 517.3 698.892 515.2C700.092 513.1 701.708 511.45 703.742 510.25C705.775 509.017 708.075 508.4 710.642 508.4C712.875 508.4 714.892 508.883 716.692 509.85C718.492 510.783 719.942 512.033 721.042 513.6V498.9C721.042 498.3 721.225 497.833 721.592 497.5C721.958 497.133 722.425 496.95 722.992 496.95C723.558 496.95 724.025 497.133 724.392 497.5C724.758 497.833 724.942 498.3 724.942 498.9V522.5C724.875 525.1 724.225 527.45 722.992 529.55C721.792 531.617 720.142 533.25 718.042 534.45C715.975 535.65 713.642 536.25 711.042 536.25ZM711.042 532.75C712.975 532.75 714.692 532.3 716.192 531.4C717.725 530.467 718.925 529.217 719.792 527.65C720.692 526.083 721.142 524.3 721.142 522.3C721.142 520.333 720.692 518.567 719.792 517C718.925 515.4 717.725 514.15 716.192 513.25C714.692 512.35 712.975 511.9 711.042 511.9C709.142 511.9 707.425 512.35 705.892 513.25C704.358 514.15 703.142 515.4 702.242 517C701.342 518.567 700.892 520.333 700.892 522.3C700.892 524.3 701.342 526.083 702.242 527.65C703.142 529.217 704.358 530.467 705.892 531.4C707.425 532.3 709.142 532.75 711.042 532.75ZM765.142 536.5C762.442 536.5 759.908 535.983 757.542 534.95C755.208 533.917 753.142 532.483 751.342 530.65C749.575 528.783 748.192 526.65 747.192 524.25C746.192 521.817 745.692 519.217 745.692 516.45C745.692 513.717 746.175 511.15 747.142 508.75C748.142 506.317 749.525 504.183 751.292 502.35C753.092 500.517 755.158 499.083 757.492 498.05C759.858 496.983 762.408 496.45 765.142 496.45C767.542 496.45 769.725 496.8 771.692 497.5C773.658 498.2 775.558 499.317 777.392 500.85C777.692 501.083 777.858 501.367 777.892 501.7C777.958 502 777.925 502.3 777.792 502.6C777.658 502.867 777.458 503.067 777.192 503.2C777.125 503.467 776.958 503.667 776.692 503.8C776.425 503.933 776.108 503.983 775.742 503.95C775.408 503.917 775.075 503.767 774.742 503.5C773.442 502.367 772.025 501.533 770.492 501C768.958 500.433 767.175 500.15 765.142 500.15C762.975 500.15 760.942 500.583 759.042 501.45C757.175 502.317 755.525 503.5 754.092 505C752.658 506.5 751.525 508.233 750.692 510.2C749.892 512.167 749.492 514.25 749.492 516.45C749.492 518.717 749.892 520.833 750.692 522.8C751.525 524.767 752.658 526.5 754.092 528C755.525 529.5 757.175 530.683 759.042 531.55C760.942 532.383 762.975 532.8 765.142 532.8C766.975 532.8 768.708 532.5 770.342 531.9C771.975 531.3 773.525 530.433 774.992 529.3C775.392 528.967 775.808 528.833 776.242 528.9C776.708 528.967 777.108 529.167 777.442 529.5C777.775 529.833 777.942 530.267 777.942 530.8C777.942 531.067 777.892 531.317 777.792 531.55C777.725 531.75 777.592 531.967 777.392 532.2C775.692 533.767 773.792 534.883 771.692 535.55C769.592 536.183 767.408 536.5 765.142 536.5ZM795.364 536.25C792.697 536.25 790.314 535.65 788.214 534.45C786.114 533.25 784.464 531.6 783.264 529.5C782.064 527.4 781.464 525.017 781.464 522.35C781.464 519.65 782.064 517.25 783.264 515.15C784.464 513.05 786.114 511.4 788.214 510.2C790.314 509 792.697 508.4 795.364 508.4C798.031 508.4 800.397 509 802.464 510.2C804.564 511.4 806.214 513.05 807.414 515.15C808.614 517.25 809.231 519.65 809.264 522.35C809.264 525.017 808.647 527.4 807.414 529.5C806.214 531.6 804.564 533.25 802.464 534.45C800.397 535.65 798.031 536.25 795.364 536.25ZM795.364 532.75C797.297 532.75 799.031 532.3 800.564 531.4C802.097 530.5 803.297 529.267 804.164 527.7C805.031 526.133 805.464 524.35 805.464 522.35C805.464 520.35 805.031 518.567 804.164 517C803.297 515.4 802.097 514.15 800.564 513.25C799.031 512.35 797.297 511.9 795.364 511.9C793.431 511.9 791.697 512.35 790.164 513.25C788.631 514.15 787.414 515.4 786.514 517C785.647 518.567 785.214 520.35 785.214 522.35C785.214 524.35 785.647 526.133 786.514 527.7C787.414 529.267 788.631 530.5 790.164 531.4C791.697 532.3 793.431 532.75 795.364 532.75ZM817.602 519.15C817.702 517.083 818.235 515.233 819.202 513.6C820.202 511.967 821.485 510.683 823.052 509.75C824.652 508.817 826.419 508.35 828.352 508.35C829.885 508.35 831.069 508.567 831.902 509C832.735 509.433 833.052 510.067 832.852 510.9C832.719 511.4 832.485 511.733 832.152 511.9C831.852 512.067 831.469 512.133 831.002 512.1C830.569 512.067 830.069 512.033 829.502 512C827.635 511.833 825.969 512.033 824.502 512.6C823.069 513.133 821.919 513.967 821.052 515.1C820.219 516.233 819.802 517.583 819.802 519.15H817.602ZM817.902 536C817.302 536 816.835 535.833 816.502 535.5C816.169 535.167 816.002 534.7 816.002 534.1V510.55C816.002 509.95 816.169 509.483 816.502 509.15C816.835 508.817 817.302 508.65 817.902 508.65C818.502 508.65 818.969 508.817 819.302 509.15C819.635 509.483 819.802 509.95 819.802 510.55V534.1C819.802 534.7 819.635 535.167 819.302 535.5C818.969 535.833 818.502 536 817.902 536ZM839.752 519.15C839.852 517.083 840.386 515.233 841.352 513.6C842.352 511.967 843.636 510.683 845.202 509.75C846.802 508.817 848.569 508.35 850.502 508.35C852.036 508.35 853.219 508.567 854.052 509C854.886 509.433 855.202 510.067 855.002 510.9C854.869 511.4 854.636 511.733 854.302 511.9C854.002 512.067 853.619 512.133 853.152 512.1C852.719 512.067 852.219 512.033 851.652 512C849.786 511.833 848.119 512.033 846.652 512.6C845.219 513.133 844.069 513.967 843.202 515.1C842.369 516.233 841.952 517.583 841.952 519.15H839.752ZM840.052 536C839.452 536 838.986 535.833 838.652 535.5C838.319 535.167 838.152 534.7 838.152 534.1V510.55C838.152 509.95 838.319 509.483 838.652 509.15C838.986 508.817 839.452 508.65 840.052 508.65C840.652 508.65 841.119 508.817 841.452 509.15C841.786 509.483 841.952 509.95 841.952 510.55V534.1C841.952 534.7 841.786 535.167 841.452 535.5C841.119 535.833 840.652 536 840.052 536ZM870.701 536.25C868.001 536.25 865.601 535.667 863.501 534.5C861.434 533.3 859.801 531.65 858.601 529.55C857.434 527.45 856.851 525.05 856.851 522.35C856.851 519.617 857.401 517.217 858.501 515.15C859.634 513.05 861.184 511.4 863.151 510.2C865.117 509 867.384 508.4 869.951 508.4C872.484 508.4 874.684 508.983 876.551 510.15C878.451 511.283 879.917 512.867 880.951 514.9C881.984 516.933 882.501 519.25 882.501 521.85C882.501 522.383 882.334 522.817 882.001 523.15C881.667 523.45 881.234 523.6 880.701 523.6H859.451V520.4H881.101L878.951 521.95C878.984 520.017 878.634 518.283 877.901 516.75C877.167 515.217 876.117 514.017 874.751 513.15C873.417 512.283 871.817 511.85 869.951 511.85C868.051 511.85 866.384 512.3 864.951 513.2C863.517 514.1 862.401 515.35 861.601 516.95C860.834 518.517 860.451 520.317 860.451 522.35C860.451 524.383 860.884 526.183 861.751 527.75C862.651 529.317 863.867 530.55 865.401 531.45C866.934 532.35 868.701 532.8 870.701 532.8C871.901 532.8 873.101 532.6 874.301 532.2C875.534 531.767 876.517 531.233 877.251 530.6C877.617 530.3 878.034 530.15 878.501 530.15C878.967 530.117 879.367 530.233 879.701 530.5C880.134 530.9 880.351 531.333 880.351 531.8C880.384 532.267 880.201 532.667 879.801 533C878.701 533.933 877.301 534.717 875.601 535.35C873.901 535.95 872.267 536.25 870.701 536.25ZM899.487 536.25C896.854 536.25 894.504 535.65 892.437 534.45C890.404 533.217 888.787 531.55 887.587 529.45C886.42 527.35 885.837 524.983 885.837 522.35C885.837 519.683 886.404 517.3 887.537 515.2C888.67 513.1 890.22 511.45 892.187 510.25C894.154 509.017 896.42 508.4 898.987 508.4C901.02 508.4 902.887 508.8 904.587 509.6C906.32 510.4 907.837 511.6 909.137 513.2C909.504 513.6 909.637 514.033 909.537 514.5C909.437 514.933 909.154 515.317 908.687 515.65C908.32 515.917 907.904 516.017 907.437 515.95C907.004 515.85 906.62 515.6 906.287 515.2C904.354 513 901.92 511.9 898.987 511.9C897.12 511.9 895.47 512.35 894.037 513.25C892.637 514.15 891.537 515.383 890.737 516.95C889.97 518.517 889.587 520.317 889.587 522.35C889.587 524.35 890.004 526.133 890.837 527.7C891.67 529.267 892.837 530.5 894.337 531.4C895.837 532.3 897.554 532.75 899.487 532.75C900.787 532.75 901.97 532.583 903.037 532.25C904.137 531.883 905.104 531.333 905.937 530.6C906.337 530.267 906.754 530.083 907.187 530.05C907.62 530.017 908.02 530.15 908.387 530.45C908.787 530.817 909.004 531.233 909.037 531.7C909.104 532.167 908.954 532.567 908.587 532.9C906.154 535.133 903.12 536.25 899.487 536.25ZM927.022 536C925.256 536 923.672 535.583 922.272 534.75C920.906 533.917 919.822 532.783 919.022 531.35C918.222 529.883 917.822 528.217 917.822 526.35V501.9C917.822 501.333 917.989 500.867 918.322 500.5C918.689 500.133 919.156 499.95 919.722 499.95C920.289 499.95 920.756 500.133 921.122 500.5C921.489 500.867 921.672 501.333 921.672 501.9V526.35C921.672 528.05 922.172 529.45 923.172 530.55C924.172 531.617 925.456 532.15 927.022 532.15H928.372C928.906 532.15 929.339 532.333 929.672 532.7C930.006 533.067 930.172 533.533 930.172 534.1C930.172 534.667 929.972 535.133 929.572 535.5C929.172 535.833 928.672 536 928.072 536H927.022ZM914.572 513C914.072 513 913.656 512.85 913.322 512.55C912.989 512.217 912.822 511.817 912.822 511.35C912.822 510.85 912.989 510.45 913.322 510.15C913.656 509.817 914.072 509.65 914.572 509.65H927.322C927.822 509.65 928.239 509.817 928.572 510.15C928.906 510.45 929.072 510.85 929.072 511.35C929.072 511.817 928.906 512.217 928.572 512.55C928.239 512.85 927.822 513 927.322 513H914.572ZM936.589 527.15C936.056 527.15 935.589 526.967 935.189 526.6C934.823 526.2 934.639 525.733 934.639 525.2V498.9C934.639 498.333 934.823 497.867 935.189 497.5C935.589 497.1 936.056 496.9 936.589 496.9C937.156 496.9 937.623 497.1 937.989 497.5C938.356 497.867 938.539 498.333 938.539 498.9V525.2C938.539 525.733 938.339 526.2 937.939 526.6C937.539 526.967 937.089 527.15 936.589 527.15ZM936.589 536C935.789 536 935.106 535.717 934.539 535.15C933.973 534.583 933.689 533.9 933.689 533.1C933.689 532.267 933.973 531.567 934.539 531C935.106 530.433 935.789 530.15 936.589 530.15C937.389 530.15 938.073 530.45 938.639 531.05C939.206 531.617 939.489 532.3 939.489 533.1C939.489 533.9 939.206 534.583 938.639 535.15C938.073 535.717 937.389 536 936.589 536ZM964.569 536C964.036 536 963.569 535.817 963.169 535.45C962.802 535.083 962.619 534.617 962.619 534.05V498.9C962.619 498.367 962.802 497.917 963.169 497.55C963.569 497.15 964.036 496.95 964.569 496.95C965.102 496.95 965.552 497.15 965.919 497.55C966.319 497.917 966.519 498.367 966.519 498.9V532.3H986.069C986.602 532.3 987.052 532.483 987.419 532.85C987.819 533.183 988.019 533.617 988.019 534.15C988.019 534.683 987.819 535.133 987.419 535.5C987.052 535.833 986.602 536 986.069 536H964.569ZM1005.46 536.25C1002.79 536.25 1000.41 535.65 998.31 534.45C996.21 533.25 994.56 531.6 993.36 529.5C992.16 527.4 991.56 525.017 991.56 522.35C991.56 519.65 992.16 517.25 993.36 515.15C994.56 513.05 996.21 511.4 998.31 510.2C1000.41 509 1002.79 508.4 1005.46 508.4C1008.13 508.4 1010.49 509 1012.56 510.2C1014.66 511.4 1016.31 513.05 1017.51 515.15C1018.71 517.25 1019.33 519.65 1019.36 522.35C1019.36 525.017 1018.74 527.4 1017.51 529.5C1016.31 531.6 1014.66 533.25 1012.56 534.45C1010.49 535.65 1008.13 536.25 1005.46 536.25ZM1005.46 532.75C1007.39 532.75 1009.13 532.3 1010.66 531.4C1012.19 530.5 1013.39 529.267 1014.26 527.7C1015.13 526.133 1015.56 524.35 1015.56 522.35C1015.56 520.35 1015.13 518.567 1014.26 517C1013.39 515.4 1012.19 514.15 1010.66 513.25C1009.13 512.35 1007.39 511.9 1005.46 511.9C1003.53 511.9 1001.79 512.35 1000.26 513.25C998.726 514.15 997.51 515.4 996.61 517C995.743 518.567 995.31 520.35 995.31 522.35C995.31 524.35 995.743 526.133 996.61 527.7C997.51 529.267 998.726 530.5 1000.26 531.4C1001.79 532.3 1003.53 532.75 1005.46 532.75ZM1038.15 536.25C1035.51 536.25 1033.18 535.667 1031.15 534.5C1029.11 533.3 1027.51 531.65 1026.35 529.55C1025.21 527.45 1024.65 525.05 1024.65 522.35C1024.65 519.617 1025.25 517.2 1026.45 515.1C1027.65 513 1029.3 511.367 1031.4 510.2C1033.5 509 1035.88 508.4 1038.55 508.4C1041.25 508.4 1043.63 509 1045.7 510.2C1047.8 511.367 1049.43 513 1050.6 515.1C1051.8 517.2 1052.41 519.617 1052.45 522.35L1050.2 523.55C1050.2 526.017 1049.68 528.217 1048.65 530.15C1047.61 532.05 1046.18 533.55 1044.35 534.65C1042.55 535.717 1040.48 536.25 1038.15 536.25ZM1038.65 546.8C1036.01 546.8 1033.7 546.3 1031.7 545.3C1029.7 544.333 1028.05 543 1026.75 541.3C1026.38 540.9 1026.21 540.467 1026.25 540C1026.31 539.533 1026.56 539.15 1027 538.85C1027.43 538.55 1027.91 538.45 1028.45 538.55C1028.98 538.65 1029.4 538.9 1029.7 539.3C1030.66 540.5 1031.9 541.467 1033.4 542.2C1034.93 542.933 1036.7 543.3 1038.7 543.3C1040.56 543.3 1042.25 542.85 1043.75 541.95C1045.25 541.05 1046.43 539.783 1047.3 538.15C1048.2 536.517 1048.65 534.6 1048.65 532.4V524.8L1050.1 521.9L1052.45 522.35V532.55C1052.45 535.25 1051.85 537.667 1050.65 539.8C1049.45 541.967 1047.81 543.667 1045.75 544.9C1043.68 546.167 1041.31 546.8 1038.65 546.8ZM1038.55 532.75C1040.51 532.75 1042.25 532.317 1043.75 531.45C1045.28 530.55 1046.48 529.317 1047.35 527.75C1048.21 526.183 1048.65 524.383 1048.65 522.35C1048.65 520.317 1048.21 518.517 1047.35 516.95C1046.48 515.35 1045.28 514.117 1043.75 513.25C1042.25 512.35 1040.51 511.9 1038.55 511.9C1036.58 511.9 1034.83 512.35 1033.3 513.25C1031.76 514.117 1030.56 515.35 1029.7 516.95C1028.83 518.517 1028.4 520.317 1028.4 522.35C1028.4 524.383 1028.83 526.183 1029.7 527.75C1030.56 529.317 1031.76 530.55 1033.3 531.45C1034.83 532.317 1036.58 532.75 1038.55 532.75ZM1071.24 536.25C1068.6 536.25 1066.27 535.667 1064.24 534.5C1062.2 533.3 1060.6 531.65 1059.44 529.55C1058.3 527.45 1057.74 525.05 1057.74 522.35C1057.74 519.617 1058.34 517.2 1059.54 515.1C1060.74 513 1062.39 511.367 1064.49 510.2C1066.59 509 1068.97 508.4 1071.64 508.4C1074.34 508.4 1076.72 509 1078.79 510.2C1080.89 511.367 1082.52 513 1083.69 515.1C1084.89 517.2 1085.5 519.617 1085.54 522.35L1083.29 523.55C1083.29 526.017 1082.77 528.217 1081.74 530.15C1080.7 532.05 1079.27 533.55 1077.44 534.65C1075.64 535.717 1073.57 536.25 1071.24 536.25ZM1071.74 546.8C1069.1 546.8 1066.79 546.3 1064.79 545.3C1062.79 544.333 1061.14 543 1059.84 541.3C1059.47 540.9 1059.3 540.467 1059.34 540C1059.4 539.533 1059.65 539.15 1060.09 538.85C1060.52 538.55 1061 538.45 1061.54 538.55C1062.07 538.65 1062.49 538.9 1062.79 539.3C1063.75 540.5 1064.99 541.467 1066.49 542.2C1068.02 542.933 1069.79 543.3 1071.79 543.3C1073.65 543.3 1075.34 542.85 1076.84 541.95C1078.34 541.05 1079.52 539.783 1080.39 538.15C1081.29 536.517 1081.74 534.6 1081.74 532.4V524.8L1083.19 521.9L1085.54 522.35V532.55C1085.54 535.25 1084.94 537.667 1083.74 539.8C1082.54 541.967 1080.9 543.667 1078.84 544.9C1076.77 546.167 1074.4 546.8 1071.74 546.8ZM1071.64 532.75C1073.6 532.75 1075.34 532.317 1076.84 531.45C1078.37 530.55 1079.57 529.317 1080.44 527.75C1081.3 526.183 1081.74 524.383 1081.74 522.35C1081.74 520.317 1081.3 518.517 1080.44 516.95C1079.57 515.35 1078.37 514.117 1076.84 513.25C1075.34 512.35 1073.6 511.9 1071.64 511.9C1069.67 511.9 1067.92 512.35 1066.39 513.25C1064.85 514.117 1063.65 515.35 1062.79 516.95C1061.92 518.517 1061.49 520.317 1061.49 522.35C1061.49 524.383 1061.92 526.183 1062.79 527.75C1063.65 529.317 1064.85 530.55 1066.39 531.45C1067.92 532.317 1069.67 532.75 1071.64 532.75ZM1095.02 536C1094.42 536 1093.94 535.833 1093.57 535.5C1093.24 535.133 1093.07 534.65 1093.07 534.05V510.6C1093.07 510 1093.24 509.533 1093.57 509.2C1093.94 508.833 1094.42 508.65 1095.02 508.65C1095.59 508.65 1096.04 508.833 1096.37 509.2C1096.74 509.533 1096.92 510 1096.92 510.6V534.05C1096.92 534.65 1096.74 535.133 1096.37 535.5C1096.04 535.833 1095.59 536 1095.02 536ZM1094.97 503.45C1094.24 503.45 1093.61 503.183 1093.07 502.65C1092.54 502.117 1092.27 501.467 1092.27 500.7C1092.27 499.867 1092.54 499.217 1093.07 498.75C1093.64 498.25 1094.29 498 1095.02 498C1095.72 498 1096.34 498.25 1096.87 498.75C1097.44 499.217 1097.72 499.867 1097.72 500.7C1097.72 501.467 1097.46 502.117 1096.92 502.65C1096.39 503.183 1095.74 503.45 1094.97 503.45ZM1129.43 536C1128.86 536 1128.39 535.817 1128.03 535.45C1127.66 535.083 1127.48 534.633 1127.48 534.1V521.1C1127.48 519.033 1127.08 517.333 1126.28 516C1125.51 514.667 1124.44 513.667 1123.08 513C1121.74 512.333 1120.23 512 1118.53 512C1116.89 512 1115.41 512.317 1114.08 512.95C1112.78 513.583 1111.74 514.45 1110.98 515.55C1110.21 516.65 1109.83 517.9 1109.83 519.3H1107.08C1107.14 517.2 1107.71 515.333 1108.78 513.7C1109.84 512.033 1111.26 510.733 1113.03 509.8C1114.79 508.833 1116.76 508.35 1118.93 508.35C1121.29 508.35 1123.41 508.85 1125.28 509.85C1127.14 510.817 1128.61 512.25 1129.68 514.15C1130.78 516.05 1131.33 518.367 1131.33 521.1V534.1C1131.33 534.633 1131.14 535.083 1130.78 535.45C1130.41 535.817 1129.96 536 1129.43 536ZM1107.93 536C1107.33 536 1106.84 535.833 1106.48 535.5C1106.14 535.133 1105.98 534.667 1105.98 534.1V510.6C1105.98 510 1106.14 509.533 1106.48 509.2C1106.84 508.833 1107.33 508.65 1107.93 508.65C1108.49 508.65 1108.94 508.833 1109.28 509.2C1109.64 509.533 1109.83 510 1109.83 510.6V534.1C1109.83 534.667 1109.64 535.133 1109.28 535.5C1108.94 535.833 1108.49 536 1107.93 536ZM1151.11 536.25C1148.48 536.25 1146.15 535.667 1144.11 534.5C1142.08 533.3 1140.48 531.65 1139.31 529.55C1138.18 527.45 1137.61 525.05 1137.61 522.35C1137.61 519.617 1138.21 517.2 1139.41 515.1C1140.61 513 1142.26 511.367 1144.36 510.2C1146.46 509 1148.85 508.4 1151.51 508.4C1154.21 508.4 1156.6 509 1158.66 510.2C1160.76 511.367 1162.4 513 1163.56 515.1C1164.76 517.2 1165.38 519.617 1165.41 522.35L1163.16 523.55C1163.16 526.017 1162.65 528.217 1161.61 530.15C1160.58 532.05 1159.15 533.55 1157.31 534.65C1155.51 535.717 1153.45 536.25 1151.11 536.25ZM1151.61 546.8C1148.98 546.8 1146.66 546.3 1144.66 545.3C1142.66 544.333 1141.01 543 1139.71 541.3C1139.35 540.9 1139.18 540.467 1139.21 540C1139.28 539.533 1139.53 539.15 1139.96 538.85C1140.4 538.55 1140.88 538.45 1141.41 538.55C1141.95 538.65 1142.36 538.9 1142.66 539.3C1143.63 540.5 1144.86 541.467 1146.36 542.2C1147.9 542.933 1149.66 543.3 1151.66 543.3C1153.53 543.3 1155.21 542.85 1156.71 541.95C1158.21 541.05 1159.4 539.783 1160.26 538.15C1161.16 536.517 1161.61 534.6 1161.61 532.4V524.8L1163.06 521.9L1165.41 522.35V532.55C1165.41 535.25 1164.81 537.667 1163.61 539.8C1162.41 541.967 1160.78 543.667 1158.71 544.9C1156.65 546.167 1154.28 546.8 1151.61 546.8ZM1151.51 532.75C1153.48 532.75 1155.21 532.317 1156.71 531.45C1158.25 530.55 1159.45 529.317 1160.31 527.75C1161.18 526.183 1161.61 524.383 1161.61 522.35C1161.61 520.317 1161.18 518.517 1160.31 516.95C1159.45 515.35 1158.25 514.117 1156.71 513.25C1155.21 512.35 1153.48 511.9 1151.51 511.9C1149.55 511.9 1147.8 512.35 1146.26 513.25C1144.73 514.117 1143.53 515.35 1142.66 516.95C1141.8 518.517 1141.36 520.317 1141.36 522.35C1141.36 524.383 1141.8 526.183 1142.66 527.75C1143.53 529.317 1144.73 530.55 1146.26 531.45C1147.8 532.317 1149.55 532.75 1151.51 532.75ZM1188.8 536C1188.2 536 1187.72 535.833 1187.35 535.5C1187.02 535.133 1186.85 534.65 1186.85 534.05V510.6C1186.85 510 1187.02 509.533 1187.35 509.2C1187.72 508.833 1188.2 508.65 1188.8 508.65C1189.37 508.65 1189.82 508.833 1190.15 509.2C1190.52 509.533 1190.7 510 1190.7 510.6V534.05C1190.7 534.65 1190.52 535.133 1190.15 535.5C1189.82 535.833 1189.37 536 1188.8 536ZM1188.75 503.45C1188.02 503.45 1187.38 503.183 1186.85 502.65C1186.32 502.117 1186.05 501.467 1186.05 500.7C1186.05 499.867 1186.32 499.217 1186.85 498.75C1187.42 498.25 1188.07 498 1188.8 498C1189.5 498 1190.12 498.25 1190.65 498.75C1191.22 499.217 1191.5 499.867 1191.5 500.7C1191.5 501.467 1191.23 502.117 1190.7 502.65C1190.17 503.183 1189.52 503.45 1188.75 503.45ZM1223.2 536C1222.64 536 1222.17 535.817 1221.8 535.45C1221.44 535.083 1221.25 534.633 1221.25 534.1V521.1C1221.25 519.033 1220.85 517.333 1220.05 516C1219.29 514.667 1218.22 513.667 1216.85 513C1215.52 512.333 1214 512 1212.3 512C1210.67 512 1209.19 512.317 1207.85 512.95C1206.55 513.583 1205.52 514.45 1204.75 515.55C1203.99 516.65 1203.6 517.9 1203.6 519.3H1200.85C1200.92 517.2 1201.49 515.333 1202.55 513.7C1203.62 512.033 1205.04 510.733 1206.8 509.8C1208.57 508.833 1210.54 508.35 1212.7 508.35C1215.07 508.35 1217.19 508.85 1219.05 509.85C1220.92 510.817 1222.39 512.25 1223.45 514.15C1224.55 516.05 1225.1 518.367 1225.1 521.1V534.1C1225.1 534.633 1224.92 535.083 1224.55 535.45C1224.19 535.817 1223.74 536 1223.2 536ZM1201.7 536C1201.1 536 1200.62 535.833 1200.25 535.5C1199.92 535.133 1199.75 534.667 1199.75 534.1V510.6C1199.75 510 1199.92 509.533 1200.25 509.2C1200.62 508.833 1201.1 508.65 1201.7 508.65C1202.27 508.65 1202.72 508.833 1203.05 509.2C1203.42 509.533 1203.6 510 1203.6 510.6V534.1C1203.6 534.667 1203.42 535.133 1203.05 535.5C1202.72 535.833 1202.27 536 1201.7 536ZM1270.19 536C1269.62 536 1269.16 535.817 1268.79 535.45C1268.42 535.083 1268.24 534.633 1268.24 534.1V521.1C1268.24 519.033 1267.84 517.333 1267.04 516C1266.27 514.667 1265.21 513.667 1263.84 513C1262.51 512.333 1260.99 512 1259.29 512C1257.66 512 1256.17 512.317 1254.84 512.95C1253.54 513.583 1252.51 514.45 1251.74 515.55C1250.97 516.65 1250.59 517.9 1250.59 519.3H1247.84C1247.91 517.2 1248.47 515.333 1249.54 513.7C1250.61 512.033 1252.02 510.733 1253.79 509.8C1255.56 508.833 1257.52 508.35 1259.69 508.35C1262.06 508.35 1264.17 508.85 1266.04 509.85C1267.91 510.817 1269.37 512.25 1270.44 514.15C1271.54 516.05 1272.09 518.367 1272.09 521.1V534.1C1272.09 534.633 1271.91 535.083 1271.54 535.45C1271.17 535.817 1270.72 536 1270.19 536ZM1248.69 536C1248.09 536 1247.61 535.833 1247.24 535.5C1246.91 535.133 1246.74 534.667 1246.74 534.1V510.6C1246.74 510 1246.91 509.533 1247.24 509.2C1247.61 508.833 1248.09 508.65 1248.69 508.65C1249.26 508.65 1249.71 508.833 1250.04 509.2C1250.41 509.533 1250.59 510 1250.59 510.6V534.1C1250.59 534.667 1250.41 535.133 1250.04 535.5C1249.71 535.833 1249.26 536 1248.69 536ZM1292.28 536.25C1289.61 536.25 1287.23 535.65 1285.13 534.45C1283.03 533.25 1281.38 531.6 1280.18 529.5C1278.98 527.4 1278.38 525.017 1278.38 522.35C1278.38 519.65 1278.98 517.25 1280.18 515.15C1281.38 513.05 1283.03 511.4 1285.13 510.2C1287.23 509 1289.61 508.4 1292.28 508.4C1294.94 508.4 1297.31 509 1299.38 510.2C1301.48 511.4 1303.13 513.05 1304.33 515.15C1305.53 517.25 1306.14 519.65 1306.18 522.35C1306.18 525.017 1305.56 527.4 1304.33 529.5C1303.13 531.6 1301.48 533.25 1299.38 534.45C1297.31 535.65 1294.94 536.25 1292.28 536.25ZM1292.28 532.75C1294.21 532.75 1295.94 532.3 1297.48 531.4C1299.01 530.5 1300.21 529.267 1301.08 527.7C1301.94 526.133 1302.38 524.35 1302.38 522.35C1302.38 520.35 1301.94 518.567 1301.08 517C1300.21 515.4 1299.01 514.15 1297.48 513.25C1295.94 512.35 1294.21 511.9 1292.28 511.9C1290.34 511.9 1288.61 512.35 1287.08 513.25C1285.54 514.15 1284.33 515.4 1283.43 517C1282.56 518.567 1282.13 520.35 1282.13 522.35C1282.13 524.35 1282.56 526.133 1283.43 527.7C1284.33 529.267 1285.54 530.5 1287.08 531.4C1288.61 532.3 1290.34 532.75 1292.28 532.75ZM1317.6 536C1317.17 536 1316.79 535.883 1316.45 535.65C1316.12 535.417 1315.89 535.117 1315.75 534.75L1307.95 511.35C1307.75 510.517 1307.77 509.867 1308 509.4C1308.24 508.9 1308.7 508.65 1309.4 508.65C1309.84 508.65 1310.22 508.767 1310.55 509C1310.89 509.233 1311.14 509.6 1311.3 510.1L1318.25 531.35H1317.15L1323.6 510.15C1323.74 509.717 1323.95 509.367 1324.25 509.1C1324.59 508.8 1325 508.65 1325.5 508.65C1326 508.65 1326.4 508.783 1326.7 509.05C1327.04 509.317 1327.27 509.683 1327.4 510.15L1333.55 530.85H1332.7L1339.5 510.1C1339.84 509.133 1340.45 508.65 1341.35 508.65C1342.09 508.65 1342.59 508.933 1342.85 509.5C1343.12 510.033 1343.12 510.65 1342.85 511.35L1335.05 534.75C1334.92 535.117 1334.69 535.417 1334.35 535.65C1334.05 535.883 1333.69 536 1333.25 536C1332.82 536 1332.42 535.883 1332.05 535.65C1331.72 535.417 1331.5 535.117 1331.4 534.75L1325.1 513.85H1325.7L1319.4 534.75C1319.27 535.15 1319.04 535.467 1318.7 535.7C1318.37 535.9 1318 536 1317.6 536ZM1343.05 536.8C1342.25 536.8 1341.56 536.517 1341 535.95C1340.43 535.383 1340.15 534.7 1340.15 533.9C1340.15 533.067 1340.43 532.367 1341 531.8C1341.6 531.233 1342.28 530.95 1343.05 530.95C1343.85 530.95 1344.53 531.25 1345.1 531.85C1345.66 532.417 1345.95 533.1 1345.95 533.9C1345.95 534.667 1345.66 535.35 1345.1 535.95C1344.56 536.517 1343.88 536.8 1343.05 536.8Z" fill="black"/>
</g>
<defs>
<filter id="filter0_bf" x="401" y="0" width="1088" height="1088" filterUnits="userSpaceOnUse" color-interpolation-filters="sRGB">
<feFlood flood-opacity="0" result="BackgroundImageFix"/>
<feGaussianBlur in="BackgroundImage" stdDeviation="2"/>
<feComposite in2="SourceAlpha" operator="in" result="effect1_backgroundBlur"/>
<feBlend mode="normal" in="SourceGraphic" in2="effect1_backgroundBlur" result="shape"/>
<feGaussianBlur stdDeviation="2" result="effect2_foregroundBlur"/>
</filter>
<filter id="filter1_dd" x="851" y="782" width="188" height="188" filterUnits="userSpaceOnUse" color-interpolation-filters="sRGB">
<feFlood flood-opacity="0" result="BackgroundImageFix"/>
<feColorMatrix in="SourceAlpha" type="matrix" values="0 0 0 0 0 0 0 0 0 0 0 0 0 0 0 0 0 0 127 0"/>
<feOffset dy="4"/>
<feGaussianBlur stdDeviation="2"/>
<feColorMatrix type="matrix" values="0 0 0 0 0 0 0 0 0 0 0 0 0 0 0 0 0 0 0.25 0"/>
<feBlend mode="normal" in2="BackgroundImageFix" result="effect1_dropShadow"/>
<feColorMatrix in="SourceAlpha" type="matrix" values="0 0 0 0 0 0 0 0 0 0 0 0 0 0 0 0 0 0 127 0"/>
<feOffset dy="4"/>
<feGaussianBlur stdDeviation="2"/>
<feColorMatrix type="matrix" values="0 0 0 0 0 0 0 0 0 0 0 0 0 0 0 0 0 0 0.25 0"/>
<feBlend mode="normal" in2="effect1_dropShadow" result="effect2_dropShadow"/>
<feBlend mode="normal" in="SourceGraphic" in2="effect2_dropShadow" result="shape"/>
</filter>
<filter id="filter2_dd" x="508" y="126" width="188" height="188" filterUnits="userSpaceOnUse" color-interpolation-filters="sRGB">
<feFlood flood-opacity="0" result="BackgroundImageFix"/>
<feColorMatrix in="SourceAlpha" type="matrix" values="0 0 0 0 0 0 0 0 0 0 0 0 0 0 0 0 0 0 127 0"/>
<feOffset dy="4"/>
<feGaussianBlur stdDeviation="2"/>
<feColorMatrix type="matrix" values="0 0 0 0 0 0 0 0 0 0 0 0 0 0 0 0 0 0 0.25 0"/>
<feBlend mode="normal" in2="BackgroundImageFix" result="effect1_dropShadow"/>
<feColorMatrix in="SourceAlpha" type="matrix" values="0 0 0 0 0 0 0 0 0 0 0 0 0 0 0 0 0 0 127 0"/>
<feOffset dy="4"/>
<feGaussianBlur stdDeviation="2"/>
<feColorMatrix type="matrix" values="0 0 0 0 0 0 0 0 0 0 0 0 0 0 0 0 0 0 0.25 0"/>
<feBlend mode="normal" in2="effect1_dropShadow" result="effect2_dropShadow"/>
<feBlend mode="normal" in="SourceGraphic" in2="effect2_dropShadow" result="shape"/>
</filter>
<filter id="filter3_dd" x="508" y="454" width="188" height="188" filterUnits="userSpaceOnUse" color-interpolation-filters="sRGB">
<feFlood flood-opacity="0" result="BackgroundImageFix"/>
<feColorMatrix in="SourceAlpha" type="matrix" values="0 0 0 0 0 0 0 0 0 0 0 0 0 0 0 0 0 0 127 0"/>
<feOffset dy="4"/>
<feGaussianBlur stdDeviation="2"/>
<feColorMatrix type="matrix" values="0 0 0 0 0 0 0 0 0 0 0 0 0 0 0 0 0 0 0.25 0"/>
<feBlend mode="normal" in2="BackgroundImageFix" result="effect1_dropShadow"/>
<feColorMatrix in="SourceAlpha" type="matrix" values="0 0 0 0 0 0 0 0 0 0 0 0 0 0 0 0 0 0 127 0"/>
<feOffset dy="4"/>
<feGaussianBlur stdDeviation="2"/>
<feColorMatrix type="matrix" values="0 0 0 0 0 0 0 0 0 0 0 0 0 0 0 0 0 0 0.25 0"/>
<feBlend mode="normal" in2="effect1_dropShadow" result="effect2_dropShadow"/>
<feBlend mode="normal" in="SourceGraphic" in2="effect2_dropShadow" result="shape"/>
</filter>
<filter id="filter4_dd" x="508" y="782" width="188" height="188" filterUnits="userSpaceOnUse" color-interpolation-filters="sRGB">
<feFlood flood-opacity="0" result="BackgroundImageFix"/>
<feColorMatrix in="SourceAlpha" type="matrix" values="0 0 0 0 0 0 0 0 0 0 0 0 0 0 0 0 0 0 127 0"/>
<feOffset dy="4"/>
<feGaussianBlur stdDeviation="2"/>
<feColorMatrix type="matrix" values="0 0 0 0 0 0 0 0 0 0 0 0 0 0 0 0 0 0 0.25 0"/>
<feBlend mode="normal" in2="BackgroundImageFix" result="effect1_dropShadow"/>
<feColorMatrix in="SourceAlpha" type="matrix" values="0 0 0 0 0 0 0 0 0 0 0 0 0 0 0 0 0 0 127 0"/>
<feOffset dy="4"/>
<feGaussianBlur stdDeviation="2"/>
<feColorMatrix type="matrix" values="0 0 0 0 0 0 0 0 0 0 0 0 0 0 0 0 0 0 0.25 0"/>
<feBlend mode="normal" in2="effect1_dropShadow" result="effect2_dropShadow"/>
<feBlend mode="normal" in="SourceGraphic" in2="effect2_dropShadow" result="shape"/>
</filter>
<filter id="filter5_dd" x="1194" y="454" width="188" height="188" filterUnits="userSpaceOnUse" color-interpolation-filters="sRGB">
<feFlood flood-opacity="0" result="BackgroundImageFix"/>
<feColorMatrix in="SourceAlpha" type="matrix" values="0 0 0 0 0 0 0 0 0 0 0 0 0 0 0 0 0 0 127 0"/>
<feOffset dy="4"/>
<feGaussianBlur stdDeviation="2"/>
<feColorMatrix type="matrix" values="0 0 0 0 0 0 0 0 0 0 0 0 0 0 0 0 0 0 0.25 0"/>
<feBlend mode="normal" in2="BackgroundImageFix" result="effect1_dropShadow"/>
<feColorMatrix in="SourceAlpha" type="matrix" values="0 0 0 0 0 0 0 0 0 0 0 0 0 0 0 0 0 0 127 0"/>
<feOffset dy="4"/>
<feGaussianBlur stdDeviation="2"/>
<feColorMatrix type="matrix" values="0 0 0 0 0 0 0 0 0 0 0 0 0 0 0 0 0 0 0.25 0"/>
<feBlend mode="normal" in2="effect1_dropShadow" result="effect2_dropShadow"/>
<feBlend mode="normal" in="SourceGraphic" in2="effect2_dropShadow" result="shape"/>
</filter>
<filter id="filter6_dd" x="1194" y="782" width="188" height="188" filterUnits="userSpaceOnUse" color-interpolation-filters="sRGB">
<feFlood flood-opacity="0" result="BackgroundImageFix"/>
<feColorMatrix in="SourceAlpha" type="matrix" values="0 0 0 0 0 0 0 0 0 0 0 0 0 0 0 0 0 0 127 0"/>
<feOffset dy="4"/>
<feGaussianBlur stdDeviation="2"/>
<feColorMatrix type="matrix" values="0 0 0 0 0 0 0 0 0 0 0 0 0 0 0 0 0 0 0.25 0"/>
<feBlend mode="normal" in2="BackgroundImageFix" result="effect1_dropShadow"/>
<feColorMatrix in="SourceAlpha" type="matrix" values="0 0 0 0 0 0 0 0 0 0 0 0 0 0 0 0 0 0 127 0"/>
<feOffset dy="4"/>
<feGaussianBlur stdDeviation="2"/>
<feColorMatrix type="matrix" values="0 0 0 0 0 0 0 0 0 0 0 0 0 0 0 0 0 0 0.25 0"/>
<feBlend mode="normal" in2="effect1_dropShadow" result="effect2_dropShadow"/>
<feBlend mode="normal" in="SourceGraphic" in2="effect2_dropShadow" result="shape"/>
</filter>
<filter id="filter7_dd" x="851" y="126" width="188" height="188" filterUnits="userSpaceOnUse" color-interpolation-filters="sRGB">
<feFlood flood-opacity="0" result="BackgroundImageFix"/>
<feColorMatrix in="SourceAlpha" type="matrix" values="0 0 0 0 0 0 0 0 0 0 0 0 0 0 0 0 0 0 127 0"/>
<feOffset dy="4"/>
<feGaussianBlur stdDeviation="2"/>
<feColorMatrix type="matrix" values="0 0 0 0 0 0 0 0 0 0 0 0 0 0 0 0 0 0 0.25 0"/>
<feBlend mode="normal" in2="BackgroundImageFix" result="effect1_dropShadow"/>
<feColorMatrix in="SourceAlpha" type="matrix" values="0 0 0 0 0 0 0 0 0 0 0 0 0 0 0 0 0 0 127 0"/>
<feOffset dy="4"/>
<feGaussianBlur stdDeviation="2"/>
<feColorMatrix type="matrix" values="0 0 0 0 0 0 0 0 0 0 0 0 0 0 0 0 0 0 0.25 0"/>
<feBlend mode="normal" in2="effect1_dropShadow" result="effect2_dropShadow"/>
<feBlend mode="normal" in="SourceGraphic" in2="effect2_dropShadow" result="shape"/>
</filter>
<filter id="filter8_dd" x="1168" y="100" width="210" height="210" filterUnits="userSpaceOnUse" color-interpolation-filters="sRGB">
<feFlood flood-opacity="0" result="BackgroundImageFix"/>
<feColorMatrix in="SourceAlpha" type="matrix" values="0 0 0 0 0 0 0 0 0 0 0 0 0 0 0 0 0 0 127 0"/>
<feOffset dy="4"/>
<feGaussianBlur stdDeviation="2"/>
<feColorMatrix type="matrix" values="0 0 0 0 0 0 0 0 0 0 0 0 0 0 0 0 0 0 0.25 0"/>
<feBlend mode="normal" in2="BackgroundImageFix" result="effect1_dropShadow"/>
<feColorMatrix in="SourceAlpha" type="matrix" values="0 0 0 0 0 0 0 0 0 0 0 0 0 0 0 0 0 0 127 0"/>
<feOffset dy="4"/>
<feGaussianBlur stdDeviation="2"/>
<feColorMatrix type="matrix" values="0 0 0 0 0 0 0 0 0 0 0 0 0 0 0 0 0 0 0.25 0"/>
<feBlend mode="normal" in2="effect1_dropShadow" result="effect2_dropShadow"/>
<feBlend mode="normal" in="SourceGraphic" in2="effect2_dropShadow" result="shape"/>
</filter>
<filter id="filter9_d" x="1254" y="186" width="38" height="38" filterUnits="userSpaceOnUse" color-interpolation-filters="sRGB">
<feFlood flood-opacity="0" result="BackgroundImageFix"/>
<feColorMatrix in="SourceAlpha" type="matrix" values="0 0 0 0 0 0 0 0 0 0 0 0 0 0 0 0 0 0 127 0"/>
<feOffset dy="4"/>
<feGaussianBlur stdDeviation="2"/>
<feColorMatrix type="matrix" values="0 0 0 0 0 0 0 0 0 0 0 0 0 0 0 0 0 0 0.25 0"/>
<feBlend mode="normal" in2="BackgroundImageFix" result="effect1_dropShadow"/>
<feBlend mode="normal" in="SourceGraphic" in2="effect1_dropShadow" result="shape"/>
</filter>
<filter id="filter10_df" x="921.309" y="191.587" width="360.883" height="351.326" filterUnits="userSpaceOnUse" color-interpolation-filters="sRGB">
<feFlood flood-opacity="0" result="BackgroundImageFix"/>
<feColorMatrix in="SourceAlpha" type="matrix" values="0 0 0 0 0 0 0 0 0 0 0 0 0 0 0 0 0 0 127 0"/>
<feOffset dy="4"/>
<feGaussianBlur stdDeviation="2"/>
<feColorMatrix type="matrix" values="0 0 0 0 0 0 0 0 0 0 0 0 0 0 0 0 0 0 0.25 0"/>
<feBlend mode="normal" in2="BackgroundImageFix" result="effect1_dropShadow"/>
<feBlend mode="normal" in="SourceGraphic" in2="effect1_dropShadow" result="shape"/>
<feGaussianBlur stdDeviation="2" result="effect2_foregroundBlur"/>
</filter>
<filter id="filter11_dd" x="492.188" y="496.45" width="857.759" height="58.35" filterUnits="userSpaceOnUse" color-interpolation-filters="sRGB">
<feFlood flood-opacity="0" result="BackgroundImageFix"/>
<feColorMatrix in="SourceAlpha" type="matrix" values="0 0 0 0 0 0 0 0 0 0 0 0 0 0 0 0 0 0 127 0"/>
<feOffset dy="4"/>
<feGaussianBlur stdDeviation="2"/>
<feColorMatrix type="matrix" values="0 0 0 0 0 0 0 0 0 0 0 0 0 0 0 0 0 0 0.25 0"/>
<feBlend mode="normal" in2="BackgroundImageFix" result="effect1_dropShadow"/>
<feColorMatrix in="SourceAlpha" type="matrix" values="0 0 0 0 0 0 0 0 0 0 0 0 0 0 0 0 0 0 127 0"/>
<feOffset dy="4"/>
<feGaussianBlur stdDeviation="2"/>
<feColorMatrix type="matrix" values="0 0 0 0 0 0 0 0 0 0 0 0 0 0 0 0 0 0 0.25 0"/>
<feBlend mode="normal" in2="effect1_dropShadow" result="effect2_dropShadow"/>
<feBlend mode="normal" in="SourceGraphic" in2="effect2_dropShadow" result="shape"/>
</filter>
</defs>
</svg>
