<svg width="1920" height="229" viewBox="0 0 1920 229" fill="none" xmlns="http://www.w3.org/2000/svg">
<path d="M0 0H1920V229H0V0Z" fill="#E5E5E5"/>
<g filter="url(#filter0_dd)">
<path d="M563.217 74C562.65 74 562.183 73.8167 561.817 73.45C561.45 73.0833 561.267 72.6167 561.267 72.05V36.9C561.267 36.3333 561.45 35.8667 561.817 35.5C562.183 35.1333 562.65 34.95 563.217 34.95H573.217C575.683 34.95 577.867 35.5 579.767 36.6C581.667 37.6667 583.15 39.15 584.217 41.05C585.283 42.95 585.817 45.15 585.817 47.65C585.817 50.0833 585.283 52.25 584.217 54.15C583.15 56.0167 581.667 57.5 579.767 58.6C577.867 59.6667 575.683 60.2 573.217 60.2H565.167V72.05C565.167 72.6167 564.983 73.0833 564.617 73.45C564.25 73.8167 563.783 74 563.217 74ZM565.167 56.45H573.217C574.917 56.45 576.433 56.0833 577.767 55.35C579.1 54.5833 580.133 53.5333 580.867 52.2C581.633 50.8667 582.017 49.35 582.017 47.65C582.017 45.8833 581.633 44.3333 580.867 43C580.133 41.6667 579.1 40.6167 577.767 39.85C576.433 39.0833 574.917 38.7 573.217 38.7H565.167V56.45ZM601.705 74.25C599.139 74.25 596.839 73.65 594.805 72.45C592.772 71.2167 591.155 69.55 589.955 67.45C588.789 65.35 588.205 62.9833 588.205 60.35C588.205 57.6833 588.805 55.3 590.005 53.2C591.239 51.1 592.905 49.45 595.005 48.25C597.105 47.0167 599.472 46.4 602.105 46.4C604.739 46.4 607.089 47.0167 609.155 48.25C611.255 49.45 612.905 51.1 614.105 53.2C615.339 55.3 615.972 57.6833 616.005 60.35L614.455 61.55C614.455 63.95 613.889 66.1167 612.755 68.05C611.655 69.95 610.139 71.4667 608.205 72.6C606.305 73.7 604.139 74.25 601.705 74.25ZM602.105 70.75C604.039 70.75 605.755 70.3 607.255 69.4C608.789 68.5 609.989 67.2667 610.855 65.7C611.755 64.1 612.205 62.3167 612.205 60.35C612.205 58.35 611.755 56.5667 610.855 55C609.989 53.4333 608.789 52.2 607.255 51.3C605.755 50.3667 604.039 49.9 602.105 49.9C600.205 49.9 598.489 50.3667 596.955 51.3C595.422 52.2 594.205 53.4333 593.305 55C592.405 56.5667 591.955 58.35 591.955 60.35C591.955 62.3167 592.405 64.1 593.305 65.7C594.205 67.2667 595.422 68.5 596.955 69.4C598.489 70.3 600.205 70.75 602.105 70.75ZM614.055 74C613.489 74 613.022 73.8333 612.655 73.5C612.289 73.1333 612.105 72.6667 612.105 72.1V63.55L613.055 59.6L616.005 60.35V72.1C616.005 72.6667 615.822 73.1333 615.455 73.5C615.089 73.8333 614.622 74 614.055 74ZM632.293 74.25C630.326 74.25 628.376 73.9167 626.443 73.25C624.51 72.5833 622.943 71.5833 621.743 70.25C621.376 69.85 621.226 69.4 621.293 68.9C621.36 68.4 621.61 67.9667 622.043 67.6C622.51 67.2667 622.993 67.1333 623.493 67.2C623.993 67.2667 624.41 67.4833 624.743 67.85C625.543 68.7833 626.593 69.5 627.893 70C629.226 70.5 630.693 70.75 632.293 70.75C634.76 70.75 636.543 70.3333 637.643 69.5C638.743 68.6333 639.31 67.6 639.343 66.4C639.343 65.2 638.776 64.2167 637.643 63.45C636.51 62.65 634.643 62.0333 632.043 61.6C628.676 61.0667 626.21 60.1333 624.643 58.8C623.076 57.4667 622.293 55.8833 622.293 54.05C622.293 52.35 622.743 50.9333 623.643 49.8C624.543 48.6667 625.743 47.8167 627.243 47.25C628.743 46.6833 630.393 46.4 632.193 46.4C634.426 46.4 636.343 46.7833 637.943 47.55C639.576 48.3167 640.893 49.35 641.893 50.65C642.226 51.0833 642.36 51.5333 642.293 52C642.226 52.4667 641.96 52.85 641.493 53.15C641.093 53.3833 640.626 53.4667 640.093 53.4C639.593 53.3 639.16 53.05 638.793 52.65C637.96 51.6833 636.993 50.9833 635.893 50.55C634.793 50.0833 633.526 49.85 632.093 49.85C630.26 49.85 628.793 50.2333 627.693 51C626.593 51.7333 626.043 52.6667 626.043 53.8C626.043 54.5667 626.243 55.2333 626.643 55.8C627.076 56.3667 627.793 56.8667 628.793 57.3C629.826 57.7333 631.26 58.1 633.093 58.4C635.593 58.8 637.56 59.4 638.993 60.2C640.46 60.9667 641.493 61.8833 642.093 62.95C642.726 63.9833 643.043 65.1167 643.043 66.35C643.043 67.9167 642.576 69.3 641.643 70.5C640.743 71.6667 639.476 72.5833 637.843 73.25C636.243 73.9167 634.393 74.25 632.293 74.25ZM658.496 74.25C656.53 74.25 654.58 73.9167 652.646 73.25C650.713 72.5833 649.146 71.5833 647.946 70.25C647.58 69.85 647.43 69.4 647.496 68.9C647.563 68.4 647.813 67.9667 648.246 67.6C648.713 67.2667 649.196 67.1333 649.696 67.2C650.196 67.2667 650.613 67.4833 650.946 67.85C651.746 68.7833 652.796 69.5 654.096 70C655.43 70.5 656.896 70.75 658.496 70.75C660.963 70.75 662.746 70.3333 663.846 69.5C664.946 68.6333 665.513 67.6 665.546 66.4C665.546 65.2 664.98 64.2167 663.846 63.45C662.713 62.65 660.846 62.0333 658.246 61.6C654.88 61.0667 652.413 60.1333 650.846 58.8C649.28 57.4667 648.496 55.8833 648.496 54.05C648.496 52.35 648.946 50.9333 649.846 49.8C650.746 48.6667 651.946 47.8167 653.446 47.25C654.946 46.6833 656.596 46.4 658.396 46.4C660.63 46.4 662.546 46.7833 664.146 47.55C665.78 48.3167 667.096 49.35 668.096 50.65C668.43 51.0833 668.563 51.5333 668.496 52C668.43 52.4667 668.163 52.85 667.696 53.15C667.296 53.3833 666.83 53.4667 666.296 53.4C665.796 53.3 665.363 53.05 664.996 52.65C664.163 51.6833 663.196 50.9833 662.096 50.55C660.996 50.0833 659.73 49.85 658.296 49.85C656.463 49.85 654.996 50.2333 653.896 51C652.796 51.7333 652.246 52.6667 652.246 53.8C652.246 54.5667 652.446 55.2333 652.846 55.8C653.28 56.3667 653.996 56.8667 654.996 57.3C656.03 57.7333 657.463 58.1 659.296 58.4C661.796 58.8 663.763 59.4 665.196 60.2C666.663 60.9667 667.696 61.8833 668.296 62.95C668.93 63.9833 669.246 65.1167 669.246 66.35C669.246 67.9167 668.78 69.3 667.846 70.5C666.946 71.6667 665.68 72.5833 664.046 73.25C662.446 73.9167 660.596 74.25 658.496 74.25ZM681.349 74C680.916 74 680.533 73.8833 680.199 73.65C679.866 73.4167 679.633 73.1167 679.499 72.75L671.699 49.35C671.499 48.5167 671.516 47.8667 671.749 47.4C671.983 46.9 672.449 46.65 673.149 46.65C673.583 46.65 673.966 46.7667 674.299 47C674.633 47.2333 674.883 47.6 675.049 48.1L681.999 69.35H680.899L687.349 48.15C687.483 47.7167 687.699 47.3667 687.999 47.1C688.333 46.8 688.749 46.65 689.249 46.65C689.749 46.65 690.149 46.7833 690.449 47.05C690.783 47.3167 691.016 47.6833 691.149 48.15L697.299 68.85H696.449L703.249 48.1C703.583 47.1333 704.199 46.65 705.099 46.65C705.833 46.65 706.333 46.9333 706.599 47.5C706.866 48.0333 706.866 48.65 706.599 49.35L698.799 72.75C698.666 73.1167 698.433 73.4167 698.099 73.65C697.799 73.8833 697.433 74 696.999 74C696.566 74 696.166 73.8833 695.799 73.65C695.466 73.4167 695.249 73.1167 695.149 72.75L688.849 51.85H689.449L683.149 72.75C683.016 73.15 682.783 73.4667 682.449 73.7C682.116 73.9 681.749 74 681.349 74ZM722.885 74.25C720.218 74.25 717.835 73.65 715.735 72.45C713.635 71.25 711.985 69.6 710.785 67.5C709.585 65.4 708.985 63.0167 708.985 60.35C708.985 57.65 709.585 55.25 710.785 53.15C711.985 51.05 713.635 49.4 715.735 48.2C717.835 47 720.218 46.4 722.885 46.4C725.551 46.4 727.918 47 729.985 48.2C732.085 49.4 733.735 51.05 734.935 53.15C736.135 55.25 736.751 57.65 736.785 60.35C736.785 63.0167 736.168 65.4 734.935 67.5C733.735 69.6 732.085 71.25 729.985 72.45C727.918 73.65 725.551 74.25 722.885 74.25ZM722.885 70.75C724.818 70.75 726.551 70.3 728.085 69.4C729.618 68.5 730.818 67.2667 731.685 65.7C732.551 64.1333 732.985 62.35 732.985 60.35C732.985 58.35 732.551 56.5667 731.685 55C730.818 53.4 729.618 52.15 728.085 51.25C726.551 50.35 724.818 49.9 722.885 49.9C720.951 49.9 719.218 50.35 717.685 51.25C716.151 52.15 714.935 53.4 714.035 55C713.168 56.5667 712.735 58.35 712.735 60.35C712.735 62.35 713.168 64.1333 714.035 65.7C714.935 67.2667 716.151 68.5 717.685 69.4C719.218 70.3 720.951 70.75 722.885 70.75ZM745.122 57.15C745.222 55.0833 745.756 53.2333 746.722 51.6C747.722 49.9667 749.006 48.6833 750.572 47.75C752.172 46.8167 753.939 46.35 755.872 46.35C757.406 46.35 758.589 46.5667 759.422 47C760.256 47.4333 760.572 48.0667 760.372 48.9C760.239 49.4 760.006 49.7333 759.672 49.9C759.372 50.0667 758.989 50.1333 758.522 50.1C758.089 50.0667 757.589 50.0333 757.022 50C755.156 49.8333 753.489 50.0333 752.022 50.6C750.589 51.1333 749.439 51.9667 748.572 53.1C747.739 54.2333 747.322 55.5833 747.322 57.15H745.122ZM745.422 74C744.822 74 744.356 73.8333 744.022 73.5C743.689 73.1667 743.522 72.7 743.522 72.1V48.55C743.522 47.95 743.689 47.4833 744.022 47.15C744.356 46.8167 744.822 46.65 745.422 46.65C746.022 46.65 746.489 46.8167 746.822 47.15C747.156 47.4833 747.322 47.95 747.322 48.55V72.1C747.322 72.7 747.156 73.1667 746.822 73.5C746.489 73.8333 746.022 74 745.422 74ZM776.121 74.25C773.488 74.25 771.121 73.65 769.021 72.45C766.921 71.2167 765.254 69.55 764.021 67.45C762.821 65.35 762.221 62.9667 762.221 60.3C762.221 57.6667 762.804 55.3 763.971 53.2C765.171 51.1 766.788 49.45 768.821 48.25C770.854 47.0167 773.154 46.4 775.721 46.4C777.954 46.4 779.971 46.8833 781.771 47.85C783.571 48.7833 785.021 50.0333 786.121 51.6V36.9C786.121 36.3 786.304 35.8333 786.671 35.5C787.038 35.1333 787.504 34.95 788.071 34.95C788.638 34.95 789.104 35.1333 789.471 35.5C789.838 35.8333 790.021 36.3 790.021 36.9V60.5C789.954 63.1 789.304 65.45 788.071 67.55C786.871 69.6167 785.221 71.25 783.121 72.45C781.054 73.65 778.721 74.25 776.121 74.25ZM776.121 70.75C778.054 70.75 779.771 70.3 781.271 69.4C782.804 68.4667 784.004 67.2167 784.871 65.65C785.771 64.0833 786.221 62.3 786.221 60.3C786.221 58.3333 785.771 56.5667 784.871 55C784.004 53.4 782.804 52.15 781.271 51.25C779.771 50.35 778.054 49.9 776.121 49.9C774.221 49.9 772.504 50.35 770.971 51.25C769.438 52.15 768.221 53.4 767.321 55C766.421 56.5667 765.971 58.3333 765.971 60.3C765.971 62.3 766.421 64.0833 767.321 65.65C768.221 67.2167 769.438 68.4667 770.971 69.4C772.504 70.3 774.221 70.75 776.121 70.75ZM814.621 74C814.054 74 813.588 73.8167 813.221 73.45C812.854 73.0833 812.671 72.6167 812.671 72.05V36.9C812.671 36.3333 812.854 35.8667 813.221 35.5C813.588 35.1333 814.054 34.95 814.621 34.95C815.188 34.95 815.654 35.1333 816.021 35.5C816.388 35.8667 816.571 36.3333 816.571 36.9V72.05C816.571 72.6167 816.388 73.0833 816.021 73.45C815.654 73.8167 815.188 74 814.621 74ZM848.787 74C848.22 74 847.754 73.8167 847.387 73.45C847.02 73.0833 846.837 72.6333 846.837 72.1V59.1C846.837 57.0333 846.437 55.3333 845.637 54C844.87 52.6667 843.804 51.6667 842.437 51C841.104 50.3333 839.587 50 837.887 50C836.254 50 834.77 50.3167 833.437 50.95C832.137 51.5833 831.104 52.45 830.337 53.55C829.57 54.65 829.187 55.9 829.187 57.3H826.437C826.504 55.2 827.07 53.3333 828.137 51.7C829.204 50.0333 830.62 48.7333 832.387 47.8C834.154 46.8333 836.12 46.35 838.287 46.35C840.654 46.35 842.77 46.85 844.637 47.85C846.504 48.8167 847.97 50.25 849.037 52.15C850.137 54.05 850.687 56.3667 850.687 59.1V72.1C850.687 72.6333 850.504 73.0833 850.137 73.45C849.77 73.8167 849.32 74 848.787 74ZM827.287 74C826.687 74 826.204 73.8333 825.837 73.5C825.504 73.1333 825.337 72.6667 825.337 72.1V48.6C825.337 48 825.504 47.5333 825.837 47.2C826.204 46.8333 826.687 46.65 827.287 46.65C827.854 46.65 828.304 46.8333 828.637 47.2C829.004 47.5333 829.187 48 829.187 48.6V72.1C829.187 72.6667 829.004 73.1333 828.637 73.5C828.304 73.8333 827.854 74 827.287 74ZM870.625 74.25C867.991 74.25 865.641 73.65 863.575 72.45C861.541 71.2167 859.925 69.55 858.725 67.45C857.558 65.35 856.975 62.9833 856.975 60.35C856.975 57.6833 857.541 55.3 858.675 53.2C859.808 51.1 861.358 49.45 863.325 48.25C865.291 47.0167 867.558 46.4 870.125 46.4C872.158 46.4 874.025 46.8 875.725 47.6C877.458 48.4 878.975 49.6 880.275 51.2C880.641 51.6 880.775 52.0333 880.675 52.5C880.575 52.9333 880.291 53.3167 879.825 53.65C879.458 53.9167 879.041 54.0167 878.575 53.95C878.141 53.85 877.758 53.6 877.425 53.2C875.491 51 873.058 49.9 870.125 49.9C868.258 49.9 866.608 50.35 865.175 51.25C863.775 52.15 862.675 53.3833 861.875 54.95C861.108 56.5167 860.725 58.3167 860.725 60.35C860.725 62.35 861.141 64.1333 861.975 65.7C862.808 67.2667 863.975 68.5 865.475 69.4C866.975 70.3 868.691 70.75 870.625 70.75C871.925 70.75 873.108 70.5833 874.175 70.25C875.275 69.8833 876.241 69.3333 877.075 68.6C877.475 68.2667 877.891 68.0833 878.325 68.05C878.758 68.0167 879.158 68.15 879.525 68.45C879.925 68.8167 880.141 69.2333 880.175 69.7C880.241 70.1667 880.091 70.5667 879.725 70.9C877.291 73.1333 874.258 74.25 870.625 74.25ZM899.91 74.25C897.243 74.25 894.86 73.65 892.76 72.45C890.66 71.25 889.01 69.6 887.81 67.5C886.61 65.4 886.01 63.0167 886.01 60.35C886.01 57.65 886.61 55.25 887.81 53.15C889.01 51.05 890.66 49.4 892.76 48.2C894.86 47 897.243 46.4 899.91 46.4C902.577 46.4 904.943 47 907.01 48.2C909.11 49.4 910.76 51.05 911.96 53.15C913.16 55.25 913.777 57.65 913.81 60.35C913.81 63.0167 913.193 65.4 911.96 67.5C910.76 69.6 909.11 71.25 907.01 72.45C904.943 73.65 902.577 74.25 899.91 74.25ZM899.91 70.75C901.843 70.75 903.577 70.3 905.11 69.4C906.643 68.5 907.843 67.2667 908.71 65.7C909.577 64.1333 910.01 62.35 910.01 60.35C910.01 58.35 909.577 56.5667 908.71 55C907.843 53.4 906.643 52.15 905.11 51.25C903.577 50.35 901.843 49.9 899.91 49.9C897.977 49.9 896.243 50.35 894.71 51.25C893.177 52.15 891.96 53.4 891.06 55C890.193 56.5667 889.76 58.35 889.76 60.35C889.76 62.35 890.193 64.1333 891.06 65.7C891.96 67.2667 893.177 68.5 894.71 69.4C896.243 70.3 897.977 70.75 899.91 70.75ZM922.148 57.15C922.248 55.0833 922.781 53.2333 923.748 51.6C924.748 49.9667 926.031 48.6833 927.598 47.75C929.198 46.8167 930.965 46.35 932.898 46.35C934.431 46.35 935.615 46.5667 936.448 47C937.281 47.4333 937.598 48.0667 937.398 48.9C937.265 49.4 937.031 49.7333 936.698 49.9C936.398 50.0667 936.015 50.1333 935.548 50.1C935.115 50.0667 934.615 50.0333 934.048 50C932.181 49.8333 930.515 50.0333 929.048 50.6C927.615 51.1333 926.465 51.9667 925.598 53.1C924.765 54.2333 924.348 55.5833 924.348 57.15H922.148ZM922.448 74C921.848 74 921.381 73.8333 921.048 73.5C920.715 73.1667 920.548 72.7 920.548 72.1V48.55C920.548 47.95 920.715 47.4833 921.048 47.15C921.381 46.8167 921.848 46.65 922.448 46.65C923.048 46.65 923.515 46.8167 923.848 47.15C924.181 47.4833 924.348 47.95 924.348 48.55V72.1C924.348 72.7 924.181 73.1667 923.848 73.5C923.515 73.8333 923.048 74 922.448 74ZM944.298 57.15C944.398 55.0833 944.932 53.2333 945.898 51.6C946.898 49.9667 948.182 48.6833 949.748 47.75C951.348 46.8167 953.115 46.35 955.048 46.35C956.582 46.35 957.765 46.5667 958.598 47C959.432 47.4333 959.748 48.0667 959.548 48.9C959.415 49.4 959.182 49.7333 958.848 49.9C958.548 50.0667 958.165 50.1333 957.698 50.1C957.265 50.0667 956.765 50.0333 956.198 50C954.332 49.8333 952.665 50.0333 951.198 50.6C949.765 51.1333 948.615 51.9667 947.748 53.1C946.915 54.2333 946.498 55.5833 946.498 57.15H944.298ZM944.598 74C943.998 74 943.532 73.8333 943.198 73.5C942.865 73.1667 942.698 72.7 942.698 72.1V48.55C942.698 47.95 942.865 47.4833 943.198 47.15C943.532 46.8167 943.998 46.65 944.598 46.65C945.198 46.65 945.665 46.8167 945.998 47.15C946.332 47.4833 946.498 47.95 946.498 48.55V72.1C946.498 72.7 946.332 73.1667 945.998 73.5C945.665 73.8333 945.198 74 944.598 74ZM975.247 74.25C972.547 74.25 970.147 73.6667 968.047 72.5C965.98 71.3 964.347 69.65 963.147 67.55C961.98 65.45 961.397 63.05 961.397 60.35C961.397 57.6167 961.947 55.2167 963.047 53.15C964.18 51.05 965.73 49.4 967.697 48.2C969.663 47 971.93 46.4 974.497 46.4C977.03 46.4 979.23 46.9833 981.097 48.15C982.997 49.2833 984.463 50.8667 985.497 52.9C986.53 54.9333 987.047 57.25 987.047 59.85C987.047 60.3833 986.88 60.8167 986.547 61.15C986.213 61.45 985.78 61.6 985.247 61.6H963.997V58.4H985.647L983.497 59.95C983.53 58.0167 983.18 56.2833 982.447 54.75C981.713 53.2167 980.663 52.0167 979.297 51.15C977.963 50.2833 976.363 49.85 974.497 49.85C972.597 49.85 970.93 50.3 969.497 51.2C968.063 52.1 966.947 53.35 966.147 54.95C965.38 56.5167 964.997 58.3167 964.997 60.35C964.997 62.3833 965.43 64.1833 966.297 65.75C967.197 67.3167 968.413 68.55 969.947 69.45C971.48 70.35 973.247 70.8 975.247 70.8C976.447 70.8 977.647 70.6 978.847 70.2C980.08 69.7667 981.063 69.2333 981.797 68.6C982.163 68.3 982.58 68.15 983.047 68.15C983.513 68.1167 983.913 68.2333 984.247 68.5C984.68 68.9 984.897 69.3333 984.897 69.8C984.93 70.2667 984.747 70.6667 984.347 71C983.247 71.9333 981.847 72.7167 980.147 73.35C978.447 73.95 976.813 74.25 975.247 74.25ZM1004.03 74.25C1001.4 74.25 999.05 73.65 996.983 72.45C994.95 71.2167 993.333 69.55 992.133 67.45C990.966 65.35 990.383 62.9833 990.383 60.35C990.383 57.6833 990.95 55.3 992.083 53.2C993.216 51.1 994.766 49.45 996.733 48.25C998.7 47.0167 1000.97 46.4 1003.53 46.4C1005.57 46.4 1007.43 46.8 1009.13 47.6C1010.87 48.4 1012.38 49.6 1013.68 51.2C1014.05 51.6 1014.18 52.0333 1014.08 52.5C1013.98 52.9333 1013.7 53.3167 1013.23 53.65C1012.87 53.9167 1012.45 54.0167 1011.98 53.95C1011.55 53.85 1011.17 53.6 1010.83 53.2C1008.9 51 1006.47 49.9 1003.53 49.9C1001.67 49.9 1000.02 50.35 998.583 51.25C997.183 52.15 996.083 53.3833 995.283 54.95C994.516 56.5167 994.133 58.3167 994.133 60.35C994.133 62.35 994.55 64.1333 995.383 65.7C996.216 67.2667 997.383 68.5 998.883 69.4C1000.38 70.3 1002.1 70.75 1004.03 70.75C1005.33 70.75 1006.52 70.5833 1007.58 70.25C1008.68 69.8833 1009.65 69.3333 1010.48 68.6C1010.88 68.2667 1011.3 68.0833 1011.73 68.05C1012.17 68.0167 1012.57 68.15 1012.93 68.45C1013.33 68.8167 1013.55 69.2333 1013.58 69.7C1013.65 70.1667 1013.5 70.5667 1013.13 70.9C1010.7 73.1333 1007.67 74.25 1004.03 74.25ZM1031.57 74C1029.8 74 1028.22 73.5833 1026.82 72.75C1025.45 71.9167 1024.37 70.7833 1023.57 69.35C1022.77 67.8833 1022.37 66.2167 1022.37 64.35V39.9C1022.37 39.3333 1022.53 38.8667 1022.87 38.5C1023.23 38.1333 1023.7 37.95 1024.27 37.95C1024.83 37.95 1025.3 38.1333 1025.67 38.5C1026.03 38.8667 1026.22 39.3333 1026.22 39.9V64.35C1026.22 66.05 1026.72 67.45 1027.72 68.55C1028.72 69.6167 1030 70.15 1031.57 70.15H1032.92C1033.45 70.15 1033.88 70.3333 1034.22 70.7C1034.55 71.0667 1034.72 71.5333 1034.72 72.1C1034.72 72.6667 1034.52 73.1333 1034.12 73.5C1033.72 73.8333 1033.22 74 1032.62 74H1031.57ZM1019.12 51C1018.62 51 1018.2 50.85 1017.87 50.55C1017.53 50.2167 1017.37 49.8167 1017.37 49.35C1017.37 48.85 1017.53 48.45 1017.87 48.15C1018.2 47.8167 1018.62 47.65 1019.12 47.65H1031.87C1032.37 47.65 1032.78 47.8167 1033.12 48.15C1033.45 48.45 1033.62 48.85 1033.62 49.35C1033.62 49.8167 1033.45 50.2167 1033.12 50.55C1032.78 50.85 1032.37 51 1031.87 51H1019.12ZM1041.14 65.15C1040.6 65.15 1040.14 64.9667 1039.74 64.6C1039.37 64.2 1039.19 63.7333 1039.19 63.2V36.9C1039.19 36.3333 1039.37 35.8667 1039.74 35.5C1040.14 35.1 1040.6 34.9 1041.14 34.9C1041.7 34.9 1042.17 35.1 1042.54 35.5C1042.9 35.8667 1043.09 36.3333 1043.09 36.9V63.2C1043.09 63.7333 1042.89 64.2 1042.49 64.6C1042.09 64.9667 1041.64 65.15 1041.14 65.15ZM1041.14 74C1040.34 74 1039.65 73.7167 1039.09 73.15C1038.52 72.5833 1038.24 71.9 1038.24 71.1C1038.24 70.2667 1038.52 69.5667 1039.09 69C1039.65 68.4333 1040.34 68.15 1041.14 68.15C1041.94 68.15 1042.62 68.45 1043.19 69.05C1043.75 69.6167 1044.04 70.3 1044.04 71.1C1044.04 71.9 1043.75 72.5833 1043.19 73.15C1042.62 73.7167 1041.94 74 1041.14 74ZM1069.12 74C1068.55 74 1068.08 73.8167 1067.72 73.45C1067.35 73.0833 1067.17 72.6167 1067.17 72.05V36.9C1067.17 36.3333 1067.35 35.8667 1067.72 35.5C1068.08 35.1333 1068.55 34.95 1069.12 34.95H1079.12C1081.58 34.95 1083.77 35.5 1085.67 36.6C1087.57 37.6667 1089.05 39.15 1090.12 41.05C1091.18 42.95 1091.72 45.15 1091.72 47.65C1091.72 50.0833 1091.18 52.25 1090.12 54.15C1089.05 56.0167 1087.57 57.5 1085.67 58.6C1083.77 59.6667 1081.58 60.2 1079.12 60.2H1071.07V72.05C1071.07 72.6167 1070.88 73.0833 1070.52 73.45C1070.15 73.8167 1069.68 74 1069.12 74ZM1071.07 56.45H1079.12C1080.82 56.45 1082.33 56.0833 1083.67 55.35C1085 54.5833 1086.03 53.5333 1086.77 52.2C1087.53 50.8667 1087.92 49.35 1087.92 47.65C1087.92 45.8833 1087.53 44.3333 1086.77 43C1086.03 41.6667 1085 40.6167 1083.67 39.85C1082.33 39.0833 1080.82 38.7 1079.12 38.7H1071.07V56.45ZM1102.43 74C1101.1 74 1099.9 73.6333 1098.83 72.9C1097.8 72.1667 1096.98 71.15 1096.38 69.85C1095.81 68.55 1095.53 67.05 1095.53 65.35V36.85C1095.53 36.2833 1095.7 35.8333 1096.03 35.5C1096.4 35.1333 1096.86 34.95 1097.43 34.95C1098 34.95 1098.45 35.1333 1098.78 35.5C1099.15 35.8333 1099.33 36.2833 1099.33 36.85V65.35C1099.33 66.7833 1099.61 67.95 1100.18 68.85C1100.78 69.75 1101.53 70.2 1102.43 70.2H1103.68C1104.18 70.2 1104.58 70.3833 1104.88 70.75C1105.18 71.0833 1105.33 71.5333 1105.33 72.1C1105.33 72.6667 1105.11 73.1333 1104.68 73.5C1104.28 73.8333 1103.75 74 1103.08 74H1102.43ZM1120.78 74.25C1118.08 74.25 1115.68 73.6667 1113.58 72.5C1111.51 71.3 1109.88 69.65 1108.68 67.55C1107.51 65.45 1106.93 63.05 1106.93 60.35C1106.93 57.6167 1107.48 55.2167 1108.58 53.15C1109.71 51.05 1111.26 49.4 1113.23 48.2C1115.19 47 1117.46 46.4 1120.03 46.4C1122.56 46.4 1124.76 46.9833 1126.63 48.15C1128.53 49.2833 1129.99 50.8667 1131.03 52.9C1132.06 54.9333 1132.58 57.25 1132.58 59.85C1132.58 60.3833 1132.41 60.8167 1132.08 61.15C1131.74 61.45 1131.31 61.6 1130.78 61.6H1109.53V58.4H1131.18L1129.03 59.95C1129.06 58.0167 1128.71 56.2833 1127.98 54.75C1127.24 53.2167 1126.19 52.0167 1124.83 51.15C1123.49 50.2833 1121.89 49.85 1120.03 49.85C1118.13 49.85 1116.46 50.3 1115.03 51.2C1113.59 52.1 1112.48 53.35 1111.68 54.95C1110.91 56.5167 1110.53 58.3167 1110.53 60.35C1110.53 62.3833 1110.96 64.1833 1111.83 65.75C1112.73 67.3167 1113.94 68.55 1115.48 69.45C1117.01 70.35 1118.78 70.8 1120.78 70.8C1121.98 70.8 1123.18 70.6 1124.38 70.2C1125.61 69.7667 1126.59 69.2333 1127.33 68.6C1127.69 68.3 1128.11 68.15 1128.58 68.15C1129.04 68.1167 1129.44 68.2333 1129.78 68.5C1130.21 68.9 1130.43 69.3333 1130.43 69.8C1130.46 70.2667 1130.28 70.6667 1129.88 71C1128.78 71.9333 1127.38 72.7167 1125.68 73.35C1123.98 73.95 1122.34 74.25 1120.78 74.25ZM1149.41 74.25C1146.85 74.25 1144.55 73.65 1142.51 72.45C1140.48 71.2167 1138.86 69.55 1137.66 67.45C1136.5 65.35 1135.91 62.9833 1135.91 60.35C1135.91 57.6833 1136.51 55.3 1137.71 53.2C1138.95 51.1 1140.61 49.45 1142.71 48.25C1144.81 47.0167 1147.18 46.4 1149.81 46.4C1152.45 46.4 1154.8 47.0167 1156.86 48.25C1158.96 49.45 1160.61 51.1 1161.81 53.2C1163.05 55.3 1163.68 57.6833 1163.71 60.35L1162.16 61.55C1162.16 63.95 1161.6 66.1167 1160.46 68.05C1159.36 69.95 1157.85 71.4667 1155.91 72.6C1154.01 73.7 1151.85 74.25 1149.41 74.25ZM1149.81 70.75C1151.75 70.75 1153.46 70.3 1154.96 69.4C1156.5 68.5 1157.7 67.2667 1158.56 65.7C1159.46 64.1 1159.91 62.3167 1159.91 60.35C1159.91 58.35 1159.46 56.5667 1158.56 55C1157.7 53.4333 1156.5 52.2 1154.96 51.3C1153.46 50.3667 1151.75 49.9 1149.81 49.9C1147.91 49.9 1146.2 50.3667 1144.66 51.3C1143.13 52.2 1141.91 53.4333 1141.01 55C1140.11 56.5667 1139.66 58.35 1139.66 60.35C1139.66 62.3167 1140.11 64.1 1141.01 65.7C1141.91 67.2667 1143.13 68.5 1144.66 69.4C1146.2 70.3 1147.91 70.75 1149.81 70.75ZM1161.76 74C1161.2 74 1160.73 73.8333 1160.36 73.5C1160 73.1333 1159.81 72.6667 1159.81 72.1V63.55L1160.76 59.6L1163.71 60.35V72.1C1163.71 72.6667 1163.53 73.1333 1163.16 73.5C1162.8 73.8333 1162.33 74 1161.76 74ZM1180 74.25C1178.04 74.25 1176.09 73.9167 1174.15 73.25C1172.22 72.5833 1170.65 71.5833 1169.45 70.25C1169.09 69.85 1168.94 69.4 1169 68.9C1169.07 68.4 1169.32 67.9667 1169.75 67.6C1170.22 67.2667 1170.7 67.1333 1171.2 67.2C1171.7 67.2667 1172.12 67.4833 1172.45 67.85C1173.25 68.7833 1174.3 69.5 1175.6 70C1176.94 70.5 1178.4 70.75 1180 70.75C1182.47 70.75 1184.25 70.3333 1185.35 69.5C1186.45 68.6333 1187.02 67.6 1187.05 66.4C1187.05 65.2 1186.49 64.2167 1185.35 63.45C1184.22 62.65 1182.35 62.0333 1179.75 61.6C1176.39 61.0667 1173.92 60.1333 1172.35 58.8C1170.79 57.4667 1170 55.8833 1170 54.05C1170 52.35 1170.45 50.9333 1171.35 49.8C1172.25 48.6667 1173.45 47.8167 1174.95 47.25C1176.45 46.6833 1178.1 46.4 1179.9 46.4C1182.14 46.4 1184.05 46.7833 1185.65 47.55C1187.29 48.3167 1188.6 49.35 1189.6 50.65C1189.94 51.0833 1190.07 51.5333 1190 52C1189.94 52.4667 1189.67 52.85 1189.2 53.15C1188.8 53.3833 1188.34 53.4667 1187.8 53.4C1187.3 53.3 1186.87 53.05 1186.5 52.65C1185.67 51.6833 1184.7 50.9833 1183.6 50.55C1182.5 50.0833 1181.24 49.85 1179.8 49.85C1177.97 49.85 1176.5 50.2333 1175.4 51C1174.3 51.7333 1173.75 52.6667 1173.75 53.8C1173.75 54.5667 1173.95 55.2333 1174.35 55.8C1174.79 56.3667 1175.5 56.8667 1176.5 57.3C1177.54 57.7333 1178.97 58.1 1180.8 58.4C1183.3 58.8 1185.27 59.4 1186.7 60.2C1188.17 60.9667 1189.2 61.8833 1189.8 62.95C1190.44 63.9833 1190.75 65.1167 1190.75 66.35C1190.75 67.9167 1190.29 69.3 1189.35 70.5C1188.45 71.6667 1187.19 72.5833 1185.55 73.25C1183.95 73.9167 1182.1 74.25 1180 74.25ZM1209.06 74.25C1206.36 74.25 1203.96 73.6667 1201.86 72.5C1199.79 71.3 1198.16 69.65 1196.96 67.55C1195.79 65.45 1195.21 63.05 1195.21 60.35C1195.21 57.6167 1195.76 55.2167 1196.86 53.15C1197.99 51.05 1199.54 49.4 1201.51 48.2C1203.47 47 1205.74 46.4 1208.31 46.4C1210.84 46.4 1213.04 46.9833 1214.91 48.15C1216.81 49.2833 1218.27 50.8667 1219.31 52.9C1220.34 54.9333 1220.86 57.25 1220.86 59.85C1220.86 60.3833 1220.69 60.8167 1220.36 61.15C1220.02 61.45 1219.59 61.6 1219.06 61.6H1197.81V58.4H1219.46L1217.31 59.95C1217.34 58.0167 1216.99 56.2833 1216.26 54.75C1215.52 53.2167 1214.47 52.0167 1213.11 51.15C1211.77 50.2833 1210.17 49.85 1208.31 49.85C1206.41 49.85 1204.74 50.3 1203.31 51.2C1201.87 52.1 1200.76 53.35 1199.96 54.95C1199.19 56.5167 1198.81 58.3167 1198.81 60.35C1198.81 62.3833 1199.24 64.1833 1200.11 65.75C1201.01 67.3167 1202.22 68.55 1203.76 69.45C1205.29 70.35 1207.06 70.8 1209.06 70.8C1210.26 70.8 1211.46 70.6 1212.66 70.2C1213.89 69.7667 1214.87 69.2333 1215.61 68.6C1215.97 68.3 1216.39 68.15 1216.86 68.15C1217.32 68.1167 1217.72 68.2333 1218.06 68.5C1218.49 68.9 1218.71 69.3333 1218.71 69.8C1218.74 70.2667 1218.56 70.6667 1218.16 71C1217.06 71.9333 1215.66 72.7167 1213.96 73.35C1212.26 73.95 1210.62 74.25 1209.06 74.25ZM1251.22 74C1249.45 74 1247.87 73.5833 1246.47 72.75C1245.1 71.9167 1244.02 70.7833 1243.22 69.35C1242.42 67.8833 1242.02 66.2167 1242.02 64.35V39.9C1242.02 39.3333 1242.18 38.8667 1242.52 38.5C1242.88 38.1333 1243.35 37.95 1243.92 37.95C1244.48 37.95 1244.95 38.1333 1245.32 38.5C1245.68 38.8667 1245.87 39.3333 1245.87 39.9V64.35C1245.87 66.05 1246.37 67.45 1247.37 68.55C1248.37 69.6167 1249.65 70.15 1251.22 70.15H1252.57C1253.1 70.15 1253.53 70.3333 1253.87 70.7C1254.2 71.0667 1254.37 71.5333 1254.37 72.1C1254.37 72.6667 1254.17 73.1333 1253.77 73.5C1253.37 73.8333 1252.87 74 1252.27 74H1251.22ZM1238.77 51C1238.27 51 1237.85 50.85 1237.52 50.55C1237.18 50.2167 1237.02 49.8167 1237.02 49.35C1237.02 48.85 1237.18 48.45 1237.52 48.15C1237.85 47.8167 1238.27 47.65 1238.77 47.65H1251.52C1252.02 47.65 1252.43 47.8167 1252.77 48.15C1253.1 48.45 1253.27 48.85 1253.27 49.35C1253.27 49.8167 1253.1 50.2167 1252.77 50.55C1252.43 50.85 1252.02 51 1251.52 51H1238.77ZM1261.48 57.15C1261.58 55.0833 1262.12 53.2333 1263.08 51.6C1264.08 49.9667 1265.37 48.6833 1266.93 47.75C1268.53 46.8167 1270.3 46.35 1272.23 46.35C1273.77 46.35 1274.95 46.5667 1275.78 47C1276.62 47.4333 1276.93 48.0667 1276.73 48.9C1276.6 49.4 1276.37 49.7333 1276.03 49.9C1275.73 50.0667 1275.35 50.1333 1274.88 50.1C1274.45 50.0667 1273.95 50.0333 1273.38 50C1271.52 49.8333 1269.85 50.0333 1268.38 50.6C1266.95 51.1333 1265.8 51.9667 1264.93 53.1C1264.1 54.2333 1263.68 55.5833 1263.68 57.15H1261.48ZM1261.78 74C1261.18 74 1260.72 73.8333 1260.38 73.5C1260.05 73.1667 1259.88 72.7 1259.88 72.1V48.55C1259.88 47.95 1260.05 47.4833 1260.38 47.15C1260.72 46.8167 1261.18 46.65 1261.78 46.65C1262.38 46.65 1262.85 46.8167 1263.18 47.15C1263.52 47.4833 1263.68 47.95 1263.68 48.55V72.1C1263.68 72.7 1263.52 73.1667 1263.18 73.5C1262.85 73.8333 1262.38 74 1261.78 74ZM1286.73 85.9C1286.47 85.9 1286.17 85.8333 1285.83 85.7C1284.7 85.2 1284.38 84.4 1284.88 83.3L1301.03 47.7C1301.53 46.6333 1302.33 46.3333 1303.43 46.8C1304.57 47.2667 1304.88 48.05 1304.38 49.15L1288.18 84.75C1287.85 85.5167 1287.37 85.9 1286.73 85.9ZM1292.28 73.15C1291.78 73.3833 1291.32 73.4333 1290.88 73.3C1290.45 73.1333 1290.1 72.8 1289.83 72.3L1278.68 49.2C1278.45 48.7 1278.42 48.2333 1278.58 47.8C1278.75 47.3667 1279.08 47.0333 1279.58 46.8C1280.08 46.5667 1280.55 46.5333 1280.98 46.7C1281.42 46.8333 1281.75 47.15 1281.98 47.65L1292.93 70.75C1293.2 71.25 1293.28 71.7167 1293.18 72.15C1293.08 72.5833 1292.78 72.9167 1292.28 73.15ZM1334.63 74.25C1332.06 74.25 1329.76 73.65 1327.73 72.45C1325.69 71.2167 1324.08 69.55 1322.88 67.45C1321.71 65.35 1321.13 62.9833 1321.13 60.35C1321.13 57.6833 1321.73 55.3 1322.93 53.2C1324.16 51.1 1325.83 49.45 1327.93 48.25C1330.03 47.0167 1332.39 46.4 1335.03 46.4C1337.66 46.4 1340.01 47.0167 1342.08 48.25C1344.18 49.45 1345.83 51.1 1347.03 53.2C1348.26 55.3 1348.89 57.6833 1348.93 60.35L1347.38 61.55C1347.38 63.95 1346.81 66.1167 1345.68 68.05C1344.58 69.95 1343.06 71.4667 1341.13 72.6C1339.23 73.7 1337.06 74.25 1334.63 74.25ZM1335.03 70.75C1336.96 70.75 1338.68 70.3 1340.18 69.4C1341.71 68.5 1342.91 67.2667 1343.78 65.7C1344.68 64.1 1345.13 62.3167 1345.13 60.35C1345.13 58.35 1344.68 56.5667 1343.78 55C1342.91 53.4333 1341.71 52.2 1340.18 51.3C1338.68 50.3667 1336.96 49.9 1335.03 49.9C1333.13 49.9 1331.41 50.3667 1329.88 51.3C1328.34 52.2 1327.13 53.4333 1326.23 55C1325.33 56.5667 1324.88 58.35 1324.88 60.35C1324.88 62.3167 1325.33 64.1 1326.23 65.7C1327.13 67.2667 1328.34 68.5 1329.88 69.4C1331.41 70.3 1333.13 70.75 1335.03 70.75ZM1346.98 74C1346.41 74 1345.94 73.8333 1345.58 73.5C1345.21 73.1333 1345.03 72.6667 1345.03 72.1V63.55L1345.98 59.6L1348.93 60.35V72.1C1348.93 72.6667 1348.74 73.1333 1348.38 73.5C1348.01 73.8333 1347.54 74 1346.98 74ZM1367.71 74.25C1365.08 74.25 1362.75 73.6667 1360.71 72.5C1358.68 71.3 1357.08 69.65 1355.91 67.55C1354.78 65.45 1354.21 63.05 1354.21 60.35C1354.21 57.6167 1354.81 55.2 1356.01 53.1C1357.21 51 1358.86 49.3667 1360.96 48.2C1363.06 47 1365.45 46.4 1368.11 46.4C1370.81 46.4 1373.2 47 1375.26 48.2C1377.36 49.3667 1379 51 1380.16 53.1C1381.36 55.2 1381.98 57.6167 1382.01 60.35L1379.76 61.55C1379.76 64.0167 1379.25 66.2167 1378.21 68.15C1377.18 70.05 1375.75 71.55 1373.91 72.65C1372.11 73.7167 1370.05 74.25 1367.71 74.25ZM1368.21 84.8C1365.58 84.8 1363.26 84.3 1361.26 83.3C1359.26 82.3333 1357.61 81 1356.31 79.3C1355.95 78.9 1355.78 78.4667 1355.81 78C1355.88 77.5333 1356.13 77.15 1356.56 76.85C1357 76.55 1357.48 76.45 1358.01 76.55C1358.55 76.65 1358.96 76.9 1359.26 77.3C1360.23 78.5 1361.46 79.4667 1362.96 80.2C1364.5 80.9333 1366.26 81.3 1368.26 81.3C1370.13 81.3 1371.81 80.85 1373.31 79.95C1374.81 79.05 1376 77.7833 1376.86 76.15C1377.76 74.5167 1378.21 72.6 1378.21 70.4V62.8L1379.66 59.9L1382.01 60.35V70.55C1382.01 73.25 1381.41 75.6667 1380.21 77.8C1379.01 79.9667 1377.38 81.6667 1375.31 82.9C1373.25 84.1667 1370.88 84.8 1368.21 84.8ZM1368.11 70.75C1370.08 70.75 1371.81 70.3167 1373.31 69.45C1374.85 68.55 1376.05 67.3167 1376.91 65.75C1377.78 64.1833 1378.21 62.3833 1378.21 60.35C1378.21 58.3167 1377.78 56.5167 1376.91 54.95C1376.05 53.35 1374.85 52.1167 1373.31 51.25C1371.81 50.35 1370.08 49.9 1368.11 49.9C1366.15 49.9 1364.4 50.35 1362.86 51.25C1361.33 52.1167 1360.13 53.35 1359.26 54.95C1358.4 56.5167 1357.96 58.3167 1357.96 60.35C1357.96 62.3833 1358.4 64.1833 1359.26 65.75C1360.13 67.3167 1361.33 68.55 1362.86 69.45C1364.4 70.3167 1366.15 70.75 1368.11 70.75ZM1400.8 74.25C1398.23 74.25 1395.93 73.65 1393.9 72.45C1391.87 71.2167 1390.25 69.55 1389.05 67.45C1387.88 65.35 1387.3 62.9833 1387.3 60.35C1387.3 57.6833 1387.9 55.3 1389.1 53.2C1390.33 51.1 1392 49.45 1394.1 48.25C1396.2 47.0167 1398.57 46.4 1401.2 46.4C1403.83 46.4 1406.18 47.0167 1408.25 48.25C1410.35 49.45 1412 51.1 1413.2 53.2C1414.43 55.3 1415.07 57.6833 1415.1 60.35L1413.55 61.55C1413.55 63.95 1412.98 66.1167 1411.85 68.05C1410.75 69.95 1409.23 71.4667 1407.3 72.6C1405.4 73.7 1403.23 74.25 1400.8 74.25ZM1401.2 70.75C1403.13 70.75 1404.85 70.3 1406.35 69.4C1407.88 68.5 1409.08 67.2667 1409.95 65.7C1410.85 64.1 1411.3 62.3167 1411.3 60.35C1411.3 58.35 1410.85 56.5667 1409.95 55C1409.08 53.4333 1407.88 52.2 1406.35 51.3C1404.85 50.3667 1403.13 49.9 1401.2 49.9C1399.3 49.9 1397.58 50.3667 1396.05 51.3C1394.52 52.2 1393.3 53.4333 1392.4 55C1391.5 56.5667 1391.05 58.35 1391.05 60.35C1391.05 62.3167 1391.5 64.1 1392.4 65.7C1393.3 67.2667 1394.52 68.5 1396.05 69.4C1397.58 70.3 1399.3 70.75 1401.2 70.75ZM1413.15 74C1412.58 74 1412.12 73.8333 1411.75 73.5C1411.38 73.1333 1411.2 72.6667 1411.2 72.1V63.55L1412.15 59.6L1415.1 60.35V72.1C1415.1 72.6667 1414.92 73.1333 1414.55 73.5C1414.18 73.8333 1413.72 74 1413.15 74ZM1424.59 74C1423.99 74 1423.51 73.8333 1423.14 73.5C1422.81 73.1333 1422.64 72.65 1422.64 72.05V48.6C1422.64 48 1422.81 47.5333 1423.14 47.2C1423.51 46.8333 1423.99 46.65 1424.59 46.65C1425.16 46.65 1425.61 46.8333 1425.94 47.2C1426.31 47.5333 1426.49 48 1426.49 48.6V72.05C1426.49 72.65 1426.31 73.1333 1425.94 73.5C1425.61 73.8333 1425.16 74 1424.59 74ZM1424.54 41.45C1423.81 41.45 1423.17 41.1833 1422.64 40.65C1422.11 40.1167 1421.84 39.4667 1421.84 38.7C1421.84 37.8667 1422.11 37.2167 1422.64 36.75C1423.21 36.25 1423.86 36 1424.59 36C1425.29 36 1425.91 36.25 1426.44 36.75C1427.01 37.2167 1427.29 37.8667 1427.29 38.7C1427.29 39.4667 1427.02 40.1167 1426.49 40.65C1425.96 41.1833 1425.31 41.45 1424.54 41.45ZM1458.99 74C1458.43 74 1457.96 73.8167 1457.59 73.45C1457.23 73.0833 1457.04 72.6333 1457.04 72.1V59.1C1457.04 57.0333 1456.64 55.3333 1455.84 54C1455.08 52.6667 1454.01 51.6667 1452.64 51C1451.31 50.3333 1449.79 50 1448.09 50C1446.46 50 1444.98 50.3167 1443.64 50.95C1442.34 51.5833 1441.31 52.45 1440.54 53.55C1439.78 54.65 1439.39 55.9 1439.39 57.3H1436.64C1436.71 55.2 1437.28 53.3333 1438.34 51.7C1439.41 50.0333 1440.83 48.7333 1442.59 47.8C1444.36 46.8333 1446.33 46.35 1448.49 46.35C1450.86 46.35 1452.98 46.85 1454.84 47.85C1456.71 48.8167 1458.18 50.25 1459.24 52.15C1460.34 54.05 1460.89 56.3667 1460.89 59.1V72.1C1460.89 72.6333 1460.71 73.0833 1460.34 73.45C1459.98 73.8167 1459.53 74 1458.99 74ZM1437.49 74C1436.89 74 1436.41 73.8333 1436.04 73.5C1435.71 73.1333 1435.54 72.6667 1435.54 72.1V48.6C1435.54 48 1435.71 47.5333 1436.04 47.2C1436.41 46.8333 1436.89 46.65 1437.49 46.65C1438.06 46.65 1438.51 46.8333 1438.84 47.2C1439.21 47.5333 1439.39 48 1439.39 48.6V72.1C1439.39 72.6667 1439.21 73.1333 1438.84 73.5C1438.51 73.8333 1438.06 74 1437.49 74ZM1469.53 74.8C1468.73 74.8 1468.05 74.5167 1467.48 73.95C1466.91 73.3833 1466.63 72.7 1466.63 71.9C1466.63 71.0667 1466.91 70.3667 1467.48 69.8C1468.08 69.2333 1468.76 68.95 1469.53 68.95C1470.33 68.95 1471.01 69.25 1471.58 69.85C1472.15 70.4167 1472.43 71.1 1472.43 71.9C1472.43 72.6667 1472.15 73.35 1471.58 73.95C1471.05 74.5167 1470.36 74.8 1469.53 74.8ZM403.105 186C402.539 186 402.072 185.817 401.705 185.45C401.339 185.083 401.155 184.617 401.155 184.05V148.9C401.155 148.333 401.339 147.867 401.705 147.5C402.072 147.133 402.539 146.95 403.105 146.95C403.705 146.95 404.205 147.183 404.605 147.65L428.505 179.05V148.9C428.505 148.333 428.689 147.867 429.055 147.5C429.422 147.133 429.889 146.95 430.455 146.95C430.989 146.95 431.439 147.133 431.805 147.5C432.205 147.867 432.405 148.333 432.405 148.9V184.05C432.405 184.617 432.205 185.083 431.805 185.45C431.439 185.817 430.989 186 430.455 186C430.189 186 429.922 185.95 429.655 185.85C429.389 185.75 429.172 185.583 429.005 185.35L405.055 153.95V184.05C405.055 184.617 404.855 185.083 404.455 185.45C404.089 185.817 403.639 186 403.105 186ZM453.565 186.25C450.865 186.25 448.465 185.667 446.365 184.5C444.298 183.3 442.665 181.65 441.465 179.55C440.298 177.45 439.715 175.05 439.715 172.35C439.715 169.617 440.265 167.217 441.365 165.15C442.498 163.05 444.048 161.4 446.015 160.2C447.982 159 450.248 158.4 452.815 158.4C455.348 158.4 457.548 158.983 459.415 160.15C461.315 161.283 462.782 162.867 463.815 164.9C464.848 166.933 465.365 169.25 465.365 171.85C465.365 172.383 465.198 172.817 464.865 173.15C464.532 173.45 464.098 173.6 463.565 173.6H442.315V170.4H463.965L461.815 171.95C461.848 170.017 461.498 168.283 460.765 166.75C460.032 165.217 458.982 164.017 457.615 163.15C456.282 162.283 454.682 161.85 452.815 161.85C450.915 161.85 449.248 162.3 447.815 163.2C446.382 164.1 445.265 165.35 444.465 166.95C443.698 168.517 443.315 170.317 443.315 172.35C443.315 174.383 443.748 176.183 444.615 177.75C445.515 179.317 446.732 180.55 448.265 181.45C449.798 182.35 451.565 182.8 453.565 182.8C454.765 182.8 455.965 182.6 457.165 182.2C458.398 181.767 459.382 181.233 460.115 180.6C460.482 180.3 460.898 180.15 461.365 180.15C461.832 180.117 462.232 180.233 462.565 180.5C462.998 180.9 463.215 181.333 463.215 181.8C463.248 182.267 463.065 182.667 462.665 183C461.565 183.933 460.165 184.717 458.465 185.35C456.765 185.95 455.132 186.25 453.565 186.25ZM488.714 186C488.314 186 487.981 185.933 487.714 185.8C487.481 185.667 487.231 185.433 486.964 185.1L478.314 174.1L476.814 172.8L468.114 161.75C467.748 161.317 467.564 160.867 467.564 160.4C467.598 159.933 467.764 159.533 468.064 159.2C468.364 158.833 468.798 158.65 469.364 158.65C469.931 158.65 470.414 158.85 470.814 159.25L479.214 170L480.564 171.1L489.864 183C490.298 183.533 490.481 184.033 490.414 184.5C490.348 184.967 490.131 185.333 489.764 185.6C489.431 185.867 489.081 186 488.714 186ZM468.914 186C468.381 186 467.948 185.833 467.614 185.5C467.314 185.167 467.148 184.767 467.114 184.3C467.114 183.833 467.298 183.383 467.664 182.95L476.864 171.45L479.014 174.3L470.264 185.4C469.964 185.8 469.514 186 468.914 186ZM480.614 173L478.164 170.5L486.814 159.55C487.048 159.217 487.298 158.983 487.564 158.85C487.864 158.717 488.164 158.65 488.464 158.65C489.031 158.65 489.464 158.833 489.764 159.2C490.064 159.533 490.198 159.95 490.164 160.45C490.164 160.917 489.998 161.367 489.664 161.8L480.614 173ZM506.957 186C505.19 186 503.607 185.583 502.207 184.75C500.84 183.917 499.757 182.783 498.957 181.35C498.157 179.883 497.757 178.217 497.757 176.35V151.9C497.757 151.333 497.924 150.867 498.257 150.5C498.624 150.133 499.09 149.95 499.657 149.95C500.224 149.95 500.69 150.133 501.057 150.5C501.424 150.867 501.607 151.333 501.607 151.9V176.35C501.607 178.05 502.107 179.45 503.107 180.55C504.107 181.617 505.39 182.15 506.957 182.15H508.307C508.84 182.15 509.274 182.333 509.607 182.7C509.94 183.067 510.107 183.533 510.107 184.1C510.107 184.667 509.907 185.133 509.507 185.5C509.107 185.833 508.607 186 508.007 186H506.957ZM494.507 163C494.007 163 493.59 162.85 493.257 162.55C492.924 162.217 492.757 161.817 492.757 161.35C492.757 160.85 492.924 160.45 493.257 160.15C493.59 159.817 494.007 159.65 494.507 159.65H507.257C507.757 159.65 508.174 159.817 508.507 160.15C508.84 160.45 509.007 160.85 509.007 161.35C509.007 161.817 508.84 162.217 508.507 162.55C508.174 162.85 507.757 163 507.257 163H494.507ZM545.572 186.8C542.539 186.8 539.839 186.217 537.472 185.05C535.139 183.883 533.306 182.267 531.972 180.2C530.672 178.133 530.022 175.767 530.022 173.1V148.9C530.022 148.333 530.206 147.867 530.572 147.5C530.939 147.133 531.406 146.95 531.972 146.95C532.539 146.95 533.006 147.133 533.372 147.5C533.739 147.867 533.922 148.333 533.922 148.9V173.1C533.922 175.067 534.406 176.8 535.372 178.3C536.372 179.8 537.756 180.983 539.522 181.85C541.289 182.683 543.306 183.1 545.572 183.1C547.806 183.1 549.789 182.683 551.522 181.85C553.256 180.983 554.606 179.8 555.572 178.3C556.572 176.8 557.072 175.067 557.072 173.1V148.9C557.072 148.333 557.256 147.867 557.622 147.5C557.989 147.133 558.456 146.95 559.022 146.95C559.622 146.95 560.089 147.133 560.422 147.5C560.789 147.867 560.972 148.333 560.972 148.9V173.1C560.972 175.767 560.306 178.133 558.972 180.2C557.672 182.267 555.856 183.883 553.522 185.05C551.222 186.217 548.572 186.8 545.572 186.8ZM593.189 186C592.623 186 592.156 185.817 591.789 185.45C591.423 185.083 591.239 184.633 591.239 184.1V171.1C591.239 169.033 590.839 167.333 590.039 166C589.273 164.667 588.206 163.667 586.839 163C585.506 162.333 583.989 162 582.289 162C580.656 162 579.173 162.317 577.839 162.95C576.539 163.583 575.506 164.45 574.739 165.55C573.973 166.65 573.589 167.9 573.589 169.3H570.839C570.906 167.2 571.473 165.333 572.539 163.7C573.606 162.033 575.023 160.733 576.789 159.8C578.556 158.833 580.523 158.35 582.689 158.35C585.056 158.35 587.173 158.85 589.039 159.85C590.906 160.817 592.373 162.25 593.439 164.15C594.539 166.05 595.089 168.367 595.089 171.1V184.1C595.089 184.633 594.906 185.083 594.539 185.45C594.173 185.817 593.723 186 593.189 186ZM571.689 186C571.089 186 570.606 185.833 570.239 185.5C569.906 185.133 569.739 184.667 569.739 184.1V160.6C569.739 160 569.906 159.533 570.239 159.2C570.606 158.833 571.089 158.65 571.689 158.65C572.256 158.65 572.706 158.833 573.039 159.2C573.406 159.533 573.589 160 573.589 160.6V184.1C573.589 184.667 573.406 185.133 573.039 185.5C572.706 185.833 572.256 186 571.689 186ZM608.727 186C607.394 186 606.194 185.633 605.127 184.9C604.094 184.167 603.277 183.15 602.677 181.85C602.11 180.55 601.827 179.05 601.827 177.35V148.85C601.827 148.283 601.994 147.833 602.327 147.5C602.694 147.133 603.16 146.95 603.727 146.95C604.294 146.95 604.744 147.133 605.077 147.5C605.444 147.833 605.627 148.283 605.627 148.85V177.35C605.627 178.783 605.91 179.95 606.477 180.85C607.077 181.75 607.827 182.2 608.727 182.2H609.977C610.477 182.2 610.877 182.383 611.177 182.75C611.477 183.083 611.627 183.533 611.627 184.1C611.627 184.667 611.41 185.133 610.977 185.5C610.577 185.833 610.044 186 609.377 186H608.727ZM627.125 186.25C624.458 186.25 622.075 185.65 619.975 184.45C617.875 183.25 616.225 181.6 615.025 179.5C613.825 177.4 613.225 175.017 613.225 172.35C613.225 169.65 613.825 167.25 615.025 165.15C616.225 163.05 617.875 161.4 619.975 160.2C622.075 159 624.458 158.4 627.125 158.4C629.791 158.4 632.158 159 634.225 160.2C636.325 161.4 637.975 163.05 639.175 165.15C640.375 167.25 640.991 169.65 641.025 172.35C641.025 175.017 640.408 177.4 639.175 179.5C637.975 181.6 636.325 183.25 634.225 184.45C632.158 185.65 629.791 186.25 627.125 186.25ZM627.125 182.75C629.058 182.75 630.791 182.3 632.325 181.4C633.858 180.5 635.058 179.267 635.925 177.7C636.791 176.133 637.225 174.35 637.225 172.35C637.225 170.35 636.791 168.567 635.925 167C635.058 165.4 633.858 164.15 632.325 163.25C630.791 162.35 629.058 161.9 627.125 161.9C625.191 161.9 623.458 162.35 621.925 163.25C620.391 164.15 619.175 165.4 618.275 167C617.408 168.567 616.975 170.35 616.975 172.35C616.975 174.35 617.408 176.133 618.275 177.7C619.175 179.267 620.391 180.5 621.925 181.4C623.458 182.3 625.191 182.75 627.125 182.75ZM659.963 186.25C657.329 186.25 654.979 185.65 652.913 184.45C650.879 183.217 649.263 181.55 648.063 179.45C646.896 177.35 646.313 174.983 646.313 172.35C646.313 169.683 646.879 167.3 648.013 165.2C649.146 163.1 650.696 161.45 652.663 160.25C654.629 159.017 656.896 158.4 659.463 158.4C661.496 158.4 663.363 158.8 665.063 159.6C666.796 160.4 668.313 161.6 669.613 163.2C669.979 163.6 670.113 164.033 670.013 164.5C669.913 164.933 669.629 165.317 669.163 165.65C668.796 165.917 668.379 166.017 667.913 165.95C667.479 165.85 667.096 165.6 666.763 165.2C664.829 163 662.396 161.9 659.463 161.9C657.596 161.9 655.946 162.35 654.513 163.25C653.113 164.15 652.013 165.383 651.213 166.95C650.446 168.517 650.063 170.317 650.063 172.35C650.063 174.35 650.479 176.133 651.313 177.7C652.146 179.267 653.313 180.5 654.813 181.4C656.313 182.3 658.029 182.75 659.963 182.75C661.263 182.75 662.446 182.583 663.513 182.25C664.613 181.883 665.579 181.333 666.413 180.6C666.813 180.267 667.229 180.083 667.663 180.05C668.096 180.017 668.496 180.15 668.863 180.45C669.263 180.817 669.479 181.233 669.513 181.7C669.579 182.167 669.429 182.567 669.063 182.9C666.629 185.133 663.596 186.25 659.963 186.25ZM679.948 176.85L677.598 174.3L694.698 158.85C695.098 158.483 695.515 158.317 695.948 158.35C696.381 158.35 696.781 158.55 697.148 158.95C697.515 159.35 697.681 159.783 697.648 160.25C697.648 160.683 697.448 161.067 697.048 161.4L679.948 176.85ZM678.698 186C678.131 186 677.665 185.833 677.298 185.5C676.965 185.133 676.798 184.667 676.798 184.1V148.85C676.798 148.283 676.965 147.833 677.298 147.5C677.665 147.133 678.131 146.95 678.698 146.95C679.265 146.95 679.715 147.133 680.048 147.5C680.415 147.833 680.598 148.283 680.598 148.85V184.1C680.598 184.667 680.415 185.133 680.048 185.5C679.715 185.833 679.265 186 678.698 186ZM697.198 185.75C696.765 186.117 696.315 186.267 695.848 186.2C695.381 186.167 694.981 185.933 694.648 185.5L683.498 171.8L686.198 169.4L697.448 183.25C697.781 183.65 697.931 184.083 697.898 184.55C697.865 184.983 697.631 185.383 697.198 185.75ZM729.26 186C727.493 186 725.91 185.583 724.51 184.75C723.143 183.917 722.06 182.783 721.26 181.35C720.46 179.883 720.06 178.217 720.06 176.35V151.9C720.06 151.333 720.226 150.867 720.56 150.5C720.926 150.133 721.393 149.95 721.96 149.95C722.526 149.95 722.993 150.133 723.36 150.5C723.726 150.867 723.91 151.333 723.91 151.9V176.35C723.91 178.05 724.41 179.45 725.41 180.55C726.41 181.617 727.693 182.15 729.26 182.15H730.61C731.143 182.15 731.576 182.333 731.91 182.7C732.243 183.067 732.41 183.533 732.41 184.1C732.41 184.667 732.21 185.133 731.81 185.5C731.41 185.833 730.91 186 730.31 186H729.26ZM716.81 163C716.31 163 715.893 162.85 715.56 162.55C715.226 162.217 715.06 161.817 715.06 161.35C715.06 160.85 715.226 160.45 715.56 160.15C715.893 159.817 716.31 159.65 716.81 159.65H729.56C730.06 159.65 730.476 159.817 730.81 160.15C731.143 160.45 731.31 160.85 731.31 161.35C731.31 161.817 731.143 162.217 730.81 162.55C730.476 162.85 730.06 163 729.56 163H716.81ZM740.677 186C740.077 186 739.593 185.833 739.227 185.5C738.893 185.133 738.727 184.65 738.727 184.05V160.6C738.727 160 738.893 159.533 739.227 159.2C739.593 158.833 740.077 158.65 740.677 158.65C741.243 158.65 741.693 158.833 742.027 159.2C742.393 159.533 742.577 160 742.577 160.6V184.05C742.577 184.65 742.393 185.133 742.027 185.5C741.693 185.833 741.243 186 740.677 186ZM740.627 153.45C739.893 153.45 739.26 153.183 738.727 152.65C738.193 152.117 737.927 151.467 737.927 150.7C737.927 149.867 738.193 149.217 738.727 148.75C739.293 148.25 739.943 148 740.677 148C741.377 148 741.993 148.25 742.527 148.75C743.093 149.217 743.377 149.867 743.377 150.7C743.377 151.467 743.11 152.117 742.577 152.65C742.043 153.183 741.393 153.45 740.627 153.45ZM788.58 186C788.013 186 787.547 185.833 787.18 185.5C786.813 185.133 786.63 184.667 786.63 184.1V169.7C786.63 167.333 786.013 165.467 784.78 164.1C783.547 162.7 781.963 162 780.03 162C777.963 162 776.263 162.7 774.93 164.1C773.63 165.467 772.997 167.3 773.03 169.6H769.58C769.613 167.367 770.097 165.4 771.03 163.7C771.963 162 773.247 160.683 774.88 159.75C776.513 158.817 778.363 158.35 780.43 158.35C782.397 158.35 784.13 158.817 785.63 159.75C787.163 160.683 788.347 162 789.18 163.7C790.047 165.4 790.48 167.4 790.48 169.7V184.1C790.48 184.667 790.297 185.133 789.93 185.5C789.597 185.833 789.147 186 788.58 186ZM753.58 186C752.98 186 752.497 185.833 752.13 185.5C751.797 185.133 751.63 184.667 751.63 184.1V160.6C751.63 160.033 751.797 159.567 752.13 159.2C752.497 158.833 752.98 158.65 753.58 158.65C754.147 158.65 754.597 158.833 754.93 159.2C755.297 159.567 755.48 160.033 755.48 160.6V184.1C755.48 184.667 755.297 185.133 754.93 185.5C754.597 185.833 754.147 186 753.58 186ZM771.13 186C770.563 186 770.097 185.833 769.73 185.5C769.363 185.133 769.18 184.667 769.18 184.1V169.7C769.18 167.333 768.563 165.467 767.33 164.1C766.097 162.7 764.513 162 762.58 162C760.513 162 758.813 162.683 757.48 164.05C756.147 165.383 755.48 167.133 755.48 169.3H752.73C752.797 167.167 753.263 165.283 754.13 163.65C755.03 161.983 756.247 160.683 757.78 159.75C759.313 158.817 761.047 158.35 762.98 158.35C764.947 158.35 766.68 158.817 768.18 159.75C769.713 160.683 770.897 162 771.73 163.7C772.597 165.4 773.03 167.4 773.03 169.7V184.1C773.03 184.667 772.847 185.133 772.48 185.5C772.147 185.833 771.697 186 771.13 186ZM810.643 186.25C807.943 186.25 805.543 185.667 803.443 184.5C801.376 183.3 799.743 181.65 798.543 179.55C797.376 177.45 796.793 175.05 796.793 172.35C796.793 169.617 797.343 167.217 798.443 165.15C799.576 163.05 801.126 161.4 803.093 160.2C805.06 159 807.326 158.4 809.893 158.4C812.426 158.4 814.626 158.983 816.493 160.15C818.393 161.283 819.86 162.867 820.893 164.9C821.926 166.933 822.443 169.25 822.443 171.85C822.443 172.383 822.276 172.817 821.943 173.15C821.61 173.45 821.176 173.6 820.643 173.6H799.393V170.4H821.043L818.893 171.95C818.926 170.017 818.576 168.283 817.843 166.75C817.11 165.217 816.06 164.017 814.693 163.15C813.36 162.283 811.76 161.85 809.893 161.85C807.993 161.85 806.326 162.3 804.893 163.2C803.46 164.1 802.343 165.35 801.543 166.95C800.776 168.517 800.393 170.317 800.393 172.35C800.393 174.383 800.826 176.183 801.693 177.75C802.593 179.317 803.81 180.55 805.343 181.45C806.876 182.35 808.643 182.8 810.643 182.8C811.843 182.8 813.043 182.6 814.243 182.2C815.476 181.767 816.46 181.233 817.193 180.6C817.56 180.3 817.976 180.15 818.443 180.15C818.91 180.117 819.31 180.233 819.643 180.5C820.076 180.9 820.293 181.333 820.293 181.8C820.326 182.267 820.143 182.667 819.743 183C818.643 183.933 817.243 184.717 815.543 185.35C813.843 185.95 812.21 186.25 810.643 186.25ZM828.206 164.8C827.406 164.8 826.706 164.533 826.106 164C825.539 163.433 825.256 162.733 825.256 161.9C825.256 161.067 825.539 160.367 826.106 159.8C826.673 159.233 827.373 158.95 828.206 158.95C829.006 158.95 829.673 159.25 830.206 159.85C830.773 160.417 831.056 161.1 831.056 161.9C831.056 162.7 830.773 163.383 830.206 163.95C829.673 164.517 829.006 164.8 828.206 164.8ZM828.306 186.8C827.506 186.8 826.823 186.517 826.256 185.95C825.689 185.383 825.406 184.7 825.406 183.9C825.406 183.067 825.689 182.367 826.256 181.8C826.856 181.233 827.539 180.95 828.306 180.95C829.106 180.95 829.789 181.25 830.356 181.85C830.923 182.417 831.206 183.1 831.206 183.9C831.206 184.667 830.923 185.35 830.356 185.95C829.823 186.517 829.139 186.8 828.306 186.8ZM1115.1 186C1114.57 186 1114.1 185.817 1113.7 185.45C1113.34 185.05 1113.15 184.583 1113.15 184.05V146.95H1117.05V184.05C1117.05 184.583 1116.87 185.05 1116.5 185.45C1116.14 185.817 1115.67 186 1115.1 186ZM1101.3 150.5C1100.77 150.5 1100.34 150.333 1100 150C1099.67 149.667 1099.5 149.25 1099.5 148.75C1099.5 148.217 1099.67 147.783 1100 147.45C1100.34 147.117 1100.77 146.95 1101.3 146.95H1128.95C1129.49 146.95 1129.92 147.117 1130.25 147.45C1130.59 147.783 1130.75 148.217 1130.75 148.75C1130.75 149.25 1130.59 149.667 1130.25 150C1129.92 150.333 1129.49 150.5 1128.95 150.5H1101.3ZM1129.88 169.15C1129.98 167.083 1130.52 165.233 1131.48 163.6C1132.48 161.967 1133.77 160.683 1135.33 159.75C1136.93 158.817 1138.7 158.35 1140.63 158.35C1142.17 158.35 1143.35 158.567 1144.18 159C1145.02 159.433 1145.33 160.067 1145.13 160.9C1145 161.4 1144.77 161.733 1144.43 161.9C1144.13 162.067 1143.75 162.133 1143.28 162.1C1142.85 162.067 1142.35 162.033 1141.78 162C1139.92 161.833 1138.25 162.033 1136.78 162.6C1135.35 163.133 1134.2 163.967 1133.33 165.1C1132.5 166.233 1132.08 167.583 1132.08 169.15H1129.88ZM1130.18 186C1129.58 186 1129.12 185.833 1128.78 185.5C1128.45 185.167 1128.28 184.7 1128.28 184.1V160.55C1128.28 159.95 1128.45 159.483 1128.78 159.15C1129.12 158.817 1129.58 158.65 1130.18 158.65C1130.78 158.65 1131.25 158.817 1131.58 159.15C1131.92 159.483 1132.08 159.95 1132.08 160.55V184.1C1132.08 184.7 1131.92 185.167 1131.58 185.5C1131.25 185.833 1130.78 186 1130.18 186ZM1153.18 186C1152.58 186 1152.1 185.833 1151.73 185.5C1151.4 185.133 1151.23 184.65 1151.23 184.05V160.6C1151.23 160 1151.4 159.533 1151.73 159.2C1152.1 158.833 1152.58 158.65 1153.18 158.65C1153.75 158.65 1154.2 158.833 1154.53 159.2C1154.9 159.533 1155.08 160 1155.08 160.6V184.05C1155.08 184.65 1154.9 185.133 1154.53 185.5C1154.2 185.833 1153.75 186 1153.18 186ZM1153.13 153.45C1152.4 153.45 1151.77 153.183 1151.23 152.65C1150.7 152.117 1150.43 151.467 1150.43 150.7C1150.43 149.867 1150.7 149.217 1151.23 148.75C1151.8 148.25 1152.45 148 1153.18 148C1153.88 148 1154.5 148.25 1155.03 148.75C1155.6 149.217 1155.88 149.867 1155.88 150.7C1155.88 151.467 1155.62 152.117 1155.08 152.65C1154.55 153.183 1153.9 153.45 1153.13 153.45ZM1176.54 186.25C1173.84 186.25 1171.44 185.667 1169.34 184.5C1167.27 183.3 1165.64 181.65 1164.44 179.55C1163.27 177.45 1162.69 175.05 1162.69 172.35C1162.69 169.617 1163.24 167.217 1164.34 165.15C1165.47 163.05 1167.02 161.4 1168.99 160.2C1170.95 159 1173.22 158.4 1175.79 158.4C1178.32 158.4 1180.52 158.983 1182.39 160.15C1184.29 161.283 1185.75 162.867 1186.79 164.9C1187.82 166.933 1188.34 169.25 1188.34 171.85C1188.34 172.383 1188.17 172.817 1187.84 173.15C1187.5 173.45 1187.07 173.6 1186.54 173.6H1165.29V170.4H1186.94L1184.79 171.95C1184.82 170.017 1184.47 168.283 1183.74 166.75C1183 165.217 1181.95 164.017 1180.59 163.15C1179.25 162.283 1177.65 161.85 1175.79 161.85C1173.89 161.85 1172.22 162.3 1170.79 163.2C1169.35 164.1 1168.24 165.35 1167.44 166.95C1166.67 168.517 1166.29 170.317 1166.29 172.35C1166.29 174.383 1166.72 176.183 1167.59 177.75C1168.49 179.317 1169.7 180.55 1171.24 181.45C1172.77 182.35 1174.54 182.8 1176.54 182.8C1177.74 182.8 1178.94 182.6 1180.14 182.2C1181.37 181.767 1182.35 181.233 1183.09 180.6C1183.45 180.3 1183.87 180.15 1184.34 180.15C1184.8 180.117 1185.2 180.233 1185.54 180.5C1185.97 180.9 1186.19 181.333 1186.19 181.8C1186.22 182.267 1186.04 182.667 1185.64 183C1184.54 183.933 1183.14 184.717 1181.44 185.35C1179.74 185.95 1178.1 186.25 1176.54 186.25ZM1203.65 186.25C1201.68 186.25 1199.73 185.917 1197.8 185.25C1195.87 184.583 1194.3 183.583 1193.1 182.25C1192.73 181.85 1192.58 181.4 1192.65 180.9C1192.72 180.4 1192.97 179.967 1193.4 179.6C1193.87 179.267 1194.35 179.133 1194.85 179.2C1195.35 179.267 1195.77 179.483 1196.1 179.85C1196.9 180.783 1197.95 181.5 1199.25 182C1200.58 182.5 1202.05 182.75 1203.65 182.75C1206.12 182.75 1207.9 182.333 1209 181.5C1210.1 180.633 1210.67 179.6 1210.7 178.4C1210.7 177.2 1210.13 176.217 1209 175.45C1207.87 174.65 1206 174.033 1203.4 173.6C1200.03 173.067 1197.57 172.133 1196 170.8C1194.43 169.467 1193.65 167.883 1193.65 166.05C1193.65 164.35 1194.1 162.933 1195 161.8C1195.9 160.667 1197.1 159.817 1198.6 159.25C1200.1 158.683 1201.75 158.4 1203.55 158.4C1205.78 158.4 1207.7 158.783 1209.3 159.55C1210.93 160.317 1212.25 161.35 1213.25 162.65C1213.58 163.083 1213.72 163.533 1213.65 164C1213.58 164.467 1213.32 164.85 1212.85 165.15C1212.45 165.383 1211.98 165.467 1211.45 165.4C1210.95 165.3 1210.52 165.05 1210.15 164.65C1209.32 163.683 1208.35 162.983 1207.25 162.55C1206.15 162.083 1204.88 161.85 1203.45 161.85C1201.62 161.85 1200.15 162.233 1199.05 163C1197.95 163.733 1197.4 164.667 1197.4 165.8C1197.4 166.567 1197.6 167.233 1198 167.8C1198.43 168.367 1199.15 168.867 1200.15 169.3C1201.18 169.733 1202.62 170.1 1204.45 170.4C1206.95 170.8 1208.92 171.4 1210.35 172.2C1211.82 172.967 1212.85 173.883 1213.45 174.95C1214.08 175.983 1214.4 177.117 1214.4 178.35C1214.4 179.917 1213.93 181.3 1213 182.5C1212.1 183.667 1210.83 184.583 1209.2 185.25C1207.6 185.917 1205.75 186.25 1203.65 186.25ZM1235.8 169.15C1235.9 167.083 1236.44 165.233 1237.4 163.6C1238.4 161.967 1239.69 160.683 1241.25 159.75C1242.85 158.817 1244.62 158.35 1246.55 158.35C1248.09 158.35 1249.27 158.567 1250.1 159C1250.94 159.433 1251.25 160.067 1251.05 160.9C1250.92 161.4 1250.69 161.733 1250.35 161.9C1250.05 162.067 1249.67 162.133 1249.2 162.1C1248.77 162.067 1248.27 162.033 1247.7 162C1245.84 161.833 1244.17 162.033 1242.7 162.6C1241.27 163.133 1240.12 163.967 1239.25 165.1C1238.42 166.233 1238 167.583 1238 169.15H1235.8ZM1236.1 186C1235.5 186 1235.04 185.833 1234.7 185.5C1234.37 185.167 1234.2 184.7 1234.2 184.1V160.55C1234.2 159.95 1234.37 159.483 1234.7 159.15C1235.04 158.817 1235.5 158.65 1236.1 158.65C1236.7 158.65 1237.17 158.817 1237.5 159.15C1237.84 159.483 1238 159.95 1238 160.55V184.1C1238 184.7 1237.84 185.167 1237.5 185.5C1237.17 185.833 1236.7 186 1236.1 186ZM1266.75 186.25C1264.05 186.25 1261.65 185.667 1259.55 184.5C1257.48 183.3 1255.85 181.65 1254.65 179.55C1253.48 177.45 1252.9 175.05 1252.9 172.35C1252.9 169.617 1253.45 167.217 1254.55 165.15C1255.68 163.05 1257.23 161.4 1259.2 160.2C1261.17 159 1263.43 158.4 1266 158.4C1268.53 158.4 1270.73 158.983 1272.6 160.15C1274.5 161.283 1275.97 162.867 1277 164.9C1278.03 166.933 1278.55 169.25 1278.55 171.85C1278.55 172.383 1278.38 172.817 1278.05 173.15C1277.72 173.45 1277.28 173.6 1276.75 173.6H1255.5V170.4H1277.15L1275 171.95C1275.03 170.017 1274.68 168.283 1273.95 166.75C1273.22 165.217 1272.17 164.017 1270.8 163.15C1269.47 162.283 1267.87 161.85 1266 161.85C1264.1 161.85 1262.43 162.3 1261 163.2C1259.57 164.1 1258.45 165.35 1257.65 166.95C1256.88 168.517 1256.5 170.317 1256.5 172.35C1256.5 174.383 1256.93 176.183 1257.8 177.75C1258.7 179.317 1259.92 180.55 1261.45 181.45C1262.98 182.35 1264.75 182.8 1266.75 182.8C1267.95 182.8 1269.15 182.6 1270.35 182.2C1271.58 181.767 1272.57 181.233 1273.3 180.6C1273.67 180.3 1274.08 180.15 1274.55 180.15C1275.02 180.117 1275.42 180.233 1275.75 180.5C1276.18 180.9 1276.4 181.333 1276.4 181.8C1276.43 182.267 1276.25 182.667 1275.85 183C1274.75 183.933 1273.35 184.717 1271.65 185.35C1269.95 185.95 1268.32 186.25 1266.75 186.25ZM1321.26 186C1320.7 186 1320.23 185.833 1319.86 185.5C1319.5 185.133 1319.31 184.667 1319.31 184.1V169.7C1319.31 167.333 1318.7 165.467 1317.46 164.1C1316.23 162.7 1314.65 162 1312.71 162C1310.65 162 1308.95 162.7 1307.61 164.1C1306.31 165.467 1305.68 167.3 1305.71 169.6H1302.26C1302.3 167.367 1302.78 165.4 1303.71 163.7C1304.65 162 1305.93 160.683 1307.56 159.75C1309.2 158.817 1311.05 158.35 1313.11 158.35C1315.08 158.35 1316.81 158.817 1318.31 159.75C1319.85 160.683 1321.03 162 1321.86 163.7C1322.73 165.4 1323.16 167.4 1323.16 169.7V184.1C1323.16 184.667 1322.98 185.133 1322.61 185.5C1322.28 185.833 1321.83 186 1321.26 186ZM1286.26 186C1285.66 186 1285.18 185.833 1284.81 185.5C1284.48 185.133 1284.31 184.667 1284.31 184.1V160.6C1284.31 160.033 1284.48 159.567 1284.81 159.2C1285.18 158.833 1285.66 158.65 1286.26 158.65C1286.83 158.65 1287.28 158.833 1287.61 159.2C1287.98 159.567 1288.16 160.033 1288.16 160.6V184.1C1288.16 184.667 1287.98 185.133 1287.61 185.5C1287.28 185.833 1286.83 186 1286.26 186ZM1303.81 186C1303.25 186 1302.78 185.833 1302.41 185.5C1302.05 185.133 1301.86 184.667 1301.86 184.1V169.7C1301.86 167.333 1301.25 165.467 1300.01 164.1C1298.78 162.7 1297.2 162 1295.26 162C1293.2 162 1291.5 162.683 1290.16 164.05C1288.83 165.383 1288.16 167.133 1288.16 169.3H1285.41C1285.48 167.167 1285.95 165.283 1286.81 163.65C1287.71 161.983 1288.93 160.683 1290.46 159.75C1292 158.817 1293.73 158.35 1295.66 158.35C1297.63 158.35 1299.36 158.817 1300.86 159.75C1302.4 160.683 1303.58 162 1304.41 163.7C1305.28 165.4 1305.71 167.4 1305.71 169.7V184.1C1305.71 184.667 1305.53 185.133 1305.16 185.5C1304.83 185.833 1304.38 186 1303.81 186ZM1342.98 186.25C1340.41 186.25 1338.11 185.65 1336.08 184.45C1334.04 183.217 1332.43 181.55 1331.23 179.45C1330.06 177.35 1329.48 174.983 1329.48 172.35C1329.48 169.683 1330.08 167.3 1331.28 165.2C1332.51 163.1 1334.18 161.45 1336.28 160.25C1338.38 159.017 1340.74 158.4 1343.38 158.4C1346.01 158.4 1348.36 159.017 1350.43 160.25C1352.53 161.45 1354.18 163.1 1355.38 165.2C1356.61 167.3 1357.24 169.683 1357.28 172.35L1355.73 173.55C1355.73 175.95 1355.16 178.117 1354.03 180.05C1352.93 181.95 1351.41 183.467 1349.48 184.6C1347.58 185.7 1345.41 186.25 1342.98 186.25ZM1343.38 182.75C1345.31 182.75 1347.03 182.3 1348.53 181.4C1350.06 180.5 1351.26 179.267 1352.13 177.7C1353.03 176.1 1353.48 174.317 1353.48 172.35C1353.48 170.35 1353.03 168.567 1352.13 167C1351.26 165.433 1350.06 164.2 1348.53 163.3C1347.03 162.367 1345.31 161.9 1343.38 161.9C1341.48 161.9 1339.76 162.367 1338.23 163.3C1336.69 164.2 1335.48 165.433 1334.58 167C1333.68 168.567 1333.23 170.35 1333.23 172.35C1333.23 174.317 1333.68 176.1 1334.58 177.7C1335.48 179.267 1336.69 180.5 1338.23 181.4C1339.76 182.3 1341.48 182.75 1343.38 182.75ZM1355.33 186C1354.76 186 1354.29 185.833 1353.93 185.5C1353.56 185.133 1353.38 184.667 1353.38 184.1V175.55L1354.33 171.6L1357.28 172.35V184.1C1357.28 184.667 1357.09 185.133 1356.73 185.5C1356.36 185.833 1355.89 186 1355.33 186ZM1366.76 186C1366.16 186 1365.68 185.833 1365.31 185.5C1364.98 185.133 1364.81 184.65 1364.81 184.05V160.6C1364.81 160 1364.98 159.533 1365.31 159.2C1365.68 158.833 1366.16 158.65 1366.76 158.65C1367.33 158.65 1367.78 158.833 1368.11 159.2C1368.48 159.533 1368.66 160 1368.66 160.6V184.05C1368.66 184.65 1368.48 185.133 1368.11 185.5C1367.78 185.833 1367.33 186 1366.76 186ZM1366.71 153.45C1365.98 153.45 1365.35 153.183 1364.81 152.65C1364.28 152.117 1364.01 151.467 1364.01 150.7C1364.01 149.867 1364.28 149.217 1364.81 148.75C1365.38 148.25 1366.03 148 1366.76 148C1367.46 148 1368.08 148.25 1368.61 148.75C1369.18 149.217 1369.46 149.867 1369.46 150.7C1369.46 151.467 1369.2 152.117 1368.66 152.65C1368.13 153.183 1367.48 153.45 1366.71 153.45ZM1401.17 186C1400.6 186 1400.13 185.817 1399.77 185.45C1399.4 185.083 1399.22 184.633 1399.22 184.1V171.1C1399.22 169.033 1398.82 167.333 1398.02 166C1397.25 164.667 1396.18 163.667 1394.82 163C1393.48 162.333 1391.97 162 1390.27 162C1388.63 162 1387.15 162.317 1385.82 162.95C1384.52 163.583 1383.48 164.45 1382.72 165.55C1381.95 166.65 1381.57 167.9 1381.57 169.3H1378.82C1378.88 167.2 1379.45 165.333 1380.52 163.7C1381.58 162.033 1383 160.733 1384.77 159.8C1386.53 158.833 1388.5 158.35 1390.67 158.35C1393.03 158.35 1395.15 158.85 1397.02 159.85C1398.88 160.817 1400.35 162.25 1401.42 164.15C1402.52 166.05 1403.07 168.367 1403.07 171.1V184.1C1403.07 184.633 1402.88 185.083 1402.52 185.45C1402.15 185.817 1401.7 186 1401.17 186ZM1379.67 186C1379.07 186 1378.58 185.833 1378.22 185.5C1377.88 185.133 1377.72 184.667 1377.72 184.1V160.6C1377.72 160 1377.88 159.533 1378.22 159.2C1378.58 158.833 1379.07 158.65 1379.67 158.65C1380.23 158.65 1380.68 158.833 1381.02 159.2C1381.38 159.533 1381.57 160 1381.57 160.6V184.1C1381.57 184.667 1381.38 185.133 1381.02 185.5C1380.68 185.833 1380.23 186 1379.67 186ZM1413.56 186C1412.96 186 1412.47 185.833 1412.11 185.5C1411.77 185.133 1411.61 184.65 1411.61 184.05V160.6C1411.61 160 1411.77 159.533 1412.11 159.2C1412.47 158.833 1412.96 158.65 1413.56 158.65C1414.12 158.65 1414.57 158.833 1414.91 159.2C1415.27 159.533 1415.46 160 1415.46 160.6V184.05C1415.46 184.65 1415.27 185.133 1414.91 185.5C1414.57 185.833 1414.12 186 1413.56 186ZM1413.51 153.45C1412.77 153.45 1412.14 153.183 1411.61 152.65C1411.07 152.117 1410.81 151.467 1410.81 150.7C1410.81 149.867 1411.07 149.217 1411.61 148.75C1412.17 148.25 1412.82 148 1413.56 148C1414.26 148 1414.87 148.25 1415.41 148.75C1415.97 149.217 1416.26 149.867 1416.26 150.7C1416.26 151.467 1415.99 152.117 1415.46 152.65C1414.92 153.183 1414.27 153.45 1413.51 153.45ZM1447.96 186C1447.39 186 1446.93 185.817 1446.56 185.45C1446.19 185.083 1446.01 184.633 1446.01 184.1V171.1C1446.01 169.033 1445.61 167.333 1444.81 166C1444.04 164.667 1442.98 163.667 1441.61 163C1440.28 162.333 1438.76 162 1437.06 162C1435.43 162 1433.94 162.317 1432.61 162.95C1431.31 163.583 1430.28 164.45 1429.51 165.55C1428.74 166.65 1428.36 167.9 1428.36 169.3H1425.61C1425.68 167.2 1426.24 165.333 1427.31 163.7C1428.38 162.033 1429.79 160.733 1431.56 159.8C1433.33 158.833 1435.29 158.35 1437.46 158.35C1439.83 158.35 1441.94 158.85 1443.81 159.85C1445.68 160.817 1447.14 162.25 1448.21 164.15C1449.31 166.05 1449.86 168.367 1449.86 171.1V184.1C1449.86 184.633 1449.68 185.083 1449.31 185.45C1448.94 185.817 1448.49 186 1447.96 186ZM1426.46 186C1425.86 186 1425.38 185.833 1425.01 185.5C1424.68 185.133 1424.51 184.667 1424.51 184.1V160.6C1424.51 160 1424.68 159.533 1425.01 159.2C1425.38 158.833 1425.86 158.65 1426.46 158.65C1427.03 158.65 1427.48 158.833 1427.81 159.2C1428.18 159.533 1428.36 160 1428.36 160.6V184.1C1428.36 184.667 1428.18 185.133 1427.81 185.5C1427.48 185.833 1427.03 186 1426.46 186ZM1469.65 186.25C1467.01 186.25 1464.68 185.667 1462.65 184.5C1460.61 183.3 1459.01 181.65 1457.85 179.55C1456.71 177.45 1456.15 175.05 1456.15 172.35C1456.15 169.617 1456.75 167.2 1457.95 165.1C1459.15 163 1460.8 161.367 1462.9 160.2C1465 159 1467.38 158.4 1470.05 158.4C1472.75 158.4 1475.13 159 1477.2 160.2C1479.3 161.367 1480.93 163 1482.1 165.1C1483.3 167.2 1483.91 169.617 1483.95 172.35L1481.7 173.55C1481.7 176.017 1481.18 178.217 1480.15 180.15C1479.11 182.05 1477.68 183.55 1475.85 184.65C1474.05 185.717 1471.98 186.25 1469.65 186.25ZM1470.15 196.8C1467.51 196.8 1465.2 196.3 1463.2 195.3C1461.2 194.333 1459.55 193 1458.25 191.3C1457.88 190.9 1457.71 190.467 1457.75 190C1457.81 189.533 1458.06 189.15 1458.5 188.85C1458.93 188.55 1459.41 188.45 1459.95 188.55C1460.48 188.65 1460.9 188.9 1461.2 189.3C1462.16 190.5 1463.4 191.467 1464.9 192.2C1466.43 192.933 1468.2 193.3 1470.2 193.3C1472.06 193.3 1473.75 192.85 1475.25 191.95C1476.75 191.05 1477.93 189.783 1478.8 188.15C1479.7 186.517 1480.15 184.6 1480.15 182.4V174.8L1481.6 171.9L1483.95 172.35V182.55C1483.95 185.25 1483.35 187.667 1482.15 189.8C1480.95 191.967 1479.31 193.667 1477.25 194.9C1475.18 196.167 1472.81 196.8 1470.15 196.8ZM1470.05 182.75C1472.01 182.75 1473.75 182.317 1475.25 181.45C1476.78 180.55 1477.98 179.317 1478.85 177.75C1479.71 176.183 1480.15 174.383 1480.15 172.35C1480.15 170.317 1479.71 168.517 1478.85 166.95C1477.98 165.35 1476.78 164.117 1475.25 163.25C1473.75 162.35 1472.01 161.9 1470.05 161.9C1468.08 161.9 1466.33 162.35 1464.8 163.25C1463.26 164.117 1462.06 165.35 1461.2 166.95C1460.33 168.517 1459.9 170.317 1459.9 172.35C1459.9 174.383 1460.33 176.183 1461.2 177.75C1462.06 179.317 1463.26 180.55 1464.8 181.45C1466.33 182.317 1468.08 182.75 1470.05 182.75ZM1490.68 164.8C1489.88 164.8 1489.18 164.533 1488.58 164C1488.02 163.433 1487.73 162.733 1487.73 161.9C1487.73 161.067 1488.02 160.367 1488.58 159.8C1489.15 159.233 1489.85 158.95 1490.68 158.95C1491.48 158.95 1492.15 159.25 1492.68 159.85C1493.25 160.417 1493.53 161.1 1493.53 161.9C1493.53 162.7 1493.25 163.383 1492.68 163.95C1492.15 164.517 1491.48 164.8 1490.68 164.8ZM1490.78 186.8C1489.98 186.8 1489.3 186.517 1488.73 185.95C1488.17 185.383 1487.88 184.7 1487.88 183.9C1487.88 183.067 1488.17 182.367 1488.73 181.8C1489.33 181.233 1490.02 180.95 1490.78 180.95C1491.58 180.95 1492.27 181.25 1492.83 181.85C1493.4 182.417 1493.68 183.1 1493.68 183.9C1493.68 184.667 1493.4 185.35 1492.83 185.95C1492.3 186.517 1491.62 186.8 1490.78 186.8Z" fill="black"/>
<path d="M862.22 186C859.72 186 857.503 185.483 855.57 184.45C853.637 183.383 852.12 181.95 851.02 180.15C849.92 178.317 849.37 176.267 849.37 174C849.37 173.233 849.587 172.617 850.02 172.15C850.487 171.65 851.037 171.4 851.67 171.4C852.337 171.4 852.887 171.65 853.32 172.15C853.753 172.617 853.97 173.233 853.97 174C853.97 175.367 854.32 176.633 855.02 177.8C855.72 178.933 856.67 179.85 857.87 180.55C859.07 181.217 860.42 181.55 861.92 181.55C864.12 181.55 865.887 180.95 867.22 179.75C868.587 178.517 869.27 176.8 869.27 174.6C869.27 173.2 868.97 171.95 868.37 170.85C867.77 169.717 866.953 168.817 865.92 168.15C864.887 167.483 863.72 167.15 862.42 167.15C861.687 167.15 861.07 166.9 860.57 166.4C860.103 165.9 859.87 165.283 859.87 164.55C859.87 163.817 860.103 163.217 860.57 162.75C861.07 162.25 861.687 162 862.42 162C863.353 162 864.253 161.767 865.12 161.3C865.987 160.8 866.703 160.15 867.27 159.35C867.837 158.517 868.12 157.583 868.12 156.55C868.12 155.083 867.587 153.85 866.52 152.85C865.453 151.85 864.087 151.35 862.42 151.35C861.153 151.35 859.987 151.6 858.92 152.1C857.887 152.6 857.053 153.267 856.42 154.1C855.82 154.933 855.52 155.867 855.52 156.9C855.52 157.667 855.303 158.317 854.87 158.85C854.437 159.35 853.887 159.6 853.22 159.6C852.587 159.6 852.037 159.367 851.57 158.9C851.137 158.4 850.92 157.783 850.92 157.05C850.92 155.117 851.42 153.383 852.42 151.85C853.42 150.317 854.787 149.117 856.52 148.25C858.253 147.35 860.187 146.9 862.32 146.9C864.287 146.9 866.053 147.333 867.62 148.2C869.22 149.033 870.47 150.183 871.37 151.65C872.303 153.083 872.77 154.717 872.77 156.55C872.77 157.85 872.47 159 871.87 160C871.303 161 870.57 161.867 869.67 162.6C868.77 163.3 867.82 163.883 866.82 164.35C869.453 165.25 871.353 166.617 872.52 168.45C873.72 170.25 874.32 172.317 874.32 174.65C874.32 176.817 873.77 178.767 872.67 180.5C871.57 182.2 870.103 183.55 868.27 184.55C866.437 185.517 864.42 186 862.22 186ZM890.252 186C886.452 186 883.502 184.283 881.402 180.85C879.335 177.383 878.302 172.583 878.302 166.45C878.302 160.283 879.335 155.483 881.402 152.05C883.502 148.617 886.452 146.9 890.252 146.9C892.785 146.9 894.935 147.7 896.702 149.3C898.502 150.867 899.868 153.117 900.802 156.05C901.735 158.95 902.202 162.417 902.202 166.45C902.202 170.483 901.735 173.967 900.802 176.9C899.868 179.8 898.502 182.05 896.702 183.65C894.935 185.217 892.785 186 890.252 186ZM890.252 180.8C891.785 180.8 893.052 180.183 894.052 178.95C895.052 177.683 895.802 175.967 896.302 173.8C896.802 171.633 897.052 169.183 897.052 166.45C897.052 163.717 896.802 161.267 896.302 159.1C895.802 156.933 895.052 155.217 894.052 153.95C893.052 152.683 891.785 152.05 890.252 152.05C888.718 152.05 887.452 152.683 886.452 153.95C885.452 155.183 884.702 156.883 884.202 159.05C883.702 161.217 883.452 163.683 883.452 166.45C883.452 169.217 883.702 171.683 884.202 173.85C884.702 176.017 885.452 177.717 886.452 178.95C887.485 180.183 888.752 180.8 890.252 180.8ZM932.306 186.2C929.973 186.2 927.806 185.85 925.806 185.15C923.84 184.417 922.306 183.5 921.206 182.4C920.706 181.867 920.49 181.267 920.556 180.6C920.656 179.9 920.99 179.333 921.556 178.9C922.223 178.367 922.873 178.15 923.506 178.25C924.173 178.317 924.74 178.6 925.206 179.1C925.773 179.733 926.673 180.333 927.906 180.9C929.173 181.433 930.573 181.7 932.106 181.7C934.04 181.7 935.506 181.383 936.506 180.75C937.54 180.117 938.073 179.3 938.106 178.3C938.14 177.3 937.656 176.433 936.656 175.7C935.69 174.967 933.906 174.367 931.306 173.9C927.94 173.233 925.49 172.233 923.956 170.9C922.456 169.567 921.706 167.933 921.706 166C921.706 164.3 922.206 162.9 923.206 161.8C924.206 160.667 925.49 159.833 927.056 159.3C928.623 158.733 930.256 158.45 931.956 158.45C934.156 158.45 936.106 158.8 937.806 159.5C939.506 160.2 940.856 161.167 941.856 162.4C942.323 162.933 942.54 163.5 942.506 164.1C942.473 164.667 942.19 165.15 941.656 165.55C941.123 165.917 940.49 166.033 939.756 165.9C939.023 165.767 938.406 165.467 937.906 165C937.073 164.2 936.173 163.65 935.206 163.35C934.24 163.05 933.123 162.9 931.856 162.9C930.39 162.9 929.14 163.15 928.106 163.65C927.106 164.15 926.606 164.883 926.606 165.85C926.606 166.45 926.756 167 927.056 167.5C927.39 167.967 928.023 168.4 928.956 168.8C929.89 169.167 931.256 169.533 933.056 169.9C936.823 170.633 939.423 171.683 940.856 173.05C942.323 174.383 943.056 176.033 943.056 178C943.056 179.533 942.64 180.917 941.806 182.15C941.006 183.383 939.806 184.367 938.206 185.1C936.64 185.833 934.673 186.2 932.306 186.2ZM961.605 186.2C958.838 186.2 956.372 185.617 954.205 184.45C952.072 183.25 950.388 181.617 949.155 179.55C947.955 177.45 947.355 175.05 947.355 172.35C947.355 169.617 947.922 167.217 949.055 165.15C950.222 163.05 951.822 161.417 953.855 160.25C955.888 159.05 958.222 158.45 960.855 158.45C963.455 158.45 965.688 159.033 967.555 160.2C969.422 161.333 970.838 162.917 971.805 164.95C972.805 166.95 973.305 169.267 973.305 171.9C973.305 172.533 973.088 173.067 972.655 173.5C972.222 173.9 971.672 174.1 971.005 174.1H952.005C952.372 176.4 953.422 178.283 955.155 179.75C956.922 181.183 959.072 181.9 961.605 181.9C962.638 181.9 963.688 181.717 964.755 181.35C965.855 180.95 966.738 180.5 967.405 180C967.905 179.633 968.438 179.45 969.005 179.45C969.605 179.417 970.122 179.583 970.555 179.95C971.122 180.45 971.422 181 971.455 181.6C971.488 182.2 971.222 182.717 970.655 183.15C969.522 184.05 968.105 184.783 966.405 185.35C964.738 185.917 963.138 186.2 961.605 186.2ZM960.855 162.75C958.388 162.75 956.405 163.433 954.905 164.8C953.405 166.167 952.455 167.933 952.055 170.1H968.705C968.405 167.967 967.588 166.217 966.255 164.85C964.922 163.45 963.122 162.75 960.855 162.75ZM990.483 186.2C987.816 186.2 985.433 185.6 983.333 184.4C981.266 183.167 979.633 181.517 978.433 179.45C977.266 177.35 976.683 174.983 976.683 172.35C976.683 169.65 977.266 167.25 978.433 165.15C979.6 163.05 981.2 161.417 983.233 160.25C985.266 159.05 987.6 158.45 990.233 158.45C994.166 158.45 997.433 159.95 1000.03 162.95C1000.5 163.483 1000.67 164.033 1000.53 164.6C1000.4 165.167 1000.03 165.667 999.433 166.1C998.966 166.433 998.45 166.55 997.883 166.45C997.316 166.317 996.8 166.017 996.333 165.55C994.7 163.817 992.666 162.95 990.233 162.95C987.666 162.95 985.583 163.817 983.983 165.55C982.383 167.25 981.583 169.517 981.583 172.35C981.583 174.15 981.95 175.75 982.683 177.15C983.45 178.55 984.5 179.667 985.833 180.5C987.166 181.3 988.716 181.7 990.483 181.7C992.75 181.7 994.583 181.117 995.983 179.95C996.516 179.517 997.066 179.283 997.633 179.25C998.2 179.183 998.7 179.333 999.133 179.7C999.7 180.167 1000.02 180.7 1000.08 181.3C1000.15 181.867 999.95 182.383 999.483 182.85C997.083 185.083 994.083 186.2 990.483 186.2ZM1017.31 186.2C1014.98 186.2 1012.81 185.85 1010.81 185.15C1008.85 184.417 1007.31 183.5 1006.21 182.4C1005.71 181.867 1005.5 181.267 1005.56 180.6C1005.66 179.9 1006 179.333 1006.56 178.9C1007.23 178.367 1007.88 178.15 1008.51 178.25C1009.18 178.317 1009.75 178.6 1010.21 179.1C1010.78 179.733 1011.68 180.333 1012.91 180.9C1014.18 181.433 1015.58 181.7 1017.11 181.7C1019.05 181.7 1020.51 181.383 1021.51 180.75C1022.55 180.117 1023.08 179.3 1023.11 178.3C1023.15 177.3 1022.66 176.433 1021.66 175.7C1020.7 174.967 1018.91 174.367 1016.31 173.9C1012.95 173.233 1010.5 172.233 1008.96 170.9C1007.46 169.567 1006.71 167.933 1006.71 166C1006.71 164.3 1007.21 162.9 1008.21 161.8C1009.21 160.667 1010.5 159.833 1012.06 159.3C1013.63 158.733 1015.26 158.45 1016.96 158.45C1019.16 158.45 1021.11 158.8 1022.81 159.5C1024.51 160.2 1025.86 161.167 1026.86 162.4C1027.33 162.933 1027.55 163.5 1027.51 164.1C1027.48 164.667 1027.2 165.15 1026.66 165.55C1026.13 165.917 1025.5 166.033 1024.76 165.9C1024.03 165.767 1023.41 165.467 1022.91 165C1022.08 164.2 1021.18 163.65 1020.21 163.35C1019.25 163.05 1018.13 162.9 1016.86 162.9C1015.4 162.9 1014.15 163.15 1013.11 163.65C1012.11 164.15 1011.61 164.883 1011.61 165.85C1011.61 166.45 1011.76 167 1012.06 167.5C1012.4 167.967 1013.03 168.4 1013.96 168.8C1014.9 169.167 1016.26 169.533 1018.06 169.9C1021.83 170.633 1024.43 171.683 1025.86 173.05C1027.33 174.383 1028.06 176.033 1028.06 178C1028.06 179.533 1027.65 180.917 1026.81 182.15C1026.01 183.383 1024.81 184.367 1023.21 185.1C1021.65 185.833 1019.68 186.2 1017.31 186.2Z" fill="#E71F1F"/>
<path d="M1514.9 186C1514.17 186 1513.55 185.75 1513.05 185.25C1512.58 184.75 1512.35 184.15 1512.35 183.45C1512.35 182.717 1512.58 182.117 1513.05 181.65L1527.25 165.05C1528.25 163.883 1529.02 162.783 1529.55 161.75C1530.12 160.717 1530.4 159.733 1530.4 158.8C1530.4 156.633 1529.83 154.9 1528.7 153.6C1527.6 152.3 1526.08 151.65 1524.15 151.65C1522.88 151.65 1521.73 151.983 1520.7 152.65C1519.7 153.283 1518.9 154.15 1518.3 155.25C1517.73 156.317 1517.45 157.5 1517.45 158.8C1517.45 159.467 1517.2 160.05 1516.7 160.55C1516.23 161.05 1515.63 161.3 1514.9 161.3C1514.2 161.3 1513.6 161.05 1513.1 160.55C1512.6 160.05 1512.35 159.467 1512.35 158.8C1512.35 156.533 1512.87 154.517 1513.9 152.75C1514.93 150.95 1516.33 149.533 1518.1 148.5C1519.9 147.467 1521.92 146.95 1524.15 146.95C1526.42 146.95 1528.38 147.433 1530.05 148.4C1531.72 149.367 1533 150.733 1533.9 152.5C1534.83 154.267 1535.3 156.367 1535.3 158.8C1535.3 159.867 1535.07 160.95 1534.6 162.05C1534.17 163.15 1533.6 164.2 1532.9 165.2C1532.23 166.2 1531.55 167.1 1530.85 167.9L1519.4 180.9H1533.4C1534.13 180.9 1534.75 181.167 1535.25 181.7C1535.75 182.2 1536 182.783 1536 183.45C1536 184.15 1535.75 184.75 1535.25 185.25C1534.75 185.75 1534.13 186 1533.4 186H1514.9Z" fill="#E71F1F"/>
</g>
<defs>
<filter id="filter0_dd" x="397.155" y="34.9004" width="1142.84" height="169.9" filterUnits="userSpaceOnUse" color-interpolation-filters="sRGB">
<feFlood flood-opacity="0" result="BackgroundImageFix"/>
<feColorMatrix in="SourceAlpha" type="matrix" values="0 0 0 0 0 0 0 0 0 0 0 0 0 0 0 0 0 0 127 0"/>
<feOffset dy="4"/>
<feGaussianBlur stdDeviation="2"/>
<feColorMatrix type="matrix" values="0 0 0 0 0 0 0 0 0 0 0 0 0 0 0 0 0 0 0.25 0"/>
<feBlend mode="normal" in2="BackgroundImageFix" result="effect1_dropShadow"/>
<feColorMatrix in="SourceAlpha" type="matrix" values="0 0 0 0 0 0 0 0 0 0 0 0 0 0 0 0 0 0 127 0"/>
<feOffset dy="4"/>
<feGaussianBlur stdDeviation="2"/>
<feColorMatrix type="matrix" values="0 0 0 0 0 0 0 0 0 0 0 0 0 0 0 0 0 0 0.25 0"/>
<feBlend mode="normal" in2="effect1_dropShadow" result="effect2_dropShadow"/>
<feBlend mode="normal" in="SourceGraphic" in2="effect2_dropShadow" result="shape"/>
</filter>
</defs>
</svg>
