<svg width="1920" height="229" viewBox="0 0 1920 229" fill="none" xmlns="http://www.w3.org/2000/svg">
<path d="M0 0H1920V229H0V0Z" fill="#E5E5E5"/>
<g filter="url(#filter0_dd)">
<path d="M593.919 130C593.352 130 592.885 129.817 592.519 129.45C592.152 129.083 591.969 128.617 591.969 128.05V92.9C591.969 92.3333 592.152 91.8667 592.519 91.5C592.885 91.1333 593.352 90.95 593.919 90.95H603.919C606.385 90.95 608.569 91.5 610.469 92.6C612.369 93.6667 613.852 95.15 614.919 97.05C615.985 98.95 616.519 101.15 616.519 103.65C616.519 106.083 615.985 108.25 614.919 110.15C613.852 112.017 612.369 113.5 610.469 114.6C608.569 115.667 606.385 116.2 603.919 116.2H595.869V128.05C595.869 128.617 595.685 129.083 595.319 129.45C594.952 129.817 594.485 130 593.919 130ZM595.869 112.45H603.919C605.619 112.45 607.135 112.083 608.469 111.35C609.802 110.583 610.835 109.533 611.569 108.2C612.335 106.867 612.719 105.35 612.719 103.65C612.719 101.883 612.335 100.333 611.569 99C610.835 97.6667 609.802 96.6167 608.469 95.85C607.135 95.0833 605.619 94.7 603.919 94.7H595.869V112.45ZM632.407 130.25C629.841 130.25 627.541 129.65 625.507 128.45C623.474 127.217 621.857 125.55 620.657 123.45C619.491 121.35 618.907 118.983 618.907 116.35C618.907 113.683 619.507 111.3 620.707 109.2C621.941 107.1 623.607 105.45 625.707 104.25C627.807 103.017 630.174 102.4 632.807 102.4C635.441 102.4 637.791 103.017 639.857 104.25C641.957 105.45 643.607 107.1 644.807 109.2C646.041 111.3 646.674 113.683 646.707 116.35L645.157 117.55C645.157 119.95 644.591 122.117 643.457 124.05C642.357 125.95 640.841 127.467 638.907 128.6C637.007 129.7 634.841 130.25 632.407 130.25ZM632.807 126.75C634.741 126.75 636.457 126.3 637.957 125.4C639.491 124.5 640.691 123.267 641.557 121.7C642.457 120.1 642.907 118.317 642.907 116.35C642.907 114.35 642.457 112.567 641.557 111C640.691 109.433 639.491 108.2 637.957 107.3C636.457 106.367 634.741 105.9 632.807 105.9C630.907 105.9 629.191 106.367 627.657 107.3C626.124 108.2 624.907 109.433 624.007 111C623.107 112.567 622.657 114.35 622.657 116.35C622.657 118.317 623.107 120.1 624.007 121.7C624.907 123.267 626.124 124.5 627.657 125.4C629.191 126.3 630.907 126.75 632.807 126.75ZM644.757 130C644.191 130 643.724 129.833 643.357 129.5C642.991 129.133 642.807 128.667 642.807 128.1V119.55L643.757 115.6L646.707 116.35V128.1C646.707 128.667 646.524 129.133 646.157 129.5C645.791 129.833 645.324 130 644.757 130ZM662.995 130.25C661.029 130.25 659.079 129.917 657.145 129.25C655.212 128.583 653.645 127.583 652.445 126.25C652.079 125.85 651.929 125.4 651.995 124.9C652.062 124.4 652.312 123.967 652.745 123.6C653.212 123.267 653.695 123.133 654.195 123.2C654.695 123.267 655.112 123.483 655.445 123.85C656.245 124.783 657.295 125.5 658.595 126C659.929 126.5 661.395 126.75 662.995 126.75C665.462 126.75 667.245 126.333 668.345 125.5C669.445 124.633 670.012 123.6 670.045 122.4C670.045 121.2 669.479 120.217 668.345 119.45C667.212 118.65 665.345 118.033 662.745 117.6C659.379 117.067 656.912 116.133 655.345 114.8C653.779 113.467 652.995 111.883 652.995 110.05C652.995 108.35 653.445 106.933 654.345 105.8C655.245 104.667 656.445 103.817 657.945 103.25C659.445 102.683 661.095 102.4 662.895 102.4C665.129 102.4 667.045 102.783 668.645 103.55C670.279 104.317 671.595 105.35 672.595 106.65C672.929 107.083 673.062 107.533 672.995 108C672.929 108.467 672.662 108.85 672.195 109.15C671.795 109.383 671.329 109.467 670.795 109.4C670.295 109.3 669.862 109.05 669.495 108.65C668.662 107.683 667.695 106.983 666.595 106.55C665.495 106.083 664.229 105.85 662.795 105.85C660.962 105.85 659.495 106.233 658.395 107C657.295 107.733 656.745 108.667 656.745 109.8C656.745 110.567 656.945 111.233 657.345 111.8C657.779 112.367 658.495 112.867 659.495 113.3C660.529 113.733 661.962 114.1 663.795 114.4C666.295 114.8 668.262 115.4 669.695 116.2C671.162 116.967 672.195 117.883 672.795 118.95C673.429 119.983 673.745 121.117 673.745 122.35C673.745 123.917 673.279 125.3 672.345 126.5C671.445 127.667 670.179 128.583 668.545 129.25C666.945 129.917 665.095 130.25 662.995 130.25ZM689.198 130.25C687.232 130.25 685.282 129.917 683.348 129.25C681.415 128.583 679.848 127.583 678.648 126.25C678.282 125.85 678.132 125.4 678.198 124.9C678.265 124.4 678.515 123.967 678.948 123.6C679.415 123.267 679.898 123.133 680.398 123.2C680.898 123.267 681.315 123.483 681.648 123.85C682.448 124.783 683.498 125.5 684.798 126C686.132 126.5 687.598 126.75 689.198 126.75C691.665 126.75 693.448 126.333 694.548 125.5C695.648 124.633 696.215 123.6 696.248 122.4C696.248 121.2 695.682 120.217 694.548 119.45C693.415 118.65 691.548 118.033 688.948 117.6C685.582 117.067 683.115 116.133 681.548 114.8C679.982 113.467 679.198 111.883 679.198 110.05C679.198 108.35 679.648 106.933 680.548 105.8C681.448 104.667 682.648 103.817 684.148 103.25C685.648 102.683 687.298 102.4 689.098 102.4C691.332 102.4 693.248 102.783 694.848 103.55C696.482 104.317 697.798 105.35 698.798 106.65C699.132 107.083 699.265 107.533 699.198 108C699.132 108.467 698.865 108.85 698.398 109.15C697.998 109.383 697.532 109.467 696.998 109.4C696.498 109.3 696.065 109.05 695.698 108.65C694.865 107.683 693.898 106.983 692.798 106.55C691.698 106.083 690.432 105.85 688.998 105.85C687.165 105.85 685.698 106.233 684.598 107C683.498 107.733 682.948 108.667 682.948 109.8C682.948 110.567 683.148 111.233 683.548 111.8C683.982 112.367 684.698 112.867 685.698 113.3C686.732 113.733 688.165 114.1 689.998 114.4C692.498 114.8 694.465 115.4 695.898 116.2C697.365 116.967 698.398 117.883 698.998 118.95C699.632 119.983 699.948 121.117 699.948 122.35C699.948 123.917 699.482 125.3 698.548 126.5C697.648 127.667 696.382 128.583 694.748 129.25C693.148 129.917 691.298 130.25 689.198 130.25ZM712.052 130C711.618 130 711.235 129.883 710.902 129.65C710.568 129.417 710.335 129.117 710.202 128.75L702.402 105.35C702.202 104.517 702.218 103.867 702.452 103.4C702.685 102.9 703.152 102.65 703.852 102.65C704.285 102.65 704.668 102.767 705.002 103C705.335 103.233 705.585 103.6 705.752 104.1L712.702 125.35H711.602L718.052 104.15C718.185 103.717 718.402 103.367 718.702 103.1C719.035 102.8 719.452 102.65 719.952 102.65C720.452 102.65 720.852 102.783 721.152 103.05C721.485 103.317 721.718 103.683 721.852 104.15L728.002 124.85H727.152L733.952 104.1C734.285 103.133 734.902 102.65 735.802 102.65C736.535 102.65 737.035 102.933 737.302 103.5C737.568 104.033 737.568 104.65 737.302 105.35L729.502 128.75C729.368 129.117 729.135 129.417 728.802 129.65C728.502 129.883 728.135 130 727.702 130C727.268 130 726.868 129.883 726.502 129.65C726.168 129.417 725.952 129.117 725.852 128.75L719.552 107.85H720.152L713.852 128.75C713.718 129.15 713.485 129.467 713.152 129.7C712.818 129.9 712.452 130 712.052 130ZM753.587 130.25C750.92 130.25 748.537 129.65 746.437 128.45C744.337 127.25 742.687 125.6 741.487 123.5C740.287 121.4 739.687 119.017 739.687 116.35C739.687 113.65 740.287 111.25 741.487 109.15C742.687 107.05 744.337 105.4 746.437 104.2C748.537 103 750.92 102.4 753.587 102.4C756.253 102.4 758.62 103 760.687 104.2C762.787 105.4 764.437 107.05 765.637 109.15C766.837 111.25 767.453 113.65 767.487 116.35C767.487 119.017 766.87 121.4 765.637 123.5C764.437 125.6 762.787 127.25 760.687 128.45C758.62 129.65 756.253 130.25 753.587 130.25ZM753.587 126.75C755.52 126.75 757.253 126.3 758.787 125.4C760.32 124.5 761.52 123.267 762.387 121.7C763.253 120.133 763.687 118.35 763.687 116.35C763.687 114.35 763.253 112.567 762.387 111C761.52 109.4 760.32 108.15 758.787 107.25C757.253 106.35 755.52 105.9 753.587 105.9C751.653 105.9 749.92 106.35 748.387 107.25C746.853 108.15 745.637 109.4 744.737 111C743.87 112.567 743.437 114.35 743.437 116.35C743.437 118.35 743.87 120.133 744.737 121.7C745.637 123.267 746.853 124.5 748.387 125.4C749.92 126.3 751.653 126.75 753.587 126.75ZM775.825 113.15C775.925 111.083 776.458 109.233 777.425 107.6C778.425 105.967 779.708 104.683 781.275 103.75C782.875 102.817 784.641 102.35 786.575 102.35C788.108 102.35 789.291 102.567 790.125 103C790.958 103.433 791.275 104.067 791.075 104.9C790.941 105.4 790.708 105.733 790.375 105.9C790.075 106.067 789.691 106.133 789.225 106.1C788.791 106.067 788.291 106.033 787.725 106C785.858 105.833 784.191 106.033 782.725 106.6C781.291 107.133 780.141 107.967 779.275 109.1C778.441 110.233 778.025 111.583 778.025 113.15H775.825ZM776.125 130C775.525 130 775.058 129.833 774.725 129.5C774.391 129.167 774.225 128.7 774.225 128.1V104.55C774.225 103.95 774.391 103.483 774.725 103.15C775.058 102.817 775.525 102.65 776.125 102.65C776.725 102.65 777.191 102.817 777.525 103.15C777.858 103.483 778.025 103.95 778.025 104.55V128.1C778.025 128.7 777.858 129.167 777.525 129.5C777.191 129.833 776.725 130 776.125 130ZM806.823 130.25C804.19 130.25 801.823 129.65 799.723 128.45C797.623 127.217 795.956 125.55 794.723 123.45C793.523 121.35 792.923 118.967 792.923 116.3C792.923 113.667 793.506 111.3 794.673 109.2C795.873 107.1 797.49 105.45 799.523 104.25C801.556 103.017 803.856 102.4 806.423 102.4C808.656 102.4 810.673 102.883 812.473 103.85C814.273 104.783 815.723 106.033 816.823 107.6V92.9C816.823 92.3 817.006 91.8333 817.373 91.5C817.74 91.1333 818.206 90.95 818.773 90.95C819.34 90.95 819.806 91.1333 820.173 91.5C820.54 91.8333 820.723 92.3 820.723 92.9V116.5C820.656 119.1 820.006 121.45 818.773 123.55C817.573 125.617 815.923 127.25 813.823 128.45C811.756 129.65 809.423 130.25 806.823 130.25ZM806.823 126.75C808.756 126.75 810.473 126.3 811.973 125.4C813.506 124.467 814.706 123.217 815.573 121.65C816.473 120.083 816.923 118.3 816.923 116.3C816.923 114.333 816.473 112.567 815.573 111C814.706 109.4 813.506 108.15 811.973 107.25C810.473 106.35 808.756 105.9 806.823 105.9C804.923 105.9 803.206 106.35 801.673 107.25C800.14 108.15 798.923 109.4 798.023 111C797.123 112.567 796.673 114.333 796.673 116.3C796.673 118.3 797.123 120.083 798.023 121.65C798.923 123.217 800.14 124.467 801.673 125.4C803.206 126.3 804.923 126.75 806.823 126.75ZM860.923 130.5C858.223 130.5 855.69 129.983 853.323 128.95C850.99 127.917 848.923 126.483 847.123 124.65C845.356 122.783 843.973 120.65 842.973 118.25C841.973 115.817 841.473 113.217 841.473 110.45C841.473 107.717 841.956 105.15 842.923 102.75C843.923 100.317 845.306 98.1833 847.073 96.35C848.873 94.5167 850.94 93.0833 853.273 92.05C855.64 90.9833 858.19 90.45 860.923 90.45C863.323 90.45 865.506 90.8 867.473 91.5C869.44 92.2 871.34 93.3167 873.173 94.85C873.473 95.0833 873.64 95.3667 873.673 95.7C873.74 96 873.706 96.3 873.573 96.6C873.44 96.8667 873.24 97.0667 872.973 97.2C872.906 97.4667 872.74 97.6667 872.473 97.8C872.206 97.9333 871.89 97.9833 871.523 97.95C871.19 97.9167 870.856 97.7667 870.523 97.5C869.223 96.3667 867.806 95.5333 866.273 95C864.74 94.4333 862.956 94.15 860.923 94.15C858.756 94.15 856.723 94.5833 854.823 95.45C852.956 96.3167 851.306 97.5 849.873 99C848.44 100.5 847.306 102.233 846.473 104.2C845.673 106.167 845.273 108.25 845.273 110.45C845.273 112.717 845.673 114.833 846.473 116.8C847.306 118.767 848.44 120.5 849.873 122C851.306 123.5 852.956 124.683 854.823 125.55C856.723 126.383 858.756 126.8 860.923 126.8C862.756 126.8 864.49 126.5 866.123 125.9C867.756 125.3 869.306 124.433 870.773 123.3C871.173 122.967 871.59 122.833 872.023 122.9C872.49 122.967 872.89 123.167 873.223 123.5C873.556 123.833 873.723 124.267 873.723 124.8C873.723 125.067 873.673 125.317 873.573 125.55C873.506 125.75 873.373 125.967 873.173 126.2C871.473 127.767 869.573 128.883 867.473 129.55C865.373 130.183 863.19 130.5 860.923 130.5ZM891.145 130.25C888.479 130.25 886.095 129.65 883.995 128.45C881.895 127.25 880.245 125.6 879.045 123.5C877.845 121.4 877.245 119.017 877.245 116.35C877.245 113.65 877.845 111.25 879.045 109.15C880.245 107.05 881.895 105.4 883.995 104.2C886.095 103 888.479 102.4 891.145 102.4C893.812 102.4 896.179 103 898.245 104.2C900.345 105.4 901.995 107.05 903.195 109.15C904.395 111.25 905.012 113.65 905.045 116.35C905.045 119.017 904.429 121.4 903.195 123.5C901.995 125.6 900.345 127.25 898.245 128.45C896.179 129.65 893.812 130.25 891.145 130.25ZM891.145 126.75C893.079 126.75 894.812 126.3 896.345 125.4C897.879 124.5 899.079 123.267 899.945 121.7C900.812 120.133 901.245 118.35 901.245 116.35C901.245 114.35 900.812 112.567 899.945 111C899.079 109.4 897.879 108.15 896.345 107.25C894.812 106.35 893.079 105.9 891.145 105.9C889.212 105.9 887.479 106.35 885.945 107.25C884.412 108.15 883.195 109.4 882.295 111C881.429 112.567 880.995 114.35 880.995 116.35C880.995 118.35 881.429 120.133 882.295 121.7C883.195 123.267 884.412 124.5 885.945 125.4C887.479 126.3 889.212 126.75 891.145 126.75ZM913.383 113.15C913.483 111.083 914.017 109.233 914.983 107.6C915.983 105.967 917.267 104.683 918.833 103.75C920.433 102.817 922.2 102.35 924.133 102.35C925.667 102.35 926.85 102.567 927.683 103C928.517 103.433 928.833 104.067 928.633 104.9C928.5 105.4 928.267 105.733 927.933 105.9C927.633 106.067 927.25 106.133 926.783 106.1C926.35 106.067 925.85 106.033 925.283 106C923.417 105.833 921.75 106.033 920.283 106.6C918.85 107.133 917.7 107.967 916.833 109.1C916 110.233 915.583 111.583 915.583 113.15H913.383ZM913.683 130C913.083 130 912.617 129.833 912.283 129.5C911.95 129.167 911.783 128.7 911.783 128.1V104.55C911.783 103.95 911.95 103.483 912.283 103.15C912.617 102.817 913.083 102.65 913.683 102.65C914.283 102.65 914.75 102.817 915.083 103.15C915.417 103.483 915.583 103.95 915.583 104.55V128.1C915.583 128.7 915.417 129.167 915.083 129.5C914.75 129.833 914.283 130 913.683 130ZM935.534 113.15C935.634 111.083 936.167 109.233 937.134 107.6C938.134 105.967 939.417 104.683 940.984 103.75C942.584 102.817 944.35 102.35 946.284 102.35C947.817 102.35 949 102.567 949.834 103C950.667 103.433 950.984 104.067 950.784 104.9C950.65 105.4 950.417 105.733 950.084 105.9C949.784 106.067 949.4 106.133 948.934 106.1C948.5 106.067 948 106.033 947.434 106C945.567 105.833 943.9 106.033 942.434 106.6C941 107.133 939.85 107.967 938.984 109.1C938.15 110.233 937.734 111.583 937.734 113.15H935.534ZM935.834 130C935.234 130 934.767 129.833 934.434 129.5C934.1 129.167 933.934 128.7 933.934 128.1V104.55C933.934 103.95 934.1 103.483 934.434 103.15C934.767 102.817 935.234 102.65 935.834 102.65C936.434 102.65 936.9 102.817 937.234 103.15C937.567 103.483 937.734 103.95 937.734 104.55V128.1C937.734 128.7 937.567 129.167 937.234 129.5C936.9 129.833 936.434 130 935.834 130ZM966.482 130.25C963.782 130.25 961.382 129.667 959.282 128.5C957.215 127.3 955.582 125.65 954.382 123.55C953.215 121.45 952.632 119.05 952.632 116.35C952.632 113.617 953.182 111.217 954.282 109.15C955.415 107.05 956.965 105.4 958.932 104.2C960.899 103 963.165 102.4 965.732 102.4C968.265 102.4 970.465 102.983 972.332 104.15C974.232 105.283 975.699 106.867 976.732 108.9C977.765 110.933 978.282 113.25 978.282 115.85C978.282 116.383 978.115 116.817 977.782 117.15C977.449 117.45 977.015 117.6 976.482 117.6H955.232V114.4H976.882L974.732 115.95C974.765 114.017 974.415 112.283 973.682 110.75C972.949 109.217 971.899 108.017 970.532 107.15C969.199 106.283 967.599 105.85 965.732 105.85C963.832 105.85 962.165 106.3 960.732 107.2C959.299 108.1 958.182 109.35 957.382 110.95C956.615 112.517 956.232 114.317 956.232 116.35C956.232 118.383 956.665 120.183 957.532 121.75C958.432 123.317 959.649 124.55 961.182 125.45C962.715 126.35 964.482 126.8 966.482 126.8C967.682 126.8 968.882 126.6 970.082 126.2C971.315 125.767 972.299 125.233 973.032 124.6C973.399 124.3 973.815 124.15 974.282 124.15C974.749 124.117 975.149 124.233 975.482 124.5C975.915 124.9 976.132 125.333 976.132 125.8C976.165 126.267 975.982 126.667 975.582 127C974.482 127.933 973.082 128.717 971.382 129.35C969.682 129.95 968.049 130.25 966.482 130.25ZM995.268 130.25C992.635 130.25 990.285 129.65 988.218 128.45C986.185 127.217 984.568 125.55 983.368 123.45C982.202 121.35 981.618 118.983 981.618 116.35C981.618 113.683 982.185 111.3 983.318 109.2C984.452 107.1 986.002 105.45 987.968 104.25C989.935 103.017 992.202 102.4 994.768 102.4C996.802 102.4 998.668 102.8 1000.37 103.6C1002.1 104.4 1003.62 105.6 1004.92 107.2C1005.29 107.6 1005.42 108.033 1005.32 108.5C1005.22 108.933 1004.94 109.317 1004.47 109.65C1004.1 109.917 1003.69 110.017 1003.22 109.95C1002.79 109.85 1002.4 109.6 1002.07 109.2C1000.14 107 997.702 105.9 994.768 105.9C992.902 105.9 991.252 106.35 989.818 107.25C988.418 108.15 987.318 109.383 986.518 110.95C985.752 112.517 985.368 114.317 985.368 116.35C985.368 118.35 985.785 120.133 986.618 121.7C987.452 123.267 988.618 124.5 990.118 125.4C991.618 126.3 993.335 126.75 995.268 126.75C996.568 126.75 997.752 126.583 998.818 126.25C999.918 125.883 1000.89 125.333 1001.72 124.6C1002.12 124.267 1002.54 124.083 1002.97 124.05C1003.4 124.017 1003.8 124.15 1004.17 124.45C1004.57 124.817 1004.79 125.233 1004.82 125.7C1004.89 126.167 1004.74 126.567 1004.37 126.9C1001.94 129.133 998.902 130.25 995.268 130.25ZM1022.8 130C1021.04 130 1019.45 129.583 1018.05 128.75C1016.69 127.917 1015.6 126.783 1014.8 125.35C1014 123.883 1013.6 122.217 1013.6 120.35V95.9C1013.6 95.3333 1013.77 94.8667 1014.1 94.5C1014.47 94.1333 1014.94 93.95 1015.5 93.95C1016.07 93.95 1016.54 94.1333 1016.9 94.5C1017.27 94.8667 1017.45 95.3333 1017.45 95.9V120.35C1017.45 122.05 1017.95 123.45 1018.95 124.55C1019.95 125.617 1021.24 126.15 1022.8 126.15H1024.15C1024.69 126.15 1025.12 126.333 1025.45 126.7C1025.79 127.067 1025.95 127.533 1025.95 128.1C1025.95 128.667 1025.75 129.133 1025.35 129.5C1024.95 129.833 1024.45 130 1023.85 130H1022.8ZM1010.35 107C1009.85 107 1009.44 106.85 1009.1 106.55C1008.77 106.217 1008.6 105.817 1008.6 105.35C1008.6 104.85 1008.77 104.45 1009.1 104.15C1009.44 103.817 1009.85 103.65 1010.35 103.65H1023.1C1023.6 103.65 1024.02 103.817 1024.35 104.15C1024.69 104.45 1024.85 104.85 1024.85 105.35C1024.85 105.817 1024.69 106.217 1024.35 106.55C1024.02 106.85 1023.6 107 1023.1 107H1010.35ZM1032.37 121.15C1031.84 121.15 1031.37 120.967 1030.97 120.6C1030.6 120.2 1030.42 119.733 1030.42 119.2V92.9C1030.42 92.3333 1030.6 91.8667 1030.97 91.5C1031.37 91.1 1031.84 90.9 1032.37 90.9C1032.94 90.9 1033.4 91.1 1033.77 91.5C1034.14 91.8667 1034.32 92.3333 1034.32 92.9V119.2C1034.32 119.733 1034.12 120.2 1033.72 120.6C1033.32 120.967 1032.87 121.15 1032.37 121.15ZM1032.37 130C1031.57 130 1030.89 129.717 1030.32 129.15C1029.75 128.583 1029.47 127.9 1029.47 127.1C1029.47 126.267 1029.75 125.567 1030.32 125C1030.89 124.433 1031.57 124.15 1032.37 124.15C1033.17 124.15 1033.85 124.45 1034.42 125.05C1034.99 125.617 1035.27 126.3 1035.27 127.1C1035.27 127.9 1034.99 128.583 1034.42 129.15C1033.85 129.717 1033.17 130 1032.37 130ZM1060.35 130C1059.82 130 1059.35 129.817 1058.95 129.45C1058.58 129.083 1058.4 128.617 1058.4 128.05V92.9C1058.4 92.3667 1058.58 91.9167 1058.95 91.55C1059.35 91.15 1059.82 90.95 1060.35 90.95C1060.88 90.95 1061.33 91.15 1061.7 91.55C1062.1 91.9167 1062.3 92.3667 1062.3 92.9V126.3H1081.85C1082.38 126.3 1082.83 126.483 1083.2 126.85C1083.6 127.183 1083.8 127.617 1083.8 128.15C1083.8 128.683 1083.6 129.133 1083.2 129.5C1082.83 129.833 1082.38 130 1081.85 130H1060.35ZM1101.24 130.25C1098.57 130.25 1096.19 129.65 1094.09 128.45C1091.99 127.25 1090.34 125.6 1089.14 123.5C1087.94 121.4 1087.34 119.017 1087.34 116.35C1087.34 113.65 1087.94 111.25 1089.14 109.15C1090.34 107.05 1091.99 105.4 1094.09 104.2C1096.19 103 1098.57 102.4 1101.24 102.4C1103.91 102.4 1106.27 103 1108.34 104.2C1110.44 105.4 1112.09 107.05 1113.29 109.15C1114.49 111.25 1115.11 113.65 1115.14 116.35C1115.14 119.017 1114.52 121.4 1113.29 123.5C1112.09 125.6 1110.44 127.25 1108.34 128.45C1106.27 129.65 1103.91 130.25 1101.24 130.25ZM1101.24 126.75C1103.17 126.75 1104.91 126.3 1106.44 125.4C1107.97 124.5 1109.17 123.267 1110.04 121.7C1110.91 120.133 1111.34 118.35 1111.34 116.35C1111.34 114.35 1110.91 112.567 1110.04 111C1109.17 109.4 1107.97 108.15 1106.44 107.25C1104.91 106.35 1103.17 105.9 1101.24 105.9C1099.31 105.9 1097.57 106.35 1096.04 107.25C1094.51 108.15 1093.29 109.4 1092.39 111C1091.52 112.567 1091.09 114.35 1091.09 116.35C1091.09 118.35 1091.52 120.133 1092.39 121.7C1093.29 123.267 1094.51 124.5 1096.04 125.4C1097.57 126.3 1099.31 126.75 1101.24 126.75ZM1133.93 130.25C1131.3 130.25 1128.96 129.667 1126.93 128.5C1124.9 127.3 1123.3 125.65 1122.13 123.55C1121 121.45 1120.43 119.05 1120.43 116.35C1120.43 113.617 1121.03 111.2 1122.23 109.1C1123.43 107 1125.08 105.367 1127.18 104.2C1129.28 103 1131.66 102.4 1134.33 102.4C1137.03 102.4 1139.41 103 1141.48 104.2C1143.58 105.367 1145.21 107 1146.38 109.1C1147.58 111.2 1148.2 113.617 1148.23 116.35L1145.98 117.55C1145.98 120.017 1145.46 122.217 1144.43 124.15C1143.4 126.05 1141.96 127.55 1140.13 128.65C1138.33 129.717 1136.26 130.25 1133.93 130.25ZM1134.43 140.8C1131.8 140.8 1129.48 140.3 1127.48 139.3C1125.48 138.333 1123.83 137 1122.53 135.3C1122.16 134.9 1122 134.467 1122.03 134C1122.1 133.533 1122.35 133.15 1122.78 132.85C1123.21 132.55 1123.7 132.45 1124.23 132.55C1124.76 132.65 1125.18 132.9 1125.48 133.3C1126.45 134.5 1127.68 135.467 1129.18 136.2C1130.71 136.933 1132.48 137.3 1134.48 137.3C1136.35 137.3 1138.03 136.85 1139.53 135.95C1141.03 135.05 1142.21 133.783 1143.08 132.15C1143.98 130.517 1144.43 128.6 1144.43 126.4V118.8L1145.88 115.9L1148.23 116.35V126.55C1148.23 129.25 1147.63 131.667 1146.43 133.8C1145.23 135.967 1143.6 137.667 1141.53 138.9C1139.46 140.167 1137.1 140.8 1134.43 140.8ZM1134.33 126.75C1136.3 126.75 1138.03 126.317 1139.53 125.45C1141.06 124.55 1142.26 123.317 1143.13 121.75C1144 120.183 1144.43 118.383 1144.43 116.35C1144.43 114.317 1144 112.517 1143.13 110.95C1142.26 109.35 1141.06 108.117 1139.53 107.25C1138.03 106.35 1136.3 105.9 1134.33 105.9C1132.36 105.9 1130.61 106.35 1129.08 107.25C1127.55 108.117 1126.35 109.35 1125.48 110.95C1124.61 112.517 1124.18 114.317 1124.18 116.35C1124.18 118.383 1124.61 120.183 1125.48 121.75C1126.35 123.317 1127.55 124.55 1129.08 125.45C1130.61 126.317 1132.36 126.75 1134.33 126.75ZM1167.02 130.25C1164.38 130.25 1162.05 129.667 1160.02 128.5C1157.98 127.3 1156.38 125.65 1155.22 123.55C1154.08 121.45 1153.52 119.05 1153.52 116.35C1153.52 113.617 1154.12 111.2 1155.32 109.1C1156.52 107 1158.17 105.367 1160.27 104.2C1162.37 103 1164.75 102.4 1167.42 102.4C1170.12 102.4 1172.5 103 1174.57 104.2C1176.67 105.367 1178.3 107 1179.47 109.1C1180.67 111.2 1181.28 113.617 1181.32 116.35L1179.07 117.55C1179.07 120.017 1178.55 122.217 1177.52 124.15C1176.48 126.05 1175.05 127.55 1173.22 128.65C1171.42 129.717 1169.35 130.25 1167.02 130.25ZM1167.52 140.8C1164.88 140.8 1162.57 140.3 1160.57 139.3C1158.57 138.333 1156.92 137 1155.62 135.3C1155.25 134.9 1155.08 134.467 1155.12 134C1155.18 133.533 1155.43 133.15 1155.87 132.85C1156.3 132.55 1156.78 132.45 1157.32 132.55C1157.85 132.65 1158.27 132.9 1158.57 133.3C1159.53 134.5 1160.77 135.467 1162.27 136.2C1163.8 136.933 1165.57 137.3 1167.57 137.3C1169.43 137.3 1171.12 136.85 1172.62 135.95C1174.12 135.05 1175.3 133.783 1176.17 132.15C1177.07 130.517 1177.52 128.6 1177.52 126.4V118.8L1178.97 115.9L1181.32 116.35V126.55C1181.32 129.25 1180.72 131.667 1179.52 133.8C1178.32 135.967 1176.68 137.667 1174.62 138.9C1172.55 140.167 1170.18 140.8 1167.52 140.8ZM1167.42 126.75C1169.38 126.75 1171.12 126.317 1172.62 125.45C1174.15 124.55 1175.35 123.317 1176.22 121.75C1177.08 120.183 1177.52 118.383 1177.52 116.35C1177.52 114.317 1177.08 112.517 1176.22 110.95C1175.35 109.35 1174.15 108.117 1172.62 107.25C1171.12 106.35 1169.38 105.9 1167.42 105.9C1165.45 105.9 1163.7 106.35 1162.17 107.25C1160.63 108.117 1159.43 109.35 1158.57 110.95C1157.7 112.517 1157.27 114.317 1157.27 116.35C1157.27 118.383 1157.7 120.183 1158.57 121.75C1159.43 123.317 1160.63 124.55 1162.17 125.45C1163.7 126.317 1165.45 126.75 1167.42 126.75ZM1190.8 130C1190.2 130 1189.72 129.833 1189.35 129.5C1189.02 129.133 1188.85 128.65 1188.85 128.05V104.6C1188.85 104 1189.02 103.533 1189.35 103.2C1189.72 102.833 1190.2 102.65 1190.8 102.65C1191.37 102.65 1191.82 102.833 1192.15 103.2C1192.52 103.533 1192.7 104 1192.7 104.6V128.05C1192.7 128.65 1192.52 129.133 1192.15 129.5C1191.82 129.833 1191.37 130 1190.8 130ZM1190.75 97.45C1190.02 97.45 1189.39 97.1833 1188.85 96.65C1188.32 96.1167 1188.05 95.4667 1188.05 94.7C1188.05 93.8667 1188.32 93.2167 1188.85 92.75C1189.42 92.25 1190.07 92 1190.8 92C1191.5 92 1192.12 92.25 1192.65 92.75C1193.22 93.2167 1193.5 93.8667 1193.5 94.7C1193.5 95.4667 1193.24 96.1167 1192.7 96.65C1192.17 97.1833 1191.52 97.45 1190.75 97.45ZM1225.21 130C1224.64 130 1224.17 129.817 1223.81 129.45C1223.44 129.083 1223.26 128.633 1223.26 128.1V115.1C1223.26 113.033 1222.86 111.333 1222.06 110C1221.29 108.667 1220.22 107.667 1218.86 107C1217.52 106.333 1216.01 106 1214.31 106C1212.67 106 1211.19 106.317 1209.86 106.95C1208.56 107.583 1207.52 108.45 1206.76 109.55C1205.99 110.65 1205.61 111.9 1205.61 113.3H1202.86C1202.92 111.2 1203.49 109.333 1204.56 107.7C1205.62 106.033 1207.04 104.733 1208.81 103.8C1210.57 102.833 1212.54 102.35 1214.71 102.35C1217.07 102.35 1219.19 102.85 1221.06 103.85C1222.92 104.817 1224.39 106.25 1225.46 108.15C1226.56 110.05 1227.11 112.367 1227.11 115.1V128.1C1227.11 128.633 1226.92 129.083 1226.56 129.45C1226.19 129.817 1225.74 130 1225.21 130ZM1203.71 130C1203.11 130 1202.62 129.833 1202.26 129.5C1201.92 129.133 1201.76 128.667 1201.76 128.1V104.6C1201.76 104 1201.92 103.533 1202.26 103.2C1202.62 102.833 1203.11 102.65 1203.71 102.65C1204.27 102.65 1204.72 102.833 1205.06 103.2C1205.42 103.533 1205.61 104 1205.61 104.6V128.1C1205.61 128.667 1205.42 129.133 1205.06 129.5C1204.72 129.833 1204.27 130 1203.71 130ZM1246.9 130.25C1244.26 130.25 1241.93 129.667 1239.9 128.5C1237.86 127.3 1236.26 125.65 1235.1 123.55C1233.96 121.45 1233.4 119.05 1233.4 116.35C1233.4 113.617 1234 111.2 1235.2 109.1C1236.4 107 1238.05 105.367 1240.15 104.2C1242.25 103 1244.63 102.4 1247.3 102.4C1250 102.4 1252.38 103 1254.45 104.2C1256.55 105.367 1258.18 107 1259.35 109.1C1260.55 111.2 1261.16 113.617 1261.2 116.35L1258.95 117.55C1258.95 120.017 1258.43 122.217 1257.4 124.15C1256.36 126.05 1254.93 127.55 1253.1 128.65C1251.3 129.717 1249.23 130.25 1246.9 130.25ZM1247.4 140.8C1244.76 140.8 1242.45 140.3 1240.45 139.3C1238.45 138.333 1236.8 137 1235.5 135.3C1235.13 134.9 1234.96 134.467 1235 134C1235.06 133.533 1235.31 133.15 1235.75 132.85C1236.18 132.55 1236.66 132.45 1237.2 132.55C1237.73 132.65 1238.15 132.9 1238.45 133.3C1239.41 134.5 1240.65 135.467 1242.15 136.2C1243.68 136.933 1245.45 137.3 1247.45 137.3C1249.31 137.3 1251 136.85 1252.5 135.95C1254 135.05 1255.18 133.783 1256.05 132.15C1256.95 130.517 1257.4 128.6 1257.4 126.4V118.8L1258.85 115.9L1261.2 116.35V126.55C1261.2 129.25 1260.6 131.667 1259.4 133.8C1258.2 135.967 1256.56 137.667 1254.5 138.9C1252.43 140.167 1250.06 140.8 1247.4 140.8ZM1247.3 126.75C1249.26 126.75 1251 126.317 1252.5 125.45C1254.03 124.55 1255.23 123.317 1256.1 121.75C1256.96 120.183 1257.4 118.383 1257.4 116.35C1257.4 114.317 1256.96 112.517 1256.1 110.95C1255.23 109.35 1254.03 108.117 1252.5 107.25C1251 106.35 1249.26 105.9 1247.3 105.9C1245.33 105.9 1243.58 106.35 1242.05 107.25C1240.51 108.117 1239.31 109.35 1238.45 110.95C1237.58 112.517 1237.15 114.317 1237.15 116.35C1237.15 118.383 1237.58 120.183 1238.45 121.75C1239.31 123.317 1240.51 124.55 1242.05 125.45C1243.58 126.317 1245.33 126.75 1247.3 126.75ZM1284.58 130C1283.98 130 1283.5 129.833 1283.13 129.5C1282.8 129.133 1282.63 128.65 1282.63 128.05V104.6C1282.63 104 1282.8 103.533 1283.13 103.2C1283.5 102.833 1283.98 102.65 1284.58 102.65C1285.15 102.65 1285.6 102.833 1285.93 103.2C1286.3 103.533 1286.48 104 1286.48 104.6V128.05C1286.48 128.65 1286.3 129.133 1285.93 129.5C1285.6 129.833 1285.15 130 1284.58 130ZM1284.53 97.45C1283.8 97.45 1283.17 97.1833 1282.63 96.65C1282.1 96.1167 1281.83 95.4667 1281.83 94.7C1281.83 93.8667 1282.1 93.2167 1282.63 92.75C1283.2 92.25 1283.85 92 1284.58 92C1285.28 92 1285.9 92.25 1286.43 92.75C1287 93.2167 1287.28 93.8667 1287.28 94.7C1287.28 95.4667 1287.02 96.1167 1286.48 96.65C1285.95 97.1833 1285.3 97.45 1284.53 97.45ZM1318.99 130C1318.42 130 1317.95 129.817 1317.59 129.45C1317.22 129.083 1317.04 128.633 1317.04 128.1V115.1C1317.04 113.033 1316.64 111.333 1315.84 110C1315.07 108.667 1314 107.667 1312.64 107C1311.3 106.333 1309.79 106 1308.09 106C1306.45 106 1304.97 106.317 1303.64 106.95C1302.34 107.583 1301.3 108.45 1300.54 109.55C1299.77 110.65 1299.39 111.9 1299.39 113.3H1296.64C1296.7 111.2 1297.27 109.333 1298.34 107.7C1299.4 106.033 1300.82 104.733 1302.59 103.8C1304.35 102.833 1306.32 102.35 1308.49 102.35C1310.85 102.35 1312.97 102.85 1314.84 103.85C1316.7 104.817 1318.17 106.25 1319.24 108.15C1320.34 110.05 1320.89 112.367 1320.89 115.1V128.1C1320.89 128.633 1320.7 129.083 1320.34 129.45C1319.97 129.817 1319.52 130 1318.99 130ZM1297.49 130C1296.89 130 1296.4 129.833 1296.04 129.5C1295.7 129.133 1295.54 128.667 1295.54 128.1V104.6C1295.54 104 1295.7 103.533 1296.04 103.2C1296.4 102.833 1296.89 102.65 1297.49 102.65C1298.05 102.65 1298.5 102.833 1298.84 103.2C1299.2 103.533 1299.39 104 1299.39 104.6V128.1C1299.39 128.667 1299.2 129.133 1298.84 129.5C1298.5 129.833 1298.05 130 1297.49 130ZM1365.97 130C1365.4 130 1364.94 129.817 1364.57 129.45C1364.2 129.083 1364.02 128.633 1364.02 128.1V115.1C1364.02 113.033 1363.62 111.333 1362.82 110C1362.05 108.667 1360.99 107.667 1359.62 107C1358.29 106.333 1356.77 106 1355.07 106C1353.44 106 1351.95 106.317 1350.62 106.95C1349.32 107.583 1348.29 108.45 1347.52 109.55C1346.75 110.65 1346.37 111.9 1346.37 113.3H1343.62C1343.69 111.2 1344.25 109.333 1345.32 107.7C1346.39 106.033 1347.8 104.733 1349.57 103.8C1351.34 102.833 1353.3 102.35 1355.47 102.35C1357.84 102.35 1359.95 102.85 1361.82 103.85C1363.69 104.817 1365.15 106.25 1366.22 108.15C1367.32 110.05 1367.87 112.367 1367.87 115.1V128.1C1367.87 128.633 1367.69 129.083 1367.32 129.45C1366.95 129.817 1366.5 130 1365.97 130ZM1344.47 130C1343.87 130 1343.39 129.833 1343.02 129.5C1342.69 129.133 1342.52 128.667 1342.52 128.1V104.6C1342.52 104 1342.69 103.533 1343.02 103.2C1343.39 102.833 1343.87 102.65 1344.47 102.65C1345.04 102.65 1345.49 102.833 1345.82 103.2C1346.19 103.533 1346.37 104 1346.37 104.6V128.1C1346.37 128.667 1346.19 129.133 1345.82 129.5C1345.49 129.833 1345.04 130 1344.47 130ZM1388.06 130.25C1385.39 130.25 1383.01 129.65 1380.91 128.45C1378.81 127.25 1377.16 125.6 1375.96 123.5C1374.76 121.4 1374.16 119.017 1374.16 116.35C1374.16 113.65 1374.76 111.25 1375.96 109.15C1377.16 107.05 1378.81 105.4 1380.91 104.2C1383.01 103 1385.39 102.4 1388.06 102.4C1390.73 102.4 1393.09 103 1395.16 104.2C1397.26 105.4 1398.91 107.05 1400.11 109.15C1401.31 111.25 1401.93 113.65 1401.96 116.35C1401.96 119.017 1401.34 121.4 1400.11 123.5C1398.91 125.6 1397.26 127.25 1395.16 128.45C1393.09 129.65 1390.73 130.25 1388.06 130.25ZM1388.06 126.75C1389.99 126.75 1391.73 126.3 1393.26 125.4C1394.79 124.5 1395.99 123.267 1396.86 121.7C1397.73 120.133 1398.16 118.35 1398.16 116.35C1398.16 114.35 1397.73 112.567 1396.86 111C1395.99 109.4 1394.79 108.15 1393.26 107.25C1391.73 106.35 1389.99 105.9 1388.06 105.9C1386.13 105.9 1384.39 106.35 1382.86 107.25C1381.33 108.15 1380.11 109.4 1379.21 111C1378.34 112.567 1377.91 114.35 1377.91 116.35C1377.91 118.35 1378.34 120.133 1379.21 121.7C1380.11 123.267 1381.33 124.5 1382.86 125.4C1384.39 126.3 1386.13 126.75 1388.06 126.75ZM1413.38 130C1412.95 130 1412.57 129.883 1412.23 129.65C1411.9 129.417 1411.67 129.117 1411.53 128.75L1403.73 105.35C1403.53 104.517 1403.55 103.867 1403.78 103.4C1404.02 102.9 1404.48 102.65 1405.18 102.65C1405.62 102.65 1406 102.767 1406.33 103C1406.67 103.233 1406.92 103.6 1407.08 104.1L1414.03 125.35H1412.93L1419.38 104.15C1419.52 103.717 1419.73 103.367 1420.03 103.1C1420.37 102.8 1420.78 102.65 1421.28 102.65C1421.78 102.65 1422.18 102.783 1422.48 103.05C1422.82 103.317 1423.05 103.683 1423.18 104.15L1429.33 124.85H1428.48L1435.28 104.1C1435.62 103.133 1436.23 102.65 1437.13 102.65C1437.87 102.65 1438.37 102.933 1438.63 103.5C1438.9 104.033 1438.9 104.65 1438.63 105.35L1430.83 128.75C1430.7 129.117 1430.47 129.417 1430.13 129.65C1429.83 129.883 1429.47 130 1429.03 130C1428.6 130 1428.2 129.883 1427.83 129.65C1427.5 129.417 1427.28 129.117 1427.18 128.75L1420.88 107.85H1421.48L1415.18 128.75C1415.05 129.15 1414.82 129.467 1414.48 129.7C1414.15 129.9 1413.78 130 1413.38 130ZM1438.83 130.8C1438.03 130.8 1437.34 130.517 1436.78 129.95C1436.21 129.383 1435.93 128.7 1435.93 127.9C1435.93 127.067 1436.21 126.367 1436.78 125.8C1437.38 125.233 1438.06 124.95 1438.83 124.95C1439.63 124.95 1440.31 125.25 1440.88 125.85C1441.44 126.417 1441.73 127.1 1441.73 127.9C1441.73 128.667 1441.44 129.35 1440.88 129.95C1440.34 130.517 1439.66 130.8 1438.83 130.8Z" fill="black"/>
</g>
<defs>
<filter id="filter0_dd" x="587.969" y="90.4502" width="857.759" height="58.35" filterUnits="userSpaceOnUse" color-interpolation-filters="sRGB">
<feFlood flood-opacity="0" result="BackgroundImageFix"/>
<feColorMatrix in="SourceAlpha" type="matrix" values="0 0 0 0 0 0 0 0 0 0 0 0 0 0 0 0 0 0 127 0"/>
<feOffset dy="4"/>
<feGaussianBlur stdDeviation="2"/>
<feColorMatrix type="matrix" values="0 0 0 0 0 0 0 0 0 0 0 0 0 0 0 0 0 0 0.25 0"/>
<feBlend mode="normal" in2="BackgroundImageFix" result="effect1_dropShadow"/>
<feColorMatrix in="SourceAlpha" type="matrix" values="0 0 0 0 0 0 0 0 0 0 0 0 0 0 0 0 0 0 127 0"/>
<feOffset dy="4"/>
<feGaussianBlur stdDeviation="2"/>
<feColorMatrix type="matrix" values="0 0 0 0 0 0 0 0 0 0 0 0 0 0 0 0 0 0 0.25 0"/>
<feBlend mode="normal" in2="effect1_dropShadow" result="effect2_dropShadow"/>
<feBlend mode="normal" in="SourceGraphic" in2="effect2_dropShadow" result="shape"/>
</filter>
</defs>
</svg>
