<svg width="2300" height="1088" viewBox="0 0 2300 1088" fill="none" xmlns="http://www.w3.org/2000/svg">
<path d="M405 4H1485V1084H405V4Z" fill="black"/>
<g filter="url(#filter0_bf)">
<rect x="405" y="4" width="1080" height="1080" fill="#A9A9A0"/>
<rect x="415" y="14" width="1060" height="1060" stroke="#F19393" stroke-width="20" stroke-linejoin="bevel"/>
</g>
<g filter="url(#filter1_dd)">
<circle cx="945" cy="872" r="90" fill="#CCFFEB"/>
<circle cx="945" cy="872" r="89.5" stroke="#AEA3A3"/>
</g>
<g filter="url(#filter2_dd)">
<circle cx="602" cy="216" r="90" fill="#CCFFEB"/>
<circle cx="602" cy="216" r="89.5" stroke="#AEA3A3"/>
</g>
<g filter="url(#filter3_dd)">
<circle cx="602" cy="544" r="90" fill="#CCFFEB"/>
<circle cx="602" cy="544" r="89.5" stroke="#AEA3A3"/>
</g>
<g filter="url(#filter4_dd)">
<circle cx="602" cy="872" r="90" fill="#CCFFEB"/>
<circle cx="602" cy="872" r="89.5" stroke="#AEA3A3"/>
</g>
<g filter="url(#filter5_dd)">
<circle cx="1288" cy="544" r="90" fill="#CCFFEB"/>
<circle cx="1288" cy="544" r="89.5" stroke="#AEA3A3"/>
</g>
<g filter="url(#filter6_dd)">
<circle cx="1288" cy="872" r="90" fill="#CCFFEB"/>
<circle cx="1288" cy="872" r="89.5" stroke="#AEA3A3"/>
</g>
<g filter="url(#filter7_dd)">
<circle cx="945" cy="216" r="90" fill="#CCFFEB"/>
<circle cx="945" cy="216" r="89.5" stroke="#BC6E6E"/>
</g>
<circle cx="602" cy="544" r="15" fill="#9A9999"/>
<circle cx="1288" cy="544" r="15" fill="#9A9999"/>
<circle cx="602" cy="872" r="15" fill="#9A9999"/>
<circle cx="945" cy="872" r="15" fill="#9A9999"/>
<circle cx="1288" cy="872" r="15" fill="#9A9999"/>
<circle cx="602" cy="216" r="15" fill="#9A9999"/>
<circle cx="945" cy="216" r="15" fill="#9A9999"/>
<g filter="url(#filter8_dd)">
<circle cx="1273" cy="201" r="100" fill="#FFF4B9"/>
<circle cx="1273" cy="201" r="100.5" stroke="#FFE663"/>
</g>
<g filter="url(#filter9_df)">
<circle cx="1273" cy="201" r="15" fill="#FFE663"/>
</g>
<path d="M0 405H1920V634H0V405Z" fill="#E5E5E5"/>
<g filter="url(#filter10_dd)">
<path d="M498.138 480C497.571 480 497.104 479.817 496.738 479.45C496.371 479.083 496.188 478.617 496.188 478.05V442.9C496.188 442.333 496.371 441.867 496.738 441.5C497.104 441.133 497.571 440.95 498.138 440.95H508.138C510.604 440.95 512.788 441.5 514.688 442.6C516.588 443.667 518.071 445.15 519.138 447.05C520.204 448.95 520.738 451.15 520.738 453.65C520.738 456.083 520.204 458.25 519.138 460.15C518.071 462.017 516.588 463.5 514.688 464.6C512.788 465.667 510.604 466.2 508.138 466.2H500.088V478.05C500.088 478.617 499.904 479.083 499.538 479.45C499.171 479.817 498.704 480 498.138 480ZM500.088 462.45H508.138C509.838 462.45 511.354 462.083 512.688 461.35C514.021 460.583 515.054 459.533 515.788 458.2C516.554 456.867 516.938 455.35 516.938 453.65C516.938 451.883 516.554 450.333 515.788 449C515.054 447.667 514.021 446.617 512.688 445.85C511.354 445.083 509.838 444.7 508.138 444.7H500.088V462.45ZM536.626 480.25C534.06 480.25 531.76 479.65 529.726 478.45C527.693 477.217 526.076 475.55 524.876 473.45C523.71 471.35 523.126 468.983 523.126 466.35C523.126 463.683 523.726 461.3 524.926 459.2C526.16 457.1 527.826 455.45 529.926 454.25C532.026 453.017 534.393 452.4 537.026 452.4C539.66 452.4 542.01 453.017 544.076 454.25C546.176 455.45 547.826 457.1 549.026 459.2C550.26 461.3 550.893 463.683 550.926 466.35L549.376 467.55C549.376 469.95 548.81 472.117 547.676 474.05C546.576 475.95 545.06 477.467 543.126 478.6C541.226 479.7 539.06 480.25 536.626 480.25ZM537.026 476.75C538.96 476.75 540.676 476.3 542.176 475.4C543.71 474.5 544.91 473.267 545.776 471.7C546.676 470.1 547.126 468.317 547.126 466.35C547.126 464.35 546.676 462.567 545.776 461C544.91 459.433 543.71 458.2 542.176 457.3C540.676 456.367 538.96 455.9 537.026 455.9C535.126 455.9 533.41 456.367 531.876 457.3C530.343 458.2 529.126 459.433 528.226 461C527.326 462.567 526.876 464.35 526.876 466.35C526.876 468.317 527.326 470.1 528.226 471.7C529.126 473.267 530.343 474.5 531.876 475.4C533.41 476.3 535.126 476.75 537.026 476.75ZM548.976 480C548.41 480 547.943 479.833 547.576 479.5C547.21 479.133 547.026 478.667 547.026 478.1V469.55L547.976 465.6L550.926 466.35V478.1C550.926 478.667 550.743 479.133 550.376 479.5C550.01 479.833 549.543 480 548.976 480ZM567.214 480.25C565.247 480.25 563.297 479.917 561.364 479.25C559.431 478.583 557.864 477.583 556.664 476.25C556.297 475.85 556.147 475.4 556.214 474.9C556.281 474.4 556.531 473.967 556.964 473.6C557.431 473.267 557.914 473.133 558.414 473.2C558.914 473.267 559.331 473.483 559.664 473.85C560.464 474.783 561.514 475.5 562.814 476C564.147 476.5 565.614 476.75 567.214 476.75C569.681 476.75 571.464 476.333 572.564 475.5C573.664 474.633 574.231 473.6 574.264 472.4C574.264 471.2 573.697 470.217 572.564 469.45C571.431 468.65 569.564 468.033 566.964 467.6C563.597 467.067 561.131 466.133 559.564 464.8C557.997 463.467 557.214 461.883 557.214 460.05C557.214 458.35 557.664 456.933 558.564 455.8C559.464 454.667 560.664 453.817 562.164 453.25C563.664 452.683 565.314 452.4 567.114 452.4C569.347 452.4 571.264 452.783 572.864 453.55C574.497 454.317 575.814 455.35 576.814 456.65C577.147 457.083 577.281 457.533 577.214 458C577.147 458.467 576.881 458.85 576.414 459.15C576.014 459.383 575.547 459.467 575.014 459.4C574.514 459.3 574.081 459.05 573.714 458.65C572.881 457.683 571.914 456.983 570.814 456.55C569.714 456.083 568.447 455.85 567.014 455.85C565.181 455.85 563.714 456.233 562.614 457C561.514 457.733 560.964 458.667 560.964 459.8C560.964 460.567 561.164 461.233 561.564 461.8C561.997 462.367 562.714 462.867 563.714 463.3C564.747 463.733 566.181 464.1 568.014 464.4C570.514 464.8 572.481 465.4 573.914 466.2C575.381 466.967 576.414 467.883 577.014 468.95C577.647 469.983 577.964 471.117 577.964 472.35C577.964 473.917 577.497 475.3 576.564 476.5C575.664 477.667 574.397 478.583 572.764 479.25C571.164 479.917 569.314 480.25 567.214 480.25ZM593.417 480.25C591.451 480.25 589.501 479.917 587.567 479.25C585.634 478.583 584.067 477.583 582.867 476.25C582.501 475.85 582.351 475.4 582.417 474.9C582.484 474.4 582.734 473.967 583.167 473.6C583.634 473.267 584.117 473.133 584.617 473.2C585.117 473.267 585.534 473.483 585.867 473.85C586.667 474.783 587.717 475.5 589.017 476C590.351 476.5 591.817 476.75 593.417 476.75C595.884 476.75 597.667 476.333 598.767 475.5C599.867 474.633 600.434 473.6 600.467 472.4C600.467 471.2 599.901 470.217 598.767 469.45C597.634 468.65 595.767 468.033 593.167 467.6C589.801 467.067 587.334 466.133 585.767 464.8C584.201 463.467 583.417 461.883 583.417 460.05C583.417 458.35 583.867 456.933 584.767 455.8C585.667 454.667 586.867 453.817 588.367 453.25C589.867 452.683 591.517 452.4 593.317 452.4C595.551 452.4 597.467 452.783 599.067 453.55C600.701 454.317 602.017 455.35 603.017 456.65C603.351 457.083 603.484 457.533 603.417 458C603.351 458.467 603.084 458.85 602.617 459.15C602.217 459.383 601.751 459.467 601.217 459.4C600.717 459.3 600.284 459.05 599.917 458.65C599.084 457.683 598.117 456.983 597.017 456.55C595.917 456.083 594.651 455.85 593.217 455.85C591.384 455.85 589.917 456.233 588.817 457C587.717 457.733 587.167 458.667 587.167 459.8C587.167 460.567 587.367 461.233 587.767 461.8C588.201 462.367 588.917 462.867 589.917 463.3C590.951 463.733 592.384 464.1 594.217 464.4C596.717 464.8 598.684 465.4 600.117 466.2C601.584 466.967 602.617 467.883 603.217 468.95C603.851 469.983 604.167 471.117 604.167 472.35C604.167 473.917 603.701 475.3 602.767 476.5C601.867 477.667 600.601 478.583 598.967 479.25C597.367 479.917 595.517 480.25 593.417 480.25ZM616.27 480C615.837 480 615.454 479.883 615.12 479.65C614.787 479.417 614.554 479.117 614.42 478.75L606.62 455.35C606.42 454.517 606.437 453.867 606.67 453.4C606.904 452.9 607.37 452.65 608.07 452.65C608.504 452.65 608.887 452.767 609.22 453C609.554 453.233 609.804 453.6 609.97 454.1L616.92 475.35H615.82L622.27 454.15C622.404 453.717 622.62 453.367 622.92 453.1C623.254 452.8 623.67 452.65 624.17 452.65C624.67 452.65 625.07 452.783 625.37 453.05C625.704 453.317 625.937 453.683 626.07 454.15L632.22 474.85H631.37L638.17 454.1C638.504 453.133 639.12 452.65 640.02 452.65C640.754 452.65 641.254 452.933 641.52 453.5C641.787 454.033 641.787 454.65 641.52 455.35L633.72 478.75C633.587 479.117 633.354 479.417 633.02 479.65C632.72 479.883 632.354 480 631.92 480C631.487 480 631.087 479.883 630.72 479.65C630.387 479.417 630.17 479.117 630.07 478.75L623.77 457.85H624.37L618.07 478.75C617.937 479.15 617.704 479.467 617.37 479.7C617.037 479.9 616.67 480 616.27 480ZM657.805 480.25C655.139 480.25 652.755 479.65 650.655 478.45C648.555 477.25 646.905 475.6 645.705 473.5C644.505 471.4 643.905 469.017 643.905 466.35C643.905 463.65 644.505 461.25 645.705 459.15C646.905 457.05 648.555 455.4 650.655 454.2C652.755 453 655.139 452.4 657.805 452.4C660.472 452.4 662.839 453 664.905 454.2C667.005 455.4 668.655 457.05 669.855 459.15C671.055 461.25 671.672 463.65 671.705 466.35C671.705 469.017 671.089 471.4 669.855 473.5C668.655 475.6 667.005 477.25 664.905 478.45C662.839 479.65 660.472 480.25 657.805 480.25ZM657.805 476.75C659.739 476.75 661.472 476.3 663.005 475.4C664.539 474.5 665.739 473.267 666.605 471.7C667.472 470.133 667.905 468.35 667.905 466.35C667.905 464.35 667.472 462.567 666.605 461C665.739 459.4 664.539 458.15 663.005 457.25C661.472 456.35 659.739 455.9 657.805 455.9C655.872 455.9 654.139 456.35 652.605 457.25C651.072 458.15 649.855 459.4 648.955 461C648.089 462.567 647.655 464.35 647.655 466.35C647.655 468.35 648.089 470.133 648.955 471.7C649.855 473.267 651.072 474.5 652.605 475.4C654.139 476.3 655.872 476.75 657.805 476.75ZM680.043 463.15C680.143 461.083 680.677 459.233 681.643 457.6C682.643 455.967 683.927 454.683 685.493 453.75C687.093 452.817 688.86 452.35 690.793 452.35C692.327 452.35 693.51 452.567 694.343 453C695.177 453.433 695.493 454.067 695.293 454.9C695.16 455.4 694.927 455.733 694.593 455.9C694.293 456.067 693.91 456.133 693.443 456.1C693.01 456.067 692.51 456.033 691.943 456C690.077 455.833 688.41 456.033 686.943 456.6C685.51 457.133 684.36 457.967 683.493 459.1C682.66 460.233 682.243 461.583 682.243 463.15H680.043ZM680.343 480C679.743 480 679.277 479.833 678.943 479.5C678.61 479.167 678.443 478.7 678.443 478.1V454.55C678.443 453.95 678.61 453.483 678.943 453.15C679.277 452.817 679.743 452.65 680.343 452.65C680.943 452.65 681.41 452.817 681.743 453.15C682.077 453.483 682.243 453.95 682.243 454.55V478.1C682.243 478.7 682.077 479.167 681.743 479.5C681.41 479.833 680.943 480 680.343 480ZM711.042 480.25C708.408 480.25 706.042 479.65 703.942 478.45C701.842 477.217 700.175 475.55 698.942 473.45C697.742 471.35 697.142 468.967 697.142 466.3C697.142 463.667 697.725 461.3 698.892 459.2C700.092 457.1 701.708 455.45 703.742 454.25C705.775 453.017 708.075 452.4 710.642 452.4C712.875 452.4 714.892 452.883 716.692 453.85C718.492 454.783 719.942 456.033 721.042 457.6V442.9C721.042 442.3 721.225 441.833 721.592 441.5C721.958 441.133 722.425 440.95 722.992 440.95C723.558 440.95 724.025 441.133 724.392 441.5C724.758 441.833 724.942 442.3 724.942 442.9V466.5C724.875 469.1 724.225 471.45 722.992 473.55C721.792 475.617 720.142 477.25 718.042 478.45C715.975 479.65 713.642 480.25 711.042 480.25ZM711.042 476.75C712.975 476.75 714.692 476.3 716.192 475.4C717.725 474.467 718.925 473.217 719.792 471.65C720.692 470.083 721.142 468.3 721.142 466.3C721.142 464.333 720.692 462.567 719.792 461C718.925 459.4 717.725 458.15 716.192 457.25C714.692 456.35 712.975 455.9 711.042 455.9C709.142 455.9 707.425 456.35 705.892 457.25C704.358 458.15 703.142 459.4 702.242 461C701.342 462.567 700.892 464.333 700.892 466.3C700.892 468.3 701.342 470.083 702.242 471.65C703.142 473.217 704.358 474.467 705.892 475.4C707.425 476.3 709.142 476.75 711.042 476.75ZM749.542 480C748.975 480 748.508 479.817 748.142 479.45C747.775 479.083 747.592 478.617 747.592 478.05V442.9C747.592 442.333 747.775 441.867 748.142 441.5C748.508 441.133 748.975 440.95 749.542 440.95C750.108 440.95 750.575 441.133 750.942 441.5C751.308 441.867 751.492 442.333 751.492 442.9V478.05C751.492 478.617 751.308 479.083 750.942 479.45C750.575 479.817 750.108 480 749.542 480ZM783.708 480C783.141 480 782.674 479.817 782.308 479.45C781.941 479.083 781.758 478.633 781.758 478.1V465.1C781.758 463.033 781.358 461.333 780.558 460C779.791 458.667 778.724 457.667 777.358 457C776.024 456.333 774.508 456 772.808 456C771.174 456 769.691 456.317 768.358 456.95C767.058 457.583 766.024 458.45 765.258 459.55C764.491 460.65 764.108 461.9 764.108 463.3H761.358C761.424 461.2 761.991 459.333 763.058 457.7C764.124 456.033 765.541 454.733 767.308 453.8C769.074 452.833 771.041 452.35 773.208 452.35C775.574 452.35 777.691 452.85 779.558 453.85C781.424 454.817 782.891 456.25 783.958 458.15C785.058 460.05 785.608 462.367 785.608 465.1V478.1C785.608 478.633 785.424 479.083 785.058 479.45C784.691 479.817 784.241 480 783.708 480ZM762.208 480C761.608 480 761.124 479.833 760.758 479.5C760.424 479.133 760.258 478.667 760.258 478.1V454.6C760.258 454 760.424 453.533 760.758 453.2C761.124 452.833 761.608 452.65 762.208 452.65C762.774 452.65 763.224 452.833 763.558 453.2C763.924 453.533 764.108 454 764.108 454.6V478.1C764.108 478.667 763.924 479.133 763.558 479.5C763.224 479.833 762.774 480 762.208 480ZM805.546 480.25C802.912 480.25 800.562 479.65 798.496 478.45C796.462 477.217 794.846 475.55 793.646 473.45C792.479 471.35 791.896 468.983 791.896 466.35C791.896 463.683 792.462 461.3 793.596 459.2C794.729 457.1 796.279 455.45 798.246 454.25C800.212 453.017 802.479 452.4 805.046 452.4C807.079 452.4 808.946 452.8 810.646 453.6C812.379 454.4 813.896 455.6 815.196 457.2C815.562 457.6 815.696 458.033 815.596 458.5C815.496 458.933 815.212 459.317 814.746 459.65C814.379 459.917 813.962 460.017 813.496 459.95C813.062 459.85 812.679 459.6 812.346 459.2C810.412 457 807.979 455.9 805.046 455.9C803.179 455.9 801.529 456.35 800.096 457.25C798.696 458.15 797.596 459.383 796.796 460.95C796.029 462.517 795.646 464.317 795.646 466.35C795.646 468.35 796.062 470.133 796.896 471.7C797.729 473.267 798.896 474.5 800.396 475.4C801.896 476.3 803.612 476.75 805.546 476.75C806.846 476.75 808.029 476.583 809.096 476.25C810.196 475.883 811.162 475.333 811.996 474.6C812.396 474.267 812.812 474.083 813.246 474.05C813.679 474.017 814.079 474.15 814.446 474.45C814.846 474.817 815.062 475.233 815.096 475.7C815.162 476.167 815.012 476.567 814.646 476.9C812.212 479.133 809.179 480.25 805.546 480.25ZM834.831 480.25C832.164 480.25 829.781 479.65 827.681 478.45C825.581 477.25 823.931 475.6 822.731 473.5C821.531 471.4 820.931 469.017 820.931 466.35C820.931 463.65 821.531 461.25 822.731 459.15C823.931 457.05 825.581 455.4 827.681 454.2C829.781 453 832.164 452.4 834.831 452.4C837.498 452.4 839.864 453 841.931 454.2C844.031 455.4 845.681 457.05 846.881 459.15C848.081 461.25 848.698 463.65 848.731 466.35C848.731 469.017 848.114 471.4 846.881 473.5C845.681 475.6 844.031 477.25 841.931 478.45C839.864 479.65 837.498 480.25 834.831 480.25ZM834.831 476.75C836.764 476.75 838.498 476.3 840.031 475.4C841.564 474.5 842.764 473.267 843.631 471.7C844.498 470.133 844.931 468.35 844.931 466.35C844.931 464.35 844.498 462.567 843.631 461C842.764 459.4 841.564 458.15 840.031 457.25C838.498 456.35 836.764 455.9 834.831 455.9C832.898 455.9 831.164 456.35 829.631 457.25C828.098 458.15 826.881 459.4 825.981 461C825.114 462.567 824.681 464.35 824.681 466.35C824.681 468.35 825.114 470.133 825.981 471.7C826.881 473.267 828.098 474.5 829.631 475.4C831.164 476.3 832.898 476.75 834.831 476.75ZM857.069 463.15C857.169 461.083 857.702 459.233 858.669 457.6C859.669 455.967 860.952 454.683 862.519 453.75C864.119 452.817 865.885 452.35 867.819 452.35C869.352 452.35 870.535 452.567 871.369 453C872.202 453.433 872.519 454.067 872.319 454.9C872.185 455.4 871.952 455.733 871.619 455.9C871.319 456.067 870.935 456.133 870.469 456.1C870.035 456.067 869.535 456.033 868.969 456C867.102 455.833 865.435 456.033 863.969 456.6C862.535 457.133 861.385 457.967 860.519 459.1C859.685 460.233 859.269 461.583 859.269 463.15H857.069ZM857.369 480C856.769 480 856.302 479.833 855.969 479.5C855.635 479.167 855.469 478.7 855.469 478.1V454.55C855.469 453.95 855.635 453.483 855.969 453.15C856.302 452.817 856.769 452.65 857.369 452.65C857.969 452.65 858.435 452.817 858.769 453.15C859.102 453.483 859.269 453.95 859.269 454.55V478.1C859.269 478.7 859.102 479.167 858.769 479.5C858.435 479.833 857.969 480 857.369 480ZM879.219 463.15C879.319 461.083 879.852 459.233 880.819 457.6C881.819 455.967 883.102 454.683 884.669 453.75C886.269 452.817 888.036 452.35 889.969 452.35C891.502 452.35 892.686 452.567 893.519 453C894.352 453.433 894.669 454.067 894.469 454.9C894.336 455.4 894.102 455.733 893.769 455.9C893.469 456.067 893.086 456.133 892.619 456.1C892.186 456.067 891.686 456.033 891.119 456C889.252 455.833 887.586 456.033 886.119 456.6C884.686 457.133 883.536 457.967 882.669 459.1C881.836 460.233 881.419 461.583 881.419 463.15H879.219ZM879.519 480C878.919 480 878.452 479.833 878.119 479.5C877.786 479.167 877.619 478.7 877.619 478.1V454.55C877.619 453.95 877.786 453.483 878.119 453.15C878.452 452.817 878.919 452.65 879.519 452.65C880.119 452.65 880.586 452.817 880.919 453.15C881.252 453.483 881.419 453.95 881.419 454.55V478.1C881.419 478.7 881.252 479.167 880.919 479.5C880.586 479.833 880.119 480 879.519 480ZM910.168 480.25C907.468 480.25 905.068 479.667 902.968 478.5C900.901 477.3 899.268 475.65 898.068 473.55C896.901 471.45 896.318 469.05 896.318 466.35C896.318 463.617 896.868 461.217 897.968 459.15C899.101 457.05 900.651 455.4 902.618 454.2C904.584 453 906.851 452.4 909.418 452.4C911.951 452.4 914.151 452.983 916.018 454.15C917.918 455.283 919.384 456.867 920.418 458.9C921.451 460.933 921.968 463.25 921.968 465.85C921.968 466.383 921.801 466.817 921.468 467.15C921.134 467.45 920.701 467.6 920.168 467.6H898.918V464.4H920.568L918.418 465.95C918.451 464.017 918.101 462.283 917.368 460.75C916.634 459.217 915.584 458.017 914.218 457.15C912.884 456.283 911.284 455.85 909.418 455.85C907.518 455.85 905.851 456.3 904.418 457.2C902.984 458.1 901.868 459.35 901.068 460.95C900.301 462.517 899.918 464.317 899.918 466.35C899.918 468.383 900.351 470.183 901.218 471.75C902.118 473.317 903.334 474.55 904.868 475.45C906.401 476.35 908.168 476.8 910.168 476.8C911.368 476.8 912.568 476.6 913.768 476.2C915.001 475.767 915.984 475.233 916.718 474.6C917.084 474.3 917.501 474.15 917.968 474.15C918.434 474.117 918.834 474.233 919.168 474.5C919.601 474.9 919.818 475.333 919.818 475.8C919.851 476.267 919.668 476.667 919.268 477C918.168 477.933 916.768 478.717 915.068 479.35C913.368 479.95 911.734 480.25 910.168 480.25ZM938.954 480.25C936.321 480.25 933.971 479.65 931.904 478.45C929.871 477.217 928.254 475.55 927.054 473.45C925.887 471.35 925.304 468.983 925.304 466.35C925.304 463.683 925.871 461.3 927.004 459.2C928.137 457.1 929.687 455.45 931.654 454.25C933.621 453.017 935.887 452.4 938.454 452.4C940.487 452.4 942.354 452.8 944.054 453.6C945.787 454.4 947.304 455.6 948.604 457.2C948.971 457.6 949.104 458.033 949.004 458.5C948.904 458.933 948.621 459.317 948.154 459.65C947.787 459.917 947.371 460.017 946.904 459.95C946.471 459.85 946.087 459.6 945.754 459.2C943.821 457 941.387 455.9 938.454 455.9C936.587 455.9 934.937 456.35 933.504 457.25C932.104 458.15 931.004 459.383 930.204 460.95C929.437 462.517 929.054 464.317 929.054 466.35C929.054 468.35 929.471 470.133 930.304 471.7C931.137 473.267 932.304 474.5 933.804 475.4C935.304 476.3 937.021 476.75 938.954 476.75C940.254 476.75 941.437 476.583 942.504 476.25C943.604 475.883 944.571 475.333 945.404 474.6C945.804 474.267 946.221 474.083 946.654 474.05C947.087 474.017 947.487 474.15 947.854 474.45C948.254 474.817 948.471 475.233 948.504 475.7C948.571 476.167 948.421 476.567 948.054 476.9C945.621 479.133 942.587 480.25 938.954 480.25ZM966.489 480C964.722 480 963.139 479.583 961.739 478.75C960.372 477.917 959.289 476.783 958.489 475.35C957.689 473.883 957.289 472.217 957.289 470.35V445.9C957.289 445.333 957.456 444.867 957.789 444.5C958.156 444.133 958.622 443.95 959.189 443.95C959.756 443.95 960.222 444.133 960.589 444.5C960.956 444.867 961.139 445.333 961.139 445.9V470.35C961.139 472.05 961.639 473.45 962.639 474.55C963.639 475.617 964.922 476.15 966.489 476.15H967.839C968.372 476.15 968.806 476.333 969.139 476.7C969.472 477.067 969.639 477.533 969.639 478.1C969.639 478.667 969.439 479.133 969.039 479.5C968.639 479.833 968.139 480 967.539 480H966.489ZM954.039 457C953.539 457 953.122 456.85 952.789 456.55C952.456 456.217 952.289 455.817 952.289 455.35C952.289 454.85 952.456 454.45 952.789 454.15C953.122 453.817 953.539 453.65 954.039 453.65H966.789C967.289 453.65 967.706 453.817 968.039 454.15C968.372 454.45 968.539 454.85 968.539 455.35C968.539 455.817 968.372 456.217 968.039 456.55C967.706 456.85 967.289 457 966.789 457H954.039ZM976.056 471.15C975.523 471.15 975.056 470.967 974.656 470.6C974.29 470.2 974.106 469.733 974.106 469.2V442.9C974.106 442.333 974.29 441.867 974.656 441.5C975.056 441.1 975.523 440.9 976.056 440.9C976.623 440.9 977.09 441.1 977.456 441.5C977.823 441.867 978.006 442.333 978.006 442.9V469.2C978.006 469.733 977.806 470.2 977.406 470.6C977.006 470.967 976.556 471.15 976.056 471.15ZM976.056 480C975.256 480 974.573 479.717 974.006 479.15C973.44 478.583 973.156 477.9 973.156 477.1C973.156 476.267 973.44 475.567 974.006 475C974.573 474.433 975.256 474.15 976.056 474.15C976.856 474.15 977.54 474.45 978.106 475.05C978.673 475.617 978.956 476.3 978.956 477.1C978.956 477.9 978.673 478.583 978.106 479.15C977.54 479.717 976.856 480 976.056 480ZM1004.04 480C1003.47 480 1003 479.817 1002.64 479.45C1002.27 479.083 1002.09 478.617 1002.09 478.05V442.9C1002.09 442.333 1002.27 441.867 1002.64 441.5C1003 441.133 1003.47 440.95 1004.04 440.95H1014.04C1016.5 440.95 1018.69 441.5 1020.59 442.6C1022.49 443.667 1023.97 445.15 1025.04 447.05C1026.1 448.95 1026.64 451.15 1026.64 453.65C1026.64 456.083 1026.1 458.25 1025.04 460.15C1023.97 462.017 1022.49 463.5 1020.59 464.6C1018.69 465.667 1016.5 466.2 1014.04 466.2H1005.99V478.05C1005.99 478.617 1005.8 479.083 1005.44 479.45C1005.07 479.817 1004.6 480 1004.04 480ZM1005.99 462.45H1014.04C1015.74 462.45 1017.25 462.083 1018.59 461.35C1019.92 460.583 1020.95 459.533 1021.69 458.2C1022.45 456.867 1022.84 455.35 1022.84 453.65C1022.84 451.883 1022.45 450.333 1021.69 449C1020.95 447.667 1019.92 446.617 1018.59 445.85C1017.25 445.083 1015.74 444.7 1014.04 444.7H1005.99V462.45ZM1037.35 480C1036.02 480 1034.82 479.633 1033.75 478.9C1032.72 478.167 1031.9 477.15 1031.3 475.85C1030.73 474.55 1030.45 473.05 1030.45 471.35V442.85C1030.45 442.283 1030.62 441.833 1030.95 441.5C1031.32 441.133 1031.78 440.95 1032.35 440.95C1032.92 440.95 1033.37 441.133 1033.7 441.5C1034.07 441.833 1034.25 442.283 1034.25 442.85V471.35C1034.25 472.783 1034.53 473.95 1035.1 474.85C1035.7 475.75 1036.45 476.2 1037.35 476.2H1038.6C1039.1 476.2 1039.5 476.383 1039.8 476.75C1040.1 477.083 1040.25 477.533 1040.25 478.1C1040.25 478.667 1040.03 479.133 1039.6 479.5C1039.2 479.833 1038.67 480 1038 480H1037.35ZM1055.7 480.25C1053 480.25 1050.6 479.667 1048.5 478.5C1046.43 477.3 1044.8 475.65 1043.6 473.55C1042.43 471.45 1041.85 469.05 1041.85 466.35C1041.85 463.617 1042.4 461.217 1043.5 459.15C1044.63 457.05 1046.18 455.4 1048.15 454.2C1050.12 453 1052.38 452.4 1054.95 452.4C1057.48 452.4 1059.68 452.983 1061.55 454.15C1063.45 455.283 1064.92 456.867 1065.95 458.9C1066.98 460.933 1067.5 463.25 1067.5 465.85C1067.5 466.383 1067.33 466.817 1067 467.15C1066.67 467.45 1066.23 467.6 1065.7 467.6H1044.45V464.4H1066.1L1063.95 465.95C1063.98 464.017 1063.63 462.283 1062.9 460.75C1062.17 459.217 1061.12 458.017 1059.75 457.15C1058.42 456.283 1056.82 455.85 1054.95 455.85C1053.05 455.85 1051.38 456.3 1049.95 457.2C1048.52 458.1 1047.4 459.35 1046.6 460.95C1045.83 462.517 1045.45 464.317 1045.45 466.35C1045.45 468.383 1045.88 470.183 1046.75 471.75C1047.65 473.317 1048.87 474.55 1050.4 475.45C1051.93 476.35 1053.7 476.8 1055.7 476.8C1056.9 476.8 1058.1 476.6 1059.3 476.2C1060.53 475.767 1061.52 475.233 1062.25 474.6C1062.62 474.3 1063.03 474.15 1063.5 474.15C1063.97 474.117 1064.37 474.233 1064.7 474.5C1065.13 474.9 1065.35 475.333 1065.35 475.8C1065.38 476.267 1065.2 476.667 1064.8 477C1063.7 477.933 1062.3 478.717 1060.6 479.35C1058.9 479.95 1057.27 480.25 1055.7 480.25ZM1084.34 480.25C1081.77 480.25 1079.47 479.65 1077.44 478.45C1075.4 477.217 1073.79 475.55 1072.59 473.45C1071.42 471.35 1070.84 468.983 1070.84 466.35C1070.84 463.683 1071.44 461.3 1072.64 459.2C1073.87 457.1 1075.54 455.45 1077.64 454.25C1079.74 453.017 1082.1 452.4 1084.74 452.4C1087.37 452.4 1089.72 453.017 1091.79 454.25C1093.89 455.45 1095.54 457.1 1096.74 459.2C1097.97 461.3 1098.6 463.683 1098.64 466.35L1097.09 467.55C1097.09 469.95 1096.52 472.117 1095.39 474.05C1094.29 475.95 1092.77 477.467 1090.84 478.6C1088.94 479.7 1086.77 480.25 1084.34 480.25ZM1084.74 476.75C1086.67 476.75 1088.39 476.3 1089.89 475.4C1091.42 474.5 1092.62 473.267 1093.49 471.7C1094.39 470.1 1094.84 468.317 1094.84 466.35C1094.84 464.35 1094.39 462.567 1093.49 461C1092.62 459.433 1091.42 458.2 1089.89 457.3C1088.39 456.367 1086.67 455.9 1084.74 455.9C1082.84 455.9 1081.12 456.367 1079.59 457.3C1078.05 458.2 1076.84 459.433 1075.94 461C1075.04 462.567 1074.59 464.35 1074.59 466.35C1074.59 468.317 1075.04 470.1 1075.94 471.7C1076.84 473.267 1078.05 474.5 1079.59 475.4C1081.12 476.3 1082.84 476.75 1084.74 476.75ZM1096.69 480C1096.12 480 1095.65 479.833 1095.29 479.5C1094.92 479.133 1094.74 478.667 1094.74 478.1V469.55L1095.69 465.6L1098.64 466.35V478.1C1098.64 478.667 1098.45 479.133 1098.09 479.5C1097.72 479.833 1097.25 480 1096.69 480ZM1114.92 480.25C1112.96 480.25 1111.01 479.917 1109.07 479.25C1107.14 478.583 1105.57 477.583 1104.37 476.25C1104.01 475.85 1103.86 475.4 1103.92 474.9C1103.99 474.4 1104.24 473.967 1104.67 473.6C1105.14 473.267 1105.62 473.133 1106.12 473.2C1106.62 473.267 1107.04 473.483 1107.37 473.85C1108.17 474.783 1109.22 475.5 1110.52 476C1111.86 476.5 1113.32 476.75 1114.92 476.75C1117.39 476.75 1119.17 476.333 1120.27 475.5C1121.37 474.633 1121.94 473.6 1121.97 472.4C1121.97 471.2 1121.41 470.217 1120.27 469.45C1119.14 468.65 1117.27 468.033 1114.67 467.6C1111.31 467.067 1108.84 466.133 1107.27 464.8C1105.71 463.467 1104.92 461.883 1104.92 460.05C1104.92 458.35 1105.37 456.933 1106.27 455.8C1107.17 454.667 1108.37 453.817 1109.87 453.25C1111.37 452.683 1113.02 452.4 1114.82 452.4C1117.06 452.4 1118.97 452.783 1120.57 453.55C1122.21 454.317 1123.52 455.35 1124.52 456.65C1124.86 457.083 1124.99 457.533 1124.92 458C1124.86 458.467 1124.59 458.85 1124.12 459.15C1123.72 459.383 1123.26 459.467 1122.72 459.4C1122.22 459.3 1121.79 459.05 1121.42 458.65C1120.59 457.683 1119.62 456.983 1118.52 456.55C1117.42 456.083 1116.16 455.85 1114.72 455.85C1112.89 455.85 1111.42 456.233 1110.32 457C1109.22 457.733 1108.67 458.667 1108.67 459.8C1108.67 460.567 1108.87 461.233 1109.27 461.8C1109.71 462.367 1110.42 462.867 1111.42 463.3C1112.46 463.733 1113.89 464.1 1115.72 464.4C1118.22 464.8 1120.19 465.4 1121.62 466.2C1123.09 466.967 1124.12 467.883 1124.72 468.95C1125.36 469.983 1125.67 471.117 1125.67 472.35C1125.67 473.917 1125.21 475.3 1124.27 476.5C1123.37 477.667 1122.11 478.583 1120.47 479.25C1118.87 479.917 1117.02 480.25 1114.92 480.25ZM1143.98 480.25C1141.28 480.25 1138.88 479.667 1136.78 478.5C1134.71 477.3 1133.08 475.65 1131.88 473.55C1130.71 471.45 1130.13 469.05 1130.13 466.35C1130.13 463.617 1130.68 461.217 1131.78 459.15C1132.91 457.05 1134.46 455.4 1136.43 454.2C1138.39 453 1140.66 452.4 1143.23 452.4C1145.76 452.4 1147.96 452.983 1149.83 454.15C1151.73 455.283 1153.19 456.867 1154.23 458.9C1155.26 460.933 1155.78 463.25 1155.78 465.85C1155.78 466.383 1155.61 466.817 1155.28 467.15C1154.94 467.45 1154.51 467.6 1153.98 467.6H1132.73V464.4H1154.38L1152.23 465.95C1152.26 464.017 1151.91 462.283 1151.18 460.75C1150.44 459.217 1149.39 458.017 1148.03 457.15C1146.69 456.283 1145.09 455.85 1143.23 455.85C1141.33 455.85 1139.66 456.3 1138.23 457.2C1136.79 458.1 1135.68 459.35 1134.88 460.95C1134.11 462.517 1133.73 464.317 1133.73 466.35C1133.73 468.383 1134.16 470.183 1135.03 471.75C1135.93 473.317 1137.14 474.55 1138.68 475.45C1140.21 476.35 1141.98 476.8 1143.98 476.8C1145.18 476.8 1146.38 476.6 1147.58 476.2C1148.81 475.767 1149.79 475.233 1150.53 474.6C1150.89 474.3 1151.31 474.15 1151.78 474.15C1152.24 474.117 1152.64 474.233 1152.98 474.5C1153.41 474.9 1153.63 475.333 1153.63 475.8C1153.66 476.267 1153.48 476.667 1153.08 477C1151.98 477.933 1150.58 478.717 1148.88 479.35C1147.18 479.95 1145.54 480.25 1143.98 480.25ZM1186.14 480C1184.37 480 1182.79 479.583 1181.39 478.75C1180.02 477.917 1178.94 476.783 1178.14 475.35C1177.34 473.883 1176.94 472.217 1176.94 470.35V445.9C1176.94 445.333 1177.1 444.867 1177.44 444.5C1177.8 444.133 1178.27 443.95 1178.84 443.95C1179.4 443.95 1179.87 444.133 1180.24 444.5C1180.6 444.867 1180.79 445.333 1180.79 445.9V470.35C1180.79 472.05 1181.29 473.45 1182.29 474.55C1183.29 475.617 1184.57 476.15 1186.14 476.15H1187.49C1188.02 476.15 1188.45 476.333 1188.79 476.7C1189.12 477.067 1189.29 477.533 1189.29 478.1C1189.29 478.667 1189.09 479.133 1188.69 479.5C1188.29 479.833 1187.79 480 1187.19 480H1186.14ZM1173.69 457C1173.19 457 1172.77 456.85 1172.44 456.55C1172.1 456.217 1171.94 455.817 1171.94 455.35C1171.94 454.85 1172.1 454.45 1172.44 454.15C1172.77 453.817 1173.19 453.65 1173.69 453.65H1186.44C1186.94 453.65 1187.35 453.817 1187.69 454.15C1188.02 454.45 1188.19 454.85 1188.19 455.35C1188.19 455.817 1188.02 456.217 1187.69 456.55C1187.35 456.85 1186.94 457 1186.44 457H1173.69ZM1196.4 463.15C1196.5 461.083 1197.04 459.233 1198 457.6C1199 455.967 1200.29 454.683 1201.85 453.75C1203.45 452.817 1205.22 452.35 1207.15 452.35C1208.69 452.35 1209.87 452.567 1210.7 453C1211.54 453.433 1211.85 454.067 1211.65 454.9C1211.52 455.4 1211.29 455.733 1210.95 455.9C1210.65 456.067 1210.27 456.133 1209.8 456.1C1209.37 456.067 1208.87 456.033 1208.3 456C1206.44 455.833 1204.77 456.033 1203.3 456.6C1201.87 457.133 1200.72 457.967 1199.85 459.1C1199.02 460.233 1198.6 461.583 1198.6 463.15H1196.4ZM1196.7 480C1196.1 480 1195.64 479.833 1195.3 479.5C1194.97 479.167 1194.8 478.7 1194.8 478.1V454.55C1194.8 453.95 1194.97 453.483 1195.3 453.15C1195.64 452.817 1196.1 452.65 1196.7 452.65C1197.3 452.65 1197.77 452.817 1198.1 453.15C1198.44 453.483 1198.6 453.95 1198.6 454.55V478.1C1198.6 478.7 1198.44 479.167 1198.1 479.5C1197.77 479.833 1197.3 480 1196.7 480ZM1221.66 491.9C1221.39 491.9 1221.09 491.833 1220.76 491.7C1219.62 491.2 1219.31 490.4 1219.81 489.3L1235.96 453.7C1236.46 452.633 1237.26 452.333 1238.36 452.8C1239.49 453.267 1239.81 454.05 1239.31 455.15L1223.11 490.75C1222.77 491.517 1222.29 491.9 1221.66 491.9ZM1227.21 479.15C1226.71 479.383 1226.24 479.433 1225.81 479.3C1225.37 479.133 1225.02 478.8 1224.76 478.3L1213.61 455.2C1213.37 454.7 1213.34 454.233 1213.51 453.8C1213.67 453.367 1214.01 453.033 1214.51 452.8C1215.01 452.567 1215.47 452.533 1215.91 452.7C1216.34 452.833 1216.67 453.15 1216.91 453.65L1227.86 476.75C1228.12 477.25 1228.21 477.717 1228.11 478.15C1228.01 478.583 1227.71 478.917 1227.21 479.15ZM1269.55 480.25C1266.98 480.25 1264.68 479.65 1262.65 478.45C1260.61 477.217 1259 475.55 1257.8 473.45C1256.63 471.35 1256.05 468.983 1256.05 466.35C1256.05 463.683 1256.65 461.3 1257.85 459.2C1259.08 457.1 1260.75 455.45 1262.85 454.25C1264.95 453.017 1267.31 452.4 1269.95 452.4C1272.58 452.4 1274.93 453.017 1277 454.25C1279.1 455.45 1280.75 457.1 1281.95 459.2C1283.18 461.3 1283.81 463.683 1283.85 466.35L1282.3 467.55C1282.3 469.95 1281.73 472.117 1280.6 474.05C1279.5 475.95 1277.98 477.467 1276.05 478.6C1274.15 479.7 1271.98 480.25 1269.55 480.25ZM1269.95 476.75C1271.88 476.75 1273.6 476.3 1275.1 475.4C1276.63 474.5 1277.83 473.267 1278.7 471.7C1279.6 470.1 1280.05 468.317 1280.05 466.35C1280.05 464.35 1279.6 462.567 1278.7 461C1277.83 459.433 1276.63 458.2 1275.1 457.3C1273.6 456.367 1271.88 455.9 1269.95 455.9C1268.05 455.9 1266.33 456.367 1264.8 457.3C1263.26 458.2 1262.05 459.433 1261.15 461C1260.25 462.567 1259.8 464.35 1259.8 466.35C1259.8 468.317 1260.25 470.1 1261.15 471.7C1262.05 473.267 1263.26 474.5 1264.8 475.4C1266.33 476.3 1268.05 476.75 1269.95 476.75ZM1281.9 480C1281.33 480 1280.86 479.833 1280.5 479.5C1280.13 479.133 1279.95 478.667 1279.95 478.1V469.55L1280.9 465.6L1283.85 466.35V478.1C1283.85 478.667 1283.66 479.133 1283.3 479.5C1282.93 479.833 1282.46 480 1281.9 480ZM1302.63 480.25C1300 480.25 1297.67 479.667 1295.63 478.5C1293.6 477.3 1292 475.65 1290.83 473.55C1289.7 471.45 1289.13 469.05 1289.13 466.35C1289.13 463.617 1289.73 461.2 1290.93 459.1C1292.13 457 1293.78 455.367 1295.88 454.2C1297.98 453 1300.37 452.4 1303.03 452.4C1305.73 452.4 1308.12 453 1310.18 454.2C1312.28 455.367 1313.92 457 1315.08 459.1C1316.28 461.2 1316.9 463.617 1316.93 466.35L1314.68 467.55C1314.68 470.017 1314.17 472.217 1313.13 474.15C1312.1 476.05 1310.67 477.55 1308.83 478.65C1307.03 479.717 1304.97 480.25 1302.63 480.25ZM1303.13 490.8C1300.5 490.8 1298.18 490.3 1296.18 489.3C1294.18 488.333 1292.53 487 1291.23 485.3C1290.87 484.9 1290.7 484.467 1290.73 484C1290.8 483.533 1291.05 483.15 1291.48 482.85C1291.92 482.55 1292.4 482.45 1292.93 482.55C1293.47 482.65 1293.88 482.9 1294.18 483.3C1295.15 484.5 1296.38 485.467 1297.88 486.2C1299.42 486.933 1301.18 487.3 1303.18 487.3C1305.05 487.3 1306.73 486.85 1308.23 485.95C1309.73 485.05 1310.92 483.783 1311.78 482.15C1312.68 480.517 1313.13 478.6 1313.13 476.4V468.8L1314.58 465.9L1316.93 466.35V476.55C1316.93 479.25 1316.33 481.667 1315.13 483.8C1313.93 485.967 1312.3 487.667 1310.23 488.9C1308.17 490.167 1305.8 490.8 1303.13 490.8ZM1303.03 476.75C1305 476.75 1306.73 476.317 1308.23 475.45C1309.77 474.55 1310.97 473.317 1311.83 471.75C1312.7 470.183 1313.13 468.383 1313.13 466.35C1313.13 464.317 1312.7 462.517 1311.83 460.95C1310.97 459.35 1309.77 458.117 1308.23 457.25C1306.73 456.35 1305 455.9 1303.03 455.9C1301.07 455.9 1299.32 456.35 1297.78 457.25C1296.25 458.117 1295.05 459.35 1294.18 460.95C1293.32 462.517 1292.88 464.317 1292.88 466.35C1292.88 468.383 1293.32 470.183 1294.18 471.75C1295.05 473.317 1296.25 474.55 1297.78 475.45C1299.32 476.317 1301.07 476.75 1303.03 476.75ZM1335.72 480.25C1333.16 480.25 1330.86 479.65 1328.82 478.45C1326.79 477.217 1325.17 475.55 1323.97 473.45C1322.81 471.35 1322.22 468.983 1322.22 466.35C1322.22 463.683 1322.82 461.3 1324.02 459.2C1325.26 457.1 1326.92 455.45 1329.02 454.25C1331.12 453.017 1333.49 452.4 1336.12 452.4C1338.76 452.4 1341.11 453.017 1343.17 454.25C1345.27 455.45 1346.92 457.1 1348.12 459.2C1349.36 461.3 1349.99 463.683 1350.02 466.35L1348.47 467.55C1348.47 469.95 1347.91 472.117 1346.77 474.05C1345.67 475.95 1344.16 477.467 1342.22 478.6C1340.32 479.7 1338.16 480.25 1335.72 480.25ZM1336.12 476.75C1338.06 476.75 1339.77 476.3 1341.27 475.4C1342.81 474.5 1344.01 473.267 1344.87 471.7C1345.77 470.1 1346.22 468.317 1346.22 466.35C1346.22 464.35 1345.77 462.567 1344.87 461C1344.01 459.433 1342.81 458.2 1341.27 457.3C1339.77 456.367 1338.06 455.9 1336.12 455.9C1334.22 455.9 1332.51 456.367 1330.97 457.3C1329.44 458.2 1328.22 459.433 1327.32 461C1326.42 462.567 1325.97 464.35 1325.97 466.35C1325.97 468.317 1326.42 470.1 1327.32 471.7C1328.22 473.267 1329.44 474.5 1330.97 475.4C1332.51 476.3 1334.22 476.75 1336.12 476.75ZM1348.07 480C1347.51 480 1347.04 479.833 1346.67 479.5C1346.31 479.133 1346.12 478.667 1346.12 478.1V469.55L1347.07 465.6L1350.02 466.35V478.1C1350.02 478.667 1349.84 479.133 1349.47 479.5C1349.11 479.833 1348.64 480 1348.07 480ZM1359.51 480C1358.91 480 1358.43 479.833 1358.06 479.5C1357.73 479.133 1357.56 478.65 1357.56 478.05V454.6C1357.56 454 1357.73 453.533 1358.06 453.2C1358.43 452.833 1358.91 452.65 1359.51 452.65C1360.08 452.65 1360.53 452.833 1360.86 453.2C1361.23 453.533 1361.41 454 1361.41 454.6V478.05C1361.41 478.65 1361.23 479.133 1360.86 479.5C1360.53 479.833 1360.08 480 1359.51 480ZM1359.46 447.45C1358.73 447.45 1358.09 447.183 1357.56 446.65C1357.03 446.117 1356.76 445.467 1356.76 444.7C1356.76 443.867 1357.03 443.217 1357.56 442.75C1358.13 442.25 1358.78 442 1359.51 442C1360.21 442 1360.83 442.25 1361.36 442.75C1361.93 443.217 1362.21 443.867 1362.21 444.7C1362.21 445.467 1361.94 446.117 1361.41 446.65C1360.88 447.183 1360.23 447.45 1359.46 447.45ZM1393.91 480C1393.35 480 1392.88 479.817 1392.51 479.45C1392.15 479.083 1391.96 478.633 1391.96 478.1V465.1C1391.96 463.033 1391.56 461.333 1390.76 460C1390 458.667 1388.93 457.667 1387.56 457C1386.23 456.333 1384.71 456 1383.01 456C1381.38 456 1379.9 456.317 1378.56 456.95C1377.26 457.583 1376.23 458.45 1375.46 459.55C1374.7 460.65 1374.31 461.9 1374.31 463.3H1371.56C1371.63 461.2 1372.2 459.333 1373.26 457.7C1374.33 456.033 1375.75 454.733 1377.51 453.8C1379.28 452.833 1381.25 452.35 1383.41 452.35C1385.78 452.35 1387.9 452.85 1389.76 453.85C1391.63 454.817 1393.1 456.25 1394.16 458.15C1395.26 460.05 1395.81 462.367 1395.81 465.1V478.1C1395.81 478.633 1395.63 479.083 1395.26 479.45C1394.9 479.817 1394.45 480 1393.91 480ZM1372.41 480C1371.81 480 1371.33 479.833 1370.96 479.5C1370.63 479.133 1370.46 478.667 1370.46 478.1V454.6C1370.46 454 1370.63 453.533 1370.96 453.2C1371.33 452.833 1371.81 452.65 1372.41 452.65C1372.98 452.65 1373.43 452.833 1373.76 453.2C1374.13 453.533 1374.31 454 1374.31 454.6V478.1C1374.31 478.667 1374.13 479.133 1373.76 479.5C1373.43 479.833 1372.98 480 1372.41 480ZM1404.45 480.8C1403.65 480.8 1402.97 480.517 1402.4 479.95C1401.83 479.383 1401.55 478.7 1401.55 477.9C1401.55 477.067 1401.83 476.367 1402.4 475.8C1403 475.233 1403.68 474.95 1404.45 474.95C1405.25 474.95 1405.93 475.25 1406.5 475.85C1407.07 476.417 1407.35 477.1 1407.35 477.9C1407.35 478.667 1407.07 479.35 1406.5 479.95C1405.97 480.517 1405.28 480.8 1404.45 480.8ZM400.848 592C400.282 592 399.815 591.817 399.448 591.45C399.082 591.083 398.898 590.617 398.898 590.05V554.9C398.898 554.333 399.082 553.867 399.448 553.5C399.815 553.133 400.282 552.95 400.848 552.95C401.448 552.95 401.948 553.183 402.348 553.65L426.248 585.05V554.9C426.248 554.333 426.432 553.867 426.798 553.5C427.165 553.133 427.632 552.95 428.198 552.95C428.732 552.95 429.182 553.133 429.548 553.5C429.948 553.867 430.148 554.333 430.148 554.9V590.05C430.148 590.617 429.948 591.083 429.548 591.45C429.182 591.817 428.732 592 428.198 592C427.932 592 427.665 591.95 427.398 591.85C427.132 591.75 426.915 591.583 426.748 591.35L402.798 559.95V590.05C402.798 590.617 402.598 591.083 402.198 591.45C401.832 591.817 401.382 592 400.848 592ZM451.308 592.25C448.608 592.25 446.208 591.667 444.108 590.5C442.042 589.3 440.408 587.65 439.208 585.55C438.042 583.45 437.458 581.05 437.458 578.35C437.458 575.617 438.008 573.217 439.108 571.15C440.242 569.05 441.792 567.4 443.758 566.2C445.725 565 447.992 564.4 450.558 564.4C453.092 564.4 455.292 564.983 457.158 566.15C459.058 567.283 460.525 568.867 461.558 570.9C462.592 572.933 463.108 575.25 463.108 577.85C463.108 578.383 462.942 578.817 462.608 579.15C462.275 579.45 461.842 579.6 461.308 579.6H440.058V576.4H461.708L459.558 577.95C459.592 576.017 459.242 574.283 458.508 572.75C457.775 571.217 456.725 570.017 455.358 569.15C454.025 568.283 452.425 567.85 450.558 567.85C448.658 567.85 446.992 568.3 445.558 569.2C444.125 570.1 443.008 571.35 442.208 572.95C441.442 574.517 441.058 576.317 441.058 578.35C441.058 580.383 441.492 582.183 442.358 583.75C443.258 585.317 444.475 586.55 446.008 587.45C447.542 588.35 449.308 588.8 451.308 588.8C452.508 588.8 453.708 588.6 454.908 588.2C456.142 587.767 457.125 587.233 457.858 586.6C458.225 586.3 458.642 586.15 459.108 586.15C459.575 586.117 459.975 586.233 460.308 586.5C460.742 586.9 460.958 587.333 460.958 587.8C460.992 588.267 460.808 588.667 460.408 589C459.308 589.933 457.908 590.717 456.208 591.35C454.508 591.95 452.875 592.25 451.308 592.25ZM486.457 592C486.057 592 485.724 591.933 485.457 591.8C485.224 591.667 484.974 591.433 484.707 591.1L476.057 580.1L474.557 578.8L465.857 567.75C465.491 567.317 465.307 566.867 465.307 566.4C465.341 565.933 465.507 565.533 465.807 565.2C466.107 564.833 466.541 564.65 467.107 564.65C467.674 564.65 468.157 564.85 468.557 565.25L476.957 576L478.307 577.1L487.607 589C488.041 589.533 488.224 590.033 488.157 590.5C488.091 590.967 487.874 591.333 487.507 591.6C487.174 591.867 486.824 592 486.457 592ZM466.657 592C466.124 592 465.691 591.833 465.357 591.5C465.057 591.167 464.891 590.767 464.857 590.3C464.857 589.833 465.041 589.383 465.407 588.95L474.607 577.45L476.757 580.3L468.007 591.4C467.707 591.8 467.257 592 466.657 592ZM478.357 579L475.907 576.5L484.557 565.55C484.791 565.217 485.041 564.983 485.307 564.85C485.607 564.717 485.907 564.65 486.207 564.65C486.774 564.65 487.207 564.833 487.507 565.2C487.807 565.533 487.941 565.95 487.907 566.45C487.907 566.917 487.741 567.367 487.407 567.8L478.357 579ZM504.7 592C502.933 592 501.35 591.583 499.95 590.75C498.583 589.917 497.5 588.783 496.7 587.35C495.9 585.883 495.5 584.217 495.5 582.35V557.9C495.5 557.333 495.667 556.867 496 556.5C496.367 556.133 496.833 555.95 497.4 555.95C497.967 555.95 498.433 556.133 498.8 556.5C499.167 556.867 499.35 557.333 499.35 557.9V582.35C499.35 584.05 499.85 585.45 500.85 586.55C501.85 587.617 503.133 588.15 504.7 588.15H506.05C506.583 588.15 507.017 588.333 507.35 588.7C507.683 589.067 507.85 589.533 507.85 590.1C507.85 590.667 507.65 591.133 507.25 591.5C506.85 591.833 506.35 592 505.75 592H504.7ZM492.25 569C491.75 569 491.333 568.85 491 568.55C490.667 568.217 490.5 567.817 490.5 567.35C490.5 566.85 490.667 566.45 491 566.15C491.333 565.817 491.75 565.65 492.25 565.65H505C505.5 565.65 505.917 565.817 506.25 566.15C506.583 566.45 506.75 566.85 506.75 567.35C506.75 567.817 506.583 568.217 506.25 568.55C505.917 568.85 505.5 569 505 569H492.25ZM543.316 592.8C540.282 592.8 537.582 592.217 535.216 591.05C532.882 589.883 531.049 588.267 529.716 586.2C528.416 584.133 527.766 581.767 527.766 579.1V554.9C527.766 554.333 527.949 553.867 528.316 553.5C528.682 553.133 529.149 552.95 529.716 552.95C530.282 552.95 530.749 553.133 531.116 553.5C531.482 553.867 531.666 554.333 531.666 554.9V579.1C531.666 581.067 532.149 582.8 533.116 584.3C534.116 585.8 535.499 586.983 537.266 587.85C539.032 588.683 541.049 589.1 543.316 589.1C545.549 589.1 547.532 588.683 549.266 587.85C550.999 586.983 552.349 585.8 553.316 584.3C554.316 582.8 554.816 581.067 554.816 579.1V554.9C554.816 554.333 554.999 553.867 555.366 553.5C555.732 553.133 556.199 552.95 556.766 552.95C557.366 552.95 557.832 553.133 558.166 553.5C558.532 553.867 558.716 554.333 558.716 554.9V579.1C558.716 581.767 558.049 584.133 556.716 586.2C555.416 588.267 553.599 589.883 551.266 591.05C548.966 592.217 546.316 592.8 543.316 592.8ZM590.932 592C590.366 592 589.899 591.817 589.532 591.45C589.166 591.083 588.982 590.633 588.982 590.1V577.1C588.982 575.033 588.582 573.333 587.782 572C587.016 570.667 585.949 569.667 584.582 569C583.249 568.333 581.732 568 580.032 568C578.399 568 576.916 568.317 575.582 568.95C574.282 569.583 573.249 570.45 572.482 571.55C571.716 572.65 571.332 573.9 571.332 575.3H568.582C568.649 573.2 569.216 571.333 570.282 569.7C571.349 568.033 572.766 566.733 574.532 565.8C576.299 564.833 578.266 564.35 580.432 564.35C582.799 564.35 584.916 564.85 586.782 565.85C588.649 566.817 590.116 568.25 591.182 570.15C592.282 572.05 592.832 574.367 592.832 577.1V590.1C592.832 590.633 592.649 591.083 592.282 591.45C591.916 591.817 591.466 592 590.932 592ZM569.432 592C568.832 592 568.349 591.833 567.982 591.5C567.649 591.133 567.482 590.667 567.482 590.1V566.6C567.482 566 567.649 565.533 567.982 565.2C568.349 564.833 568.832 564.65 569.432 564.65C569.999 564.65 570.449 564.833 570.782 565.2C571.149 565.533 571.332 566 571.332 566.6V590.1C571.332 590.667 571.149 591.133 570.782 591.5C570.449 591.833 569.999 592 569.432 592ZM606.47 592C605.137 592 603.937 591.633 602.87 590.9C601.837 590.167 601.02 589.15 600.42 587.85C599.854 586.55 599.57 585.05 599.57 583.35V554.85C599.57 554.283 599.737 553.833 600.07 553.5C600.437 553.133 600.904 552.95 601.47 552.95C602.037 552.95 602.487 553.133 602.82 553.5C603.187 553.833 603.37 554.283 603.37 554.85V583.35C603.37 584.783 603.654 585.95 604.22 586.85C604.82 587.75 605.57 588.2 606.47 588.2H607.72C608.22 588.2 608.62 588.383 608.92 588.75C609.22 589.083 609.37 589.533 609.37 590.1C609.37 590.667 609.154 591.133 608.72 591.5C608.32 591.833 607.787 592 607.12 592H606.47ZM624.868 592.25C622.201 592.25 619.818 591.65 617.718 590.45C615.618 589.25 613.968 587.6 612.768 585.5C611.568 583.4 610.968 581.017 610.968 578.35C610.968 575.65 611.568 573.25 612.768 571.15C613.968 569.05 615.618 567.4 617.718 566.2C619.818 565 622.201 564.4 624.868 564.4C627.535 564.4 629.901 565 631.968 566.2C634.068 567.4 635.718 569.05 636.918 571.15C638.118 573.25 638.735 575.65 638.768 578.35C638.768 581.017 638.151 583.4 636.918 585.5C635.718 587.6 634.068 589.25 631.968 590.45C629.901 591.65 627.535 592.25 624.868 592.25ZM624.868 588.75C626.801 588.75 628.535 588.3 630.068 587.4C631.601 586.5 632.801 585.267 633.668 583.7C634.535 582.133 634.968 580.35 634.968 578.35C634.968 576.35 634.535 574.567 633.668 573C632.801 571.4 631.601 570.15 630.068 569.25C628.535 568.35 626.801 567.9 624.868 567.9C622.935 567.9 621.201 568.35 619.668 569.25C618.135 570.15 616.918 571.4 616.018 573C615.151 574.567 614.718 576.35 614.718 578.35C614.718 580.35 615.151 582.133 616.018 583.7C616.918 585.267 618.135 586.5 619.668 587.4C621.201 588.3 622.935 588.75 624.868 588.75ZM657.706 592.25C655.073 592.25 652.723 591.65 650.656 590.45C648.623 589.217 647.006 587.55 645.806 585.45C644.639 583.35 644.056 580.983 644.056 578.35C644.056 575.683 644.623 573.3 645.756 571.2C646.889 569.1 648.439 567.45 650.406 566.25C652.373 565.017 654.639 564.4 657.206 564.4C659.239 564.4 661.106 564.8 662.806 565.6C664.539 566.4 666.056 567.6 667.356 569.2C667.723 569.6 667.856 570.033 667.756 570.5C667.656 570.933 667.373 571.317 666.906 571.65C666.539 571.917 666.123 572.017 665.656 571.95C665.223 571.85 664.839 571.6 664.506 571.2C662.573 569 660.139 567.9 657.206 567.9C655.339 567.9 653.689 568.35 652.256 569.25C650.856 570.15 649.756 571.383 648.956 572.95C648.189 574.517 647.806 576.317 647.806 578.35C647.806 580.35 648.223 582.133 649.056 583.7C649.889 585.267 651.056 586.5 652.556 587.4C654.056 588.3 655.773 588.75 657.706 588.75C659.006 588.75 660.189 588.583 661.256 588.25C662.356 587.883 663.323 587.333 664.156 586.6C664.556 586.267 664.973 586.083 665.406 586.05C665.839 586.017 666.239 586.15 666.606 586.45C667.006 586.817 667.223 587.233 667.256 587.7C667.323 588.167 667.173 588.567 666.806 588.9C664.373 591.133 661.339 592.25 657.706 592.25ZM677.691 582.85L675.341 580.3L692.441 564.85C692.841 564.483 693.258 564.317 693.691 564.35C694.124 564.35 694.524 564.55 694.891 564.95C695.258 565.35 695.424 565.783 695.391 566.25C695.391 566.683 695.191 567.067 694.791 567.4L677.691 582.85ZM676.441 592C675.874 592 675.408 591.833 675.041 591.5C674.708 591.133 674.541 590.667 674.541 590.1V554.85C674.541 554.283 674.708 553.833 675.041 553.5C675.408 553.133 675.874 552.95 676.441 552.95C677.008 552.95 677.458 553.133 677.791 553.5C678.158 553.833 678.341 554.283 678.341 554.85V590.1C678.341 590.667 678.158 591.133 677.791 591.5C677.458 591.833 677.008 592 676.441 592ZM694.941 591.75C694.508 592.117 694.058 592.267 693.591 592.2C693.124 592.167 692.724 591.933 692.391 591.5L681.241 577.8L683.941 575.4L695.191 589.25C695.524 589.65 695.674 590.083 695.641 590.55C695.608 590.983 695.374 591.383 694.941 591.75ZM727.003 592C725.236 592 723.653 591.583 722.253 590.75C720.886 589.917 719.803 588.783 719.003 587.35C718.203 585.883 717.803 584.217 717.803 582.35V557.9C717.803 557.333 717.969 556.867 718.303 556.5C718.669 556.133 719.136 555.95 719.703 555.95C720.269 555.95 720.736 556.133 721.103 556.5C721.469 556.867 721.653 557.333 721.653 557.9V582.35C721.653 584.05 722.153 585.45 723.153 586.55C724.153 587.617 725.436 588.15 727.003 588.15H728.353C728.886 588.15 729.319 588.333 729.653 588.7C729.986 589.067 730.153 589.533 730.153 590.1C730.153 590.667 729.953 591.133 729.553 591.5C729.153 591.833 728.653 592 728.053 592H727.003ZM714.553 569C714.053 569 713.636 568.85 713.303 568.55C712.969 568.217 712.803 567.817 712.803 567.35C712.803 566.85 712.969 566.45 713.303 566.15C713.636 565.817 714.053 565.65 714.553 565.65H727.303C727.803 565.65 728.219 565.817 728.553 566.15C728.886 566.45 729.053 566.85 729.053 567.35C729.053 567.817 728.886 568.217 728.553 568.55C728.219 568.85 727.803 569 727.303 569H714.553ZM738.42 592C737.82 592 737.337 591.833 736.97 591.5C736.637 591.133 736.47 590.65 736.47 590.05V566.6C736.47 566 736.637 565.533 736.97 565.2C737.337 564.833 737.82 564.65 738.42 564.65C738.987 564.65 739.437 564.833 739.77 565.2C740.137 565.533 740.32 566 740.32 566.6V590.05C740.32 590.65 740.137 591.133 739.77 591.5C739.437 591.833 738.987 592 738.42 592ZM738.37 559.45C737.637 559.45 737.003 559.183 736.47 558.65C735.937 558.117 735.67 557.467 735.67 556.7C735.67 555.867 735.937 555.217 736.47 554.75C737.037 554.25 737.687 554 738.42 554C739.12 554 739.737 554.25 740.27 554.75C740.837 555.217 741.12 555.867 741.12 556.7C741.12 557.467 740.853 558.117 740.32 558.65C739.787 559.183 739.137 559.45 738.37 559.45ZM786.323 592C785.756 592 785.29 591.833 784.923 591.5C784.556 591.133 784.373 590.667 784.373 590.1V575.7C784.373 573.333 783.756 571.467 782.523 570.1C781.29 568.7 779.706 568 777.773 568C775.706 568 774.006 568.7 772.673 570.1C771.373 571.467 770.74 573.3 770.773 575.6H767.323C767.356 573.367 767.84 571.4 768.773 569.7C769.706 568 770.99 566.683 772.623 565.75C774.256 564.817 776.106 564.35 778.173 564.35C780.14 564.35 781.873 564.817 783.373 565.75C784.906 566.683 786.09 568 786.923 569.7C787.79 571.4 788.223 573.4 788.223 575.7V590.1C788.223 590.667 788.04 591.133 787.673 591.5C787.34 591.833 786.89 592 786.323 592ZM751.323 592C750.723 592 750.24 591.833 749.873 591.5C749.54 591.133 749.373 590.667 749.373 590.1V566.6C749.373 566.033 749.54 565.567 749.873 565.2C750.24 564.833 750.723 564.65 751.323 564.65C751.89 564.65 752.34 564.833 752.673 565.2C753.04 565.567 753.223 566.033 753.223 566.6V590.1C753.223 590.667 753.04 591.133 752.673 591.5C752.34 591.833 751.89 592 751.323 592ZM768.873 592C768.306 592 767.84 591.833 767.473 591.5C767.106 591.133 766.923 590.667 766.923 590.1V575.7C766.923 573.333 766.306 571.467 765.073 570.1C763.84 568.7 762.256 568 760.323 568C758.256 568 756.556 568.683 755.223 570.05C753.89 571.383 753.223 573.133 753.223 575.3H750.473C750.54 573.167 751.006 571.283 751.873 569.65C752.773 567.983 753.99 566.683 755.523 565.75C757.056 564.817 758.79 564.35 760.723 564.35C762.69 564.35 764.423 564.817 765.923 565.75C767.456 566.683 768.64 568 769.473 569.7C770.34 571.4 770.773 573.4 770.773 575.7V590.1C770.773 590.667 770.59 591.133 770.223 591.5C769.89 591.833 769.44 592 768.873 592ZM808.386 592.25C805.686 592.25 803.286 591.667 801.186 590.5C799.12 589.3 797.486 587.65 796.286 585.55C795.12 583.45 794.536 581.05 794.536 578.35C794.536 575.617 795.086 573.217 796.186 571.15C797.32 569.05 798.87 567.4 800.836 566.2C802.803 565 805.07 564.4 807.636 564.4C810.17 564.4 812.37 564.983 814.236 566.15C816.136 567.283 817.603 568.867 818.636 570.9C819.67 572.933 820.186 575.25 820.186 577.85C820.186 578.383 820.02 578.817 819.686 579.15C819.353 579.45 818.92 579.6 818.386 579.6H797.136V576.4H818.786L816.636 577.95C816.67 576.017 816.32 574.283 815.586 572.75C814.853 571.217 813.803 570.017 812.436 569.15C811.103 568.283 809.503 567.85 807.636 567.85C805.736 567.85 804.07 568.3 802.636 569.2C801.203 570.1 800.086 571.35 799.286 572.95C798.52 574.517 798.136 576.317 798.136 578.35C798.136 580.383 798.57 582.183 799.436 583.75C800.336 585.317 801.553 586.55 803.086 587.45C804.62 588.35 806.386 588.8 808.386 588.8C809.586 588.8 810.786 588.6 811.986 588.2C813.22 587.767 814.203 587.233 814.936 586.6C815.303 586.3 815.72 586.15 816.186 586.15C816.653 586.117 817.053 586.233 817.386 586.5C817.82 586.9 818.036 587.333 818.036 587.8C818.07 588.267 817.886 588.667 817.486 589C816.386 589.933 814.986 590.717 813.286 591.35C811.586 591.95 809.953 592.25 808.386 592.25ZM825.949 570.8C825.149 570.8 824.449 570.533 823.849 570C823.283 569.433 822.999 568.733 822.999 567.9C822.999 567.067 823.283 566.367 823.849 565.8C824.416 565.233 825.116 564.95 825.949 564.95C826.749 564.95 827.416 565.25 827.949 565.85C828.516 566.417 828.799 567.1 828.799 567.9C828.799 568.7 828.516 569.383 827.949 569.95C827.416 570.517 826.749 570.8 825.949 570.8ZM826.049 592.8C825.249 592.8 824.566 592.517 823.999 591.95C823.433 591.383 823.149 590.7 823.149 589.9C823.149 589.067 823.433 588.367 823.999 587.8C824.599 587.233 825.283 586.95 826.049 586.95C826.849 586.95 827.533 587.25 828.099 587.85C828.666 588.417 828.949 589.1 828.949 589.9C828.949 590.667 828.666 591.35 828.099 591.95C827.566 592.517 826.883 592.8 826.049 592.8ZM1112.85 592C1112.31 592 1111.85 591.817 1111.45 591.45C1111.08 591.05 1110.9 590.583 1110.9 590.05V552.95H1114.8V590.05C1114.8 590.583 1114.61 591.05 1114.25 591.45C1113.88 591.817 1113.41 592 1112.85 592ZM1099.05 556.5C1098.51 556.5 1098.08 556.333 1097.75 556C1097.41 555.667 1097.25 555.25 1097.25 554.75C1097.25 554.217 1097.41 553.783 1097.75 553.45C1098.08 553.117 1098.51 552.95 1099.05 552.95H1126.7C1127.23 552.95 1127.66 553.117 1128 553.45C1128.33 553.783 1128.5 554.217 1128.5 554.75C1128.5 555.25 1128.33 555.667 1128 556C1127.66 556.333 1127.23 556.5 1126.7 556.5H1099.05ZM1127.63 575.15C1127.73 573.083 1128.26 571.233 1129.23 569.6C1130.23 567.967 1131.51 566.683 1133.08 565.75C1134.68 564.817 1136.44 564.35 1138.38 564.35C1139.91 564.35 1141.09 564.567 1141.93 565C1142.76 565.433 1143.08 566.067 1142.88 566.9C1142.74 567.4 1142.51 567.733 1142.18 567.9C1141.88 568.067 1141.49 568.133 1141.03 568.1C1140.59 568.067 1140.09 568.033 1139.53 568C1137.66 567.833 1135.99 568.033 1134.53 568.6C1133.09 569.133 1131.94 569.967 1131.08 571.1C1130.24 572.233 1129.83 573.583 1129.83 575.15H1127.63ZM1127.93 592C1127.33 592 1126.86 591.833 1126.53 591.5C1126.19 591.167 1126.03 590.7 1126.03 590.1V566.55C1126.03 565.95 1126.19 565.483 1126.53 565.15C1126.86 564.817 1127.33 564.65 1127.93 564.65C1128.53 564.65 1128.99 564.817 1129.33 565.15C1129.66 565.483 1129.83 565.95 1129.83 566.55V590.1C1129.83 590.7 1129.66 591.167 1129.33 591.5C1128.99 591.833 1128.53 592 1127.93 592ZM1150.93 592C1150.33 592 1149.84 591.833 1149.48 591.5C1149.14 591.133 1148.98 590.65 1148.98 590.05V566.6C1148.98 566 1149.14 565.533 1149.48 565.2C1149.84 564.833 1150.33 564.65 1150.93 564.65C1151.49 564.65 1151.94 564.833 1152.28 565.2C1152.64 565.533 1152.83 566 1152.83 566.6V590.05C1152.83 590.65 1152.64 591.133 1152.28 591.5C1151.94 591.833 1151.49 592 1150.93 592ZM1150.88 559.45C1150.14 559.45 1149.51 559.183 1148.98 558.65C1148.44 558.117 1148.18 557.467 1148.18 556.7C1148.18 555.867 1148.44 555.217 1148.98 554.75C1149.54 554.25 1150.19 554 1150.93 554C1151.63 554 1152.24 554.25 1152.78 554.75C1153.34 555.217 1153.63 555.867 1153.63 556.7C1153.63 557.467 1153.36 558.117 1152.83 558.65C1152.29 559.183 1151.64 559.45 1150.88 559.45ZM1174.28 592.25C1171.58 592.25 1169.18 591.667 1167.08 590.5C1165.01 589.3 1163.38 587.65 1162.18 585.55C1161.01 583.45 1160.43 581.05 1160.43 578.35C1160.43 575.617 1160.98 573.217 1162.08 571.15C1163.21 569.05 1164.76 567.4 1166.73 566.2C1168.7 565 1170.96 564.4 1173.53 564.4C1176.06 564.4 1178.26 564.983 1180.13 566.15C1182.03 567.283 1183.5 568.867 1184.53 570.9C1185.56 572.933 1186.08 575.25 1186.08 577.85C1186.08 578.383 1185.91 578.817 1185.58 579.15C1185.25 579.45 1184.81 579.6 1184.28 579.6H1163.03V576.4H1184.68L1182.53 577.95C1182.56 576.017 1182.21 574.283 1181.48 572.75C1180.75 571.217 1179.7 570.017 1178.33 569.15C1177 568.283 1175.4 567.85 1173.53 567.85C1171.63 567.85 1169.96 568.3 1168.53 569.2C1167.1 570.1 1165.98 571.35 1165.18 572.95C1164.41 574.517 1164.03 576.317 1164.03 578.35C1164.03 580.383 1164.46 582.183 1165.33 583.75C1166.23 585.317 1167.45 586.55 1168.98 587.45C1170.51 588.35 1172.28 588.8 1174.28 588.8C1175.48 588.8 1176.68 588.6 1177.88 588.2C1179.11 587.767 1180.1 587.233 1180.83 586.6C1181.2 586.3 1181.61 586.15 1182.08 586.15C1182.55 586.117 1182.95 586.233 1183.28 586.5C1183.71 586.9 1183.93 587.333 1183.93 587.8C1183.96 588.267 1183.78 588.667 1183.38 589C1182.28 589.933 1180.88 590.717 1179.18 591.35C1177.48 591.95 1175.85 592.25 1174.28 592.25ZM1201.39 592.25C1199.43 592.25 1197.48 591.917 1195.54 591.25C1193.61 590.583 1192.04 589.583 1190.84 588.25C1190.48 587.85 1190.33 587.4 1190.39 586.9C1190.46 586.4 1190.71 585.967 1191.14 585.6C1191.61 585.267 1192.09 585.133 1192.59 585.2C1193.09 585.267 1193.51 585.483 1193.84 585.85C1194.64 586.783 1195.69 587.5 1196.99 588C1198.33 588.5 1199.79 588.75 1201.39 588.75C1203.86 588.75 1205.64 588.333 1206.74 587.5C1207.84 586.633 1208.41 585.6 1208.44 584.4C1208.44 583.2 1207.88 582.217 1206.74 581.45C1205.61 580.65 1203.74 580.033 1201.14 579.6C1197.78 579.067 1195.31 578.133 1193.74 576.8C1192.18 575.467 1191.39 573.883 1191.39 572.05C1191.39 570.35 1191.84 568.933 1192.74 567.8C1193.64 566.667 1194.84 565.817 1196.34 565.25C1197.84 564.683 1199.49 564.4 1201.29 564.4C1203.53 564.4 1205.44 564.783 1207.04 565.55C1208.68 566.317 1209.99 567.35 1210.99 568.65C1211.33 569.083 1211.46 569.533 1211.39 570C1211.33 570.467 1211.06 570.85 1210.59 571.15C1210.19 571.383 1209.73 571.467 1209.19 571.4C1208.69 571.3 1208.26 571.05 1207.89 570.65C1207.06 569.683 1206.09 568.983 1204.99 568.55C1203.89 568.083 1202.63 567.85 1201.19 567.85C1199.36 567.85 1197.89 568.233 1196.79 569C1195.69 569.733 1195.14 570.667 1195.14 571.8C1195.14 572.567 1195.34 573.233 1195.74 573.8C1196.18 574.367 1196.89 574.867 1197.89 575.3C1198.93 575.733 1200.36 576.1 1202.19 576.4C1204.69 576.8 1206.66 577.4 1208.09 578.2C1209.56 578.967 1210.59 579.883 1211.19 580.95C1211.83 581.983 1212.14 583.117 1212.14 584.35C1212.14 585.917 1211.68 587.3 1210.74 588.5C1209.84 589.667 1208.58 590.583 1206.94 591.25C1205.34 591.917 1203.49 592.25 1201.39 592.25ZM1233.55 575.15C1233.65 573.083 1234.18 571.233 1235.15 569.6C1236.15 567.967 1237.43 566.683 1239 565.75C1240.6 564.817 1242.36 564.35 1244.3 564.35C1245.83 564.35 1247.01 564.567 1247.85 565C1248.68 565.433 1249 566.067 1248.8 566.9C1248.66 567.4 1248.43 567.733 1248.1 567.9C1247.8 568.067 1247.41 568.133 1246.95 568.1C1246.51 568.067 1246.01 568.033 1245.45 568C1243.58 567.833 1241.91 568.033 1240.45 568.6C1239.01 569.133 1237.86 569.967 1237 571.1C1236.16 572.233 1235.75 573.583 1235.75 575.15H1233.55ZM1233.85 592C1233.25 592 1232.78 591.833 1232.45 591.5C1232.11 591.167 1231.95 590.7 1231.95 590.1V566.55C1231.95 565.95 1232.11 565.483 1232.45 565.15C1232.78 564.817 1233.25 564.65 1233.85 564.65C1234.45 564.65 1234.91 564.817 1235.25 565.15C1235.58 565.483 1235.75 565.95 1235.75 566.55V590.1C1235.75 590.7 1235.58 591.167 1235.25 591.5C1234.91 591.833 1234.45 592 1233.85 592ZM1264.49 592.25C1261.79 592.25 1259.39 591.667 1257.29 590.5C1255.23 589.3 1253.59 587.65 1252.39 585.55C1251.23 583.45 1250.64 581.05 1250.64 578.35C1250.64 575.617 1251.19 573.217 1252.29 571.15C1253.43 569.05 1254.98 567.4 1256.94 566.2C1258.91 565 1261.18 564.4 1263.74 564.4C1266.28 564.4 1268.48 564.983 1270.34 566.15C1272.24 567.283 1273.71 568.867 1274.74 570.9C1275.78 572.933 1276.29 575.25 1276.29 577.85C1276.29 578.383 1276.13 578.817 1275.79 579.15C1275.46 579.45 1275.03 579.6 1274.49 579.6H1253.24V576.4H1274.89L1272.74 577.95C1272.78 576.017 1272.43 574.283 1271.69 572.75C1270.96 571.217 1269.91 570.017 1268.54 569.15C1267.21 568.283 1265.61 567.85 1263.74 567.85C1261.84 567.85 1260.18 568.3 1258.74 569.2C1257.31 570.1 1256.19 571.35 1255.39 572.95C1254.63 574.517 1254.24 576.317 1254.24 578.35C1254.24 580.383 1254.68 582.183 1255.54 583.75C1256.44 585.317 1257.66 586.55 1259.19 587.45C1260.73 588.35 1262.49 588.8 1264.49 588.8C1265.69 588.8 1266.89 588.6 1268.09 588.2C1269.33 587.767 1270.31 587.233 1271.04 586.6C1271.41 586.3 1271.83 586.15 1272.29 586.15C1272.76 586.117 1273.16 586.233 1273.49 586.5C1273.93 586.9 1274.14 587.333 1274.14 587.8C1274.18 588.267 1273.99 588.667 1273.59 589C1272.49 589.933 1271.09 590.717 1269.39 591.35C1267.69 591.95 1266.06 592.25 1264.49 592.25ZM1319.01 592C1318.44 592 1317.97 591.833 1317.61 591.5C1317.24 591.133 1317.06 590.667 1317.06 590.1V575.7C1317.06 573.333 1316.44 571.467 1315.21 570.1C1313.97 568.7 1312.39 568 1310.46 568C1308.39 568 1306.69 568.7 1305.36 570.1C1304.06 571.467 1303.42 573.3 1303.46 575.6H1300.01C1300.04 573.367 1300.52 571.4 1301.46 569.7C1302.39 568 1303.67 566.683 1305.31 565.75C1306.94 564.817 1308.79 564.35 1310.86 564.35C1312.82 564.35 1314.56 564.817 1316.06 565.75C1317.59 566.683 1318.77 568 1319.61 569.7C1320.47 571.4 1320.91 573.4 1320.91 575.7V590.1C1320.91 590.667 1320.72 591.133 1320.36 591.5C1320.02 591.833 1319.57 592 1319.01 592ZM1284.01 592C1283.41 592 1282.92 591.833 1282.56 591.5C1282.22 591.133 1282.06 590.667 1282.06 590.1V566.6C1282.06 566.033 1282.22 565.567 1282.56 565.2C1282.92 564.833 1283.41 564.65 1284.01 564.65C1284.57 564.65 1285.02 564.833 1285.36 565.2C1285.72 565.567 1285.91 566.033 1285.91 566.6V590.1C1285.91 590.667 1285.72 591.133 1285.36 591.5C1285.02 591.833 1284.57 592 1284.01 592ZM1301.56 592C1300.99 592 1300.52 591.833 1300.16 591.5C1299.79 591.133 1299.61 590.667 1299.61 590.1V575.7C1299.61 573.333 1298.99 571.467 1297.76 570.1C1296.52 568.7 1294.94 568 1293.01 568C1290.94 568 1289.24 568.683 1287.91 570.05C1286.57 571.383 1285.91 573.133 1285.91 575.3H1283.16C1283.22 573.167 1283.69 571.283 1284.56 569.65C1285.46 567.983 1286.67 566.683 1288.21 565.75C1289.74 564.817 1291.47 564.35 1293.41 564.35C1295.37 564.35 1297.11 564.817 1298.61 565.75C1300.14 566.683 1301.32 568 1302.16 569.7C1303.02 571.4 1303.46 573.4 1303.46 575.7V590.1C1303.46 590.667 1303.27 591.133 1302.91 591.5C1302.57 591.833 1302.12 592 1301.56 592ZM1340.72 592.25C1338.15 592.25 1335.85 591.65 1333.82 590.45C1331.79 589.217 1330.17 587.55 1328.97 585.45C1327.8 583.35 1327.22 580.983 1327.22 578.35C1327.22 575.683 1327.82 573.3 1329.02 571.2C1330.25 569.1 1331.92 567.45 1334.02 566.25C1336.12 565.017 1338.49 564.4 1341.12 564.4C1343.75 564.4 1346.1 565.017 1348.17 566.25C1350.27 567.45 1351.92 569.1 1353.12 571.2C1354.35 573.3 1354.99 575.683 1355.02 578.35L1353.47 579.55C1353.47 581.95 1352.9 584.117 1351.77 586.05C1350.67 587.95 1349.15 589.467 1347.22 590.6C1345.32 591.7 1343.15 592.25 1340.72 592.25ZM1341.12 588.75C1343.05 588.75 1344.77 588.3 1346.27 587.4C1347.8 586.5 1349 585.267 1349.87 583.7C1350.77 582.1 1351.22 580.317 1351.22 578.35C1351.22 576.35 1350.77 574.567 1349.87 573C1349 571.433 1347.8 570.2 1346.27 569.3C1344.77 568.367 1343.05 567.9 1341.12 567.9C1339.22 567.9 1337.5 568.367 1335.97 569.3C1334.44 570.2 1333.22 571.433 1332.32 573C1331.42 574.567 1330.97 576.35 1330.97 578.35C1330.97 580.317 1331.42 582.1 1332.32 583.7C1333.22 585.267 1334.44 586.5 1335.97 587.4C1337.5 588.3 1339.22 588.75 1341.12 588.75ZM1353.07 592C1352.5 592 1352.04 591.833 1351.67 591.5C1351.3 591.133 1351.12 590.667 1351.12 590.1V581.55L1352.07 577.6L1355.02 578.35V590.1C1355.02 590.667 1354.84 591.133 1354.47 591.5C1354.1 591.833 1353.64 592 1353.07 592ZM1364.51 592C1363.91 592 1363.42 591.833 1363.06 591.5C1362.72 591.133 1362.56 590.65 1362.56 590.05V566.6C1362.56 566 1362.72 565.533 1363.06 565.2C1363.42 564.833 1363.91 564.65 1364.51 564.65C1365.07 564.65 1365.52 564.833 1365.86 565.2C1366.22 565.533 1366.41 566 1366.41 566.6V590.05C1366.41 590.65 1366.22 591.133 1365.86 591.5C1365.52 591.833 1365.07 592 1364.51 592ZM1364.46 559.45C1363.72 559.45 1363.09 559.183 1362.56 558.65C1362.02 558.117 1361.76 557.467 1361.76 556.7C1361.76 555.867 1362.02 555.217 1362.56 554.75C1363.12 554.25 1363.77 554 1364.51 554C1365.21 554 1365.82 554.25 1366.36 554.75C1366.92 555.217 1367.21 555.867 1367.21 556.7C1367.21 557.467 1366.94 558.117 1366.41 558.65C1365.87 559.183 1365.22 559.45 1364.46 559.45ZM1398.91 592C1398.34 592 1397.88 591.817 1397.51 591.45C1397.14 591.083 1396.96 590.633 1396.96 590.1V577.1C1396.96 575.033 1396.56 573.333 1395.76 572C1394.99 570.667 1393.93 569.667 1392.56 569C1391.23 568.333 1389.71 568 1388.01 568C1386.38 568 1384.89 568.317 1383.56 568.95C1382.26 569.583 1381.23 570.45 1380.46 571.55C1379.69 572.65 1379.31 573.9 1379.31 575.3H1376.56C1376.63 573.2 1377.19 571.333 1378.26 569.7C1379.33 568.033 1380.74 566.733 1382.51 565.8C1384.28 564.833 1386.24 564.35 1388.41 564.35C1390.78 564.35 1392.89 564.85 1394.76 565.85C1396.63 566.817 1398.09 568.25 1399.16 570.15C1400.26 572.05 1400.81 574.367 1400.81 577.1V590.1C1400.81 590.633 1400.63 591.083 1400.26 591.45C1399.89 591.817 1399.44 592 1398.91 592ZM1377.41 592C1376.81 592 1376.33 591.833 1375.96 591.5C1375.63 591.133 1375.46 590.667 1375.46 590.1V566.6C1375.46 566 1375.63 565.533 1375.96 565.2C1376.33 564.833 1376.81 564.65 1377.41 564.65C1377.98 564.65 1378.43 564.833 1378.76 565.2C1379.13 565.533 1379.31 566 1379.31 566.6V590.1C1379.31 590.667 1379.13 591.133 1378.76 591.5C1378.43 591.833 1377.98 592 1377.41 592ZM1411.3 592C1410.7 592 1410.22 591.833 1409.85 591.5C1409.52 591.133 1409.35 590.65 1409.35 590.05V566.6C1409.35 566 1409.52 565.533 1409.85 565.2C1410.22 564.833 1410.7 564.65 1411.3 564.65C1411.87 564.65 1412.32 564.833 1412.65 565.2C1413.02 565.533 1413.2 566 1413.2 566.6V590.05C1413.2 590.65 1413.02 591.133 1412.65 591.5C1412.32 591.833 1411.87 592 1411.3 592ZM1411.25 559.45C1410.52 559.45 1409.88 559.183 1409.35 558.65C1408.82 558.117 1408.55 557.467 1408.55 556.7C1408.55 555.867 1408.82 555.217 1409.35 554.75C1409.92 554.25 1410.57 554 1411.3 554C1412 554 1412.62 554.25 1413.15 554.75C1413.72 555.217 1414 555.867 1414 556.7C1414 557.467 1413.73 558.117 1413.2 558.65C1412.67 559.183 1412.02 559.45 1411.25 559.45ZM1445.7 592C1445.14 592 1444.67 591.817 1444.3 591.45C1443.94 591.083 1443.75 590.633 1443.75 590.1V577.1C1443.75 575.033 1443.35 573.333 1442.55 572C1441.79 570.667 1440.72 569.667 1439.35 569C1438.02 568.333 1436.5 568 1434.8 568C1433.17 568 1431.69 568.317 1430.35 568.95C1429.05 569.583 1428.02 570.45 1427.25 571.55C1426.49 572.65 1426.1 573.9 1426.1 575.3H1423.35C1423.42 573.2 1423.99 571.333 1425.05 569.7C1426.12 568.033 1427.54 566.733 1429.3 565.8C1431.07 564.833 1433.04 564.35 1435.2 564.35C1437.57 564.35 1439.69 564.85 1441.55 565.85C1443.42 566.817 1444.89 568.25 1445.95 570.15C1447.05 572.05 1447.6 574.367 1447.6 577.1V590.1C1447.6 590.633 1447.42 591.083 1447.05 591.45C1446.69 591.817 1446.24 592 1445.7 592ZM1424.2 592C1423.6 592 1423.12 591.833 1422.75 591.5C1422.42 591.133 1422.25 590.667 1422.25 590.1V566.6C1422.25 566 1422.42 565.533 1422.75 565.2C1423.12 564.833 1423.6 564.65 1424.2 564.65C1424.77 564.65 1425.22 564.833 1425.55 565.2C1425.92 565.533 1426.1 566 1426.1 566.6V590.1C1426.1 590.667 1425.92 591.133 1425.55 591.5C1425.22 591.833 1424.77 592 1424.2 592ZM1467.39 592.25C1464.76 592.25 1462.42 591.667 1460.39 590.5C1458.36 589.3 1456.76 587.65 1455.59 585.55C1454.46 583.45 1453.89 581.05 1453.89 578.35C1453.89 575.617 1454.49 573.2 1455.69 571.1C1456.89 569 1458.54 567.367 1460.64 566.2C1462.74 565 1465.12 564.4 1467.79 564.4C1470.49 564.4 1472.87 565 1474.94 566.2C1477.04 567.367 1478.67 569 1479.84 571.1C1481.04 573.2 1481.66 575.617 1481.69 578.35L1479.44 579.55C1479.44 582.017 1478.92 584.217 1477.89 586.15C1476.86 588.05 1475.42 589.55 1473.59 590.65C1471.79 591.717 1469.72 592.25 1467.39 592.25ZM1467.89 602.8C1465.26 602.8 1462.94 602.3 1460.94 601.3C1458.94 600.333 1457.29 599 1455.99 597.3C1455.62 596.9 1455.46 596.467 1455.49 596C1455.56 595.533 1455.81 595.15 1456.24 594.85C1456.67 594.55 1457.16 594.45 1457.69 594.55C1458.22 594.65 1458.64 594.9 1458.94 595.3C1459.91 596.5 1461.14 597.467 1462.64 598.2C1464.17 598.933 1465.94 599.3 1467.94 599.3C1469.81 599.3 1471.49 598.85 1472.99 597.95C1474.49 597.05 1475.67 595.783 1476.54 594.15C1477.44 592.517 1477.89 590.6 1477.89 588.4V580.8L1479.34 577.9L1481.69 578.35V588.55C1481.69 591.25 1481.09 593.667 1479.89 595.8C1478.69 597.967 1477.06 599.667 1474.99 600.9C1472.92 602.167 1470.56 602.8 1467.89 602.8ZM1467.79 588.75C1469.76 588.75 1471.49 588.317 1472.99 587.45C1474.52 586.55 1475.72 585.317 1476.59 583.75C1477.46 582.183 1477.89 580.383 1477.89 578.35C1477.89 576.317 1477.46 574.517 1476.59 572.95C1475.72 571.35 1474.52 570.117 1472.99 569.25C1471.49 568.35 1469.76 567.9 1467.79 567.9C1465.82 567.9 1464.07 568.35 1462.54 569.25C1461.01 570.117 1459.81 571.35 1458.94 572.95C1458.07 574.517 1457.64 576.317 1457.64 578.35C1457.64 580.383 1458.07 582.183 1458.94 583.75C1459.81 585.317 1461.01 586.55 1462.54 587.45C1464.07 588.317 1465.82 588.75 1467.79 588.75ZM1488.43 570.8C1487.63 570.8 1486.93 570.533 1486.33 570C1485.76 569.433 1485.48 568.733 1485.48 567.9C1485.48 567.067 1485.76 566.367 1486.33 565.8C1486.89 565.233 1487.59 564.95 1488.43 564.95C1489.23 564.95 1489.89 565.25 1490.43 565.85C1490.99 566.417 1491.28 567.1 1491.28 567.9C1491.28 568.7 1490.99 569.383 1490.43 569.95C1489.89 570.517 1489.23 570.8 1488.43 570.8ZM1488.53 592.8C1487.73 592.8 1487.04 592.517 1486.48 591.95C1485.91 591.383 1485.63 590.7 1485.63 589.9C1485.63 589.067 1485.91 588.367 1486.48 587.8C1487.08 587.233 1487.76 586.95 1488.53 586.95C1489.33 586.95 1490.01 587.25 1490.58 587.85C1491.14 588.417 1491.43 589.1 1491.43 589.9C1491.43 590.667 1491.14 591.35 1490.58 591.95C1490.04 592.517 1489.36 592.8 1488.53 592.8Z" fill="black"/>
<path d="M859.963 592C857.463 592 855.247 591.483 853.313 590.45C851.38 589.383 849.863 587.95 848.763 586.15C847.663 584.317 847.113 582.267 847.113 580C847.113 579.233 847.33 578.617 847.763 578.15C848.23 577.65 848.78 577.4 849.413 577.4C850.08 577.4 850.63 577.65 851.063 578.15C851.497 578.617 851.713 579.233 851.713 580C851.713 581.367 852.063 582.633 852.763 583.8C853.463 584.933 854.413 585.85 855.613 586.55C856.813 587.217 858.163 587.55 859.663 587.55C861.863 587.55 863.63 586.95 864.963 585.75C866.33 584.517 867.013 582.8 867.013 580.6C867.013 579.2 866.713 577.95 866.113 576.85C865.513 575.717 864.697 574.817 863.663 574.15C862.63 573.483 861.463 573.15 860.163 573.15C859.43 573.15 858.813 572.9 858.313 572.4C857.847 571.9 857.613 571.283 857.613 570.55C857.613 569.817 857.847 569.217 858.313 568.75C858.813 568.25 859.43 568 860.163 568C861.097 568 861.997 567.767 862.863 567.3C863.73 566.8 864.447 566.15 865.013 565.35C865.58 564.517 865.863 563.583 865.863 562.55C865.863 561.083 865.33 559.85 864.263 558.85C863.197 557.85 861.83 557.35 860.163 557.35C858.897 557.35 857.73 557.6 856.663 558.1C855.63 558.6 854.797 559.267 854.163 560.1C853.563 560.933 853.263 561.867 853.263 562.9C853.263 563.667 853.047 564.317 852.613 564.85C852.18 565.35 851.63 565.6 850.963 565.6C850.33 565.6 849.78 565.367 849.313 564.9C848.88 564.4 848.663 563.783 848.663 563.05C848.663 561.117 849.163 559.383 850.163 557.85C851.163 556.317 852.53 555.117 854.263 554.25C855.997 553.35 857.93 552.9 860.063 552.9C862.03 552.9 863.797 553.333 865.363 554.2C866.963 555.033 868.213 556.183 869.113 557.65C870.047 559.083 870.513 560.717 870.513 562.55C870.513 563.85 870.213 565 869.613 566C869.047 567 868.313 567.867 867.413 568.6C866.513 569.3 865.563 569.883 864.563 570.35C867.197 571.25 869.097 572.617 870.263 574.45C871.463 576.25 872.063 578.317 872.063 580.65C872.063 582.817 871.513 584.767 870.413 586.5C869.313 588.2 867.847 589.55 866.013 590.55C864.18 591.517 862.163 592 859.963 592ZM887.995 592C884.195 592 881.245 590.283 879.145 586.85C877.078 583.383 876.045 578.583 876.045 572.45C876.045 566.283 877.078 561.483 879.145 558.05C881.245 554.617 884.195 552.9 887.995 552.9C890.528 552.9 892.678 553.7 894.445 555.3C896.245 556.867 897.612 559.117 898.545 562.05C899.478 564.95 899.945 568.417 899.945 572.45C899.945 576.483 899.478 579.967 898.545 582.9C897.612 585.8 896.245 588.05 894.445 589.65C892.678 591.217 890.528 592 887.995 592ZM887.995 586.8C889.528 586.8 890.795 586.183 891.795 584.95C892.795 583.683 893.545 581.967 894.045 579.8C894.545 577.633 894.795 575.183 894.795 572.45C894.795 569.717 894.545 567.267 894.045 565.1C893.545 562.933 892.795 561.217 891.795 559.95C890.795 558.683 889.528 558.05 887.995 558.05C886.462 558.05 885.195 558.683 884.195 559.95C883.195 561.183 882.445 562.883 881.945 565.05C881.445 567.217 881.195 569.683 881.195 572.45C881.195 575.217 881.445 577.683 881.945 579.85C882.445 582.017 883.195 583.717 884.195 584.95C885.228 586.183 886.495 586.8 887.995 586.8ZM930.05 592.2C927.716 592.2 925.55 591.85 923.55 591.15C921.583 590.417 920.05 589.5 918.95 588.4C918.45 587.867 918.233 587.267 918.3 586.6C918.4 585.9 918.733 585.333 919.3 584.9C919.966 584.367 920.616 584.15 921.25 584.25C921.916 584.317 922.483 584.6 922.95 585.1C923.516 585.733 924.416 586.333 925.65 586.9C926.916 587.433 928.316 587.7 929.85 587.7C931.783 587.7 933.25 587.383 934.25 586.75C935.283 586.117 935.816 585.3 935.85 584.3C935.883 583.3 935.4 582.433 934.4 581.7C933.433 580.967 931.65 580.367 929.05 579.9C925.683 579.233 923.233 578.233 921.7 576.9C920.2 575.567 919.45 573.933 919.45 572C919.45 570.3 919.95 568.9 920.95 567.8C921.95 566.667 923.233 565.833 924.8 565.3C926.366 564.733 928 564.45 929.7 564.45C931.9 564.45 933.85 564.8 935.55 565.5C937.25 566.2 938.6 567.167 939.6 568.4C940.066 568.933 940.283 569.5 940.25 570.1C940.216 570.667 939.933 571.15 939.4 571.55C938.866 571.917 938.233 572.033 937.5 571.9C936.766 571.767 936.15 571.467 935.65 571C934.816 570.2 933.916 569.65 932.95 569.35C931.983 569.05 930.866 568.9 929.6 568.9C928.133 568.9 926.883 569.15 925.85 569.65C924.85 570.15 924.35 570.883 924.35 571.85C924.35 572.45 924.5 573 924.8 573.5C925.133 573.967 925.766 574.4 926.7 574.8C927.633 575.167 929 575.533 930.8 575.9C934.566 576.633 937.166 577.683 938.6 579.05C940.066 580.383 940.8 582.033 940.8 584C940.8 585.533 940.383 586.917 939.55 588.15C938.75 589.383 937.55 590.367 935.95 591.1C934.383 591.833 932.416 592.2 930.05 592.2ZM959.348 592.2C956.581 592.2 954.115 591.617 951.948 590.45C949.815 589.25 948.131 587.617 946.898 585.55C945.698 583.45 945.098 581.05 945.098 578.35C945.098 575.617 945.665 573.217 946.798 571.15C947.965 569.05 949.565 567.417 951.598 566.25C953.631 565.05 955.965 564.45 958.598 564.45C961.198 564.45 963.431 565.033 965.298 566.2C967.165 567.333 968.581 568.917 969.548 570.95C970.548 572.95 971.048 575.267 971.048 577.9C971.048 578.533 970.831 579.067 970.398 579.5C969.965 579.9 969.415 580.1 968.748 580.1H949.748C950.115 582.4 951.165 584.283 952.898 585.75C954.665 587.183 956.815 587.9 959.348 587.9C960.381 587.9 961.431 587.717 962.498 587.35C963.598 586.95 964.481 586.5 965.148 586C965.648 585.633 966.181 585.45 966.748 585.45C967.348 585.417 967.865 585.583 968.298 585.95C968.865 586.45 969.165 587 969.198 587.6C969.231 588.2 968.965 588.717 968.398 589.15C967.265 590.05 965.848 590.783 964.148 591.35C962.481 591.917 960.881 592.2 959.348 592.2ZM958.598 568.75C956.131 568.75 954.148 569.433 952.648 570.8C951.148 572.167 950.198 573.933 949.798 576.1H966.448C966.148 573.967 965.331 572.217 963.998 570.85C962.665 569.45 960.865 568.75 958.598 568.75ZM988.226 592.2C985.56 592.2 983.176 591.6 981.076 590.4C979.01 589.167 977.376 587.517 976.176 585.45C975.01 583.35 974.426 580.983 974.426 578.35C974.426 575.65 975.01 573.25 976.176 571.15C977.343 569.05 978.943 567.417 980.976 566.25C983.01 565.05 985.343 564.45 987.976 564.45C991.91 564.45 995.176 565.95 997.776 568.95C998.243 569.483 998.41 570.033 998.276 570.6C998.143 571.167 997.776 571.667 997.176 572.1C996.71 572.433 996.193 572.55 995.626 572.45C995.06 572.317 994.543 572.017 994.076 571.55C992.443 569.817 990.41 568.95 987.976 568.95C985.41 568.95 983.326 569.817 981.726 571.55C980.126 573.25 979.326 575.517 979.326 578.35C979.326 580.15 979.693 581.75 980.426 583.15C981.193 584.55 982.243 585.667 983.576 586.5C984.91 587.3 986.46 587.7 988.226 587.7C990.493 587.7 992.326 587.117 993.726 585.95C994.26 585.517 994.81 585.283 995.376 585.25C995.943 585.183 996.443 585.333 996.876 585.7C997.443 586.167 997.76 586.7 997.826 587.3C997.893 587.867 997.693 588.383 997.226 588.85C994.826 591.083 991.826 592.2 988.226 592.2ZM1015.06 592.2C1012.72 592.2 1010.56 591.85 1008.56 591.15C1006.59 590.417 1005.06 589.5 1003.96 588.4C1003.46 587.867 1003.24 587.267 1003.31 586.6C1003.41 585.9 1003.74 585.333 1004.31 584.9C1004.97 584.367 1005.62 584.15 1006.26 584.25C1006.92 584.317 1007.49 584.6 1007.96 585.1C1008.52 585.733 1009.42 586.333 1010.66 586.9C1011.92 587.433 1013.32 587.7 1014.86 587.7C1016.79 587.7 1018.26 587.383 1019.26 586.75C1020.29 586.117 1020.82 585.3 1020.86 584.3C1020.89 583.3 1020.41 582.433 1019.41 581.7C1018.44 580.967 1016.66 580.367 1014.06 579.9C1010.69 579.233 1008.24 578.233 1006.71 576.9C1005.21 575.567 1004.46 573.933 1004.46 572C1004.46 570.3 1004.96 568.9 1005.96 567.8C1006.96 566.667 1008.24 565.833 1009.81 565.3C1011.37 564.733 1013.01 564.45 1014.71 564.45C1016.91 564.45 1018.86 564.8 1020.56 565.5C1022.26 566.2 1023.61 567.167 1024.61 568.4C1025.07 568.933 1025.29 569.5 1025.26 570.1C1025.22 570.667 1024.94 571.15 1024.41 571.55C1023.87 571.917 1023.24 572.033 1022.51 571.9C1021.77 571.767 1021.16 571.467 1020.66 571C1019.82 570.2 1018.92 569.65 1017.96 569.35C1016.99 569.05 1015.87 568.9 1014.61 568.9C1013.14 568.9 1011.89 569.15 1010.86 569.65C1009.86 570.15 1009.36 570.883 1009.36 571.85C1009.36 572.45 1009.51 573 1009.81 573.5C1010.14 573.967 1010.77 574.4 1011.71 574.8C1012.64 575.167 1014.01 575.533 1015.81 575.9C1019.57 576.633 1022.17 577.683 1023.61 579.05C1025.07 580.383 1025.81 582.033 1025.81 584C1025.81 585.533 1025.39 586.917 1024.56 588.15C1023.76 589.383 1022.56 590.367 1020.96 591.1C1019.39 591.833 1017.42 592.2 1015.06 592.2Z" fill="#E71F1F"/>
<path d="M1512.64 592C1511.91 592 1511.29 591.75 1510.79 591.25C1510.33 590.75 1510.09 590.15 1510.09 589.45C1510.09 588.717 1510.33 588.117 1510.79 587.65L1524.99 571.05C1525.99 569.883 1526.76 568.783 1527.29 567.75C1527.86 566.717 1528.14 565.733 1528.14 564.8C1528.14 562.633 1527.58 560.9 1526.44 559.6C1525.34 558.3 1523.83 557.65 1521.89 557.65C1520.63 557.65 1519.48 557.983 1518.44 558.65C1517.44 559.283 1516.64 560.15 1516.04 561.25C1515.48 562.317 1515.19 563.5 1515.19 564.8C1515.19 565.467 1514.94 566.05 1514.44 566.55C1513.98 567.05 1513.38 567.3 1512.64 567.3C1511.94 567.3 1511.34 567.05 1510.84 566.55C1510.34 566.05 1510.09 565.467 1510.09 564.8C1510.09 562.533 1510.61 560.517 1511.64 558.75C1512.68 556.95 1514.08 555.533 1515.84 554.5C1517.64 553.467 1519.66 552.95 1521.89 552.95C1524.16 552.95 1526.13 553.433 1527.79 554.4C1529.46 555.367 1530.74 556.733 1531.64 558.5C1532.58 560.267 1533.04 562.367 1533.04 564.8C1533.04 565.867 1532.81 566.95 1532.34 568.05C1531.91 569.15 1531.34 570.2 1530.64 571.2C1529.98 572.2 1529.29 573.1 1528.59 573.9L1517.14 586.9H1531.14C1531.88 586.9 1532.49 587.167 1532.99 587.7C1533.49 588.2 1533.74 588.783 1533.74 589.45C1533.74 590.15 1533.49 590.75 1532.99 591.25C1532.49 591.75 1531.88 592 1531.14 592H1512.64Z" fill="#E71F1F"/>
</g>
<g filter="url(#filter11_dd)">
<circle cx="945" cy="203" r="100" fill="#FFF4B9"/>
<circle cx="945" cy="203" r="100.5" stroke="#FFE663"/>
</g>
<g filter="url(#filter12_df)">
<circle cx="945" cy="203" r="15" fill="#FFE663"/>
</g>
<g filter="url(#filter13_df)">
<path d="M949 205L1277 200" stroke="#FFE663" stroke-width="15"/>
</g>
<defs>
<filter id="filter0_bf" x="401" y="0" width="1088" height="1088" filterUnits="userSpaceOnUse" color-interpolation-filters="sRGB">
<feFlood flood-opacity="0" result="BackgroundImageFix"/>
<feGaussianBlur in="BackgroundImage" stdDeviation="2"/>
<feComposite in2="SourceAlpha" operator="in" result="effect1_backgroundBlur"/>
<feBlend mode="normal" in="SourceGraphic" in2="effect1_backgroundBlur" result="shape"/>
<feGaussianBlur stdDeviation="2" result="effect2_foregroundBlur"/>
</filter>
<filter id="filter1_dd" x="851" y="782" width="188" height="188" filterUnits="userSpaceOnUse" color-interpolation-filters="sRGB">
<feFlood flood-opacity="0" result="BackgroundImageFix"/>
<feColorMatrix in="SourceAlpha" type="matrix" values="0 0 0 0 0 0 0 0 0 0 0 0 0 0 0 0 0 0 127 0"/>
<feOffset dy="4"/>
<feGaussianBlur stdDeviation="2"/>
<feColorMatrix type="matrix" values="0 0 0 0 0 0 0 0 0 0 0 0 0 0 0 0 0 0 0.25 0"/>
<feBlend mode="normal" in2="BackgroundImageFix" result="effect1_dropShadow"/>
<feColorMatrix in="SourceAlpha" type="matrix" values="0 0 0 0 0 0 0 0 0 0 0 0 0 0 0 0 0 0 127 0"/>
<feOffset dy="4"/>
<feGaussianBlur stdDeviation="2"/>
<feColorMatrix type="matrix" values="0 0 0 0 0 0 0 0 0 0 0 0 0 0 0 0 0 0 0.25 0"/>
<feBlend mode="normal" in2="effect1_dropShadow" result="effect2_dropShadow"/>
<feBlend mode="normal" in="SourceGraphic" in2="effect2_dropShadow" result="shape"/>
</filter>
<filter id="filter2_dd" x="508" y="126" width="188" height="188" filterUnits="userSpaceOnUse" color-interpolation-filters="sRGB">
<feFlood flood-opacity="0" result="BackgroundImageFix"/>
<feColorMatrix in="SourceAlpha" type="matrix" values="0 0 0 0 0 0 0 0 0 0 0 0 0 0 0 0 0 0 127 0"/>
<feOffset dy="4"/>
<feGaussianBlur stdDeviation="2"/>
<feColorMatrix type="matrix" values="0 0 0 0 0 0 0 0 0 0 0 0 0 0 0 0 0 0 0.25 0"/>
<feBlend mode="normal" in2="BackgroundImageFix" result="effect1_dropShadow"/>
<feColorMatrix in="SourceAlpha" type="matrix" values="0 0 0 0 0 0 0 0 0 0 0 0 0 0 0 0 0 0 127 0"/>
<feOffset dy="4"/>
<feGaussianBlur stdDeviation="2"/>
<feColorMatrix type="matrix" values="0 0 0 0 0 0 0 0 0 0 0 0 0 0 0 0 0 0 0.25 0"/>
<feBlend mode="normal" in2="effect1_dropShadow" result="effect2_dropShadow"/>
<feBlend mode="normal" in="SourceGraphic" in2="effect2_dropShadow" result="shape"/>
</filter>
<filter id="filter3_dd" x="508" y="454" width="188" height="188" filterUnits="userSpaceOnUse" color-interpolation-filters="sRGB">
<feFlood flood-opacity="0" result="BackgroundImageFix"/>
<feColorMatrix in="SourceAlpha" type="matrix" values="0 0 0 0 0 0 0 0 0 0 0 0 0 0 0 0 0 0 127 0"/>
<feOffset dy="4"/>
<feGaussianBlur stdDeviation="2"/>
<feColorMatrix type="matrix" values="0 0 0 0 0 0 0 0 0 0 0 0 0 0 0 0 0 0 0.25 0"/>
<feBlend mode="normal" in2="BackgroundImageFix" result="effect1_dropShadow"/>
<feColorMatrix in="SourceAlpha" type="matrix" values="0 0 0 0 0 0 0 0 0 0 0 0 0 0 0 0 0 0 127 0"/>
<feOffset dy="4"/>
<feGaussianBlur stdDeviation="2"/>
<feColorMatrix type="matrix" values="0 0 0 0 0 0 0 0 0 0 0 0 0 0 0 0 0 0 0.25 0"/>
<feBlend mode="normal" in2="effect1_dropShadow" result="effect2_dropShadow"/>
<feBlend mode="normal" in="SourceGraphic" in2="effect2_dropShadow" result="shape"/>
</filter>
<filter id="filter4_dd" x="508" y="782" width="188" height="188" filterUnits="userSpaceOnUse" color-interpolation-filters="sRGB">
<feFlood flood-opacity="0" result="BackgroundImageFix"/>
<feColorMatrix in="SourceAlpha" type="matrix" values="0 0 0 0 0 0 0 0 0 0 0 0 0 0 0 0 0 0 127 0"/>
<feOffset dy="4"/>
<feGaussianBlur stdDeviation="2"/>
<feColorMatrix type="matrix" values="0 0 0 0 0 0 0 0 0 0 0 0 0 0 0 0 0 0 0.25 0"/>
<feBlend mode="normal" in2="BackgroundImageFix" result="effect1_dropShadow"/>
<feColorMatrix in="SourceAlpha" type="matrix" values="0 0 0 0 0 0 0 0 0 0 0 0 0 0 0 0 0 0 127 0"/>
<feOffset dy="4"/>
<feGaussianBlur stdDeviation="2"/>
<feColorMatrix type="matrix" values="0 0 0 0 0 0 0 0 0 0 0 0 0 0 0 0 0 0 0.25 0"/>
<feBlend mode="normal" in2="effect1_dropShadow" result="effect2_dropShadow"/>
<feBlend mode="normal" in="SourceGraphic" in2="effect2_dropShadow" result="shape"/>
</filter>
<filter id="filter5_dd" x="1194" y="454" width="188" height="188" filterUnits="userSpaceOnUse" color-interpolation-filters="sRGB">
<feFlood flood-opacity="0" result="BackgroundImageFix"/>
<feColorMatrix in="SourceAlpha" type="matrix" values="0 0 0 0 0 0 0 0 0 0 0 0 0 0 0 0 0 0 127 0"/>
<feOffset dy="4"/>
<feGaussianBlur stdDeviation="2"/>
<feColorMatrix type="matrix" values="0 0 0 0 0 0 0 0 0 0 0 0 0 0 0 0 0 0 0.25 0"/>
<feBlend mode="normal" in2="BackgroundImageFix" result="effect1_dropShadow"/>
<feColorMatrix in="SourceAlpha" type="matrix" values="0 0 0 0 0 0 0 0 0 0 0 0 0 0 0 0 0 0 127 0"/>
<feOffset dy="4"/>
<feGaussianBlur stdDeviation="2"/>
<feColorMatrix type="matrix" values="0 0 0 0 0 0 0 0 0 0 0 0 0 0 0 0 0 0 0.25 0"/>
<feBlend mode="normal" in2="effect1_dropShadow" result="effect2_dropShadow"/>
<feBlend mode="normal" in="SourceGraphic" in2="effect2_dropShadow" result="shape"/>
</filter>
<filter id="filter6_dd" x="1194" y="782" width="188" height="188" filterUnits="userSpaceOnUse" color-interpolation-filters="sRGB">
<feFlood flood-opacity="0" result="BackgroundImageFix"/>
<feColorMatrix in="SourceAlpha" type="matrix" values="0 0 0 0 0 0 0 0 0 0 0 0 0 0 0 0 0 0 127 0"/>
<feOffset dy="4"/>
<feGaussianBlur stdDeviation="2"/>
<feColorMatrix type="matrix" values="0 0 0 0 0 0 0 0 0 0 0 0 0 0 0 0 0 0 0.25 0"/>
<feBlend mode="normal" in2="BackgroundImageFix" result="effect1_dropShadow"/>
<feColorMatrix in="SourceAlpha" type="matrix" values="0 0 0 0 0 0 0 0 0 0 0 0 0 0 0 0 0 0 127 0"/>
<feOffset dy="4"/>
<feGaussianBlur stdDeviation="2"/>
<feColorMatrix type="matrix" values="0 0 0 0 0 0 0 0 0 0 0 0 0 0 0 0 0 0 0.25 0"/>
<feBlend mode="normal" in2="effect1_dropShadow" result="effect2_dropShadow"/>
<feBlend mode="normal" in="SourceGraphic" in2="effect2_dropShadow" result="shape"/>
</filter>
<filter id="filter7_dd" x="851" y="126" width="188" height="188" filterUnits="userSpaceOnUse" color-interpolation-filters="sRGB">
<feFlood flood-opacity="0" result="BackgroundImageFix"/>
<feColorMatrix in="SourceAlpha" type="matrix" values="0 0 0 0 0 0 0 0 0 0 0 0 0 0 0 0 0 0 127 0"/>
<feOffset dy="4"/>
<feGaussianBlur stdDeviation="2"/>
<feColorMatrix type="matrix" values="0 0 0 0 0 0 0 0 0 0 0 0 0 0 0 0 0 0 0.25 0"/>
<feBlend mode="normal" in2="BackgroundImageFix" result="effect1_dropShadow"/>
<feColorMatrix in="SourceAlpha" type="matrix" values="0 0 0 0 0 0 0 0 0 0 0 0 0 0 0 0 0 0 127 0"/>
<feOffset dy="4"/>
<feGaussianBlur stdDeviation="2"/>
<feColorMatrix type="matrix" values="0 0 0 0 0 0 0 0 0 0 0 0 0 0 0 0 0 0 0.25 0"/>
<feBlend mode="normal" in2="effect1_dropShadow" result="effect2_dropShadow"/>
<feBlend mode="normal" in="SourceGraphic" in2="effect2_dropShadow" result="shape"/>
</filter>
<filter id="filter8_dd" x="1168" y="100" width="210" height="210" filterUnits="userSpaceOnUse" color-interpolation-filters="sRGB">
<feFlood flood-opacity="0" result="BackgroundImageFix"/>
<feColorMatrix in="SourceAlpha" type="matrix" values="0 0 0 0 0 0 0 0 0 0 0 0 0 0 0 0 0 0 127 0"/>
<feOffset dy="4"/>
<feGaussianBlur stdDeviation="2"/>
<feColorMatrix type="matrix" values="0 0 0 0 0 0 0 0 0 0 0 0 0 0 0 0 0 0 0.25 0"/>
<feBlend mode="normal" in2="BackgroundImageFix" result="effect1_dropShadow"/>
<feColorMatrix in="SourceAlpha" type="matrix" values="0 0 0 0 0 0 0 0 0 0 0 0 0 0 0 0 0 0 127 0"/>
<feOffset dy="4"/>
<feGaussianBlur stdDeviation="2"/>
<feColorMatrix type="matrix" values="0 0 0 0 0 0 0 0 0 0 0 0 0 0 0 0 0 0 0.25 0"/>
<feBlend mode="normal" in2="effect1_dropShadow" result="effect2_dropShadow"/>
<feBlend mode="normal" in="SourceGraphic" in2="effect2_dropShadow" result="shape"/>
</filter>
<filter id="filter9_df" x="1254" y="182" width="38" height="42" filterUnits="userSpaceOnUse" color-interpolation-filters="sRGB">
<feFlood flood-opacity="0" result="BackgroundImageFix"/>
<feColorMatrix in="SourceAlpha" type="matrix" values="0 0 0 0 0 0 0 0 0 0 0 0 0 0 0 0 0 0 127 0"/>
<feOffset dy="4"/>
<feGaussianBlur stdDeviation="2"/>
<feColorMatrix type="matrix" values="0 0 0 0 0 0 0 0 0 0 0 0 0 0 0 0 0 0 0.25 0"/>
<feBlend mode="normal" in2="BackgroundImageFix" result="effect1_dropShadow"/>
<feBlend mode="normal" in="SourceGraphic" in2="effect1_dropShadow" result="shape"/>
<feGaussianBlur stdDeviation="2" result="effect2_foregroundBlur"/>
</filter>
<filter id="filter10_dd" x="394.898" y="440.9" width="1142.84" height="169.9" filterUnits="userSpaceOnUse" color-interpolation-filters="sRGB">
<feFlood flood-opacity="0" result="BackgroundImageFix"/>
<feColorMatrix in="SourceAlpha" type="matrix" values="0 0 0 0 0 0 0 0 0 0 0 0 0 0 0 0 0 0 127 0"/>
<feOffset dy="4"/>
<feGaussianBlur stdDeviation="2"/>
<feColorMatrix type="matrix" values="0 0 0 0 0 0 0 0 0 0 0 0 0 0 0 0 0 0 0.25 0"/>
<feBlend mode="normal" in2="BackgroundImageFix" result="effect1_dropShadow"/>
<feColorMatrix in="SourceAlpha" type="matrix" values="0 0 0 0 0 0 0 0 0 0 0 0 0 0 0 0 0 0 127 0"/>
<feOffset dy="4"/>
<feGaussianBlur stdDeviation="2"/>
<feColorMatrix type="matrix" values="0 0 0 0 0 0 0 0 0 0 0 0 0 0 0 0 0 0 0.25 0"/>
<feBlend mode="normal" in2="effect1_dropShadow" result="effect2_dropShadow"/>
<feBlend mode="normal" in="SourceGraphic" in2="effect2_dropShadow" result="shape"/>
</filter>
<filter id="filter11_dd" x="840" y="102" width="210" height="210" filterUnits="userSpaceOnUse" color-interpolation-filters="sRGB">
<feFlood flood-opacity="0" result="BackgroundImageFix"/>
<feColorMatrix in="SourceAlpha" type="matrix" values="0 0 0 0 0 0 0 0 0 0 0 0 0 0 0 0 0 0 127 0"/>
<feOffset dy="4"/>
<feGaussianBlur stdDeviation="2"/>
<feColorMatrix type="matrix" values="0 0 0 0 0 0 0 0 0 0 0 0 0 0 0 0 0 0 0.25 0"/>
<feBlend mode="normal" in2="BackgroundImageFix" result="effect1_dropShadow"/>
<feColorMatrix in="SourceAlpha" type="matrix" values="0 0 0 0 0 0 0 0 0 0 0 0 0 0 0 0 0 0 127 0"/>
<feOffset dy="4"/>
<feGaussianBlur stdDeviation="2"/>
<feColorMatrix type="matrix" values="0 0 0 0 0 0 0 0 0 0 0 0 0 0 0 0 0 0 0.25 0"/>
<feBlend mode="normal" in2="effect1_dropShadow" result="effect2_dropShadow"/>
<feBlend mode="normal" in="SourceGraphic" in2="effect2_dropShadow" result="shape"/>
</filter>
<filter id="filter12_df" x="926" y="184" width="38" height="42" filterUnits="userSpaceOnUse" color-interpolation-filters="sRGB">
<feFlood flood-opacity="0" result="BackgroundImageFix"/>
<feColorMatrix in="SourceAlpha" type="matrix" values="0 0 0 0 0 0 0 0 0 0 0 0 0 0 0 0 0 0 127 0"/>
<feOffset dy="4"/>
<feGaussianBlur stdDeviation="2"/>
<feColorMatrix type="matrix" values="0 0 0 0 0 0 0 0 0 0 0 0 0 0 0 0 0 0 0.25 0"/>
<feBlend mode="normal" in2="BackgroundImageFix" result="effect1_dropShadow"/>
<feBlend mode="normal" in="SourceGraphic" in2="effect1_dropShadow" result="shape"/>
<feGaussianBlur stdDeviation="2" result="effect2_foregroundBlur"/>
</filter>
<filter id="filter13_df" x="944.886" y="188.501" width="336.229" height="31.9983" filterUnits="userSpaceOnUse" color-interpolation-filters="sRGB">
<feFlood flood-opacity="0" result="BackgroundImageFix"/>
<feColorMatrix in="SourceAlpha" type="matrix" values="0 0 0 0 0 0 0 0 0 0 0 0 0 0 0 0 0 0 127 0"/>
<feOffset dy="4"/>
<feGaussianBlur stdDeviation="2"/>
<feColorMatrix type="matrix" values="0 0 0 0 0 0 0 0 0 0 0 0 0 0 0 0 0 0 0.25 0"/>
<feBlend mode="normal" in2="BackgroundImageFix" result="effect1_dropShadow"/>
<feBlend mode="normal" in="SourceGraphic" in2="effect1_dropShadow" result="shape"/>
<feGaussianBlur stdDeviation="2" result="effect2_foregroundBlur"/>
</filter>
</defs>
</svg>
