<svg width="2300" height="229" viewBox="0 0 2300 229" fill="none" xmlns="http://www.w3.org/2000/svg">
<path d="M0 0H1920V229H0V0Z" fill="#E5E5E5"/>
<g filter="url(#filter0_dd)">
<path d="M386.95 131C386.383 131 385.917 130.817 385.55 130.45C385.183 130.083 385 129.617 385 129.05V93.9C385 93.3333 385.183 92.8667 385.55 92.5C385.917 92.1333 386.383 91.95 386.95 91.95H396.95C399.417 91.95 401.6 92.5 403.5 93.6C405.4 94.6667 406.883 96.15 407.95 98.05C409.017 99.95 409.55 102.15 409.55 104.65C409.55 107.083 409.017 109.25 407.95 111.15C406.883 113.017 405.4 114.5 403.5 115.6C401.6 116.667 399.417 117.2 396.95 117.2H388.9V129.05C388.9 129.617 388.717 130.083 388.35 130.45C387.983 130.817 387.517 131 386.95 131ZM388.9 113.45H396.95C398.65 113.45 400.167 113.083 401.5 112.35C402.833 111.583 403.867 110.533 404.6 109.2C405.367 107.867 405.75 106.35 405.75 104.65C405.75 102.883 405.367 101.333 404.6 100C403.867 98.6667 402.833 97.6167 401.5 96.85C400.167 96.0833 398.65 95.7 396.95 95.7H388.9V113.45ZM420.265 131C418.932 131 417.732 130.633 416.665 129.9C415.632 129.167 414.815 128.15 414.215 126.85C413.649 125.55 413.365 124.05 413.365 122.35V93.85C413.365 93.2833 413.532 92.8333 413.865 92.5C414.232 92.1333 414.699 91.95 415.265 91.95C415.832 91.95 416.282 92.1333 416.615 92.5C416.982 92.8333 417.165 93.2833 417.165 93.85V122.35C417.165 123.783 417.449 124.95 418.015 125.85C418.615 126.75 419.365 127.2 420.265 127.2H421.515C422.015 127.2 422.415 127.383 422.715 127.75C423.015 128.083 423.165 128.533 423.165 129.1C423.165 129.667 422.949 130.133 422.515 130.5C422.115 130.833 421.582 131 420.915 131H420.265ZM438.613 131.25C435.913 131.25 433.513 130.667 431.413 129.5C429.346 128.3 427.713 126.65 426.513 124.55C425.346 122.45 424.763 120.05 424.763 117.35C424.763 114.617 425.313 112.217 426.413 110.15C427.546 108.05 429.096 106.4 431.063 105.2C433.03 104 435.296 103.4 437.863 103.4C440.396 103.4 442.596 103.983 444.463 105.15C446.363 106.283 447.83 107.867 448.863 109.9C449.896 111.933 450.413 114.25 450.413 116.85C450.413 117.383 450.246 117.817 449.913 118.15C449.58 118.45 449.146 118.6 448.613 118.6H427.363V115.4H449.013L446.863 116.95C446.896 115.017 446.546 113.283 445.813 111.75C445.08 110.217 444.03 109.017 442.663 108.15C441.33 107.283 439.73 106.85 437.863 106.85C435.963 106.85 434.296 107.3 432.863 108.2C431.43 109.1 430.313 110.35 429.513 111.95C428.746 113.517 428.363 115.317 428.363 117.35C428.363 119.383 428.796 121.183 429.663 122.75C430.563 124.317 431.78 125.55 433.313 126.45C434.846 127.35 436.613 127.8 438.613 127.8C439.813 127.8 441.013 127.6 442.213 127.2C443.446 126.767 444.43 126.233 445.163 125.6C445.53 125.3 445.946 125.15 446.413 125.15C446.88 125.117 447.28 125.233 447.613 125.5C448.046 125.9 448.263 126.333 448.263 126.8C448.296 127.267 448.113 127.667 447.713 128C446.613 128.933 445.213 129.717 443.513 130.35C441.813 130.95 440.18 131.25 438.613 131.25ZM467.249 131.25C464.683 131.25 462.383 130.65 460.349 129.45C458.316 128.217 456.699 126.55 455.499 124.45C454.333 122.35 453.749 119.983 453.749 117.35C453.749 114.683 454.349 112.3 455.549 110.2C456.783 108.1 458.449 106.45 460.549 105.25C462.649 104.017 465.016 103.4 467.649 103.4C470.283 103.4 472.633 104.017 474.699 105.25C476.799 106.45 478.449 108.1 479.649 110.2C480.883 112.3 481.516 114.683 481.549 117.35L479.999 118.55C479.999 120.95 479.433 123.117 478.299 125.05C477.199 126.95 475.683 128.467 473.749 129.6C471.849 130.7 469.683 131.25 467.249 131.25ZM467.649 127.75C469.583 127.75 471.299 127.3 472.799 126.4C474.333 125.5 475.533 124.267 476.399 122.7C477.299 121.1 477.749 119.317 477.749 117.35C477.749 115.35 477.299 113.567 476.399 112C475.533 110.433 474.333 109.2 472.799 108.3C471.299 107.367 469.583 106.9 467.649 106.9C465.749 106.9 464.033 107.367 462.499 108.3C460.966 109.2 459.749 110.433 458.849 112C457.949 113.567 457.499 115.35 457.499 117.35C457.499 119.317 457.949 121.1 458.849 122.7C459.749 124.267 460.966 125.5 462.499 126.4C464.033 127.3 465.749 127.75 467.649 127.75ZM479.599 131C479.033 131 478.566 130.833 478.199 130.5C477.833 130.133 477.649 129.667 477.649 129.1V120.55L478.599 116.6L481.549 117.35V129.1C481.549 129.667 481.366 130.133 480.999 130.5C480.633 130.833 480.166 131 479.599 131ZM497.837 131.25C495.87 131.25 493.92 130.917 491.987 130.25C490.054 129.583 488.487 128.583 487.287 127.25C486.92 126.85 486.77 126.4 486.837 125.9C486.904 125.4 487.154 124.967 487.587 124.6C488.054 124.267 488.537 124.133 489.037 124.2C489.537 124.267 489.954 124.483 490.287 124.85C491.087 125.783 492.137 126.5 493.437 127C494.77 127.5 496.237 127.75 497.837 127.75C500.304 127.75 502.087 127.333 503.187 126.5C504.287 125.633 504.854 124.6 504.887 123.4C504.887 122.2 504.32 121.217 503.187 120.45C502.054 119.65 500.187 119.033 497.587 118.6C494.22 118.067 491.754 117.133 490.187 115.8C488.62 114.467 487.837 112.883 487.837 111.05C487.837 109.35 488.287 107.933 489.187 106.8C490.087 105.667 491.287 104.817 492.787 104.25C494.287 103.683 495.937 103.4 497.737 103.4C499.97 103.4 501.887 103.783 503.487 104.55C505.12 105.317 506.437 106.35 507.437 107.65C507.77 108.083 507.904 108.533 507.837 109C507.77 109.467 507.504 109.85 507.037 110.15C506.637 110.383 506.17 110.467 505.637 110.4C505.137 110.3 504.704 110.05 504.337 109.65C503.504 108.683 502.537 107.983 501.437 107.55C500.337 107.083 499.07 106.85 497.637 106.85C495.804 106.85 494.337 107.233 493.237 108C492.137 108.733 491.587 109.667 491.587 110.8C491.587 111.567 491.787 112.233 492.187 112.8C492.62 113.367 493.337 113.867 494.337 114.3C495.37 114.733 496.804 115.1 498.637 115.4C501.137 115.8 503.104 116.4 504.537 117.2C506.004 117.967 507.037 118.883 507.637 119.95C508.27 120.983 508.587 122.117 508.587 123.35C508.587 124.917 508.12 126.3 507.187 127.5C506.287 128.667 505.02 129.583 503.387 130.25C501.787 130.917 499.937 131.25 497.837 131.25ZM526.89 131.25C524.19 131.25 521.79 130.667 519.69 129.5C517.624 128.3 515.99 126.65 514.79 124.55C513.624 122.45 513.04 120.05 513.04 117.35C513.04 114.617 513.59 112.217 514.69 110.15C515.824 108.05 517.374 106.4 519.34 105.2C521.307 104 523.574 103.4 526.14 103.4C528.674 103.4 530.874 103.983 532.74 105.15C534.64 106.283 536.107 107.867 537.14 109.9C538.174 111.933 538.69 114.25 538.69 116.85C538.69 117.383 538.524 117.817 538.19 118.15C537.857 118.45 537.424 118.6 536.89 118.6H515.64V115.4H537.29L535.14 116.95C535.174 115.017 534.824 113.283 534.09 111.75C533.357 110.217 532.307 109.017 530.94 108.15C529.607 107.283 528.007 106.85 526.14 106.85C524.24 106.85 522.574 107.3 521.14 108.2C519.707 109.1 518.59 110.35 517.79 111.95C517.024 113.517 516.64 115.317 516.64 117.35C516.64 119.383 517.074 121.183 517.94 122.75C518.84 124.317 520.057 125.55 521.59 126.45C523.124 127.35 524.89 127.8 526.89 127.8C528.09 127.8 529.29 127.6 530.49 127.2C531.724 126.767 532.707 126.233 533.44 125.6C533.807 125.3 534.224 125.15 534.69 125.15C535.157 125.117 535.557 125.233 535.89 125.5C536.324 125.9 536.54 126.333 536.54 126.8C536.574 127.267 536.39 127.667 535.99 128C534.89 128.933 533.49 129.717 531.79 130.35C530.09 130.95 528.457 131.25 526.89 131.25ZM559.952 114.15C560.052 112.083 560.585 110.233 561.552 108.6C562.552 106.967 563.835 105.683 565.402 104.75C567.002 103.817 568.768 103.35 570.702 103.35C572.235 103.35 573.418 103.567 574.252 104C575.085 104.433 575.402 105.067 575.202 105.9C575.068 106.4 574.835 106.733 574.502 106.9C574.202 107.067 573.818 107.133 573.352 107.1C572.918 107.067 572.418 107.033 571.852 107C569.985 106.833 568.318 107.033 566.852 107.6C565.418 108.133 564.268 108.967 563.402 110.1C562.568 111.233 562.152 112.583 562.152 114.15H559.952ZM560.252 131C559.652 131 559.185 130.833 558.852 130.5C558.518 130.167 558.352 129.7 558.352 129.1V105.55C558.352 104.95 558.518 104.483 558.852 104.15C559.185 103.817 559.652 103.65 560.252 103.65C560.852 103.65 561.318 103.817 561.652 104.15C561.985 104.483 562.152 104.95 562.152 105.55V129.1C562.152 129.7 561.985 130.167 561.652 130.5C561.318 130.833 560.852 131 560.252 131ZM590.9 131.25C588.2 131.25 585.8 130.667 583.7 129.5C581.633 128.3 580 126.65 578.8 124.55C577.633 122.45 577.05 120.05 577.05 117.35C577.05 114.617 577.6 112.217 578.7 110.15C579.833 108.05 581.383 106.4 583.35 105.2C585.317 104 587.583 103.4 590.15 103.4C592.683 103.4 594.883 103.983 596.75 105.15C598.65 106.283 600.117 107.867 601.15 109.9C602.183 111.933 602.7 114.25 602.7 116.85C602.7 117.383 602.533 117.817 602.2 118.15C601.867 118.45 601.433 118.6 600.9 118.6H579.65V115.4H601.3L599.15 116.95C599.183 115.017 598.833 113.283 598.1 111.75C597.367 110.217 596.317 109.017 594.95 108.15C593.617 107.283 592.017 106.85 590.15 106.85C588.25 106.85 586.583 107.3 585.15 108.2C583.717 109.1 582.6 110.35 581.8 111.95C581.033 113.517 580.65 115.317 580.65 117.35C580.65 119.383 581.083 121.183 581.95 122.75C582.85 124.317 584.067 125.55 585.6 126.45C587.133 127.35 588.9 127.8 590.9 127.8C592.1 127.8 593.3 127.6 594.5 127.2C595.733 126.767 596.717 126.233 597.45 125.6C597.817 125.3 598.233 125.15 598.7 125.15C599.167 125.117 599.567 125.233 599.9 125.5C600.333 125.9 600.55 126.333 600.55 126.8C600.583 127.267 600.4 127.667 600 128C598.9 128.933 597.5 129.717 595.8 130.35C594.1 130.95 592.467 131.25 590.9 131.25ZM619.886 131.25C617.186 131.25 614.786 130.667 612.686 129.5C610.62 128.3 608.986 126.65 607.786 124.55C606.62 122.45 606.036 120.05 606.036 117.35C606.036 114.617 606.586 112.217 607.686 110.15C608.82 108.05 610.37 106.4 612.336 105.2C614.303 104 616.57 103.4 619.136 103.4C621.67 103.4 623.87 103.983 625.736 105.15C627.636 106.283 629.103 107.867 630.136 109.9C631.17 111.933 631.686 114.25 631.686 116.85C631.686 117.383 631.52 117.817 631.186 118.15C630.853 118.45 630.42 118.6 629.886 118.6H608.636V115.4H630.286L628.136 116.95C628.17 115.017 627.82 113.283 627.086 111.75C626.353 110.217 625.303 109.017 623.936 108.15C622.603 107.283 621.003 106.85 619.136 106.85C617.236 106.85 615.57 107.3 614.136 108.2C612.703 109.1 611.586 110.35 610.786 111.95C610.02 113.517 609.636 115.317 609.636 117.35C609.636 119.383 610.07 121.183 610.936 122.75C611.836 124.317 613.053 125.55 614.586 126.45C616.12 127.35 617.886 127.8 619.886 127.8C621.086 127.8 622.286 127.6 623.486 127.2C624.72 126.767 625.703 126.233 626.436 125.6C626.803 125.3 627.22 125.15 627.686 125.15C628.153 125.117 628.553 125.233 628.886 125.5C629.32 125.9 629.536 126.333 629.536 126.8C629.57 127.267 629.386 127.667 628.986 128C627.886 128.933 626.486 129.717 624.786 130.35C623.086 130.95 621.453 131.25 619.886 131.25ZM660.899 131C660.333 131 659.866 130.817 659.499 130.45C659.133 130.083 658.949 129.633 658.949 129.1V116.1C658.949 114.033 658.549 112.333 657.749 111C656.983 109.667 655.916 108.667 654.549 108C653.216 107.333 651.699 107 649.999 107C648.366 107 646.883 107.317 645.549 107.95C644.249 108.583 643.216 109.45 642.449 110.55C641.683 111.65 641.299 112.9 641.299 114.3H638.549C638.616 112.2 639.183 110.333 640.249 108.7C641.316 107.033 642.733 105.733 644.499 104.8C646.266 103.833 648.233 103.35 650.399 103.35C652.766 103.35 654.883 103.85 656.749 104.85C658.616 105.817 660.083 107.25 661.149 109.15C662.249 111.05 662.799 113.367 662.799 116.1V129.1C662.799 129.633 662.616 130.083 662.249 130.45C661.883 130.817 661.433 131 660.899 131ZM639.399 131C638.799 131 638.316 130.833 637.949 130.5C637.616 130.133 637.449 129.667 637.449 129.1V105.6C637.449 105 637.616 104.533 637.949 104.2C638.316 103.833 638.799 103.65 639.399 103.65C639.966 103.65 640.416 103.833 640.749 104.2C641.116 104.533 641.299 105 641.299 105.6V129.1C641.299 129.667 641.116 130.133 640.749 130.5C640.416 130.833 639.966 131 639.399 131ZM681.237 131C679.47 131 677.887 130.583 676.487 129.75C675.12 128.917 674.037 127.783 673.237 126.35C672.437 124.883 672.037 123.217 672.037 121.35V96.9C672.037 96.3333 672.204 95.8667 672.537 95.5C672.904 95.1333 673.37 94.95 673.937 94.95C674.504 94.95 674.97 95.1333 675.337 95.5C675.704 95.8667 675.887 96.3333 675.887 96.9V121.35C675.887 123.05 676.387 124.45 677.387 125.55C678.387 126.617 679.67 127.15 681.237 127.15H682.587C683.12 127.15 683.554 127.333 683.887 127.7C684.22 128.067 684.387 128.533 684.387 129.1C684.387 129.667 684.187 130.133 683.787 130.5C683.387 130.833 682.887 131 682.287 131H681.237ZM668.787 108C668.287 108 667.87 107.85 667.537 107.55C667.204 107.217 667.037 106.817 667.037 106.35C667.037 105.85 667.204 105.45 667.537 105.15C667.87 104.817 668.287 104.65 668.787 104.65H681.537C682.037 104.65 682.454 104.817 682.787 105.15C683.12 105.45 683.287 105.85 683.287 106.35C683.287 106.817 683.12 107.217 682.787 107.55C682.454 107.85 682.037 108 681.537 108H668.787ZM702.304 131.25C699.604 131.25 697.204 130.667 695.104 129.5C693.038 128.3 691.404 126.65 690.204 124.55C689.038 122.45 688.454 120.05 688.454 117.35C688.454 114.617 689.004 112.217 690.104 110.15C691.238 108.05 692.788 106.4 694.754 105.2C696.721 104 698.988 103.4 701.554 103.4C704.088 103.4 706.288 103.983 708.154 105.15C710.054 106.283 711.521 107.867 712.554 109.9C713.588 111.933 714.104 114.25 714.104 116.85C714.104 117.383 713.938 117.817 713.604 118.15C713.271 118.45 712.838 118.6 712.304 118.6H691.054V115.4H712.704L710.554 116.95C710.588 115.017 710.238 113.283 709.504 111.75C708.771 110.217 707.721 109.017 706.354 108.15C705.021 107.283 703.421 106.85 701.554 106.85C699.654 106.85 697.988 107.3 696.554 108.2C695.121 109.1 694.004 110.35 693.204 111.95C692.438 113.517 692.054 115.317 692.054 117.35C692.054 119.383 692.488 121.183 693.354 122.75C694.254 124.317 695.471 125.55 697.004 126.45C698.538 127.35 700.304 127.8 702.304 127.8C703.504 127.8 704.704 127.6 705.904 127.2C707.138 126.767 708.121 126.233 708.854 125.6C709.221 125.3 709.638 125.15 710.104 125.15C710.571 125.117 710.971 125.233 711.304 125.5C711.738 125.9 711.954 126.333 711.954 126.8C711.988 127.267 711.804 127.667 711.404 128C710.304 128.933 708.904 129.717 707.204 130.35C705.504 130.95 703.871 131.25 702.304 131.25ZM721.467 114.15C721.567 112.083 722.101 110.233 723.067 108.6C724.067 106.967 725.351 105.683 726.917 104.75C728.517 103.817 730.284 103.35 732.217 103.35C733.751 103.35 734.934 103.567 735.767 104C736.601 104.433 736.917 105.067 736.717 105.9C736.584 106.4 736.351 106.733 736.017 106.9C735.717 107.067 735.334 107.133 734.867 107.1C734.434 107.067 733.934 107.033 733.367 107C731.501 106.833 729.834 107.033 728.367 107.6C726.934 108.133 725.784 108.967 724.917 110.1C724.084 111.233 723.667 112.583 723.667 114.15H721.467ZM721.767 131C721.167 131 720.701 130.833 720.367 130.5C720.034 130.167 719.867 129.7 719.867 129.1V105.55C719.867 104.95 720.034 104.483 720.367 104.15C720.701 103.817 721.167 103.65 721.767 103.65C722.367 103.65 722.834 103.817 723.167 104.15C723.501 104.483 723.667 104.95 723.667 105.55V129.1C723.667 129.7 723.501 130.167 723.167 130.5C722.834 130.833 722.367 131 721.767 131ZM760.616 142.9C760.349 142.9 760.049 142.833 759.716 142.7C758.583 142.2 758.266 141.4 758.766 140.3L774.916 104.7C775.416 103.633 776.216 103.333 777.316 103.8C778.449 104.267 778.766 105.05 778.266 106.15L762.066 141.75C761.733 142.517 761.249 142.9 760.616 142.9ZM766.166 130.15C765.666 130.383 765.199 130.433 764.766 130.3C764.333 130.133 763.983 129.8 763.716 129.3L752.566 106.2C752.333 105.7 752.299 105.233 752.466 104.8C752.633 104.367 752.966 104.033 753.466 103.8C753.966 103.567 754.433 103.533 754.866 103.7C755.299 103.833 755.633 104.15 755.866 104.65L766.816 127.75C767.083 128.25 767.166 128.717 767.066 129.15C766.966 129.583 766.666 129.917 766.166 130.15ZM794.032 131.25C791.365 131.25 788.982 130.65 786.882 129.45C784.782 128.25 783.132 126.6 781.932 124.5C780.732 122.4 780.132 120.017 780.132 117.35C780.132 114.65 780.732 112.25 781.932 110.15C783.132 108.05 784.782 106.4 786.882 105.2C788.982 104 791.365 103.4 794.032 103.4C796.699 103.4 799.065 104 801.132 105.2C803.232 106.4 804.882 108.05 806.082 110.15C807.282 112.25 807.899 114.65 807.932 117.35C807.932 120.017 807.315 122.4 806.082 124.5C804.882 126.6 803.232 128.25 801.132 129.45C799.065 130.65 796.699 131.25 794.032 131.25ZM794.032 127.75C795.965 127.75 797.699 127.3 799.232 126.4C800.765 125.5 801.965 124.267 802.832 122.7C803.699 121.133 804.132 119.35 804.132 117.35C804.132 115.35 803.699 113.567 802.832 112C801.965 110.4 800.765 109.15 799.232 108.25C797.699 107.35 795.965 106.9 794.032 106.9C792.099 106.9 790.365 107.35 788.832 108.25C787.299 109.15 786.082 110.4 785.182 112C784.315 113.567 783.882 115.35 783.882 117.35C783.882 119.35 784.315 121.133 785.182 122.7C786.082 124.267 787.299 125.5 788.832 126.4C790.365 127.3 792.099 127.75 794.032 127.75ZM826.57 131.3C824.203 131.3 822.087 130.817 820.22 129.85C818.353 128.85 816.87 127.4 815.77 125.5C814.703 123.6 814.17 121.283 814.17 118.55V105.55C814.17 105.017 814.353 104.567 814.72 104.2C815.087 103.833 815.537 103.65 816.07 103.65C816.637 103.65 817.103 103.833 817.47 104.2C817.837 104.567 818.02 105.017 818.02 105.55V118.55C818.02 120.617 818.403 122.317 819.17 123.65C819.97 124.983 821.037 125.983 822.37 126.65C823.737 127.317 825.27 127.65 826.97 127.65C828.603 127.65 830.07 127.333 831.37 126.7C832.703 126.067 833.753 125.2 834.52 124.1C835.287 123 835.67 121.75 835.67 120.35H838.42C838.32 122.45 837.737 124.333 836.67 126C835.637 127.633 834.237 128.933 832.47 129.9C830.703 130.833 828.737 131.3 826.57 131.3ZM837.57 131C837.003 131 836.537 130.833 836.17 130.5C835.837 130.133 835.67 129.65 835.67 129.05V105.55C835.67 104.983 835.837 104.533 836.17 104.2C836.537 103.833 837.003 103.65 837.57 103.65C838.137 103.65 838.603 103.833 838.97 104.2C839.337 104.533 839.52 104.983 839.52 105.55V129.05C839.52 129.65 839.337 130.133 838.97 130.5C838.603 130.833 838.137 131 837.57 131ZM849.358 114.15C849.458 112.083 849.991 110.233 850.958 108.6C851.958 106.967 853.241 105.683 854.808 104.75C856.408 103.817 858.174 103.35 860.108 103.35C861.641 103.35 862.824 103.567 863.658 104C864.491 104.433 864.808 105.067 864.608 105.9C864.474 106.4 864.241 106.733 863.908 106.9C863.608 107.067 863.224 107.133 862.758 107.1C862.324 107.067 861.824 107.033 861.258 107C859.391 106.833 857.724 107.033 856.258 107.6C854.824 108.133 853.674 108.967 852.808 110.1C851.974 111.233 851.558 112.583 851.558 114.15H849.358ZM849.658 131C849.058 131 848.591 130.833 848.258 130.5C847.924 130.167 847.758 129.7 847.758 129.1V105.55C847.758 104.95 847.924 104.483 848.258 104.15C848.591 103.817 849.058 103.65 849.658 103.65C850.258 103.65 850.724 103.817 851.058 104.15C851.391 104.483 851.558 104.95 851.558 105.55V129.1C851.558 129.7 851.391 130.167 851.058 130.5C850.724 130.833 850.258 131 849.658 131ZM885.757 142.7C885.157 142.7 884.673 142.517 884.307 142.15C883.973 141.817 883.807 141.35 883.807 140.75V117.15C883.84 114.55 884.457 112.217 885.657 110.15C886.89 108.05 888.54 106.4 890.607 105.2C892.707 104 895.057 103.4 897.657 103.4C900.323 103.4 902.707 104.017 904.807 105.25C906.907 106.45 908.557 108.1 909.757 110.2C910.99 112.3 911.607 114.683 911.607 117.35C911.607 119.983 911.007 122.35 909.807 124.45C908.64 126.55 907.04 128.217 905.007 129.45C902.973 130.65 900.673 131.25 898.107 131.25C895.873 131.25 893.84 130.783 892.007 129.85C890.207 128.883 888.757 127.617 887.657 126.05V140.75C887.657 141.35 887.473 141.817 887.107 142.15C886.773 142.517 886.323 142.7 885.757 142.7ZM897.657 127.75C899.59 127.75 901.323 127.3 902.857 126.4C904.39 125.5 905.59 124.267 906.457 122.7C907.357 121.1 907.807 119.317 907.807 117.35C907.807 115.35 907.357 113.567 906.457 112C905.59 110.433 904.39 109.2 902.857 108.3C901.323 107.367 899.59 106.9 897.657 106.9C895.757 106.9 894.04 107.367 892.507 108.3C890.973 109.2 889.773 110.433 888.907 112C888.04 113.567 887.607 115.35 887.607 117.35C887.607 119.317 888.04 121.1 888.907 122.7C889.773 124.267 890.973 125.5 892.507 126.4C894.04 127.3 895.757 127.75 897.657 127.75ZM930.458 131.25C927.892 131.25 925.592 130.65 923.558 129.45C921.525 128.217 919.908 126.55 918.708 124.45C917.542 122.35 916.958 119.983 916.958 117.35C916.958 114.683 917.558 112.3 918.758 110.2C919.992 108.1 921.658 106.45 923.758 105.25C925.858 104.017 928.225 103.4 930.858 103.4C933.492 103.4 935.842 104.017 937.908 105.25C940.008 106.45 941.658 108.1 942.858 110.2C944.092 112.3 944.725 114.683 944.758 117.35L943.208 118.55C943.208 120.95 942.642 123.117 941.508 125.05C940.408 126.95 938.892 128.467 936.958 129.6C935.058 130.7 932.892 131.25 930.458 131.25ZM930.858 127.75C932.792 127.75 934.508 127.3 936.008 126.4C937.542 125.5 938.742 124.267 939.608 122.7C940.508 121.1 940.958 119.317 940.958 117.35C940.958 115.35 940.508 113.567 939.608 112C938.742 110.433 937.542 109.2 936.008 108.3C934.508 107.367 932.792 106.9 930.858 106.9C928.958 106.9 927.242 107.367 925.708 108.3C924.175 109.2 922.958 110.433 922.058 112C921.158 113.567 920.708 115.35 920.708 117.35C920.708 119.317 921.158 121.1 922.058 122.7C922.958 124.267 924.175 125.5 925.708 126.4C927.242 127.3 928.958 127.75 930.858 127.75ZM942.808 131C942.242 131 941.775 130.833 941.408 130.5C941.042 130.133 940.858 129.667 940.858 129.1V120.55L941.808 116.6L944.758 117.35V129.1C944.758 129.667 944.575 130.133 944.208 130.5C943.842 130.833 943.375 131 942.808 131ZM962.196 131C960.429 131 958.846 130.583 957.446 129.75C956.079 128.917 954.996 127.783 954.196 126.35C953.396 124.883 952.996 123.217 952.996 121.35V96.9C952.996 96.3333 953.163 95.8667 953.496 95.5C953.863 95.1333 954.329 94.95 954.896 94.95C955.463 94.95 955.929 95.1333 956.296 95.5C956.663 95.8667 956.846 96.3333 956.846 96.9V121.35C956.846 123.05 957.346 124.45 958.346 125.55C959.346 126.617 960.629 127.15 962.196 127.15H963.546C964.079 127.15 964.513 127.333 964.846 127.7C965.179 128.067 965.346 128.533 965.346 129.1C965.346 129.667 965.146 130.133 964.746 130.5C964.346 130.833 963.846 131 963.246 131H962.196ZM949.746 108C949.246 108 948.829 107.85 948.496 107.55C948.163 107.217 947.996 106.817 947.996 106.35C947.996 105.85 948.163 105.45 948.496 105.15C948.829 104.817 949.246 104.65 949.746 104.65H962.496C962.996 104.65 963.413 104.817 963.746 105.15C964.079 105.45 964.246 105.85 964.246 106.35C964.246 106.817 964.079 107.217 963.746 107.55C963.413 107.85 962.996 108 962.496 108H949.746ZM981.563 131C979.797 131 978.213 130.583 976.813 129.75C975.447 128.917 974.363 127.783 973.563 126.35C972.763 124.883 972.363 123.217 972.363 121.35V96.9C972.363 96.3333 972.53 95.8667 972.863 95.5C973.23 95.1333 973.697 94.95 974.263 94.95C974.83 94.95 975.297 95.1333 975.663 95.5C976.03 95.8667 976.213 96.3333 976.213 96.9V121.35C976.213 123.05 976.713 124.45 977.713 125.55C978.713 126.617 979.997 127.15 981.563 127.15H982.913C983.447 127.15 983.88 127.333 984.213 127.7C984.547 128.067 984.713 128.533 984.713 129.1C984.713 129.667 984.513 130.133 984.113 130.5C983.713 130.833 983.213 131 982.613 131H981.563ZM969.113 108C968.613 108 968.197 107.85 967.863 107.55C967.53 107.217 967.363 106.817 967.363 106.35C967.363 105.85 967.53 105.45 967.863 105.15C968.197 104.817 968.613 104.65 969.113 104.65H981.863C982.363 104.65 982.78 104.817 983.113 105.15C983.447 105.45 983.613 105.85 983.613 106.35C983.613 106.817 983.447 107.217 983.113 107.55C982.78 107.85 982.363 108 981.863 108H969.113ZM1002.63 131.25C999.93 131.25 997.53 130.667 995.43 129.5C993.364 128.3 991.73 126.65 990.53 124.55C989.364 122.45 988.78 120.05 988.78 117.35C988.78 114.617 989.33 112.217 990.43 110.15C991.564 108.05 993.114 106.4 995.08 105.2C997.047 104 999.314 103.4 1001.88 103.4C1004.41 103.4 1006.61 103.983 1008.48 105.15C1010.38 106.283 1011.85 107.867 1012.88 109.9C1013.91 111.933 1014.43 114.25 1014.43 116.85C1014.43 117.383 1014.26 117.817 1013.93 118.15C1013.6 118.45 1013.16 118.6 1012.63 118.6H991.38V115.4H1013.03L1010.88 116.95C1010.91 115.017 1010.56 113.283 1009.83 111.75C1009.1 110.217 1008.05 109.017 1006.68 108.15C1005.35 107.283 1003.75 106.85 1001.88 106.85C999.98 106.85 998.314 107.3 996.88 108.2C995.447 109.1 994.33 110.35 993.53 111.95C992.764 113.517 992.38 115.317 992.38 117.35C992.38 119.383 992.814 121.183 993.68 122.75C994.58 124.317 995.797 125.55 997.33 126.45C998.864 127.35 1000.63 127.8 1002.63 127.8C1003.83 127.8 1005.03 127.6 1006.23 127.2C1007.46 126.767 1008.45 126.233 1009.18 125.6C1009.55 125.3 1009.96 125.15 1010.43 125.15C1010.9 125.117 1011.3 125.233 1011.63 125.5C1012.06 125.9 1012.28 126.333 1012.28 126.8C1012.31 127.267 1012.13 127.667 1011.73 128C1010.63 128.933 1009.23 129.717 1007.53 130.35C1005.83 130.95 1004.2 131.25 1002.63 131.25ZM1021.79 114.15C1021.89 112.083 1022.43 110.233 1023.39 108.6C1024.39 106.967 1025.68 105.683 1027.24 104.75C1028.84 103.817 1030.61 103.35 1032.54 103.35C1034.08 103.35 1035.26 103.567 1036.09 104C1036.93 104.433 1037.24 105.067 1037.04 105.9C1036.91 106.4 1036.68 106.733 1036.34 106.9C1036.04 107.067 1035.66 107.133 1035.19 107.1C1034.76 107.067 1034.26 107.033 1033.69 107C1031.83 106.833 1030.16 107.033 1028.69 107.6C1027.26 108.133 1026.11 108.967 1025.24 110.1C1024.41 111.233 1023.99 112.583 1023.99 114.15H1021.79ZM1022.09 131C1021.49 131 1021.03 130.833 1020.69 130.5C1020.36 130.167 1020.19 129.7 1020.19 129.1V105.55C1020.19 104.95 1020.36 104.483 1020.69 104.15C1021.03 103.817 1021.49 103.65 1022.09 103.65C1022.69 103.65 1023.16 103.817 1023.49 104.15C1023.83 104.483 1023.99 104.95 1023.99 105.55V129.1C1023.99 129.7 1023.83 130.167 1023.49 130.5C1023.16 130.833 1022.69 131 1022.09 131ZM1065.79 131C1065.23 131 1064.76 130.817 1064.39 130.45C1064.03 130.083 1063.84 129.633 1063.84 129.1V116.1C1063.84 114.033 1063.44 112.333 1062.64 111C1061.88 109.667 1060.81 108.667 1059.44 108C1058.11 107.333 1056.59 107 1054.89 107C1053.26 107 1051.78 107.317 1050.44 107.95C1049.14 108.583 1048.11 109.45 1047.34 110.55C1046.58 111.65 1046.19 112.9 1046.19 114.3H1043.44C1043.51 112.2 1044.08 110.333 1045.14 108.7C1046.21 107.033 1047.63 105.733 1049.39 104.8C1051.16 103.833 1053.13 103.35 1055.29 103.35C1057.66 103.35 1059.78 103.85 1061.64 104.85C1063.51 105.817 1064.98 107.25 1066.04 109.15C1067.14 111.05 1067.69 113.367 1067.69 116.1V129.1C1067.69 129.633 1067.51 130.083 1067.14 130.45C1066.78 130.817 1066.33 131 1065.79 131ZM1044.29 131C1043.69 131 1043.21 130.833 1042.84 130.5C1042.51 130.133 1042.34 129.667 1042.34 129.1V105.6C1042.34 105 1042.51 104.533 1042.84 104.2C1043.21 103.833 1043.69 103.65 1044.29 103.65C1044.86 103.65 1045.31 103.833 1045.64 104.2C1046.01 104.533 1046.19 105 1046.19 105.6V129.1C1046.19 129.667 1046.01 130.133 1045.64 130.5C1045.31 130.833 1044.86 131 1044.29 131ZM1092.73 131C1092.23 131 1091.8 130.833 1091.43 130.5C1091.06 130.133 1090.88 129.65 1090.88 129.05V103.7C1090.88 101.367 1091.28 99.3167 1092.08 97.55C1092.88 95.7833 1094.06 94.4167 1095.63 93.45C1097.2 92.45 1099.11 91.95 1101.38 91.95C1101.95 91.95 1102.41 92.1167 1102.78 92.45C1103.15 92.7833 1103.33 93.2 1103.33 93.7C1103.33 94.2 1103.15 94.6167 1102.78 94.95C1102.41 95.2833 1101.95 95.45 1101.38 95.45C1099.88 95.45 1098.63 95.8 1097.63 96.5C1096.66 97.1667 1095.93 98.1167 1095.43 99.35C1094.96 100.55 1094.73 101.933 1094.73 103.5V129.05C1094.73 129.65 1094.55 130.133 1094.18 130.5C1093.85 130.833 1093.36 131 1092.73 131ZM1087.68 108C1087.15 108 1086.71 107.85 1086.38 107.55C1086.08 107.217 1085.93 106.817 1085.93 106.35C1085.93 105.85 1086.08 105.45 1086.38 105.15C1086.71 104.817 1087.15 104.65 1087.68 104.65H1100.73C1101.26 104.65 1101.68 104.817 1101.98 105.15C1102.31 105.45 1102.48 105.85 1102.48 106.35C1102.48 106.817 1102.31 107.217 1101.98 107.55C1101.68 107.85 1101.26 108 1100.73 108H1087.68ZM1118.36 131.25C1115.7 131.25 1113.31 130.65 1111.21 129.45C1109.11 128.25 1107.46 126.6 1106.26 124.5C1105.06 122.4 1104.46 120.017 1104.46 117.35C1104.46 114.65 1105.06 112.25 1106.26 110.15C1107.46 108.05 1109.11 106.4 1111.21 105.2C1113.31 104 1115.7 103.4 1118.36 103.4C1121.03 103.4 1123.4 104 1125.46 105.2C1127.56 106.4 1129.21 108.05 1130.41 110.15C1131.61 112.25 1132.23 114.65 1132.26 117.35C1132.26 120.017 1131.65 122.4 1130.41 124.5C1129.21 126.6 1127.56 128.25 1125.46 129.45C1123.4 130.65 1121.03 131.25 1118.36 131.25ZM1118.36 127.75C1120.3 127.75 1122.03 127.3 1123.56 126.4C1125.1 125.5 1126.3 124.267 1127.16 122.7C1128.03 121.133 1128.46 119.35 1128.46 117.35C1128.46 115.35 1128.03 113.567 1127.16 112C1126.3 110.4 1125.1 109.15 1123.56 108.25C1122.03 107.35 1120.3 106.9 1118.36 106.9C1116.43 106.9 1114.7 107.35 1113.16 108.25C1111.63 109.15 1110.41 110.4 1109.51 112C1108.65 113.567 1108.21 115.35 1108.21 117.35C1108.21 119.35 1108.65 121.133 1109.51 122.7C1110.41 124.267 1111.63 125.5 1113.16 126.4C1114.7 127.3 1116.43 127.75 1118.36 127.75ZM1140.6 114.15C1140.7 112.083 1141.24 110.233 1142.2 108.6C1143.2 106.967 1144.49 105.683 1146.05 104.75C1147.65 103.817 1149.42 103.35 1151.35 103.35C1152.89 103.35 1154.07 103.567 1154.9 104C1155.74 104.433 1156.05 105.067 1155.85 105.9C1155.72 106.4 1155.49 106.733 1155.15 106.9C1154.85 107.067 1154.47 107.133 1154 107.1C1153.57 107.067 1153.07 107.033 1152.5 107C1150.64 106.833 1148.97 107.033 1147.5 107.6C1146.07 108.133 1144.92 108.967 1144.05 110.1C1143.22 111.233 1142.8 112.583 1142.8 114.15H1140.6ZM1140.9 131C1140.3 131 1139.84 130.833 1139.5 130.5C1139.17 130.167 1139 129.7 1139 129.1V105.55C1139 104.95 1139.17 104.483 1139.5 104.15C1139.84 103.817 1140.3 103.65 1140.9 103.65C1141.5 103.65 1141.97 103.817 1142.3 104.15C1142.64 104.483 1142.8 104.95 1142.8 105.55V129.1C1142.8 129.7 1142.64 130.167 1142.3 130.5C1141.97 130.833 1141.5 131 1140.9 131ZM1187.25 131.25C1184.62 131.25 1182.27 130.65 1180.2 129.45C1178.17 128.217 1176.55 126.55 1175.35 124.45C1174.18 122.35 1173.6 119.983 1173.6 117.35C1173.6 114.683 1174.17 112.3 1175.3 110.2C1176.43 108.1 1177.98 106.45 1179.95 105.25C1181.92 104.017 1184.18 103.4 1186.75 103.4C1188.78 103.4 1190.65 103.8 1192.35 104.6C1194.08 105.4 1195.6 106.6 1196.9 108.2C1197.27 108.6 1197.4 109.033 1197.3 109.5C1197.2 109.933 1196.92 110.317 1196.45 110.65C1196.08 110.917 1195.67 111.017 1195.2 110.95C1194.77 110.85 1194.38 110.6 1194.05 110.2C1192.12 108 1189.68 106.9 1186.75 106.9C1184.88 106.9 1183.23 107.35 1181.8 108.25C1180.4 109.15 1179.3 110.383 1178.5 111.95C1177.73 113.517 1177.35 115.317 1177.35 117.35C1177.35 119.35 1177.77 121.133 1178.6 122.7C1179.43 124.267 1180.6 125.5 1182.1 126.4C1183.6 127.3 1185.32 127.75 1187.25 127.75C1188.55 127.75 1189.73 127.583 1190.8 127.25C1191.9 126.883 1192.87 126.333 1193.7 125.6C1194.1 125.267 1194.52 125.083 1194.95 125.05C1195.38 125.017 1195.78 125.15 1196.15 125.45C1196.55 125.817 1196.77 126.233 1196.8 126.7C1196.87 127.167 1196.72 127.567 1196.35 127.9C1193.92 130.133 1190.88 131.25 1187.25 131.25ZM1216.54 131.25C1213.87 131.25 1211.49 130.65 1209.39 129.45C1207.29 128.25 1205.64 126.6 1204.44 124.5C1203.24 122.4 1202.64 120.017 1202.64 117.35C1202.64 114.65 1203.24 112.25 1204.44 110.15C1205.64 108.05 1207.29 106.4 1209.39 105.2C1211.49 104 1213.87 103.4 1216.54 103.4C1219.2 103.4 1221.57 104 1223.64 105.2C1225.74 106.4 1227.39 108.05 1228.59 110.15C1229.79 112.25 1230.4 114.65 1230.44 117.35C1230.44 120.017 1229.82 122.4 1228.59 124.5C1227.39 126.6 1225.74 128.25 1223.64 129.45C1221.57 130.65 1219.2 131.25 1216.54 131.25ZM1216.54 127.75C1218.47 127.75 1220.2 127.3 1221.74 126.4C1223.27 125.5 1224.47 124.267 1225.34 122.7C1226.2 121.133 1226.64 119.35 1226.64 117.35C1226.64 115.35 1226.2 113.567 1225.34 112C1224.47 110.4 1223.27 109.15 1221.74 108.25C1220.2 107.35 1218.47 106.9 1216.54 106.9C1214.6 106.9 1212.87 107.35 1211.34 108.25C1209.8 109.15 1208.59 110.4 1207.69 112C1206.82 113.567 1206.39 115.35 1206.39 117.35C1206.39 119.35 1206.82 121.133 1207.69 122.7C1208.59 124.267 1209.8 125.5 1211.34 126.4C1212.87 127.3 1214.6 127.75 1216.54 127.75ZM1260.62 131C1260.06 131 1259.59 130.817 1259.22 130.45C1258.86 130.083 1258.67 129.633 1258.67 129.1V116.1C1258.67 114.033 1258.27 112.333 1257.47 111C1256.71 109.667 1255.64 108.667 1254.27 108C1252.94 107.333 1251.42 107 1249.72 107C1248.09 107 1246.61 107.317 1245.27 107.95C1243.97 108.583 1242.94 109.45 1242.17 110.55C1241.41 111.65 1241.02 112.9 1241.02 114.3H1238.27C1238.34 112.2 1238.91 110.333 1239.97 108.7C1241.04 107.033 1242.46 105.733 1244.22 104.8C1245.99 103.833 1247.96 103.35 1250.12 103.35C1252.49 103.35 1254.61 103.85 1256.47 104.85C1258.34 105.817 1259.81 107.25 1260.87 109.15C1261.97 111.05 1262.52 113.367 1262.52 116.1V129.1C1262.52 129.633 1262.34 130.083 1261.97 130.45C1261.61 130.817 1261.16 131 1260.62 131ZM1239.12 131C1238.52 131 1238.04 130.833 1237.67 130.5C1237.34 130.133 1237.17 129.667 1237.17 129.1V105.6C1237.17 105 1237.34 104.533 1237.67 104.2C1238.04 103.833 1238.52 103.65 1239.12 103.65C1239.69 103.65 1240.14 103.833 1240.47 104.2C1240.84 104.533 1241.02 105 1241.02 105.6V129.1C1241.02 129.667 1240.84 130.133 1240.47 130.5C1240.14 130.833 1239.69 131 1239.12 131ZM1273.66 131C1273.16 131 1272.73 130.833 1272.36 130.5C1272 130.133 1271.81 129.65 1271.81 129.05V103.7C1271.81 101.367 1272.21 99.3167 1273.01 97.55C1273.81 95.7833 1275 94.4167 1276.56 93.45C1278.13 92.45 1280.05 91.95 1282.31 91.95C1282.88 91.95 1283.35 92.1167 1283.71 92.45C1284.08 92.7833 1284.26 93.2 1284.26 93.7C1284.26 94.2 1284.08 94.6167 1283.71 94.95C1283.35 95.2833 1282.88 95.45 1282.31 95.45C1280.81 95.45 1279.56 95.8 1278.56 96.5C1277.6 97.1667 1276.86 98.1167 1276.36 99.35C1275.9 100.55 1275.66 101.933 1275.66 103.5V129.05C1275.66 129.65 1275.48 130.133 1275.11 130.5C1274.78 130.833 1274.3 131 1273.66 131ZM1268.61 108C1268.08 108 1267.65 107.85 1267.31 107.55C1267.01 107.217 1266.86 106.817 1266.86 106.35C1266.86 105.85 1267.01 105.45 1267.31 105.15C1267.65 104.817 1268.08 104.65 1268.61 104.65H1281.66C1282.2 104.65 1282.61 104.817 1282.91 105.15C1283.25 105.45 1283.41 105.85 1283.41 106.35C1283.41 106.817 1283.25 107.217 1282.91 107.55C1282.61 107.85 1282.2 108 1281.66 108H1268.61ZM1299.3 131.25C1296.63 131.25 1294.25 130.65 1292.15 129.45C1290.05 128.25 1288.4 126.6 1287.2 124.5C1286 122.4 1285.4 120.017 1285.4 117.35C1285.4 114.65 1286 112.25 1287.2 110.15C1288.4 108.05 1290.05 106.4 1292.15 105.2C1294.25 104 1296.63 103.4 1299.3 103.4C1301.96 103.4 1304.33 104 1306.4 105.2C1308.5 106.4 1310.15 108.05 1311.35 110.15C1312.55 112.25 1313.16 114.65 1313.2 117.35C1313.2 120.017 1312.58 122.4 1311.35 124.5C1310.15 126.6 1308.5 128.25 1306.4 129.45C1304.33 130.65 1301.96 131.25 1299.3 131.25ZM1299.3 127.75C1301.23 127.75 1302.96 127.3 1304.5 126.4C1306.03 125.5 1307.23 124.267 1308.1 122.7C1308.96 121.133 1309.4 119.35 1309.4 117.35C1309.4 115.35 1308.96 113.567 1308.1 112C1307.23 110.4 1306.03 109.15 1304.5 108.25C1302.96 107.35 1301.23 106.9 1299.3 106.9C1297.36 106.9 1295.63 107.35 1294.1 108.25C1292.56 109.15 1291.35 110.4 1290.45 112C1289.58 113.567 1289.15 115.35 1289.15 117.35C1289.15 119.35 1289.58 121.133 1290.45 122.7C1291.35 124.267 1292.56 125.5 1294.1 126.4C1295.63 127.3 1297.36 127.75 1299.3 127.75ZM1321.53 114.15C1321.63 112.083 1322.17 110.233 1323.13 108.6C1324.13 106.967 1325.42 105.683 1326.98 104.75C1328.58 103.817 1330.35 103.35 1332.28 103.35C1333.82 103.35 1335 103.567 1335.83 104C1336.67 104.433 1336.98 105.067 1336.78 105.9C1336.65 106.4 1336.42 106.733 1336.08 106.9C1335.78 107.067 1335.4 107.133 1334.93 107.1C1334.5 107.067 1334 107.033 1333.43 107C1331.57 106.833 1329.9 107.033 1328.43 107.6C1327 108.133 1325.85 108.967 1324.98 110.1C1324.15 111.233 1323.73 112.583 1323.73 114.15H1321.53ZM1321.83 131C1321.23 131 1320.77 130.833 1320.43 130.5C1320.1 130.167 1319.93 129.7 1319.93 129.1V105.55C1319.93 104.95 1320.1 104.483 1320.43 104.15C1320.77 103.817 1321.23 103.65 1321.83 103.65C1322.43 103.65 1322.9 103.817 1323.23 104.15C1323.57 104.483 1323.73 104.95 1323.73 105.55V129.1C1323.73 129.7 1323.57 130.167 1323.23 130.5C1322.9 130.833 1322.43 131 1321.83 131ZM1379.03 131C1378.47 131 1378 130.833 1377.63 130.5C1377.27 130.133 1377.08 129.667 1377.08 129.1V114.7C1377.08 112.333 1376.47 110.467 1375.23 109.1C1374 107.7 1372.42 107 1370.48 107C1368.42 107 1366.72 107.7 1365.38 109.1C1364.08 110.467 1363.45 112.3 1363.48 114.6H1360.03C1360.07 112.367 1360.55 110.4 1361.48 108.7C1362.42 107 1363.7 105.683 1365.33 104.75C1366.97 103.817 1368.82 103.35 1370.88 103.35C1372.85 103.35 1374.58 103.817 1376.08 104.75C1377.62 105.683 1378.8 107 1379.63 108.7C1380.5 110.4 1380.93 112.4 1380.93 114.7V129.1C1380.93 129.667 1380.75 130.133 1380.38 130.5C1380.05 130.833 1379.6 131 1379.03 131ZM1344.03 131C1343.43 131 1342.95 130.833 1342.58 130.5C1342.25 130.133 1342.08 129.667 1342.08 129.1V105.6C1342.08 105.033 1342.25 104.567 1342.58 104.2C1342.95 103.833 1343.43 103.65 1344.03 103.65C1344.6 103.65 1345.05 103.833 1345.38 104.2C1345.75 104.567 1345.93 105.033 1345.93 105.6V129.1C1345.93 129.667 1345.75 130.133 1345.38 130.5C1345.05 130.833 1344.6 131 1344.03 131ZM1361.58 131C1361.02 131 1360.55 130.833 1360.18 130.5C1359.82 130.133 1359.63 129.667 1359.63 129.1V114.7C1359.63 112.333 1359.02 110.467 1357.78 109.1C1356.55 107.7 1354.97 107 1353.03 107C1350.97 107 1349.27 107.683 1347.93 109.05C1346.6 110.383 1345.93 112.133 1345.93 114.3H1343.18C1343.25 112.167 1343.72 110.283 1344.58 108.65C1345.48 106.983 1346.7 105.683 1348.23 104.75C1349.77 103.817 1351.5 103.35 1353.43 103.35C1355.4 103.35 1357.13 103.817 1358.63 104.75C1360.17 105.683 1361.35 107 1362.18 108.7C1363.05 110.4 1363.48 112.4 1363.48 114.7V129.1C1363.48 129.667 1363.3 130.133 1362.93 130.5C1362.6 130.833 1362.15 131 1361.58 131ZM1400.75 131.25C1398.18 131.25 1395.88 130.65 1393.85 129.45C1391.81 128.217 1390.2 126.55 1389 124.45C1387.83 122.35 1387.25 119.983 1387.25 117.35C1387.25 114.683 1387.85 112.3 1389.05 110.2C1390.28 108.1 1391.95 106.45 1394.05 105.25C1396.15 104.017 1398.51 103.4 1401.15 103.4C1403.78 103.4 1406.13 104.017 1408.2 105.25C1410.3 106.45 1411.95 108.1 1413.15 110.2C1414.38 112.3 1415.01 114.683 1415.05 117.35L1413.5 118.55C1413.5 120.95 1412.93 123.117 1411.8 125.05C1410.7 126.95 1409.18 128.467 1407.25 129.6C1405.35 130.7 1403.18 131.25 1400.75 131.25ZM1401.15 127.75C1403.08 127.75 1404.8 127.3 1406.3 126.4C1407.83 125.5 1409.03 124.267 1409.9 122.7C1410.8 121.1 1411.25 119.317 1411.25 117.35C1411.25 115.35 1410.8 113.567 1409.9 112C1409.03 110.433 1407.83 109.2 1406.3 108.3C1404.8 107.367 1403.08 106.9 1401.15 106.9C1399.25 106.9 1397.53 107.367 1396 108.3C1394.46 109.2 1393.25 110.433 1392.35 112C1391.45 113.567 1391 115.35 1391 117.35C1391 119.317 1391.45 121.1 1392.35 122.7C1393.25 124.267 1394.46 125.5 1396 126.4C1397.53 127.3 1399.25 127.75 1401.15 127.75ZM1413.1 131C1412.53 131 1412.06 130.833 1411.7 130.5C1411.33 130.133 1411.15 129.667 1411.15 129.1V120.55L1412.1 116.6L1415.05 117.35V129.1C1415.05 129.667 1414.86 130.133 1414.5 130.5C1414.13 130.833 1413.66 131 1413.1 131ZM1432.49 131C1430.72 131 1429.14 130.583 1427.74 129.75C1426.37 128.917 1425.29 127.783 1424.49 126.35C1423.69 124.883 1423.29 123.217 1423.29 121.35V96.9C1423.29 96.3333 1423.45 95.8667 1423.79 95.5C1424.15 95.1333 1424.62 94.95 1425.19 94.95C1425.75 94.95 1426.22 95.1333 1426.59 95.5C1426.95 95.8667 1427.14 96.3333 1427.14 96.9V121.35C1427.14 123.05 1427.64 124.45 1428.64 125.55C1429.64 126.617 1430.92 127.15 1432.49 127.15H1433.84C1434.37 127.15 1434.8 127.333 1435.14 127.7C1435.47 128.067 1435.64 128.533 1435.64 129.1C1435.64 129.667 1435.44 130.133 1435.04 130.5C1434.64 130.833 1434.14 131 1433.54 131H1432.49ZM1420.04 108C1419.54 108 1419.12 107.85 1418.79 107.55C1418.45 107.217 1418.29 106.817 1418.29 106.35C1418.29 105.85 1418.45 105.45 1418.79 105.15C1419.12 104.817 1419.54 104.65 1420.04 104.65H1432.79C1433.29 104.65 1433.7 104.817 1434.04 105.15C1434.37 105.45 1434.54 105.85 1434.54 106.35C1434.54 106.817 1434.37 107.217 1434.04 107.55C1433.7 107.85 1433.29 108 1432.79 108H1420.04ZM1443.9 131C1443.3 131 1442.82 130.833 1442.45 130.5C1442.12 130.133 1441.95 129.65 1441.95 129.05V105.6C1441.95 105 1442.12 104.533 1442.45 104.2C1442.82 103.833 1443.3 103.65 1443.9 103.65C1444.47 103.65 1444.92 103.833 1445.25 104.2C1445.62 104.533 1445.8 105 1445.8 105.6V129.05C1445.8 129.65 1445.62 130.133 1445.25 130.5C1444.92 130.833 1444.47 131 1443.9 131ZM1443.85 98.45C1443.12 98.45 1442.49 98.1833 1441.95 97.65C1441.42 97.1167 1441.15 96.4667 1441.15 95.7C1441.15 94.8667 1441.42 94.2167 1441.95 93.75C1442.52 93.25 1443.17 93 1443.9 93C1444.6 93 1445.22 93.25 1445.75 93.75C1446.32 94.2167 1446.6 94.8667 1446.6 95.7C1446.6 96.4667 1446.34 97.1167 1445.8 97.65C1445.27 98.1833 1444.62 98.45 1443.85 98.45ZM1467.31 131.25C1464.64 131.25 1462.26 130.65 1460.16 129.45C1458.06 128.25 1456.41 126.6 1455.21 124.5C1454.01 122.4 1453.41 120.017 1453.41 117.35C1453.41 114.65 1454.01 112.25 1455.21 110.15C1456.41 108.05 1458.06 106.4 1460.16 105.2C1462.26 104 1464.64 103.4 1467.31 103.4C1469.97 103.4 1472.34 104 1474.41 105.2C1476.51 106.4 1478.16 108.05 1479.36 110.15C1480.56 112.25 1481.17 114.65 1481.21 117.35C1481.21 120.017 1480.59 122.4 1479.36 124.5C1478.16 126.6 1476.51 128.25 1474.41 129.45C1472.34 130.65 1469.97 131.25 1467.31 131.25ZM1467.31 127.75C1469.24 127.75 1470.97 127.3 1472.51 126.4C1474.04 125.5 1475.24 124.267 1476.11 122.7C1476.97 121.133 1477.41 119.35 1477.41 117.35C1477.41 115.35 1476.97 113.567 1476.11 112C1475.24 110.4 1474.04 109.15 1472.51 108.25C1470.97 107.35 1469.24 106.9 1467.31 106.9C1465.37 106.9 1463.64 107.35 1462.11 108.25C1460.57 109.15 1459.36 110.4 1458.46 112C1457.59 113.567 1457.16 115.35 1457.16 117.35C1457.16 119.35 1457.59 121.133 1458.46 122.7C1459.36 124.267 1460.57 125.5 1462.11 126.4C1463.64 127.3 1465.37 127.75 1467.31 127.75ZM1511.39 131C1510.83 131 1510.36 130.817 1509.99 130.45C1509.63 130.083 1509.44 129.633 1509.44 129.1V116.1C1509.44 114.033 1509.04 112.333 1508.24 111C1507.48 109.667 1506.41 108.667 1505.04 108C1503.71 107.333 1502.19 107 1500.49 107C1498.86 107 1497.38 107.317 1496.04 107.95C1494.74 108.583 1493.71 109.45 1492.94 110.55C1492.18 111.65 1491.79 112.9 1491.79 114.3H1489.04C1489.11 112.2 1489.68 110.333 1490.74 108.7C1491.81 107.033 1493.23 105.733 1494.99 104.8C1496.76 103.833 1498.73 103.35 1500.89 103.35C1503.26 103.35 1505.38 103.85 1507.24 104.85C1509.11 105.817 1510.58 107.25 1511.64 109.15C1512.74 111.05 1513.29 113.367 1513.29 116.1V129.1C1513.29 129.633 1513.11 130.083 1512.74 130.45C1512.38 130.817 1511.93 131 1511.39 131ZM1489.89 131C1489.29 131 1488.81 130.833 1488.44 130.5C1488.11 130.133 1487.94 129.667 1487.94 129.1V105.6C1487.94 105 1488.11 104.533 1488.44 104.2C1488.81 103.833 1489.29 103.65 1489.89 103.65C1490.46 103.65 1490.91 103.833 1491.24 104.2C1491.61 104.533 1491.79 105 1491.79 105.6V129.1C1491.79 129.667 1491.61 130.133 1491.24 130.5C1490.91 130.833 1490.46 131 1489.89 131Z" fill="black"/>
</g>
<defs>
<filter id="filter0_dd" x="381" y="91.9502" width="1136.29" height="58.95" filterUnits="userSpaceOnUse" color-interpolation-filters="sRGB">
<feFlood flood-opacity="0" result="BackgroundImageFix"/>
<feColorMatrix in="SourceAlpha" type="matrix" values="0 0 0 0 0 0 0 0 0 0 0 0 0 0 0 0 0 0 127 0"/>
<feOffset dy="4"/>
<feGaussianBlur stdDeviation="2"/>
<feColorMatrix type="matrix" values="0 0 0 0 0 0 0 0 0 0 0 0 0 0 0 0 0 0 0.25 0"/>
<feBlend mode="normal" in2="BackgroundImageFix" result="effect1_dropShadow"/>
<feColorMatrix in="SourceAlpha" type="matrix" values="0 0 0 0 0 0 0 0 0 0 0 0 0 0 0 0 0 0 127 0"/>
<feOffset dy="4"/>
<feGaussianBlur stdDeviation="2"/>
<feColorMatrix type="matrix" values="0 0 0 0 0 0 0 0 0 0 0 0 0 0 0 0 0 0 0.25 0"/>
<feBlend mode="normal" in2="effect1_dropShadow" result="effect2_dropShadow"/>
<feBlend mode="normal" in="SourceGraphic" in2="effect2_dropShadow" result="shape"/>
</filter>
</defs>
</svg>
