<svg width="1920" height="229" viewBox="0 0 1920 229" fill="none" xmlns="http://www.w3.org/2000/svg">
<path d="M0 0H1920V229H0V0Z" fill="#E5E5E5"/>
<g filter="url(#filter0_dd)">
<path d="M398.684 131C398.118 131 397.651 130.817 397.284 130.45C396.918 130.083 396.734 129.617 396.734 129.05V93.9C396.734 93.3333 396.918 92.8667 397.284 92.5C397.651 92.1333 398.118 91.95 398.684 91.95H408.684C411.151 91.95 413.334 92.5 415.234 93.6C417.134 94.6667 418.618 96.15 419.684 98.05C420.751 99.95 421.284 102.15 421.284 104.65C421.284 107.083 420.751 109.25 419.684 111.15C418.618 113.017 417.134 114.5 415.234 115.6C413.334 116.667 411.151 117.2 408.684 117.2H400.634V129.05C400.634 129.617 400.451 130.083 400.084 130.45C399.718 130.817 399.251 131 398.684 131ZM400.634 113.45H408.684C410.384 113.45 411.901 113.083 413.234 112.35C414.568 111.583 415.601 110.533 416.334 109.2C417.101 107.867 417.484 106.35 417.484 104.65C417.484 102.883 417.101 101.333 416.334 100C415.601 98.6667 414.568 97.6167 413.234 96.85C411.901 96.0833 410.384 95.7 408.684 95.7H400.634V113.45ZM432 131C430.666 131 429.466 130.633 428.4 129.9C427.366 129.167 426.55 128.15 425.95 126.85C425.383 125.55 425.1 124.05 425.1 122.35V93.85C425.1 93.2833 425.266 92.8333 425.6 92.5C425.966 92.1333 426.433 91.95 427 91.95C427.566 91.95 428.016 92.1333 428.35 92.5C428.716 92.8333 428.9 93.2833 428.9 93.85V122.35C428.9 123.783 429.183 124.95 429.75 125.85C430.35 126.75 431.1 127.2 432 127.2H433.25C433.75 127.2 434.15 127.383 434.45 127.75C434.75 128.083 434.9 128.533 434.9 129.1C434.9 129.667 434.683 130.133 434.25 130.5C433.85 130.833 433.316 131 432.65 131H432ZM450.347 131.25C447.647 131.25 445.247 130.667 443.147 129.5C441.081 128.3 439.447 126.65 438.247 124.55C437.081 122.45 436.497 120.05 436.497 117.35C436.497 114.617 437.047 112.217 438.147 110.15C439.281 108.05 440.831 106.4 442.797 105.2C444.764 104 447.031 103.4 449.597 103.4C452.131 103.4 454.331 103.983 456.197 105.15C458.097 106.283 459.564 107.867 460.597 109.9C461.631 111.933 462.147 114.25 462.147 116.85C462.147 117.383 461.981 117.817 461.647 118.15C461.314 118.45 460.881 118.6 460.347 118.6H439.097V115.4H460.747L458.597 116.95C458.631 115.017 458.281 113.283 457.547 111.75C456.814 110.217 455.764 109.017 454.397 108.15C453.064 107.283 451.464 106.85 449.597 106.85C447.697 106.85 446.031 107.3 444.597 108.2C443.164 109.1 442.047 110.35 441.247 111.95C440.481 113.517 440.097 115.317 440.097 117.35C440.097 119.383 440.531 121.183 441.397 122.75C442.297 124.317 443.514 125.55 445.047 126.45C446.581 127.35 448.347 127.8 450.347 127.8C451.547 127.8 452.747 127.6 453.947 127.2C455.181 126.767 456.164 126.233 456.897 125.6C457.264 125.3 457.681 125.15 458.147 125.15C458.614 125.117 459.014 125.233 459.347 125.5C459.781 125.9 459.997 126.333 459.997 126.8C460.031 127.267 459.847 127.667 459.447 128C458.347 128.933 456.947 129.717 455.247 130.35C453.547 130.95 451.914 131.25 450.347 131.25ZM478.984 131.25C476.417 131.25 474.117 130.65 472.084 129.45C470.05 128.217 468.434 126.55 467.234 124.45C466.067 122.35 465.484 119.983 465.484 117.35C465.484 114.683 466.084 112.3 467.284 110.2C468.517 108.1 470.184 106.45 472.284 105.25C474.384 104.017 476.75 103.4 479.384 103.4C482.017 103.4 484.367 104.017 486.434 105.25C488.534 106.45 490.184 108.1 491.384 110.2C492.617 112.3 493.25 114.683 493.284 117.35L491.734 118.55C491.734 120.95 491.167 123.117 490.034 125.05C488.934 126.95 487.417 128.467 485.484 129.6C483.584 130.7 481.417 131.25 478.984 131.25ZM479.384 127.75C481.317 127.75 483.034 127.3 484.534 126.4C486.067 125.5 487.267 124.267 488.134 122.7C489.034 121.1 489.484 119.317 489.484 117.35C489.484 115.35 489.034 113.567 488.134 112C487.267 110.433 486.067 109.2 484.534 108.3C483.034 107.367 481.317 106.9 479.384 106.9C477.484 106.9 475.767 107.367 474.234 108.3C472.7 109.2 471.484 110.433 470.584 112C469.684 113.567 469.234 115.35 469.234 117.35C469.234 119.317 469.684 121.1 470.584 122.7C471.484 124.267 472.7 125.5 474.234 126.4C475.767 127.3 477.484 127.75 479.384 127.75ZM491.334 131C490.767 131 490.3 130.833 489.934 130.5C489.567 130.133 489.384 129.667 489.384 129.1V120.55L490.334 116.6L493.284 117.35V129.1C493.284 129.667 493.1 130.133 492.734 130.5C492.367 130.833 491.9 131 491.334 131ZM509.571 131.25C507.605 131.25 505.655 130.917 503.721 130.25C501.788 129.583 500.221 128.583 499.021 127.25C498.655 126.85 498.505 126.4 498.571 125.9C498.638 125.4 498.888 124.967 499.321 124.6C499.788 124.267 500.271 124.133 500.771 124.2C501.271 124.267 501.688 124.483 502.021 124.85C502.821 125.783 503.871 126.5 505.171 127C506.505 127.5 507.971 127.75 509.571 127.75C512.038 127.75 513.821 127.333 514.921 126.5C516.021 125.633 516.588 124.6 516.621 123.4C516.621 122.2 516.055 121.217 514.921 120.45C513.788 119.65 511.921 119.033 509.321 118.6C505.955 118.067 503.488 117.133 501.921 115.8C500.355 114.467 499.571 112.883 499.571 111.05C499.571 109.35 500.021 107.933 500.921 106.8C501.821 105.667 503.021 104.817 504.521 104.25C506.021 103.683 507.671 103.4 509.471 103.4C511.705 103.4 513.621 103.783 515.221 104.55C516.855 105.317 518.171 106.35 519.171 107.65C519.505 108.083 519.638 108.533 519.571 109C519.505 109.467 519.238 109.85 518.771 110.15C518.371 110.383 517.905 110.467 517.371 110.4C516.871 110.3 516.438 110.05 516.071 109.65C515.238 108.683 514.271 107.983 513.171 107.55C512.071 107.083 510.805 106.85 509.371 106.85C507.538 106.85 506.071 107.233 504.971 108C503.871 108.733 503.321 109.667 503.321 110.8C503.321 111.567 503.521 112.233 503.921 112.8C504.355 113.367 505.071 113.867 506.071 114.3C507.105 114.733 508.538 115.1 510.371 115.4C512.871 115.8 514.838 116.4 516.271 117.2C517.738 117.967 518.771 118.883 519.371 119.95C520.005 120.983 520.321 122.117 520.321 123.35C520.321 124.917 519.855 126.3 518.921 127.5C518.021 128.667 516.755 129.583 515.121 130.25C513.521 130.917 511.671 131.25 509.571 131.25ZM538.625 131.25C535.925 131.25 533.525 130.667 531.425 129.5C529.358 128.3 527.725 126.65 526.525 124.55C525.358 122.45 524.775 120.05 524.775 117.35C524.775 114.617 525.325 112.217 526.425 110.15C527.558 108.05 529.108 106.4 531.075 105.2C533.041 104 535.308 103.4 537.875 103.4C540.408 103.4 542.608 103.983 544.475 105.15C546.375 106.283 547.841 107.867 548.875 109.9C549.908 111.933 550.425 114.25 550.425 116.85C550.425 117.383 550.258 117.817 549.925 118.15C549.591 118.45 549.158 118.6 548.625 118.6H527.375V115.4H549.025L546.875 116.95C546.908 115.017 546.558 113.283 545.825 111.75C545.091 110.217 544.041 109.017 542.675 108.15C541.341 107.283 539.741 106.85 537.875 106.85C535.975 106.85 534.308 107.3 532.875 108.2C531.441 109.1 530.325 110.35 529.525 111.95C528.758 113.517 528.375 115.317 528.375 117.35C528.375 119.383 528.808 121.183 529.675 122.75C530.575 124.317 531.791 125.55 533.325 126.45C534.858 127.35 536.625 127.8 538.625 127.8C539.825 127.8 541.025 127.6 542.225 127.2C543.458 126.767 544.441 126.233 545.175 125.6C545.541 125.3 545.958 125.15 546.425 125.15C546.891 125.117 547.291 125.233 547.625 125.5C548.058 125.9 548.275 126.333 548.275 126.8C548.308 127.267 548.125 127.667 547.725 128C546.625 128.933 545.225 129.717 543.525 130.35C541.825 130.95 540.191 131.25 538.625 131.25ZM571.686 114.15C571.786 112.083 572.319 110.233 573.286 108.6C574.286 106.967 575.569 105.683 577.136 104.75C578.736 103.817 580.503 103.35 582.436 103.35C583.969 103.35 585.153 103.567 585.986 104C586.819 104.433 587.136 105.067 586.936 105.9C586.803 106.4 586.569 106.733 586.236 106.9C585.936 107.067 585.553 107.133 585.086 107.1C584.653 107.067 584.153 107.033 583.586 107C581.719 106.833 580.053 107.033 578.586 107.6C577.153 108.133 576.003 108.967 575.136 110.1C574.303 111.233 573.886 112.583 573.886 114.15H571.686ZM571.986 131C571.386 131 570.919 130.833 570.586 130.5C570.253 130.167 570.086 129.7 570.086 129.1V105.55C570.086 104.95 570.253 104.483 570.586 104.15C570.919 103.817 571.386 103.65 571.986 103.65C572.586 103.65 573.053 103.817 573.386 104.15C573.719 104.483 573.886 104.95 573.886 105.55V129.1C573.886 129.7 573.719 130.167 573.386 130.5C573.053 130.833 572.586 131 571.986 131ZM602.634 131.25C599.934 131.25 597.534 130.667 595.434 129.5C593.368 128.3 591.734 126.65 590.534 124.55C589.368 122.45 588.784 120.05 588.784 117.35C588.784 114.617 589.334 112.217 590.434 110.15C591.568 108.05 593.118 106.4 595.084 105.2C597.051 104 599.318 103.4 601.884 103.4C604.418 103.4 606.618 103.983 608.484 105.15C610.384 106.283 611.851 107.867 612.884 109.9C613.918 111.933 614.434 114.25 614.434 116.85C614.434 117.383 614.268 117.817 613.934 118.15C613.601 118.45 613.168 118.6 612.634 118.6H591.384V115.4H613.034L610.884 116.95C610.918 115.017 610.568 113.283 609.834 111.75C609.101 110.217 608.051 109.017 606.684 108.15C605.351 107.283 603.751 106.85 601.884 106.85C599.984 106.85 598.318 107.3 596.884 108.2C595.451 109.1 594.334 110.35 593.534 111.95C592.768 113.517 592.384 115.317 592.384 117.35C592.384 119.383 592.818 121.183 593.684 122.75C594.584 124.317 595.801 125.55 597.334 126.45C598.868 127.35 600.634 127.8 602.634 127.8C603.834 127.8 605.034 127.6 606.234 127.2C607.468 126.767 608.451 126.233 609.184 125.6C609.551 125.3 609.968 125.15 610.434 125.15C610.901 125.117 611.301 125.233 611.634 125.5C612.068 125.9 612.284 126.333 612.284 126.8C612.318 127.267 612.134 127.667 611.734 128C610.634 128.933 609.234 129.717 607.534 130.35C605.834 130.95 604.201 131.25 602.634 131.25ZM631.621 131.25C628.921 131.25 626.521 130.667 624.421 129.5C622.354 128.3 620.721 126.65 619.521 124.55C618.354 122.45 617.771 120.05 617.771 117.35C617.771 114.617 618.321 112.217 619.421 110.15C620.554 108.05 622.104 106.4 624.071 105.2C626.037 104 628.304 103.4 630.871 103.4C633.404 103.4 635.604 103.983 637.471 105.15C639.371 106.283 640.837 107.867 641.871 109.9C642.904 111.933 643.421 114.25 643.421 116.85C643.421 117.383 643.254 117.817 642.921 118.15C642.587 118.45 642.154 118.6 641.621 118.6H620.371V115.4H642.021L639.871 116.95C639.904 115.017 639.554 113.283 638.821 111.75C638.087 110.217 637.037 109.017 635.671 108.15C634.337 107.283 632.737 106.85 630.871 106.85C628.971 106.85 627.304 107.3 625.871 108.2C624.437 109.1 623.321 110.35 622.521 111.95C621.754 113.517 621.371 115.317 621.371 117.35C621.371 119.383 621.804 121.183 622.671 122.75C623.571 124.317 624.787 125.55 626.321 126.45C627.854 127.35 629.621 127.8 631.621 127.8C632.821 127.8 634.021 127.6 635.221 127.2C636.454 126.767 637.437 126.233 638.171 125.6C638.537 125.3 638.954 125.15 639.421 125.15C639.887 125.117 640.287 125.233 640.621 125.5C641.054 125.9 641.271 126.333 641.271 126.8C641.304 127.267 641.121 127.667 640.721 128C639.621 128.933 638.221 129.717 636.521 130.35C634.821 130.95 633.187 131.25 631.621 131.25ZM672.634 131C672.067 131 671.6 130.817 671.234 130.45C670.867 130.083 670.684 129.633 670.684 129.1V116.1C670.684 114.033 670.284 112.333 669.484 111C668.717 109.667 667.65 108.667 666.284 108C664.95 107.333 663.434 107 661.734 107C660.1 107 658.617 107.317 657.284 107.95C655.984 108.583 654.95 109.45 654.184 110.55C653.417 111.65 653.034 112.9 653.034 114.3H650.284C650.35 112.2 650.917 110.333 651.984 108.7C653.05 107.033 654.467 105.733 656.234 104.8C658 103.833 659.967 103.35 662.134 103.35C664.5 103.35 666.617 103.85 668.484 104.85C670.35 105.817 671.817 107.25 672.884 109.15C673.984 111.05 674.534 113.367 674.534 116.1V129.1C674.534 129.633 674.35 130.083 673.984 130.45C673.617 130.817 673.167 131 672.634 131ZM651.134 131C650.534 131 650.05 130.833 649.684 130.5C649.35 130.133 649.184 129.667 649.184 129.1V105.6C649.184 105 649.35 104.533 649.684 104.2C650.05 103.833 650.534 103.65 651.134 103.65C651.7 103.65 652.15 103.833 652.484 104.2C652.85 104.533 653.034 105 653.034 105.6V129.1C653.034 129.667 652.85 130.133 652.484 130.5C652.15 130.833 651.7 131 651.134 131ZM692.971 131C691.205 131 689.621 130.583 688.221 129.75C686.855 128.917 685.771 127.783 684.971 126.35C684.171 124.883 683.771 123.217 683.771 121.35V96.9C683.771 96.3333 683.938 95.8667 684.271 95.5C684.638 95.1333 685.105 94.95 685.671 94.95C686.238 94.95 686.705 95.1333 687.071 95.5C687.438 95.8667 687.621 96.3333 687.621 96.9V121.35C687.621 123.05 688.121 124.45 689.121 125.55C690.121 126.617 691.405 127.15 692.971 127.15H694.321C694.855 127.15 695.288 127.333 695.621 127.7C695.955 128.067 696.121 128.533 696.121 129.1C696.121 129.667 695.921 130.133 695.521 130.5C695.121 130.833 694.621 131 694.021 131H692.971ZM680.521 108C680.021 108 679.605 107.85 679.271 107.55C678.938 107.217 678.771 106.817 678.771 106.35C678.771 105.85 678.938 105.45 679.271 105.15C679.605 104.817 680.021 104.65 680.521 104.65H693.271C693.771 104.65 694.188 104.817 694.521 105.15C694.855 105.45 695.021 105.85 695.021 106.35C695.021 106.817 694.855 107.217 694.521 107.55C694.188 107.85 693.771 108 693.271 108H680.521ZM714.039 131.25C711.339 131.25 708.939 130.667 706.839 129.5C704.772 128.3 703.139 126.65 701.939 124.55C700.772 122.45 700.189 120.05 700.189 117.35C700.189 114.617 700.739 112.217 701.839 110.15C702.972 108.05 704.522 106.4 706.489 105.2C708.455 104 710.722 103.4 713.289 103.4C715.822 103.4 718.022 103.983 719.889 105.15C721.789 106.283 723.255 107.867 724.289 109.9C725.322 111.933 725.839 114.25 725.839 116.85C725.839 117.383 725.672 117.817 725.339 118.15C725.005 118.45 724.572 118.6 724.039 118.6H702.789V115.4H724.439L722.289 116.95C722.322 115.017 721.972 113.283 721.239 111.75C720.505 110.217 719.455 109.017 718.089 108.15C716.755 107.283 715.155 106.85 713.289 106.85C711.389 106.85 709.722 107.3 708.289 108.2C706.855 109.1 705.739 110.35 704.939 111.95C704.172 113.517 703.789 115.317 703.789 117.35C703.789 119.383 704.222 121.183 705.089 122.75C705.989 124.317 707.205 125.55 708.739 126.45C710.272 127.35 712.039 127.8 714.039 127.8C715.239 127.8 716.439 127.6 717.639 127.2C718.872 126.767 719.855 126.233 720.589 125.6C720.955 125.3 721.372 125.15 721.839 125.15C722.305 125.117 722.705 125.233 723.039 125.5C723.472 125.9 723.689 126.333 723.689 126.8C723.722 127.267 723.539 127.667 723.139 128C722.039 128.933 720.639 129.717 718.939 130.35C717.239 130.95 715.605 131.25 714.039 131.25ZM733.202 114.15C733.302 112.083 733.835 110.233 734.802 108.6C735.802 106.967 737.085 105.683 738.652 104.75C740.252 103.817 742.018 103.35 743.952 103.35C745.485 103.35 746.668 103.567 747.502 104C748.335 104.433 748.652 105.067 748.452 105.9C748.318 106.4 748.085 106.733 747.752 106.9C747.452 107.067 747.068 107.133 746.602 107.1C746.168 107.067 745.668 107.033 745.102 107C743.235 106.833 741.568 107.033 740.102 107.6C738.668 108.133 737.518 108.967 736.652 110.1C735.818 111.233 735.402 112.583 735.402 114.15H733.202ZM733.502 131C732.902 131 732.435 130.833 732.102 130.5C731.768 130.167 731.602 129.7 731.602 129.1V105.55C731.602 104.95 731.768 104.483 732.102 104.15C732.435 103.817 732.902 103.65 733.502 103.65C734.102 103.65 734.568 103.817 734.902 104.15C735.235 104.483 735.402 104.95 735.402 105.55V129.1C735.402 129.7 735.235 130.167 734.902 130.5C734.568 130.833 734.102 131 733.502 131ZM772.35 142.9C772.084 142.9 771.784 142.833 771.45 142.7C770.317 142.2 770 141.4 770.5 140.3L786.65 104.7C787.15 103.633 787.95 103.333 789.05 103.8C790.184 104.267 790.5 105.05 790 106.15L773.8 141.75C773.467 142.517 772.984 142.9 772.35 142.9ZM777.9 130.15C777.4 130.383 776.934 130.433 776.5 130.3C776.067 130.133 775.717 129.8 775.45 129.3L764.3 106.2C764.067 105.7 764.034 105.233 764.2 104.8C764.367 104.367 764.7 104.033 765.2 103.8C765.7 103.567 766.167 103.533 766.6 103.7C767.034 103.833 767.367 104.15 767.6 104.65L778.55 127.75C778.817 128.25 778.9 128.717 778.8 129.15C778.7 129.583 778.4 129.917 777.9 130.15ZM805.766 131.25C803.1 131.25 800.716 130.65 798.616 129.45C796.516 128.25 794.866 126.6 793.666 124.5C792.466 122.4 791.866 120.017 791.866 117.35C791.866 114.65 792.466 112.25 793.666 110.15C794.866 108.05 796.516 106.4 798.616 105.2C800.716 104 803.1 103.4 805.766 103.4C808.433 103.4 810.8 104 812.866 105.2C814.966 106.4 816.616 108.05 817.816 110.15C819.016 112.25 819.633 114.65 819.666 117.35C819.666 120.017 819.05 122.4 817.816 124.5C816.616 126.6 814.966 128.25 812.866 129.45C810.8 130.65 808.433 131.25 805.766 131.25ZM805.766 127.75C807.7 127.75 809.433 127.3 810.966 126.4C812.5 125.5 813.7 124.267 814.566 122.7C815.433 121.133 815.866 119.35 815.866 117.35C815.866 115.35 815.433 113.567 814.566 112C813.7 110.4 812.5 109.15 810.966 108.25C809.433 107.35 807.7 106.9 805.766 106.9C803.833 106.9 802.1 107.35 800.566 108.25C799.033 109.15 797.816 110.4 796.916 112C796.05 113.567 795.616 115.35 795.616 117.35C795.616 119.35 796.05 121.133 796.916 122.7C797.816 124.267 799.033 125.5 800.566 126.4C802.1 127.3 803.833 127.75 805.766 127.75ZM838.304 131.3C835.938 131.3 833.821 130.817 831.954 129.85C830.088 128.85 828.604 127.4 827.504 125.5C826.438 123.6 825.904 121.283 825.904 118.55V105.55C825.904 105.017 826.088 104.567 826.454 104.2C826.821 103.833 827.271 103.65 827.804 103.65C828.371 103.65 828.838 103.833 829.204 104.2C829.571 104.567 829.754 105.017 829.754 105.55V118.55C829.754 120.617 830.138 122.317 830.904 123.65C831.704 124.983 832.771 125.983 834.104 126.65C835.471 127.317 837.004 127.65 838.704 127.65C840.338 127.65 841.804 127.333 843.104 126.7C844.438 126.067 845.488 125.2 846.254 124.1C847.021 123 847.404 121.75 847.404 120.35H850.154C850.054 122.45 849.471 124.333 848.404 126C847.371 127.633 845.971 128.933 844.204 129.9C842.438 130.833 840.471 131.3 838.304 131.3ZM849.304 131C848.738 131 848.271 130.833 847.904 130.5C847.571 130.133 847.404 129.65 847.404 129.05V105.55C847.404 104.983 847.571 104.533 847.904 104.2C848.271 103.833 848.738 103.65 849.304 103.65C849.871 103.65 850.338 103.833 850.704 104.2C851.071 104.533 851.254 104.983 851.254 105.55V129.05C851.254 129.65 851.071 130.133 850.704 130.5C850.338 130.833 849.871 131 849.304 131ZM861.092 114.15C861.192 112.083 861.726 110.233 862.692 108.6C863.692 106.967 864.976 105.683 866.542 104.75C868.142 103.817 869.909 103.35 871.842 103.35C873.376 103.35 874.559 103.567 875.392 104C876.226 104.433 876.542 105.067 876.342 105.9C876.209 106.4 875.976 106.733 875.642 106.9C875.342 107.067 874.959 107.133 874.492 107.1C874.059 107.067 873.559 107.033 872.992 107C871.126 106.833 869.459 107.033 867.992 107.6C866.559 108.133 865.409 108.967 864.542 110.1C863.709 111.233 863.292 112.583 863.292 114.15H861.092ZM861.392 131C860.792 131 860.326 130.833 859.992 130.5C859.659 130.167 859.492 129.7 859.492 129.1V105.55C859.492 104.95 859.659 104.483 859.992 104.15C860.326 103.817 860.792 103.65 861.392 103.65C861.992 103.65 862.459 103.817 862.792 104.15C863.126 104.483 863.292 104.95 863.292 105.55V129.1C863.292 129.7 863.126 130.167 862.792 130.5C862.459 130.833 861.992 131 861.392 131ZM897.491 142.7C896.891 142.7 896.408 142.517 896.041 142.15C895.708 141.817 895.541 141.35 895.541 140.75V117.15C895.574 114.55 896.191 112.217 897.391 110.15C898.624 108.05 900.274 106.4 902.341 105.2C904.441 104 906.791 103.4 909.391 103.4C912.058 103.4 914.441 104.017 916.541 105.25C918.641 106.45 920.291 108.1 921.491 110.2C922.724 112.3 923.341 114.683 923.341 117.35C923.341 119.983 922.741 122.35 921.541 124.45C920.374 126.55 918.774 128.217 916.741 129.45C914.708 130.65 912.408 131.25 909.841 131.25C907.608 131.25 905.574 130.783 903.741 129.85C901.941 128.883 900.491 127.617 899.391 126.05V140.75C899.391 141.35 899.208 141.817 898.841 142.15C898.508 142.517 898.058 142.7 897.491 142.7ZM909.391 127.75C911.324 127.75 913.058 127.3 914.591 126.4C916.124 125.5 917.324 124.267 918.191 122.7C919.091 121.1 919.541 119.317 919.541 117.35C919.541 115.35 919.091 113.567 918.191 112C917.324 110.433 916.124 109.2 914.591 108.3C913.058 107.367 911.324 106.9 909.391 106.9C907.491 106.9 905.774 107.367 904.241 108.3C902.708 109.2 901.508 110.433 900.641 112C899.774 113.567 899.341 115.35 899.341 117.35C899.341 119.317 899.774 121.1 900.641 122.7C901.508 124.267 902.708 125.5 904.241 126.4C905.774 127.3 907.491 127.75 909.391 127.75ZM942.193 131.25C939.626 131.25 937.326 130.65 935.293 129.45C933.259 128.217 931.643 126.55 930.443 124.45C929.276 122.35 928.693 119.983 928.693 117.35C928.693 114.683 929.293 112.3 930.493 110.2C931.726 108.1 933.393 106.45 935.493 105.25C937.593 104.017 939.959 103.4 942.593 103.4C945.226 103.4 947.576 104.017 949.643 105.25C951.743 106.45 953.393 108.1 954.593 110.2C955.826 112.3 956.459 114.683 956.493 117.35L954.943 118.55C954.943 120.95 954.376 123.117 953.243 125.05C952.143 126.95 950.626 128.467 948.693 129.6C946.793 130.7 944.626 131.25 942.193 131.25ZM942.593 127.75C944.526 127.75 946.243 127.3 947.743 126.4C949.276 125.5 950.476 124.267 951.343 122.7C952.243 121.1 952.693 119.317 952.693 117.35C952.693 115.35 952.243 113.567 951.343 112C950.476 110.433 949.276 109.2 947.743 108.3C946.243 107.367 944.526 106.9 942.593 106.9C940.693 106.9 938.976 107.367 937.443 108.3C935.909 109.2 934.693 110.433 933.793 112C932.893 113.567 932.443 115.35 932.443 117.35C932.443 119.317 932.893 121.1 933.793 122.7C934.693 124.267 935.909 125.5 937.443 126.4C938.976 127.3 940.693 127.75 942.593 127.75ZM954.543 131C953.976 131 953.509 130.833 953.143 130.5C952.776 130.133 952.593 129.667 952.593 129.1V120.55L953.543 116.6L956.493 117.35V129.1C956.493 129.667 956.309 130.133 955.943 130.5C955.576 130.833 955.109 131 954.543 131ZM973.93 131C972.164 131 970.58 130.583 969.18 129.75C967.814 128.917 966.73 127.783 965.93 126.35C965.13 124.883 964.73 123.217 964.73 121.35V96.9C964.73 96.3333 964.897 95.8667 965.23 95.5C965.597 95.1333 966.064 94.95 966.63 94.95C967.197 94.95 967.664 95.1333 968.03 95.5C968.397 95.8667 968.58 96.3333 968.58 96.9V121.35C968.58 123.05 969.08 124.45 970.08 125.55C971.08 126.617 972.364 127.15 973.93 127.15H975.28C975.814 127.15 976.247 127.333 976.58 127.7C976.914 128.067 977.08 128.533 977.08 129.1C977.08 129.667 976.88 130.133 976.48 130.5C976.08 130.833 975.58 131 974.98 131H973.93ZM961.48 108C960.98 108 960.564 107.85 960.23 107.55C959.897 107.217 959.73 106.817 959.73 106.35C959.73 105.85 959.897 105.45 960.23 105.15C960.564 104.817 960.98 104.65 961.48 104.65H974.23C974.73 104.65 975.147 104.817 975.48 105.15C975.814 105.45 975.98 105.85 975.98 106.35C975.98 106.817 975.814 107.217 975.48 107.55C975.147 107.85 974.73 108 974.23 108H961.48ZM993.298 131C991.531 131 989.948 130.583 988.548 129.75C987.181 128.917 986.098 127.783 985.298 126.35C984.498 124.883 984.098 123.217 984.098 121.35V96.9C984.098 96.3333 984.264 95.8667 984.598 95.5C984.964 95.1333 985.431 94.95 985.998 94.95C986.564 94.95 987.031 95.1333 987.398 95.5C987.764 95.8667 987.948 96.3333 987.948 96.9V121.35C987.948 123.05 988.448 124.45 989.448 125.55C990.448 126.617 991.731 127.15 993.298 127.15H994.648C995.181 127.15 995.614 127.333 995.948 127.7C996.281 128.067 996.448 128.533 996.448 129.1C996.448 129.667 996.248 130.133 995.848 130.5C995.448 130.833 994.948 131 994.348 131H993.298ZM980.848 108C980.348 108 979.931 107.85 979.598 107.55C979.264 107.217 979.098 106.817 979.098 106.35C979.098 105.85 979.264 105.45 979.598 105.15C979.931 104.817 980.348 104.65 980.848 104.65H993.598C994.098 104.65 994.514 104.817 994.848 105.15C995.181 105.45 995.348 105.85 995.348 106.35C995.348 106.817 995.181 107.217 994.848 107.55C994.514 107.85 994.098 108 993.598 108H980.848ZM1014.36 131.25C1011.66 131.25 1009.26 130.667 1007.16 129.5C1005.1 128.3 1003.46 126.65 1002.26 124.55C1001.1 122.45 1000.51 120.05 1000.51 117.35C1000.51 114.617 1001.06 112.217 1002.16 110.15C1003.3 108.05 1004.85 106.4 1006.81 105.2C1008.78 104 1011.05 103.4 1013.61 103.4C1016.15 103.4 1018.35 103.983 1020.21 105.15C1022.11 106.283 1023.58 107.867 1024.61 109.9C1025.65 111.933 1026.16 114.25 1026.16 116.85C1026.16 117.383 1026 117.817 1025.66 118.15C1025.33 118.45 1024.9 118.6 1024.36 118.6H1003.11V115.4H1024.76L1022.61 116.95C1022.65 115.017 1022.3 113.283 1021.56 111.75C1020.83 110.217 1019.78 109.017 1018.41 108.15C1017.08 107.283 1015.48 106.85 1013.61 106.85C1011.71 106.85 1010.05 107.3 1008.61 108.2C1007.18 109.1 1006.06 110.35 1005.26 111.95C1004.5 113.517 1004.11 115.317 1004.11 117.35C1004.11 119.383 1004.55 121.183 1005.41 122.75C1006.31 124.317 1007.53 125.55 1009.06 126.45C1010.6 127.35 1012.36 127.8 1014.36 127.8C1015.56 127.8 1016.76 127.6 1017.96 127.2C1019.2 126.767 1020.18 126.233 1020.91 125.6C1021.28 125.3 1021.7 125.15 1022.16 125.15C1022.63 125.117 1023.03 125.233 1023.36 125.5C1023.8 125.9 1024.01 126.333 1024.01 126.8C1024.05 127.267 1023.86 127.667 1023.46 128C1022.36 128.933 1020.96 129.717 1019.26 130.35C1017.56 130.95 1015.93 131.25 1014.36 131.25ZM1033.53 114.15C1033.63 112.083 1034.16 110.233 1035.13 108.6C1036.13 106.967 1037.41 105.683 1038.98 104.75C1040.58 103.817 1042.34 103.35 1044.28 103.35C1045.81 103.35 1046.99 103.567 1047.83 104C1048.66 104.433 1048.98 105.067 1048.78 105.9C1048.64 106.4 1048.41 106.733 1048.08 106.9C1047.78 107.067 1047.39 107.133 1046.93 107.1C1046.49 107.067 1045.99 107.033 1045.43 107C1043.56 106.833 1041.89 107.033 1040.43 107.6C1038.99 108.133 1037.84 108.967 1036.98 110.1C1036.14 111.233 1035.73 112.583 1035.73 114.15H1033.53ZM1033.83 131C1033.23 131 1032.76 130.833 1032.43 130.5C1032.09 130.167 1031.93 129.7 1031.93 129.1V105.55C1031.93 104.95 1032.09 104.483 1032.43 104.15C1032.76 103.817 1033.23 103.65 1033.83 103.65C1034.43 103.65 1034.89 103.817 1035.23 104.15C1035.56 104.483 1035.73 104.95 1035.73 105.55V129.1C1035.73 129.7 1035.56 130.167 1035.23 130.5C1034.89 130.833 1034.43 131 1033.83 131ZM1077.53 131C1076.96 131 1076.49 130.817 1076.13 130.45C1075.76 130.083 1075.58 129.633 1075.58 129.1V116.1C1075.58 114.033 1075.18 112.333 1074.38 111C1073.61 109.667 1072.54 108.667 1071.18 108C1069.84 107.333 1068.33 107 1066.63 107C1064.99 107 1063.51 107.317 1062.18 107.95C1060.88 108.583 1059.84 109.45 1059.08 110.55C1058.31 111.65 1057.93 112.9 1057.93 114.3H1055.18C1055.24 112.2 1055.81 110.333 1056.88 108.7C1057.94 107.033 1059.36 105.733 1061.13 104.8C1062.89 103.833 1064.86 103.35 1067.03 103.35C1069.39 103.35 1071.51 103.85 1073.38 104.85C1075.24 105.817 1076.71 107.25 1077.78 109.15C1078.88 111.05 1079.43 113.367 1079.43 116.1V129.1C1079.43 129.633 1079.24 130.083 1078.88 130.45C1078.51 130.817 1078.06 131 1077.53 131ZM1056.03 131C1055.43 131 1054.94 130.833 1054.58 130.5C1054.24 130.133 1054.08 129.667 1054.08 129.1V105.6C1054.08 105 1054.24 104.533 1054.58 104.2C1054.94 103.833 1055.43 103.65 1056.03 103.65C1056.59 103.65 1057.04 103.833 1057.38 104.2C1057.74 104.533 1057.93 105 1057.93 105.6V129.1C1057.93 129.667 1057.74 130.133 1057.38 130.5C1057.04 130.833 1056.59 131 1056.03 131ZM1104.46 131C1103.96 131 1103.53 130.833 1103.16 130.5C1102.8 130.133 1102.61 129.65 1102.61 129.05V103.7C1102.61 101.367 1103.01 99.3167 1103.81 97.55C1104.61 95.7833 1105.8 94.4167 1107.36 93.45C1108.93 92.45 1110.85 91.95 1113.11 91.95C1113.68 91.95 1114.15 92.1167 1114.51 92.45C1114.88 92.7833 1115.06 93.2 1115.06 93.7C1115.06 94.2 1114.88 94.6167 1114.51 94.95C1114.15 95.2833 1113.68 95.45 1113.11 95.45C1111.61 95.45 1110.36 95.8 1109.36 96.5C1108.4 97.1667 1107.66 98.1167 1107.16 99.35C1106.7 100.55 1106.46 101.933 1106.46 103.5V129.05C1106.46 129.65 1106.28 130.133 1105.91 130.5C1105.58 130.833 1105.1 131 1104.46 131ZM1099.41 108C1098.88 108 1098.45 107.85 1098.11 107.55C1097.81 107.217 1097.66 106.817 1097.66 106.35C1097.66 105.85 1097.81 105.45 1098.11 105.15C1098.45 104.817 1098.88 104.65 1099.41 104.65H1112.46C1113 104.65 1113.41 104.817 1113.71 105.15C1114.05 105.45 1114.21 105.85 1114.21 106.35C1114.21 106.817 1114.05 107.217 1113.71 107.55C1113.41 107.85 1113 108 1112.46 108H1099.41ZM1130.1 131.25C1127.43 131.25 1125.05 130.65 1122.95 129.45C1120.85 128.25 1119.2 126.6 1118 124.5C1116.8 122.4 1116.2 120.017 1116.2 117.35C1116.2 114.65 1116.8 112.25 1118 110.15C1119.2 108.05 1120.85 106.4 1122.95 105.2C1125.05 104 1127.43 103.4 1130.1 103.4C1132.77 103.4 1135.13 104 1137.2 105.2C1139.3 106.4 1140.95 108.05 1142.15 110.15C1143.35 112.25 1143.97 114.65 1144 117.35C1144 120.017 1143.38 122.4 1142.15 124.5C1140.95 126.6 1139.3 128.25 1137.2 129.45C1135.13 130.65 1132.77 131.25 1130.1 131.25ZM1130.1 127.75C1132.03 127.75 1133.77 127.3 1135.3 126.4C1136.83 125.5 1138.03 124.267 1138.9 122.7C1139.77 121.133 1140.2 119.35 1140.2 117.35C1140.2 115.35 1139.77 113.567 1138.9 112C1138.03 110.4 1136.83 109.15 1135.3 108.25C1133.77 107.35 1132.03 106.9 1130.1 106.9C1128.17 106.9 1126.43 107.35 1124.9 108.25C1123.37 109.15 1122.15 110.4 1121.25 112C1120.38 113.567 1119.95 115.35 1119.95 117.35C1119.95 119.35 1120.38 121.133 1121.25 122.7C1122.15 124.267 1123.37 125.5 1124.9 126.4C1126.43 127.3 1128.17 127.75 1130.1 127.75ZM1152.34 114.15C1152.44 112.083 1152.97 110.233 1153.94 108.6C1154.94 106.967 1156.22 105.683 1157.79 104.75C1159.39 103.817 1161.15 103.35 1163.09 103.35C1164.62 103.35 1165.8 103.567 1166.64 104C1167.47 104.433 1167.79 105.067 1167.59 105.9C1167.45 106.4 1167.22 106.733 1166.89 106.9C1166.59 107.067 1166.2 107.133 1165.74 107.1C1165.3 107.067 1164.8 107.033 1164.24 107C1162.37 106.833 1160.7 107.033 1159.24 107.6C1157.8 108.133 1156.65 108.967 1155.79 110.1C1154.95 111.233 1154.54 112.583 1154.54 114.15H1152.34ZM1152.64 131C1152.04 131 1151.57 130.833 1151.24 130.5C1150.9 130.167 1150.74 129.7 1150.74 129.1V105.55C1150.74 104.95 1150.9 104.483 1151.24 104.15C1151.57 103.817 1152.04 103.65 1152.64 103.65C1153.24 103.65 1153.7 103.817 1154.04 104.15C1154.37 104.483 1154.54 104.95 1154.54 105.55V129.1C1154.54 129.7 1154.37 130.167 1154.04 130.5C1153.7 130.833 1153.24 131 1152.64 131ZM1198.99 131.25C1196.35 131.25 1194 130.65 1191.94 129.45C1189.9 128.217 1188.29 126.55 1187.09 124.45C1185.92 122.35 1185.34 119.983 1185.34 117.35C1185.34 114.683 1185.9 112.3 1187.04 110.2C1188.17 108.1 1189.72 106.45 1191.69 105.25C1193.65 104.017 1195.92 103.4 1198.49 103.4C1200.52 103.4 1202.39 103.8 1204.09 104.6C1205.82 105.4 1207.34 106.6 1208.64 108.2C1209 108.6 1209.14 109.033 1209.04 109.5C1208.94 109.933 1208.65 110.317 1208.19 110.65C1207.82 110.917 1207.4 111.017 1206.94 110.95C1206.5 110.85 1206.12 110.6 1205.79 110.2C1203.85 108 1201.42 106.9 1198.49 106.9C1196.62 106.9 1194.97 107.35 1193.54 108.25C1192.14 109.15 1191.04 110.383 1190.24 111.95C1189.47 113.517 1189.09 115.317 1189.09 117.35C1189.09 119.35 1189.5 121.133 1190.34 122.7C1191.17 124.267 1192.34 125.5 1193.84 126.4C1195.34 127.3 1197.05 127.75 1198.99 127.75C1200.29 127.75 1201.47 127.583 1202.54 127.25C1203.64 126.883 1204.6 126.333 1205.44 125.6C1205.84 125.267 1206.25 125.083 1206.69 125.05C1207.12 125.017 1207.52 125.15 1207.89 125.45C1208.29 125.817 1208.5 126.233 1208.54 126.7C1208.6 127.167 1208.45 127.567 1208.09 127.9C1205.65 130.133 1202.62 131.25 1198.99 131.25ZM1228.27 131.25C1225.6 131.25 1223.22 130.65 1221.12 129.45C1219.02 128.25 1217.37 126.6 1216.17 124.5C1214.97 122.4 1214.37 120.017 1214.37 117.35C1214.37 114.65 1214.97 112.25 1216.17 110.15C1217.37 108.05 1219.02 106.4 1221.12 105.2C1223.22 104 1225.6 103.4 1228.27 103.4C1230.94 103.4 1233.3 104 1235.37 105.2C1237.47 106.4 1239.12 108.05 1240.32 110.15C1241.52 112.25 1242.14 114.65 1242.17 117.35C1242.17 120.017 1241.55 122.4 1240.32 124.5C1239.12 126.6 1237.47 128.25 1235.37 129.45C1233.3 130.65 1230.94 131.25 1228.27 131.25ZM1228.27 127.75C1230.2 127.75 1231.94 127.3 1233.47 126.4C1235 125.5 1236.2 124.267 1237.07 122.7C1237.94 121.133 1238.37 119.35 1238.37 117.35C1238.37 115.35 1237.94 113.567 1237.07 112C1236.2 110.4 1235 109.15 1233.47 108.25C1231.94 107.35 1230.2 106.9 1228.27 106.9C1226.34 106.9 1224.6 107.35 1223.07 108.25C1221.54 109.15 1220.32 110.4 1219.42 112C1218.55 113.567 1218.12 115.35 1218.12 117.35C1218.12 119.35 1218.55 121.133 1219.42 122.7C1220.32 124.267 1221.54 125.5 1223.07 126.4C1224.6 127.3 1226.34 127.75 1228.27 127.75ZM1272.36 131C1271.79 131 1271.32 130.817 1270.96 130.45C1270.59 130.083 1270.41 129.633 1270.41 129.1V116.1C1270.41 114.033 1270.01 112.333 1269.21 111C1268.44 109.667 1267.37 108.667 1266.01 108C1264.67 107.333 1263.16 107 1261.46 107C1259.82 107 1258.34 107.317 1257.01 107.95C1255.71 108.583 1254.67 109.45 1253.91 110.55C1253.14 111.65 1252.76 112.9 1252.76 114.3H1250.01C1250.07 112.2 1250.64 110.333 1251.71 108.7C1252.77 107.033 1254.19 105.733 1255.96 104.8C1257.72 103.833 1259.69 103.35 1261.86 103.35C1264.22 103.35 1266.34 103.85 1268.21 104.85C1270.07 105.817 1271.54 107.25 1272.61 109.15C1273.71 111.05 1274.26 113.367 1274.26 116.1V129.1C1274.26 129.633 1274.07 130.083 1273.71 130.45C1273.34 130.817 1272.89 131 1272.36 131ZM1250.86 131C1250.26 131 1249.77 130.833 1249.41 130.5C1249.07 130.133 1248.91 129.667 1248.91 129.1V105.6C1248.91 105 1249.07 104.533 1249.41 104.2C1249.77 103.833 1250.26 103.65 1250.86 103.65C1251.42 103.65 1251.87 103.833 1252.21 104.2C1252.57 104.533 1252.76 105 1252.76 105.6V129.1C1252.76 129.667 1252.57 130.133 1252.21 130.5C1251.87 130.833 1251.42 131 1250.86 131ZM1285.4 131C1284.9 131 1284.46 130.833 1284.1 130.5C1283.73 130.133 1283.55 129.65 1283.55 129.05V103.7C1283.55 101.367 1283.95 99.3167 1284.75 97.55C1285.55 95.7833 1286.73 94.4167 1288.3 93.45C1289.86 92.45 1291.78 91.95 1294.05 91.95C1294.61 91.95 1295.08 92.1167 1295.45 92.45C1295.81 92.7833 1296 93.2 1296 93.7C1296 94.2 1295.81 94.6167 1295.45 94.95C1295.08 95.2833 1294.61 95.45 1294.05 95.45C1292.55 95.45 1291.3 95.8 1290.3 96.5C1289.33 97.1667 1288.6 98.1167 1288.1 99.35C1287.63 100.55 1287.4 101.933 1287.4 103.5V129.05C1287.4 129.65 1287.21 130.133 1286.85 130.5C1286.51 130.833 1286.03 131 1285.4 131ZM1280.35 108C1279.81 108 1279.38 107.85 1279.05 107.55C1278.75 107.217 1278.6 106.817 1278.6 106.35C1278.6 105.85 1278.75 105.45 1279.05 105.15C1279.38 104.817 1279.81 104.65 1280.35 104.65H1293.4C1293.93 104.65 1294.35 104.817 1294.65 105.15C1294.98 105.45 1295.15 105.85 1295.15 106.35C1295.15 106.817 1294.98 107.217 1294.65 107.55C1294.35 107.85 1293.93 108 1293.4 108H1280.35ZM1311.03 131.25C1308.36 131.25 1305.98 130.65 1303.88 129.45C1301.78 128.25 1300.13 126.6 1298.93 124.5C1297.73 122.4 1297.13 120.017 1297.13 117.35C1297.13 114.65 1297.73 112.25 1298.93 110.15C1300.13 108.05 1301.78 106.4 1303.88 105.2C1305.98 104 1308.36 103.4 1311.03 103.4C1313.7 103.4 1316.06 104 1318.13 105.2C1320.23 106.4 1321.88 108.05 1323.08 110.15C1324.28 112.25 1324.9 114.65 1324.93 117.35C1324.93 120.017 1324.31 122.4 1323.08 124.5C1321.88 126.6 1320.23 128.25 1318.13 129.45C1316.06 130.65 1313.7 131.25 1311.03 131.25ZM1311.03 127.75C1312.96 127.75 1314.7 127.3 1316.23 126.4C1317.76 125.5 1318.96 124.267 1319.83 122.7C1320.7 121.133 1321.13 119.35 1321.13 117.35C1321.13 115.35 1320.7 113.567 1319.83 112C1318.96 110.4 1317.76 109.15 1316.23 108.25C1314.7 107.35 1312.96 106.9 1311.03 106.9C1309.1 106.9 1307.36 107.35 1305.83 108.25C1304.3 109.15 1303.08 110.4 1302.18 112C1301.31 113.567 1300.88 115.35 1300.88 117.35C1300.88 119.35 1301.31 121.133 1302.18 122.7C1303.08 124.267 1304.3 125.5 1305.83 126.4C1307.36 127.3 1309.1 127.75 1311.03 127.75ZM1333.27 114.15C1333.37 112.083 1333.9 110.233 1334.87 108.6C1335.87 106.967 1337.15 105.683 1338.72 104.75C1340.32 103.817 1342.08 103.35 1344.02 103.35C1345.55 103.35 1346.73 103.567 1347.57 104C1348.4 104.433 1348.72 105.067 1348.52 105.9C1348.38 106.4 1348.15 106.733 1347.82 106.9C1347.52 107.067 1347.13 107.133 1346.67 107.1C1346.23 107.067 1345.73 107.033 1345.17 107C1343.3 106.833 1341.63 107.033 1340.17 107.6C1338.73 108.133 1337.58 108.967 1336.72 110.1C1335.88 111.233 1335.47 112.583 1335.47 114.15H1333.27ZM1333.57 131C1332.97 131 1332.5 130.833 1332.17 130.5C1331.83 130.167 1331.67 129.7 1331.67 129.1V105.55C1331.67 104.95 1331.83 104.483 1332.17 104.15C1332.5 103.817 1332.97 103.65 1333.57 103.65C1334.17 103.65 1334.63 103.817 1334.97 104.15C1335.3 104.483 1335.47 104.95 1335.47 105.55V129.1C1335.47 129.7 1335.3 130.167 1334.97 130.5C1334.63 130.833 1334.17 131 1333.57 131ZM1390.77 131C1390.2 131 1389.74 130.833 1389.37 130.5C1389 130.133 1388.82 129.667 1388.82 129.1V114.7C1388.82 112.333 1388.2 110.467 1386.97 109.1C1385.74 107.7 1384.15 107 1382.22 107C1380.15 107 1378.45 107.7 1377.12 109.1C1375.82 110.467 1375.19 112.3 1375.22 114.6H1371.77C1371.8 112.367 1372.29 110.4 1373.22 108.7C1374.15 107 1375.44 105.683 1377.07 104.75C1378.7 103.817 1380.55 103.35 1382.62 103.35C1384.59 103.35 1386.32 103.817 1387.82 104.75C1389.35 105.683 1390.54 107 1391.37 108.7C1392.24 110.4 1392.67 112.4 1392.67 114.7V129.1C1392.67 129.667 1392.49 130.133 1392.12 130.5C1391.79 130.833 1391.34 131 1390.77 131ZM1355.77 131C1355.17 131 1354.69 130.833 1354.32 130.5C1353.99 130.133 1353.82 129.667 1353.82 129.1V105.6C1353.82 105.033 1353.99 104.567 1354.32 104.2C1354.69 103.833 1355.17 103.65 1355.77 103.65C1356.34 103.65 1356.79 103.833 1357.12 104.2C1357.49 104.567 1357.67 105.033 1357.67 105.6V129.1C1357.67 129.667 1357.49 130.133 1357.12 130.5C1356.79 130.833 1356.34 131 1355.77 131ZM1373.32 131C1372.75 131 1372.29 130.833 1371.92 130.5C1371.55 130.133 1371.37 129.667 1371.37 129.1V114.7C1371.37 112.333 1370.75 110.467 1369.52 109.1C1368.29 107.7 1366.7 107 1364.77 107C1362.7 107 1361 107.683 1359.67 109.05C1358.34 110.383 1357.67 112.133 1357.67 114.3H1354.92C1354.99 112.167 1355.45 110.283 1356.32 108.65C1357.22 106.983 1358.44 105.683 1359.97 104.75C1361.5 103.817 1363.24 103.35 1365.17 103.35C1367.14 103.35 1368.87 103.817 1370.37 104.75C1371.9 105.683 1373.09 107 1373.92 108.7C1374.79 110.4 1375.22 112.4 1375.22 114.7V129.1C1375.22 129.667 1375.04 130.133 1374.67 130.5C1374.34 130.833 1373.89 131 1373.32 131ZM1412.48 131.25C1409.91 131.25 1407.61 130.65 1405.58 129.45C1403.55 128.217 1401.93 126.55 1400.73 124.45C1399.56 122.35 1398.98 119.983 1398.98 117.35C1398.98 114.683 1399.58 112.3 1400.78 110.2C1402.01 108.1 1403.68 106.45 1405.78 105.25C1407.88 104.017 1410.25 103.4 1412.88 103.4C1415.51 103.4 1417.86 104.017 1419.93 105.25C1422.03 106.45 1423.68 108.1 1424.88 110.2C1426.11 112.3 1426.75 114.683 1426.78 117.35L1425.23 118.55C1425.23 120.95 1424.66 123.117 1423.53 125.05C1422.43 126.95 1420.91 128.467 1418.98 129.6C1417.08 130.7 1414.91 131.25 1412.48 131.25ZM1412.88 127.75C1414.81 127.75 1416.53 127.3 1418.03 126.4C1419.56 125.5 1420.76 124.267 1421.63 122.7C1422.53 121.1 1422.98 119.317 1422.98 117.35C1422.98 115.35 1422.53 113.567 1421.63 112C1420.76 110.433 1419.56 109.2 1418.03 108.3C1416.53 107.367 1414.81 106.9 1412.88 106.9C1410.98 106.9 1409.26 107.367 1407.73 108.3C1406.2 109.2 1404.98 110.433 1404.08 112C1403.18 113.567 1402.73 115.35 1402.73 117.35C1402.73 119.317 1403.18 121.1 1404.08 122.7C1404.98 124.267 1406.2 125.5 1407.73 126.4C1409.26 127.3 1410.98 127.75 1412.88 127.75ZM1424.83 131C1424.26 131 1423.8 130.833 1423.43 130.5C1423.06 130.133 1422.88 129.667 1422.88 129.1V120.55L1423.83 116.6L1426.78 117.35V129.1C1426.78 129.667 1426.6 130.133 1426.23 130.5C1425.86 130.833 1425.4 131 1424.83 131ZM1444.22 131C1442.45 131 1440.87 130.583 1439.47 129.75C1438.1 128.917 1437.02 127.783 1436.22 126.35C1435.42 124.883 1435.02 123.217 1435.02 121.35V96.9C1435.02 96.3333 1435.19 95.8667 1435.52 95.5C1435.89 95.1333 1436.35 94.95 1436.92 94.95C1437.49 94.95 1437.95 95.1333 1438.32 95.5C1438.69 95.8667 1438.87 96.3333 1438.87 96.9V121.35C1438.87 123.05 1439.37 124.45 1440.37 125.55C1441.37 126.617 1442.65 127.15 1444.22 127.15H1445.57C1446.1 127.15 1446.54 127.333 1446.87 127.7C1447.2 128.067 1447.37 128.533 1447.37 129.1C1447.37 129.667 1447.17 130.133 1446.77 130.5C1446.37 130.833 1445.87 131 1445.27 131H1444.22ZM1431.77 108C1431.27 108 1430.85 107.85 1430.52 107.55C1430.19 107.217 1430.02 106.817 1430.02 106.35C1430.02 105.85 1430.19 105.45 1430.52 105.15C1430.85 104.817 1431.27 104.65 1431.77 104.65H1444.52C1445.02 104.65 1445.44 104.817 1445.77 105.15C1446.1 105.45 1446.27 105.85 1446.27 106.35C1446.27 106.817 1446.1 107.217 1445.77 107.55C1445.44 107.85 1445.02 108 1444.52 108H1431.77ZM1455.64 131C1455.04 131 1454.55 130.833 1454.19 130.5C1453.85 130.133 1453.69 129.65 1453.69 129.05V105.6C1453.69 105 1453.85 104.533 1454.19 104.2C1454.55 103.833 1455.04 103.65 1455.64 103.65C1456.2 103.65 1456.65 103.833 1456.99 104.2C1457.35 104.533 1457.54 105 1457.54 105.6V129.05C1457.54 129.65 1457.35 130.133 1456.99 130.5C1456.65 130.833 1456.2 131 1455.64 131ZM1455.59 98.45C1454.85 98.45 1454.22 98.1833 1453.69 97.65C1453.15 97.1167 1452.89 96.4667 1452.89 95.7C1452.89 94.8667 1453.15 94.2167 1453.69 93.75C1454.25 93.25 1454.9 93 1455.64 93C1456.34 93 1456.95 93.25 1457.49 93.75C1458.05 94.2167 1458.34 94.8667 1458.34 95.7C1458.34 96.4667 1458.07 97.1167 1457.54 97.65C1457 98.1833 1456.35 98.45 1455.59 98.45ZM1479.04 131.25C1476.37 131.25 1473.99 130.65 1471.89 129.45C1469.79 128.25 1468.14 126.6 1466.94 124.5C1465.74 122.4 1465.14 120.017 1465.14 117.35C1465.14 114.65 1465.74 112.25 1466.94 110.15C1468.14 108.05 1469.79 106.4 1471.89 105.2C1473.99 104 1476.37 103.4 1479.04 103.4C1481.71 103.4 1484.07 104 1486.14 105.2C1488.24 106.4 1489.89 108.05 1491.09 110.15C1492.29 112.25 1492.91 114.65 1492.94 117.35C1492.94 120.017 1492.32 122.4 1491.09 124.5C1489.89 126.6 1488.24 128.25 1486.14 129.45C1484.07 130.65 1481.71 131.25 1479.04 131.25ZM1479.04 127.75C1480.97 127.75 1482.71 127.3 1484.24 126.4C1485.77 125.5 1486.97 124.267 1487.84 122.7C1488.71 121.133 1489.14 119.35 1489.14 117.35C1489.14 115.35 1488.71 113.567 1487.84 112C1486.97 110.4 1485.77 109.15 1484.24 108.25C1482.71 107.35 1480.97 106.9 1479.04 106.9C1477.11 106.9 1475.37 107.35 1473.84 108.25C1472.31 109.15 1471.09 110.4 1470.19 112C1469.32 113.567 1468.89 115.35 1468.89 117.35C1468.89 119.35 1469.32 121.133 1470.19 122.7C1471.09 124.267 1472.31 125.5 1473.84 126.4C1475.37 127.3 1477.11 127.75 1479.04 127.75ZM1523.13 131C1522.56 131 1522.09 130.817 1521.73 130.45C1521.36 130.083 1521.18 129.633 1521.18 129.1V116.1C1521.18 114.033 1520.78 112.333 1519.98 111C1519.21 109.667 1518.14 108.667 1516.78 108C1515.44 107.333 1513.93 107 1512.23 107C1510.59 107 1509.11 107.317 1507.78 107.95C1506.48 108.583 1505.44 109.45 1504.68 110.55C1503.91 111.65 1503.53 112.9 1503.53 114.3H1500.78C1500.84 112.2 1501.41 110.333 1502.48 108.7C1503.54 107.033 1504.96 105.733 1506.73 104.8C1508.49 103.833 1510.46 103.35 1512.63 103.35C1514.99 103.35 1517.11 103.85 1518.98 104.85C1520.84 105.817 1522.31 107.25 1523.38 109.15C1524.48 111.05 1525.03 113.367 1525.03 116.1V129.1C1525.03 129.633 1524.84 130.083 1524.48 130.45C1524.11 130.817 1523.66 131 1523.13 131ZM1501.63 131C1501.03 131 1500.54 130.833 1500.18 130.5C1499.84 130.133 1499.68 129.667 1499.68 129.1V105.6C1499.68 105 1499.84 104.533 1500.18 104.2C1500.54 103.833 1501.03 103.65 1501.63 103.65C1502.19 103.65 1502.64 103.833 1502.98 104.2C1503.34 104.533 1503.53 105 1503.53 105.6V129.1C1503.53 129.667 1503.34 130.133 1502.98 130.5C1502.64 130.833 1502.19 131 1501.63 131Z" fill="black"/>
</g>
<defs>
<filter id="filter0_dd" x="392.734" y="91.9502" width="1136.29" height="58.95" filterUnits="userSpaceOnUse" color-interpolation-filters="sRGB">
<feFlood flood-opacity="0" result="BackgroundImageFix"/>
<feColorMatrix in="SourceAlpha" type="matrix" values="0 0 0 0 0 0 0 0 0 0 0 0 0 0 0 0 0 0 127 0"/>
<feOffset dy="4"/>
<feGaussianBlur stdDeviation="2"/>
<feColorMatrix type="matrix" values="0 0 0 0 0 0 0 0 0 0 0 0 0 0 0 0 0 0 0.25 0"/>
<feBlend mode="normal" in2="BackgroundImageFix" result="effect1_dropShadow"/>
<feColorMatrix in="SourceAlpha" type="matrix" values="0 0 0 0 0 0 0 0 0 0 0 0 0 0 0 0 0 0 127 0"/>
<feOffset dy="4"/>
<feGaussianBlur stdDeviation="2"/>
<feColorMatrix type="matrix" values="0 0 0 0 0 0 0 0 0 0 0 0 0 0 0 0 0 0 0.25 0"/>
<feBlend mode="normal" in2="effect1_dropShadow" result="effect2_dropShadow"/>
<feBlend mode="normal" in="SourceGraphic" in2="effect2_dropShadow" result="shape"/>
</filter>
</defs>
</svg>
