<svg width="2300" height="229" viewBox="0 0 2300 229" fill="none" xmlns="http://www.w3.org/2000/svg">
<path d="M0 0H1920V229H0V0Z" fill="#E5E5E5"/>
<g filter="url(#filter0_dd)">
<path d="M498.138 131C497.571 131 497.104 130.817 496.738 130.45C496.371 130.083 496.188 129.617 496.188 129.05V93.9C496.188 93.3333 496.371 92.8667 496.738 92.5C497.104 92.1333 497.571 91.95 498.138 91.95H508.138C510.604 91.95 512.788 92.5 514.688 93.6C516.588 94.6667 518.071 96.15 519.138 98.05C520.204 99.95 520.738 102.15 520.738 104.65C520.738 107.083 520.204 109.25 519.138 111.15C518.071 113.017 516.588 114.5 514.688 115.6C512.788 116.667 510.604 117.2 508.138 117.2H500.088V129.05C500.088 129.617 499.904 130.083 499.538 130.45C499.171 130.817 498.704 131 498.138 131ZM500.088 113.45H508.138C509.838 113.45 511.354 113.083 512.688 112.35C514.021 111.583 515.054 110.533 515.788 109.2C516.554 107.867 516.938 106.35 516.938 104.65C516.938 102.883 516.554 101.333 515.788 100C515.054 98.6667 514.021 97.6167 512.688 96.85C511.354 96.0833 509.838 95.7 508.138 95.7H500.088V113.45ZM536.626 131.25C534.06 131.25 531.76 130.65 529.726 129.45C527.693 128.217 526.076 126.55 524.876 124.45C523.71 122.35 523.126 119.983 523.126 117.35C523.126 114.683 523.726 112.3 524.926 110.2C526.16 108.1 527.826 106.45 529.926 105.25C532.026 104.017 534.393 103.4 537.026 103.4C539.66 103.4 542.01 104.017 544.076 105.25C546.176 106.45 547.826 108.1 549.026 110.2C550.26 112.3 550.893 114.683 550.926 117.35L549.376 118.55C549.376 120.95 548.81 123.117 547.676 125.05C546.576 126.95 545.06 128.467 543.126 129.6C541.226 130.7 539.06 131.25 536.626 131.25ZM537.026 127.75C538.96 127.75 540.676 127.3 542.176 126.4C543.71 125.5 544.91 124.267 545.776 122.7C546.676 121.1 547.126 119.317 547.126 117.35C547.126 115.35 546.676 113.567 545.776 112C544.91 110.433 543.71 109.2 542.176 108.3C540.676 107.367 538.96 106.9 537.026 106.9C535.126 106.9 533.41 107.367 531.876 108.3C530.343 109.2 529.126 110.433 528.226 112C527.326 113.567 526.876 115.35 526.876 117.35C526.876 119.317 527.326 121.1 528.226 122.7C529.126 124.267 530.343 125.5 531.876 126.4C533.41 127.3 535.126 127.75 537.026 127.75ZM548.976 131C548.41 131 547.943 130.833 547.576 130.5C547.21 130.133 547.026 129.667 547.026 129.1V120.55L547.976 116.6L550.926 117.35V129.1C550.926 129.667 550.743 130.133 550.376 130.5C550.01 130.833 549.543 131 548.976 131ZM567.214 131.25C565.247 131.25 563.297 130.917 561.364 130.25C559.431 129.583 557.864 128.583 556.664 127.25C556.297 126.85 556.147 126.4 556.214 125.9C556.281 125.4 556.531 124.967 556.964 124.6C557.431 124.267 557.914 124.133 558.414 124.2C558.914 124.267 559.331 124.483 559.664 124.85C560.464 125.783 561.514 126.5 562.814 127C564.147 127.5 565.614 127.75 567.214 127.75C569.681 127.75 571.464 127.333 572.564 126.5C573.664 125.633 574.231 124.6 574.264 123.4C574.264 122.2 573.697 121.217 572.564 120.45C571.431 119.65 569.564 119.033 566.964 118.6C563.597 118.067 561.131 117.133 559.564 115.8C557.997 114.467 557.214 112.883 557.214 111.05C557.214 109.35 557.664 107.933 558.564 106.8C559.464 105.667 560.664 104.817 562.164 104.25C563.664 103.683 565.314 103.4 567.114 103.4C569.347 103.4 571.264 103.783 572.864 104.55C574.497 105.317 575.814 106.35 576.814 107.65C577.147 108.083 577.281 108.533 577.214 109C577.147 109.467 576.881 109.85 576.414 110.15C576.014 110.383 575.547 110.467 575.014 110.4C574.514 110.3 574.081 110.05 573.714 109.65C572.881 108.683 571.914 107.983 570.814 107.55C569.714 107.083 568.447 106.85 567.014 106.85C565.181 106.85 563.714 107.233 562.614 108C561.514 108.733 560.964 109.667 560.964 110.8C560.964 111.567 561.164 112.233 561.564 112.8C561.997 113.367 562.714 113.867 563.714 114.3C564.747 114.733 566.181 115.1 568.014 115.4C570.514 115.8 572.481 116.4 573.914 117.2C575.381 117.967 576.414 118.883 577.014 119.95C577.647 120.983 577.964 122.117 577.964 123.35C577.964 124.917 577.497 126.3 576.564 127.5C575.664 128.667 574.397 129.583 572.764 130.25C571.164 130.917 569.314 131.25 567.214 131.25ZM593.417 131.25C591.451 131.25 589.501 130.917 587.567 130.25C585.634 129.583 584.067 128.583 582.867 127.25C582.501 126.85 582.351 126.4 582.417 125.9C582.484 125.4 582.734 124.967 583.167 124.6C583.634 124.267 584.117 124.133 584.617 124.2C585.117 124.267 585.534 124.483 585.867 124.85C586.667 125.783 587.717 126.5 589.017 127C590.351 127.5 591.817 127.75 593.417 127.75C595.884 127.75 597.667 127.333 598.767 126.5C599.867 125.633 600.434 124.6 600.467 123.4C600.467 122.2 599.901 121.217 598.767 120.45C597.634 119.65 595.767 119.033 593.167 118.6C589.801 118.067 587.334 117.133 585.767 115.8C584.201 114.467 583.417 112.883 583.417 111.05C583.417 109.35 583.867 107.933 584.767 106.8C585.667 105.667 586.867 104.817 588.367 104.25C589.867 103.683 591.517 103.4 593.317 103.4C595.551 103.4 597.467 103.783 599.067 104.55C600.701 105.317 602.017 106.35 603.017 107.65C603.351 108.083 603.484 108.533 603.417 109C603.351 109.467 603.084 109.85 602.617 110.15C602.217 110.383 601.751 110.467 601.217 110.4C600.717 110.3 600.284 110.05 599.917 109.65C599.084 108.683 598.117 107.983 597.017 107.55C595.917 107.083 594.651 106.85 593.217 106.85C591.384 106.85 589.917 107.233 588.817 108C587.717 108.733 587.167 109.667 587.167 110.8C587.167 111.567 587.367 112.233 587.767 112.8C588.201 113.367 588.917 113.867 589.917 114.3C590.951 114.733 592.384 115.1 594.217 115.4C596.717 115.8 598.684 116.4 600.117 117.2C601.584 117.967 602.617 118.883 603.217 119.95C603.851 120.983 604.167 122.117 604.167 123.35C604.167 124.917 603.701 126.3 602.767 127.5C601.867 128.667 600.601 129.583 598.967 130.25C597.367 130.917 595.517 131.25 593.417 131.25ZM616.27 131C615.837 131 615.454 130.883 615.12 130.65C614.787 130.417 614.554 130.117 614.42 129.75L606.62 106.35C606.42 105.517 606.437 104.867 606.67 104.4C606.904 103.9 607.37 103.65 608.07 103.65C608.504 103.65 608.887 103.767 609.22 104C609.554 104.233 609.804 104.6 609.97 105.1L616.92 126.35H615.82L622.27 105.15C622.404 104.717 622.62 104.367 622.92 104.1C623.254 103.8 623.67 103.65 624.17 103.65C624.67 103.65 625.07 103.783 625.37 104.05C625.704 104.317 625.937 104.683 626.07 105.15L632.22 125.85H631.37L638.17 105.1C638.504 104.133 639.12 103.65 640.02 103.65C640.754 103.65 641.254 103.933 641.52 104.5C641.787 105.033 641.787 105.65 641.52 106.35L633.72 129.75C633.587 130.117 633.354 130.417 633.02 130.65C632.72 130.883 632.354 131 631.92 131C631.487 131 631.087 130.883 630.72 130.65C630.387 130.417 630.17 130.117 630.07 129.75L623.77 108.85H624.37L618.07 129.75C617.937 130.15 617.704 130.467 617.37 130.7C617.037 130.9 616.67 131 616.27 131ZM657.805 131.25C655.139 131.25 652.755 130.65 650.655 129.45C648.555 128.25 646.905 126.6 645.705 124.5C644.505 122.4 643.905 120.017 643.905 117.35C643.905 114.65 644.505 112.25 645.705 110.15C646.905 108.05 648.555 106.4 650.655 105.2C652.755 104 655.139 103.4 657.805 103.4C660.472 103.4 662.839 104 664.905 105.2C667.005 106.4 668.655 108.05 669.855 110.15C671.055 112.25 671.672 114.65 671.705 117.35C671.705 120.017 671.089 122.4 669.855 124.5C668.655 126.6 667.005 128.25 664.905 129.45C662.839 130.65 660.472 131.25 657.805 131.25ZM657.805 127.75C659.739 127.75 661.472 127.3 663.005 126.4C664.539 125.5 665.739 124.267 666.605 122.7C667.472 121.133 667.905 119.35 667.905 117.35C667.905 115.35 667.472 113.567 666.605 112C665.739 110.4 664.539 109.15 663.005 108.25C661.472 107.35 659.739 106.9 657.805 106.9C655.872 106.9 654.139 107.35 652.605 108.25C651.072 109.15 649.855 110.4 648.955 112C648.089 113.567 647.655 115.35 647.655 117.35C647.655 119.35 648.089 121.133 648.955 122.7C649.855 124.267 651.072 125.5 652.605 126.4C654.139 127.3 655.872 127.75 657.805 127.75ZM680.043 114.15C680.143 112.083 680.677 110.233 681.643 108.6C682.643 106.967 683.927 105.683 685.493 104.75C687.093 103.817 688.86 103.35 690.793 103.35C692.327 103.35 693.51 103.567 694.343 104C695.177 104.433 695.493 105.067 695.293 105.9C695.16 106.4 694.927 106.733 694.593 106.9C694.293 107.067 693.91 107.133 693.443 107.1C693.01 107.067 692.51 107.033 691.943 107C690.077 106.833 688.41 107.033 686.943 107.6C685.51 108.133 684.36 108.967 683.493 110.1C682.66 111.233 682.243 112.583 682.243 114.15H680.043ZM680.343 131C679.743 131 679.277 130.833 678.943 130.5C678.61 130.167 678.443 129.7 678.443 129.1V105.55C678.443 104.95 678.61 104.483 678.943 104.15C679.277 103.817 679.743 103.65 680.343 103.65C680.943 103.65 681.41 103.817 681.743 104.15C682.077 104.483 682.243 104.95 682.243 105.55V129.1C682.243 129.7 682.077 130.167 681.743 130.5C681.41 130.833 680.943 131 680.343 131ZM711.042 131.25C708.408 131.25 706.042 130.65 703.942 129.45C701.842 128.217 700.175 126.55 698.942 124.45C697.742 122.35 697.142 119.967 697.142 117.3C697.142 114.667 697.725 112.3 698.892 110.2C700.092 108.1 701.708 106.45 703.742 105.25C705.775 104.017 708.075 103.4 710.642 103.4C712.875 103.4 714.892 103.883 716.692 104.85C718.492 105.783 719.942 107.033 721.042 108.6V93.9C721.042 93.3 721.225 92.8333 721.592 92.5C721.958 92.1333 722.425 91.95 722.992 91.95C723.558 91.95 724.025 92.1333 724.392 92.5C724.758 92.8333 724.942 93.3 724.942 93.9V117.5C724.875 120.1 724.225 122.45 722.992 124.55C721.792 126.617 720.142 128.25 718.042 129.45C715.975 130.65 713.642 131.25 711.042 131.25ZM711.042 127.75C712.975 127.75 714.692 127.3 716.192 126.4C717.725 125.467 718.925 124.217 719.792 122.65C720.692 121.083 721.142 119.3 721.142 117.3C721.142 115.333 720.692 113.567 719.792 112C718.925 110.4 717.725 109.15 716.192 108.25C714.692 107.35 712.975 106.9 711.042 106.9C709.142 106.9 707.425 107.35 705.892 108.25C704.358 109.15 703.142 110.4 702.242 112C701.342 113.567 700.892 115.333 700.892 117.3C700.892 119.3 701.342 121.083 702.242 122.65C703.142 124.217 704.358 125.467 705.892 126.4C707.425 127.3 709.142 127.75 711.042 127.75ZM749.542 131C749.008 131 748.542 130.817 748.142 130.45C747.775 130.05 747.592 129.583 747.592 129.05V93.9C747.592 93.3333 747.775 92.8667 748.142 92.5C748.542 92.1333 749.008 91.95 749.542 91.95C750.342 91.95 750.925 92.2833 751.292 92.95L768.142 126.45H766.442L782.992 92.95C783.392 92.2833 783.975 91.95 784.742 91.95C785.275 91.95 785.725 92.1333 786.092 92.5C786.458 92.8667 786.642 93.3333 786.642 93.9V129.05C786.642 129.583 786.458 130.05 786.092 130.45C785.725 130.817 785.275 131 784.742 131C784.175 131 783.692 130.817 783.292 130.45C782.925 130.05 782.742 129.583 782.742 129.05V98.95L783.592 99L768.842 129.15C768.475 129.783 767.908 130.1 767.142 130.1C766.308 130.1 765.708 129.7 765.342 128.9L750.492 99.2L751.492 98.95V129.05C751.492 129.583 751.292 130.05 750.892 130.45C750.525 130.817 750.075 131 749.542 131ZM798.164 131C797.564 131 797.081 130.833 796.714 130.5C796.381 130.133 796.214 129.65 796.214 129.05V105.6C796.214 105 796.381 104.533 796.714 104.2C797.081 103.833 797.564 103.65 798.164 103.65C798.731 103.65 799.181 103.833 799.514 104.2C799.881 104.533 800.064 105 800.064 105.6V129.05C800.064 129.65 799.881 130.133 799.514 130.5C799.181 130.833 798.731 131 798.164 131ZM798.114 98.45C797.381 98.45 796.747 98.1833 796.214 97.65C795.681 97.1167 795.414 96.4667 795.414 95.7C795.414 94.8667 795.681 94.2167 796.214 93.75C796.781 93.25 797.431 93 798.164 93C798.864 93 799.481 93.25 800.014 93.75C800.581 94.2167 800.864 94.8667 800.864 95.7C800.864 96.4667 800.597 97.1167 800.064 97.65C799.531 98.1833 798.881 98.45 798.114 98.45ZM818.667 131.25C816.701 131.25 814.751 130.917 812.817 130.25C810.884 129.583 809.317 128.583 808.117 127.25C807.751 126.85 807.601 126.4 807.667 125.9C807.734 125.4 807.984 124.967 808.417 124.6C808.884 124.267 809.367 124.133 809.867 124.2C810.367 124.267 810.784 124.483 811.117 124.85C811.917 125.783 812.967 126.5 814.267 127C815.601 127.5 817.067 127.75 818.667 127.75C821.134 127.75 822.917 127.333 824.017 126.5C825.117 125.633 825.684 124.6 825.717 123.4C825.717 122.2 825.151 121.217 824.017 120.45C822.884 119.65 821.017 119.033 818.417 118.6C815.051 118.067 812.584 117.133 811.017 115.8C809.451 114.467 808.667 112.883 808.667 111.05C808.667 109.35 809.117 107.933 810.017 106.8C810.917 105.667 812.117 104.817 813.617 104.25C815.117 103.683 816.767 103.4 818.567 103.4C820.801 103.4 822.717 103.783 824.317 104.55C825.951 105.317 827.267 106.35 828.267 107.65C828.601 108.083 828.734 108.533 828.667 109C828.601 109.467 828.334 109.85 827.867 110.15C827.467 110.383 827.001 110.467 826.467 110.4C825.967 110.3 825.534 110.05 825.167 109.65C824.334 108.683 823.367 107.983 822.267 107.55C821.167 107.083 819.901 106.85 818.467 106.85C816.634 106.85 815.167 107.233 814.067 108C812.967 108.733 812.417 109.667 812.417 110.8C812.417 111.567 812.617 112.233 813.017 112.8C813.451 113.367 814.167 113.867 815.167 114.3C816.201 114.733 817.634 115.1 819.467 115.4C821.967 115.8 823.934 116.4 825.367 117.2C826.834 117.967 827.867 118.883 828.467 119.95C829.101 120.983 829.417 122.117 829.417 123.35C829.417 124.917 828.951 126.3 828.017 127.5C827.117 128.667 825.851 129.583 824.217 130.25C822.617 130.917 820.767 131.25 818.667 131.25ZM844.87 131.25C842.904 131.25 840.954 130.917 839.02 130.25C837.087 129.583 835.52 128.583 834.32 127.25C833.954 126.85 833.804 126.4 833.87 125.9C833.937 125.4 834.187 124.967 834.62 124.6C835.087 124.267 835.57 124.133 836.07 124.2C836.57 124.267 836.987 124.483 837.32 124.85C838.12 125.783 839.17 126.5 840.47 127C841.804 127.5 843.27 127.75 844.87 127.75C847.337 127.75 849.12 127.333 850.22 126.5C851.32 125.633 851.887 124.6 851.92 123.4C851.92 122.2 851.354 121.217 850.22 120.45C849.087 119.65 847.22 119.033 844.62 118.6C841.254 118.067 838.787 117.133 837.22 115.8C835.654 114.467 834.87 112.883 834.87 111.05C834.87 109.35 835.32 107.933 836.22 106.8C837.12 105.667 838.32 104.817 839.82 104.25C841.32 103.683 842.97 103.4 844.77 103.4C847.004 103.4 848.92 103.783 850.52 104.55C852.154 105.317 853.47 106.35 854.47 107.65C854.804 108.083 854.937 108.533 854.87 109C854.804 109.467 854.537 109.85 854.07 110.15C853.67 110.383 853.204 110.467 852.67 110.4C852.17 110.3 851.737 110.05 851.37 109.65C850.537 108.683 849.57 107.983 848.47 107.55C847.37 107.083 846.104 106.85 844.67 106.85C842.837 106.85 841.37 107.233 840.27 108C839.17 108.733 838.62 109.667 838.62 110.8C838.62 111.567 838.82 112.233 839.22 112.8C839.654 113.367 840.37 113.867 841.37 114.3C842.404 114.733 843.837 115.1 845.67 115.4C848.17 115.8 850.137 116.4 851.57 117.2C853.037 117.967 854.07 118.883 854.67 119.95C855.304 120.983 855.62 122.117 855.62 123.35C855.62 124.917 855.154 126.3 854.22 127.5C853.32 128.667 852.054 129.583 850.42 130.25C848.82 130.917 846.97 131.25 844.87 131.25ZM898.473 131C897.907 131 897.44 130.833 897.073 130.5C896.707 130.133 896.523 129.667 896.523 129.1V114.7C896.523 112.333 895.907 110.467 894.673 109.1C893.44 107.7 891.857 107 889.923 107C887.857 107 886.157 107.7 884.823 109.1C883.523 110.467 882.89 112.3 882.923 114.6H879.473C879.507 112.367 879.99 110.4 880.923 108.7C881.857 107 883.14 105.683 884.773 104.75C886.407 103.817 888.257 103.35 890.323 103.35C892.29 103.35 894.023 103.817 895.523 104.75C897.057 105.683 898.24 107 899.073 108.7C899.94 110.4 900.373 112.4 900.373 114.7V129.1C900.373 129.667 900.19 130.133 899.823 130.5C899.49 130.833 899.04 131 898.473 131ZM863.473 131C862.873 131 862.39 130.833 862.023 130.5C861.69 130.133 861.523 129.667 861.523 129.1V105.6C861.523 105.033 861.69 104.567 862.023 104.2C862.39 103.833 862.873 103.65 863.473 103.65C864.04 103.65 864.49 103.833 864.823 104.2C865.19 104.567 865.373 105.033 865.373 105.6V129.1C865.373 129.667 865.19 130.133 864.823 130.5C864.49 130.833 864.04 131 863.473 131ZM881.023 131C880.457 131 879.99 130.833 879.623 130.5C879.257 130.133 879.073 129.667 879.073 129.1V114.7C879.073 112.333 878.457 110.467 877.223 109.1C875.99 107.7 874.407 107 872.473 107C870.407 107 868.707 107.683 867.373 109.05C866.04 110.383 865.373 112.133 865.373 114.3H862.623C862.69 112.167 863.157 110.283 864.023 108.65C864.923 106.983 866.14 105.683 867.673 104.75C869.207 103.817 870.94 103.35 872.873 103.35C874.84 103.35 876.573 103.817 878.073 104.75C879.607 105.683 880.79 107 881.623 108.7C882.49 110.4 882.923 112.4 882.923 114.7V129.1C882.923 129.667 882.74 130.133 882.373 130.5C882.04 130.833 881.59 131 881.023 131ZM920.187 131.25C917.62 131.25 915.32 130.65 913.287 129.45C911.253 128.217 909.637 126.55 908.437 124.45C907.27 122.35 906.687 119.983 906.687 117.35C906.687 114.683 907.287 112.3 908.487 110.2C909.72 108.1 911.387 106.45 913.487 105.25C915.587 104.017 917.953 103.4 920.587 103.4C923.22 103.4 925.57 104.017 927.637 105.25C929.737 106.45 931.387 108.1 932.587 110.2C933.82 112.3 934.453 114.683 934.487 117.35L932.937 118.55C932.937 120.95 932.37 123.117 931.237 125.05C930.137 126.95 928.62 128.467 926.687 129.6C924.787 130.7 922.62 131.25 920.187 131.25ZM920.587 127.75C922.52 127.75 924.237 127.3 925.737 126.4C927.27 125.5 928.47 124.267 929.337 122.7C930.237 121.1 930.687 119.317 930.687 117.35C930.687 115.35 930.237 113.567 929.337 112C928.47 110.433 927.27 109.2 925.737 108.3C924.237 107.367 922.52 106.9 920.587 106.9C918.687 106.9 916.97 107.367 915.437 108.3C913.903 109.2 912.687 110.433 911.787 112C910.887 113.567 910.437 115.35 910.437 117.35C910.437 119.317 910.887 121.1 911.787 122.7C912.687 124.267 913.903 125.5 915.437 126.4C916.97 127.3 918.687 127.75 920.587 127.75ZM932.537 131C931.97 131 931.503 130.833 931.137 130.5C930.77 130.133 930.587 129.667 930.587 129.1V120.55L931.537 116.6L934.487 117.35V129.1C934.487 129.667 934.303 130.133 933.937 130.5C933.57 130.833 933.103 131 932.537 131ZM951.925 131C950.158 131 948.575 130.583 947.175 129.75C945.808 128.917 944.725 127.783 943.925 126.35C943.125 124.883 942.725 123.217 942.725 121.35V96.9C942.725 96.3333 942.891 95.8667 943.225 95.5C943.591 95.1333 944.058 94.95 944.625 94.95C945.191 94.95 945.658 95.1333 946.025 95.5C946.391 95.8667 946.575 96.3333 946.575 96.9V121.35C946.575 123.05 947.075 124.45 948.075 125.55C949.075 126.617 950.358 127.15 951.925 127.15H953.275C953.808 127.15 954.241 127.333 954.575 127.7C954.908 128.067 955.075 128.533 955.075 129.1C955.075 129.667 954.875 130.133 954.475 130.5C954.075 130.833 953.575 131 952.975 131H951.925ZM939.475 108C938.975 108 938.558 107.85 938.225 107.55C937.891 107.217 937.725 106.817 937.725 106.35C937.725 105.85 937.891 105.45 938.225 105.15C938.558 104.817 938.975 104.65 939.475 104.65H952.225C952.725 104.65 953.141 104.817 953.475 105.15C953.808 105.45 953.975 105.85 953.975 106.35C953.975 106.817 953.808 107.217 953.475 107.55C953.141 107.85 952.725 108 952.225 108H939.475ZM972.792 131.25C970.158 131.25 967.808 130.65 965.742 129.45C963.708 128.217 962.092 126.55 960.892 124.45C959.725 122.35 959.142 119.983 959.142 117.35C959.142 114.683 959.708 112.3 960.842 110.2C961.975 108.1 963.525 106.45 965.492 105.25C967.458 104.017 969.725 103.4 972.292 103.4C974.325 103.4 976.192 103.8 977.892 104.6C979.625 105.4 981.142 106.6 982.442 108.2C982.808 108.6 982.942 109.033 982.842 109.5C982.742 109.933 982.458 110.317 981.992 110.65C981.625 110.917 981.208 111.017 980.742 110.95C980.308 110.85 979.925 110.6 979.592 110.2C977.658 108 975.225 106.9 972.292 106.9C970.425 106.9 968.775 107.35 967.342 108.25C965.942 109.15 964.842 110.383 964.042 111.95C963.275 113.517 962.892 115.317 962.892 117.35C962.892 119.35 963.308 121.133 964.142 122.7C964.975 124.267 966.142 125.5 967.642 126.4C969.142 127.3 970.858 127.75 972.792 127.75C974.092 127.75 975.275 127.583 976.342 127.25C977.442 126.883 978.408 126.333 979.242 125.6C979.642 125.267 980.058 125.083 980.492 125.05C980.925 125.017 981.325 125.15 981.692 125.45C982.092 125.817 982.308 126.233 982.342 126.7C982.408 127.167 982.258 127.567 981.892 127.9C979.458 130.133 976.425 131.25 972.792 131.25ZM1013.08 131C1012.51 131 1012.04 130.817 1011.68 130.45C1011.31 130.083 1011.13 129.633 1011.13 129.1V116.1C1011.13 114.033 1010.73 112.333 1009.93 111C1009.16 109.667 1008.09 108.667 1006.73 108C1005.39 107.333 1003.88 107 1002.18 107C1000.54 107 999.06 107.317 997.727 107.95C996.427 108.583 995.394 109.45 994.627 110.55C993.86 111.65 993.477 112.9 993.477 114.3H990.727C990.794 112.2 991.36 110.333 992.427 108.7C993.494 107.033 994.91 105.733 996.677 104.8C998.444 103.833 1000.41 103.35 1002.58 103.35C1004.94 103.35 1007.06 103.85 1008.93 104.85C1010.79 105.817 1012.26 107.25 1013.33 109.15C1014.43 111.05 1014.98 113.367 1014.98 116.1V129.1C1014.98 129.633 1014.79 130.083 1014.43 130.45C1014.06 130.817 1013.61 131 1013.08 131ZM991.577 131C990.977 131 990.494 130.833 990.127 130.5C989.794 130.133 989.627 129.667 989.627 129.1V105.6C989.627 105 989.794 104.533 990.127 104.2C990.494 103.833 990.977 103.65 991.577 103.65C992.144 103.65 992.594 103.833 992.927 104.2C993.294 104.533 993.477 105 993.477 105.6V129.1C993.477 129.667 993.294 130.133 992.927 130.5C992.594 130.833 992.144 131 991.577 131ZM991.577 119.85C990.977 119.85 990.494 119.667 990.127 119.3C989.794 118.933 989.627 118.467 989.627 117.9V93.9C989.627 93.3 989.794 92.8333 990.127 92.5C990.494 92.1333 990.977 91.95 991.577 91.95C992.144 91.95 992.594 92.1333 992.927 92.5C993.294 92.8333 993.477 93.3 993.477 93.9V117.9C993.477 118.467 993.294 118.933 992.927 119.3C992.594 119.667 992.144 119.85 991.577 119.85ZM1023.61 122.15C1023.08 122.15 1022.61 121.967 1022.21 121.6C1021.85 121.2 1021.66 120.733 1021.66 120.2V93.9C1021.66 93.3333 1021.85 92.8667 1022.21 92.5C1022.61 92.1 1023.08 91.9 1023.61 91.9C1024.18 91.9 1024.65 92.1 1025.01 92.5C1025.38 92.8667 1025.56 93.3333 1025.56 93.9V120.2C1025.56 120.733 1025.36 121.2 1024.96 121.6C1024.56 121.967 1024.11 122.15 1023.61 122.15ZM1023.61 131C1022.81 131 1022.13 130.717 1021.56 130.15C1021 129.583 1020.71 128.9 1020.71 128.1C1020.71 127.267 1021 126.567 1021.56 126C1022.13 125.433 1022.81 125.15 1023.61 125.15C1024.41 125.15 1025.1 125.45 1025.66 126.05C1026.23 126.617 1026.51 127.3 1026.51 128.1C1026.51 128.9 1026.23 129.583 1025.66 130.15C1025.1 130.717 1024.41 131 1023.61 131ZM1051.59 131C1051.03 131 1050.56 130.817 1050.19 130.45C1049.83 130.083 1049.64 129.617 1049.64 129.05V93.9C1049.64 93.3333 1049.83 92.8667 1050.19 92.5C1050.56 92.1333 1051.03 91.95 1051.59 91.95H1061.59C1064.06 91.95 1066.24 92.5 1068.14 93.6C1070.04 94.6667 1071.53 96.15 1072.59 98.05C1073.66 99.95 1074.19 102.15 1074.19 104.65C1074.19 107.083 1073.66 109.25 1072.59 111.15C1071.53 113.017 1070.04 114.5 1068.14 115.6C1066.24 116.667 1064.06 117.2 1061.59 117.2H1053.54V129.05C1053.54 129.617 1053.36 130.083 1052.99 130.45C1052.63 130.817 1052.16 131 1051.59 131ZM1053.54 113.45H1061.59C1063.29 113.45 1064.81 113.083 1066.14 112.35C1067.48 111.583 1068.51 110.533 1069.24 109.2C1070.01 107.867 1070.39 106.35 1070.39 104.65C1070.39 102.883 1070.01 101.333 1069.24 100C1068.51 98.6667 1067.48 97.6167 1066.14 96.85C1064.81 96.0833 1063.29 95.7 1061.59 95.7H1053.54V113.45ZM1084.91 131C1083.58 131 1082.38 130.633 1081.31 129.9C1080.28 129.167 1079.46 128.15 1078.86 126.85C1078.29 125.55 1078.01 124.05 1078.01 122.35V93.85C1078.01 93.2833 1078.18 92.8333 1078.51 92.5C1078.88 92.1333 1079.34 91.95 1079.91 91.95C1080.48 91.95 1080.93 92.1333 1081.26 92.5C1081.63 92.8333 1081.81 93.2833 1081.81 93.85V122.35C1081.81 123.783 1082.09 124.95 1082.66 125.85C1083.26 126.75 1084.01 127.2 1084.91 127.2H1086.16C1086.66 127.2 1087.06 127.383 1087.36 127.75C1087.66 128.083 1087.81 128.533 1087.81 129.1C1087.81 129.667 1087.59 130.133 1087.16 130.5C1086.76 130.833 1086.23 131 1085.56 131H1084.91ZM1103.26 131.25C1100.56 131.25 1098.16 130.667 1096.06 129.5C1093.99 128.3 1092.36 126.65 1091.16 124.55C1089.99 122.45 1089.41 120.05 1089.41 117.35C1089.41 114.617 1089.96 112.217 1091.06 110.15C1092.19 108.05 1093.74 106.4 1095.71 105.2C1097.67 104 1099.94 103.4 1102.51 103.4C1105.04 103.4 1107.24 103.983 1109.11 105.15C1111.01 106.283 1112.47 107.867 1113.51 109.9C1114.54 111.933 1115.06 114.25 1115.06 116.85C1115.06 117.383 1114.89 117.817 1114.56 118.15C1114.22 118.45 1113.79 118.6 1113.26 118.6H1092.01V115.4H1113.66L1111.51 116.95C1111.54 115.017 1111.19 113.283 1110.46 111.75C1109.72 110.217 1108.67 109.017 1107.31 108.15C1105.97 107.283 1104.37 106.85 1102.51 106.85C1100.61 106.85 1098.94 107.3 1097.51 108.2C1096.07 109.1 1094.96 110.35 1094.16 111.95C1093.39 113.517 1093.01 115.317 1093.01 117.35C1093.01 119.383 1093.44 121.183 1094.31 122.75C1095.21 124.317 1096.42 125.55 1097.96 126.45C1099.49 127.35 1101.26 127.8 1103.26 127.8C1104.46 127.8 1105.66 127.6 1106.86 127.2C1108.09 126.767 1109.07 126.233 1109.81 125.6C1110.17 125.3 1110.59 125.15 1111.06 125.15C1111.52 125.117 1111.92 125.233 1112.26 125.5C1112.69 125.9 1112.91 126.333 1112.91 126.8C1112.94 127.267 1112.76 127.667 1112.36 128C1111.26 128.933 1109.86 129.717 1108.16 130.35C1106.46 130.95 1104.82 131.25 1103.26 131.25ZM1131.89 131.25C1129.33 131.25 1127.03 130.65 1124.99 129.45C1122.96 128.217 1121.34 126.55 1120.14 124.45C1118.98 122.35 1118.39 119.983 1118.39 117.35C1118.39 114.683 1118.99 112.3 1120.19 110.2C1121.43 108.1 1123.09 106.45 1125.19 105.25C1127.29 104.017 1129.66 103.4 1132.29 103.4C1134.93 103.4 1137.28 104.017 1139.34 105.25C1141.44 106.45 1143.09 108.1 1144.29 110.2C1145.53 112.3 1146.16 114.683 1146.19 117.35L1144.64 118.55C1144.64 120.95 1144.08 123.117 1142.94 125.05C1141.84 126.95 1140.33 128.467 1138.39 129.6C1136.49 130.7 1134.33 131.25 1131.89 131.25ZM1132.29 127.75C1134.23 127.75 1135.94 127.3 1137.44 126.4C1138.98 125.5 1140.18 124.267 1141.04 122.7C1141.94 121.1 1142.39 119.317 1142.39 117.35C1142.39 115.35 1141.94 113.567 1141.04 112C1140.18 110.433 1138.98 109.2 1137.44 108.3C1135.94 107.367 1134.23 106.9 1132.29 106.9C1130.39 106.9 1128.68 107.367 1127.14 108.3C1125.61 109.2 1124.39 110.433 1123.49 112C1122.59 113.567 1122.14 115.35 1122.14 117.35C1122.14 119.317 1122.59 121.1 1123.49 122.7C1124.39 124.267 1125.61 125.5 1127.14 126.4C1128.68 127.3 1130.39 127.75 1132.29 127.75ZM1144.24 131C1143.68 131 1143.21 130.833 1142.84 130.5C1142.48 130.133 1142.29 129.667 1142.29 129.1V120.55L1143.24 116.6L1146.19 117.35V129.1C1146.19 129.667 1146.01 130.133 1145.64 130.5C1145.28 130.833 1144.81 131 1144.24 131ZM1162.48 131.25C1160.51 131.25 1158.56 130.917 1156.63 130.25C1154.7 129.583 1153.13 128.583 1151.93 127.25C1151.56 126.85 1151.41 126.4 1151.48 125.9C1151.55 125.4 1151.8 124.967 1152.23 124.6C1152.7 124.267 1153.18 124.133 1153.68 124.2C1154.18 124.267 1154.6 124.483 1154.93 124.85C1155.73 125.783 1156.78 126.5 1158.08 127C1159.41 127.5 1160.88 127.75 1162.48 127.75C1164.95 127.75 1166.73 127.333 1167.83 126.5C1168.93 125.633 1169.5 124.6 1169.53 123.4C1169.53 122.2 1168.96 121.217 1167.83 120.45C1166.7 119.65 1164.83 119.033 1162.23 118.6C1158.86 118.067 1156.4 117.133 1154.83 115.8C1153.26 114.467 1152.48 112.883 1152.48 111.05C1152.48 109.35 1152.93 107.933 1153.83 106.8C1154.73 105.667 1155.93 104.817 1157.43 104.25C1158.93 103.683 1160.58 103.4 1162.38 103.4C1164.61 103.4 1166.53 103.783 1168.13 104.55C1169.76 105.317 1171.08 106.35 1172.08 107.65C1172.41 108.083 1172.55 108.533 1172.48 109C1172.41 109.467 1172.15 109.85 1171.68 110.15C1171.28 110.383 1170.81 110.467 1170.28 110.4C1169.78 110.3 1169.35 110.05 1168.98 109.65C1168.15 108.683 1167.18 107.983 1166.08 107.55C1164.98 107.083 1163.71 106.85 1162.28 106.85C1160.45 106.85 1158.98 107.233 1157.88 108C1156.78 108.733 1156.23 109.667 1156.23 110.8C1156.23 111.567 1156.43 112.233 1156.83 112.8C1157.26 113.367 1157.98 113.867 1158.98 114.3C1160.01 114.733 1161.45 115.1 1163.28 115.4C1165.78 115.8 1167.75 116.4 1169.18 117.2C1170.65 117.967 1171.68 118.883 1172.28 119.95C1172.91 120.983 1173.23 122.117 1173.23 123.35C1173.23 124.917 1172.76 126.3 1171.83 127.5C1170.93 128.667 1169.66 129.583 1168.03 130.25C1166.43 130.917 1164.58 131.25 1162.48 131.25ZM1191.53 131.25C1188.83 131.25 1186.43 130.667 1184.33 129.5C1182.27 128.3 1180.63 126.65 1179.43 124.55C1178.27 122.45 1177.68 120.05 1177.68 117.35C1177.68 114.617 1178.23 112.217 1179.33 110.15C1180.47 108.05 1182.02 106.4 1183.98 105.2C1185.95 104 1188.22 103.4 1190.78 103.4C1193.32 103.4 1195.52 103.983 1197.38 105.15C1199.28 106.283 1200.75 107.867 1201.78 109.9C1202.82 111.933 1203.33 114.25 1203.33 116.85C1203.33 117.383 1203.17 117.817 1202.83 118.15C1202.5 118.45 1202.07 118.6 1201.53 118.6H1180.28V115.4H1201.93L1199.78 116.95C1199.82 115.017 1199.47 113.283 1198.73 111.75C1198 110.217 1196.95 109.017 1195.58 108.15C1194.25 107.283 1192.65 106.85 1190.78 106.85C1188.88 106.85 1187.22 107.3 1185.78 108.2C1184.35 109.1 1183.23 110.35 1182.43 111.95C1181.67 113.517 1181.28 115.317 1181.28 117.35C1181.28 119.383 1181.72 121.183 1182.58 122.75C1183.48 124.317 1184.7 125.55 1186.23 126.45C1187.77 127.35 1189.53 127.8 1191.53 127.8C1192.73 127.8 1193.93 127.6 1195.13 127.2C1196.37 126.767 1197.35 126.233 1198.08 125.6C1198.45 125.3 1198.87 125.15 1199.33 125.15C1199.8 125.117 1200.2 125.233 1200.53 125.5C1200.97 125.9 1201.18 126.333 1201.18 126.8C1201.22 127.267 1201.03 127.667 1200.63 128C1199.53 128.933 1198.13 129.717 1196.43 130.35C1194.73 130.95 1193.1 131.25 1191.53 131.25ZM1233.7 131C1231.93 131 1230.35 130.583 1228.95 129.75C1227.58 128.917 1226.5 127.783 1225.7 126.35C1224.9 124.883 1224.5 123.217 1224.5 121.35V96.9C1224.5 96.3333 1224.66 95.8667 1225 95.5C1225.36 95.1333 1225.83 94.95 1226.4 94.95C1226.96 94.95 1227.43 95.1333 1227.8 95.5C1228.16 95.8667 1228.35 96.3333 1228.35 96.9V121.35C1228.35 123.05 1228.85 124.45 1229.85 125.55C1230.85 126.617 1232.13 127.15 1233.7 127.15H1235.05C1235.58 127.15 1236.01 127.333 1236.35 127.7C1236.68 128.067 1236.85 128.533 1236.85 129.1C1236.85 129.667 1236.65 130.133 1236.25 130.5C1235.85 130.833 1235.35 131 1234.75 131H1233.7ZM1221.25 108C1220.75 108 1220.33 107.85 1220 107.55C1219.66 107.217 1219.5 106.817 1219.5 106.35C1219.5 105.85 1219.66 105.45 1220 105.15C1220.33 104.817 1220.75 104.65 1221.25 104.65H1234C1234.5 104.65 1234.91 104.817 1235.25 105.15C1235.58 105.45 1235.75 105.85 1235.75 106.35C1235.75 106.817 1235.58 107.217 1235.25 107.55C1234.91 107.85 1234.5 108 1234 108H1221.25ZM1243.96 114.15C1244.06 112.083 1244.6 110.233 1245.56 108.6C1246.56 106.967 1247.85 105.683 1249.41 104.75C1251.01 103.817 1252.78 103.35 1254.71 103.35C1256.25 103.35 1257.43 103.567 1258.26 104C1259.1 104.433 1259.41 105.067 1259.21 105.9C1259.08 106.4 1258.85 106.733 1258.51 106.9C1258.21 107.067 1257.83 107.133 1257.36 107.1C1256.93 107.067 1256.43 107.033 1255.86 107C1254 106.833 1252.33 107.033 1250.86 107.6C1249.43 108.133 1248.28 108.967 1247.41 110.1C1246.58 111.233 1246.16 112.583 1246.16 114.15H1243.96ZM1244.26 131C1243.66 131 1243.2 130.833 1242.86 130.5C1242.53 130.167 1242.36 129.7 1242.36 129.1V105.55C1242.36 104.95 1242.53 104.483 1242.86 104.15C1243.2 103.817 1243.66 103.65 1244.26 103.65C1244.86 103.65 1245.33 103.817 1245.66 104.15C1246 104.483 1246.16 104.95 1246.16 105.55V129.1C1246.16 129.7 1246 130.167 1245.66 130.5C1245.33 130.833 1244.86 131 1244.26 131ZM1269.21 142.9C1268.95 142.9 1268.65 142.833 1268.31 142.7C1267.18 142.2 1266.86 141.4 1267.36 140.3L1283.51 104.7C1284.01 103.633 1284.81 103.333 1285.91 103.8C1287.05 104.267 1287.36 105.05 1286.86 106.15L1270.66 141.75C1270.33 142.517 1269.85 142.9 1269.21 142.9ZM1274.76 130.15C1274.26 130.383 1273.8 130.433 1273.36 130.3C1272.93 130.133 1272.58 129.8 1272.31 129.3L1261.16 106.2C1260.93 105.7 1260.9 105.233 1261.06 104.8C1261.23 104.367 1261.56 104.033 1262.06 103.8C1262.56 103.567 1263.03 103.533 1263.46 103.7C1263.9 103.833 1264.23 104.15 1264.46 104.65L1275.41 127.75C1275.68 128.25 1275.76 128.717 1275.66 129.15C1275.56 129.583 1275.26 129.917 1274.76 130.15ZM1317.1 131.25C1314.54 131.25 1312.24 130.65 1310.2 129.45C1308.17 128.217 1306.55 126.55 1305.35 124.45C1304.19 122.35 1303.6 119.983 1303.6 117.35C1303.6 114.683 1304.2 112.3 1305.4 110.2C1306.64 108.1 1308.3 106.45 1310.4 105.25C1312.5 104.017 1314.87 103.4 1317.5 103.4C1320.14 103.4 1322.49 104.017 1324.55 105.25C1326.65 106.45 1328.3 108.1 1329.5 110.2C1330.74 112.3 1331.37 114.683 1331.4 117.35L1329.85 118.55C1329.85 120.95 1329.29 123.117 1328.15 125.05C1327.05 126.95 1325.54 128.467 1323.6 129.6C1321.7 130.7 1319.54 131.25 1317.1 131.25ZM1317.5 127.75C1319.44 127.75 1321.15 127.3 1322.65 126.4C1324.19 125.5 1325.39 124.267 1326.25 122.7C1327.15 121.1 1327.6 119.317 1327.6 117.35C1327.6 115.35 1327.15 113.567 1326.25 112C1325.39 110.433 1324.19 109.2 1322.65 108.3C1321.15 107.367 1319.44 106.9 1317.5 106.9C1315.6 106.9 1313.89 107.367 1312.35 108.3C1310.82 109.2 1309.6 110.433 1308.7 112C1307.8 113.567 1307.35 115.35 1307.35 117.35C1307.35 119.317 1307.8 121.1 1308.7 122.7C1309.6 124.267 1310.82 125.5 1312.35 126.4C1313.89 127.3 1315.6 127.75 1317.5 127.75ZM1329.45 131C1328.89 131 1328.42 130.833 1328.05 130.5C1327.69 130.133 1327.5 129.667 1327.5 129.1V120.55L1328.45 116.6L1331.4 117.35V129.1C1331.4 129.667 1331.22 130.133 1330.85 130.5C1330.49 130.833 1330.02 131 1329.45 131ZM1350.19 131.25C1347.56 131.25 1345.23 130.667 1343.19 129.5C1341.16 128.3 1339.56 126.65 1338.39 124.55C1337.26 122.45 1336.69 120.05 1336.69 117.35C1336.69 114.617 1337.29 112.2 1338.49 110.1C1339.69 108 1341.34 106.367 1343.44 105.2C1345.54 104 1347.93 103.4 1350.59 103.4C1353.29 103.4 1355.68 104 1357.74 105.2C1359.84 106.367 1361.48 108 1362.64 110.1C1363.84 112.2 1364.46 114.617 1364.49 117.35L1362.24 118.55C1362.24 121.017 1361.73 123.217 1360.69 125.15C1359.66 127.05 1358.23 128.55 1356.39 129.65C1354.59 130.717 1352.53 131.25 1350.19 131.25ZM1350.69 141.8C1348.06 141.8 1345.74 141.3 1343.74 140.3C1341.74 139.333 1340.09 138 1338.79 136.3C1338.43 135.9 1338.26 135.467 1338.29 135C1338.36 134.533 1338.61 134.15 1339.04 133.85C1339.48 133.55 1339.96 133.45 1340.49 133.55C1341.03 133.65 1341.44 133.9 1341.74 134.3C1342.71 135.5 1343.94 136.467 1345.44 137.2C1346.98 137.933 1348.74 138.3 1350.74 138.3C1352.61 138.3 1354.29 137.85 1355.79 136.95C1357.29 136.05 1358.48 134.783 1359.34 133.15C1360.24 131.517 1360.69 129.6 1360.69 127.4V119.8L1362.14 116.9L1364.49 117.35V127.55C1364.49 130.25 1363.89 132.667 1362.69 134.8C1361.49 136.967 1359.86 138.667 1357.79 139.9C1355.73 141.167 1353.36 141.8 1350.69 141.8ZM1350.59 127.75C1352.56 127.75 1354.29 127.317 1355.79 126.45C1357.33 125.55 1358.53 124.317 1359.39 122.75C1360.26 121.183 1360.69 119.383 1360.69 117.35C1360.69 115.317 1360.26 113.517 1359.39 111.95C1358.53 110.35 1357.33 109.117 1355.79 108.25C1354.29 107.35 1352.56 106.9 1350.59 106.9C1348.63 106.9 1346.88 107.35 1345.34 108.25C1343.81 109.117 1342.61 110.35 1341.74 111.95C1340.88 113.517 1340.44 115.317 1340.44 117.35C1340.44 119.383 1340.88 121.183 1341.74 122.75C1342.61 124.317 1343.81 125.55 1345.34 126.45C1346.88 127.317 1348.63 127.75 1350.59 127.75ZM1383.28 131.25C1380.71 131.25 1378.41 130.65 1376.38 129.45C1374.35 128.217 1372.73 126.55 1371.53 124.45C1370.36 122.35 1369.78 119.983 1369.78 117.35C1369.78 114.683 1370.38 112.3 1371.58 110.2C1372.81 108.1 1374.48 106.45 1376.58 105.25C1378.68 104.017 1381.05 103.4 1383.68 103.4C1386.31 103.4 1388.66 104.017 1390.73 105.25C1392.83 106.45 1394.48 108.1 1395.68 110.2C1396.91 112.3 1397.55 114.683 1397.58 117.35L1396.03 118.55C1396.03 120.95 1395.46 123.117 1394.33 125.05C1393.23 126.95 1391.71 128.467 1389.78 129.6C1387.88 130.7 1385.71 131.25 1383.28 131.25ZM1383.68 127.75C1385.61 127.75 1387.33 127.3 1388.83 126.4C1390.36 125.5 1391.56 124.267 1392.43 122.7C1393.33 121.1 1393.78 119.317 1393.78 117.35C1393.78 115.35 1393.33 113.567 1392.43 112C1391.56 110.433 1390.36 109.2 1388.83 108.3C1387.33 107.367 1385.61 106.9 1383.68 106.9C1381.78 106.9 1380.06 107.367 1378.53 108.3C1377 109.2 1375.78 110.433 1374.88 112C1373.98 113.567 1373.53 115.35 1373.53 117.35C1373.53 119.317 1373.98 121.1 1374.88 122.7C1375.78 124.267 1377 125.5 1378.53 126.4C1380.06 127.3 1381.78 127.75 1383.68 127.75ZM1395.63 131C1395.06 131 1394.6 130.833 1394.23 130.5C1393.86 130.133 1393.68 129.667 1393.68 129.1V120.55L1394.63 116.6L1397.58 117.35V129.1C1397.58 129.667 1397.4 130.133 1397.03 130.5C1396.66 130.833 1396.2 131 1395.63 131ZM1407.07 131C1406.47 131 1405.99 130.833 1405.62 130.5C1405.29 130.133 1405.12 129.65 1405.12 129.05V105.6C1405.12 105 1405.29 104.533 1405.62 104.2C1405.99 103.833 1406.47 103.65 1407.07 103.65C1407.64 103.65 1408.09 103.833 1408.42 104.2C1408.79 104.533 1408.97 105 1408.97 105.6V129.05C1408.97 129.65 1408.79 130.133 1408.42 130.5C1408.09 130.833 1407.64 131 1407.07 131ZM1407.02 98.45C1406.29 98.45 1405.65 98.1833 1405.12 97.65C1404.59 97.1167 1404.32 96.4667 1404.32 95.7C1404.32 94.8667 1404.59 94.2167 1405.12 93.75C1405.69 93.25 1406.34 93 1407.07 93C1407.77 93 1408.39 93.25 1408.92 93.75C1409.49 94.2167 1409.77 94.8667 1409.77 95.7C1409.77 96.4667 1409.5 97.1167 1408.97 97.65C1408.44 98.1833 1407.79 98.45 1407.02 98.45ZM1441.47 131C1440.9 131 1440.44 130.817 1440.07 130.45C1439.7 130.083 1439.52 129.633 1439.52 129.1V116.1C1439.52 114.033 1439.12 112.333 1438.32 111C1437.55 109.667 1436.49 108.667 1435.12 108C1433.79 107.333 1432.27 107 1430.57 107C1428.94 107 1427.45 107.317 1426.12 107.95C1424.82 108.583 1423.79 109.45 1423.02 110.55C1422.25 111.65 1421.87 112.9 1421.87 114.3H1419.12C1419.19 112.2 1419.75 110.333 1420.82 108.7C1421.89 107.033 1423.3 105.733 1425.07 104.8C1426.84 103.833 1428.8 103.35 1430.97 103.35C1433.34 103.35 1435.45 103.85 1437.32 104.85C1439.19 105.817 1440.65 107.25 1441.72 109.15C1442.82 111.05 1443.37 113.367 1443.37 116.1V129.1C1443.37 129.633 1443.19 130.083 1442.82 130.45C1442.45 130.817 1442 131 1441.47 131ZM1419.97 131C1419.37 131 1418.89 130.833 1418.52 130.5C1418.19 130.133 1418.02 129.667 1418.02 129.1V105.6C1418.02 105 1418.19 104.533 1418.52 104.2C1418.89 103.833 1419.37 103.65 1419.97 103.65C1420.54 103.65 1420.99 103.833 1421.32 104.2C1421.69 104.533 1421.87 105 1421.87 105.6V129.1C1421.87 129.667 1421.69 130.133 1421.32 130.5C1420.99 130.833 1420.54 131 1419.97 131ZM1452.01 131.8C1451.21 131.8 1450.53 131.517 1449.96 130.95C1449.39 130.383 1449.11 129.7 1449.11 128.9C1449.11 128.067 1449.39 127.367 1449.96 126.8C1450.56 126.233 1451.24 125.95 1452.01 125.95C1452.81 125.95 1453.49 126.25 1454.06 126.85C1454.63 127.417 1454.91 128.1 1454.91 128.9C1454.91 129.667 1454.63 130.35 1454.06 130.95C1453.53 131.517 1452.84 131.8 1452.01 131.8Z" fill="black"/>
</g>
<defs>
<filter id="filter0_dd" x="492.188" y="91.9004" width="966.722" height="59" filterUnits="userSpaceOnUse" color-interpolation-filters="sRGB">
<feFlood flood-opacity="0" result="BackgroundImageFix"/>
<feColorMatrix in="SourceAlpha" type="matrix" values="0 0 0 0 0 0 0 0 0 0 0 0 0 0 0 0 0 0 127 0"/>
<feOffset dy="4"/>
<feGaussianBlur stdDeviation="2"/>
<feColorMatrix type="matrix" values="0 0 0 0 0 0 0 0 0 0 0 0 0 0 0 0 0 0 0.25 0"/>
<feBlend mode="normal" in2="BackgroundImageFix" result="effect1_dropShadow"/>
<feColorMatrix in="SourceAlpha" type="matrix" values="0 0 0 0 0 0 0 0 0 0 0 0 0 0 0 0 0 0 127 0"/>
<feOffset dy="4"/>
<feGaussianBlur stdDeviation="2"/>
<feColorMatrix type="matrix" values="0 0 0 0 0 0 0 0 0 0 0 0 0 0 0 0 0 0 0.25 0"/>
<feBlend mode="normal" in2="effect1_dropShadow" result="effect2_dropShadow"/>
<feBlend mode="normal" in="SourceGraphic" in2="effect2_dropShadow" result="shape"/>
</filter>
</defs>
</svg>
