<svg width="1920" height="1080" viewBox="0 0 1920 1080" fill="none" xmlns="http://www.w3.org/2000/svg">
<rect width="1920" height="1080" fill="#E4E9DF"/>
<path d="M227.12 414C226.24 414 225.5 413.7 224.9 413.1C224.3 412.5 224 411.76 224 410.88V370.26C224 369.34 224.3 368.6 224.9 368.04C225.5 367.44 226.24 367.14 227.12 367.14H239.12C242.12 367.14 244.78 367.8 247.1 369.12C249.42 370.44 251.22 372.28 252.5 374.64C253.82 376.96 254.48 379.64 254.48 382.68C254.48 385.6 253.82 388.2 252.5 390.48C251.22 392.76 249.42 394.54 247.1 395.82C244.78 397.1 242.12 397.74 239.12 397.74H230.24V410.88C230.24 411.76 229.94 412.5 229.34 413.1C228.78 413.7 228.04 414 227.12 414ZM230.24 391.98H239.12C241.84 391.98 244.08 391.12 245.84 389.4C247.6 387.64 248.48 385.4 248.48 382.68C248.48 380.76 248.08 379.08 247.28 377.64C246.48 376.16 245.38 375 243.98 374.16C242.58 373.32 240.96 372.9 239.12 372.9H230.24V391.98ZM267.683 414C265.923 414 264.363 413.52 263.003 412.56C261.643 411.6 260.583 410.3 259.823 408.66C259.063 406.98 258.683 405.06 258.683 402.9V370.14C258.683 369.26 258.963 368.54 259.523 367.98C260.083 367.42 260.803 367.14 261.683 367.14C262.563 367.14 263.283 367.42 263.843 367.98C264.403 368.54 264.683 369.26 264.683 370.14V402.9C264.683 404.38 264.963 405.6 265.523 406.56C266.083 407.52 266.803 408 267.683 408H269.183C269.983 408 270.623 408.28 271.103 408.84C271.623 409.4 271.883 410.12 271.883 411C271.883 411.88 271.503 412.6 270.743 413.16C269.983 413.72 269.003 414 267.803 414H267.683ZM290.575 414.24C287.255 414.24 284.295 413.54 281.695 412.14C279.135 410.7 277.115 408.74 275.635 406.26C274.195 403.74 273.475 400.86 273.475 397.62C273.475 394.34 274.155 391.46 275.515 388.98C276.915 386.46 278.835 384.5 281.275 383.1C283.715 381.66 286.515 380.94 289.675 380.94C292.795 380.94 295.475 381.64 297.715 383.04C299.955 384.4 301.655 386.3 302.815 388.74C304.015 391.14 304.615 393.92 304.615 397.08C304.615 397.84 304.355 398.48 303.835 399C303.315 399.48 302.655 399.72 301.855 399.72H279.055C279.495 402.48 280.755 404.74 282.835 406.5C284.955 408.22 287.535 409.08 290.575 409.08C291.815 409.08 293.075 408.86 294.355 408.42C295.675 407.94 296.735 407.4 297.535 406.8C298.135 406.36 298.775 406.14 299.455 406.14C300.175 406.1 300.795 406.3 301.315 406.74C301.995 407.34 302.355 408 302.395 408.72C302.435 409.44 302.115 410.06 301.435 410.58C300.075 411.66 298.375 412.54 296.335 413.22C294.335 413.9 292.415 414.24 290.575 414.24ZM289.675 386.1C286.715 386.1 284.335 386.92 282.535 388.56C280.735 390.2 279.595 392.32 279.115 394.92H299.095C298.735 392.36 297.755 390.26 296.155 388.62C294.555 386.94 292.395 386.1 289.675 386.1ZM324.028 414.24C321.108 414.24 318.488 413.52 316.168 412.08C313.848 410.6 312.008 408.62 310.648 406.14C309.328 403.62 308.668 400.78 308.668 397.62C308.668 394.46 309.388 391.62 310.828 389.1C312.308 386.58 314.288 384.6 316.768 383.16C319.288 381.68 322.108 380.94 325.228 380.94C328.348 380.94 331.148 381.68 333.628 383.16C336.108 384.6 338.068 386.58 339.508 389.1C340.988 391.62 341.728 394.46 341.728 397.62V411C341.728 411.88 341.428 412.62 340.828 413.22C340.268 413.78 339.548 414.06 338.668 414.06C337.788 414.06 337.048 413.78 336.448 413.22C335.888 412.62 335.608 411.88 335.608 411V408.78C334.208 410.46 332.508 411.8 330.508 412.8C328.548 413.76 326.388 414.24 324.028 414.24ZM325.228 408.84C327.268 408.84 329.088 408.36 330.688 407.4C332.288 406.4 333.548 405.06 334.468 403.38C335.388 401.66 335.848 399.74 335.848 397.62C335.848 395.46 335.388 393.54 334.468 391.86C333.548 390.14 332.288 388.8 330.688 387.84C329.088 386.84 327.268 386.34 325.228 386.34C323.228 386.34 321.408 386.84 319.768 387.84C318.168 388.8 316.888 390.14 315.928 391.86C315.008 393.54 314.548 395.46 314.548 397.62C314.548 399.74 315.008 401.66 315.928 403.38C316.888 405.06 318.168 406.4 319.768 407.4C321.408 408.36 323.228 408.84 325.228 408.84ZM361.877 414.24C359.077 414.24 356.477 413.82 354.077 412.98C351.717 412.1 349.877 411 348.557 409.68C347.957 409.04 347.697 408.32 347.777 407.52C347.897 406.68 348.297 406 348.977 405.48C349.777 404.84 350.557 404.58 351.317 404.7C352.117 404.78 352.797 405.12 353.357 405.72C354.037 406.48 355.117 407.2 356.597 407.88C358.117 408.52 359.797 408.84 361.637 408.84C363.957 408.84 365.717 408.46 366.917 407.7C368.157 406.94 368.797 405.96 368.837 404.76C368.877 403.56 368.297 402.52 367.097 401.64C365.937 400.76 363.797 400.04 360.677 399.48C356.637 398.68 353.697 397.48 351.857 395.88C350.057 394.28 349.157 392.32 349.157 390C349.157 387.96 349.757 386.28 350.957 384.96C352.157 383.6 353.697 382.6 355.577 381.96C357.457 381.28 359.417 380.94 361.457 380.94C364.097 380.94 366.437 381.36 368.477 382.2C370.517 383.04 372.137 384.2 373.337 385.68C373.897 386.32 374.157 387 374.117 387.72C374.077 388.4 373.737 388.98 373.097 389.46C372.457 389.9 371.697 390.04 370.817 389.88C369.937 389.72 369.197 389.36 368.597 388.8C367.597 387.84 366.517 387.18 365.357 386.82C364.197 386.46 362.857 386.28 361.337 386.28C359.577 386.28 358.077 386.58 356.837 387.18C355.637 387.78 355.037 388.66 355.037 389.82C355.037 390.54 355.217 391.2 355.577 391.8C355.977 392.36 356.737 392.88 357.857 393.36C358.977 393.8 360.617 394.24 362.777 394.68C367.297 395.56 370.417 396.82 372.137 398.46C373.897 400.06 374.777 402.04 374.777 404.4C374.777 406.24 374.277 407.9 373.277 409.38C372.317 410.86 370.877 412.04 368.957 412.92C367.077 413.8 364.717 414.24 361.877 414.24ZM397.035 414.24C393.715 414.24 390.755 413.54 388.155 412.14C385.595 410.7 383.575 408.74 382.095 406.26C380.655 403.74 379.935 400.86 379.935 397.62C379.935 394.34 380.615 391.46 381.975 388.98C383.375 386.46 385.295 384.5 387.735 383.1C390.175 381.66 392.975 380.94 396.135 380.94C399.255 380.94 401.935 381.64 404.175 383.04C406.415 384.4 408.115 386.3 409.275 388.74C410.475 391.14 411.075 393.92 411.075 397.08C411.075 397.84 410.815 398.48 410.295 399C409.775 399.48 409.115 399.72 408.315 399.72H385.515C385.955 402.48 387.215 404.74 389.295 406.5C391.415 408.22 393.995 409.08 397.035 409.08C398.275 409.08 399.535 408.86 400.815 408.42C402.135 407.94 403.195 407.4 403.995 406.8C404.595 406.36 405.235 406.14 405.915 406.14C406.635 406.1 407.255 406.3 407.775 406.74C408.455 407.34 408.815 408 408.855 408.72C408.895 409.44 408.575 410.06 407.895 410.58C406.535 411.66 404.835 412.54 402.795 413.22C400.795 413.9 398.875 414.24 397.035 414.24ZM396.135 386.1C393.175 386.1 390.795 386.92 388.995 388.56C387.195 390.2 386.055 392.32 385.575 394.92H405.555C405.195 392.36 404.215 390.26 402.615 388.62C401.015 386.94 398.855 386.1 396.135 386.1ZM442.219 414C441.579 414 440.979 413.82 440.419 413.46C439.899 413.06 439.539 412.58 439.339 412.02L430.459 385.38C430.139 384.14 430.139 383.14 430.459 382.38C430.819 381.58 431.579 381.18 432.739 381.18C433.499 381.18 434.119 381.4 434.599 381.84C435.119 382.24 435.539 382.94 435.859 383.94L442.339 404.16L448.459 383.46C448.659 382.78 448.999 382.24 449.479 381.84C449.959 381.4 450.619 381.18 451.459 381.18C452.259 381.18 452.899 381.4 453.379 381.84C453.899 382.24 454.239 382.78 454.399 383.46L459.799 404.58L466.399 383.94C466.959 382.1 467.999 381.18 469.519 381.18C470.639 381.18 471.399 381.58 471.799 382.38C472.199 383.14 472.179 384.14 471.739 385.38L462.859 412.02C462.699 412.58 462.359 413.06 461.839 413.46C461.319 413.82 460.719 414 460.039 414C459.399 414 458.799 413.82 458.239 413.46C457.679 413.06 457.319 412.58 457.159 412.02L451.279 390.24L445.099 412.02C444.939 412.58 444.579 413.06 444.019 413.46C443.499 413.82 442.899 414 442.219 414ZM489.919 414.24C486.999 414.24 484.379 413.52 482.059 412.08C479.739 410.6 477.899 408.62 476.539 406.14C475.219 403.62 474.559 400.78 474.559 397.62C474.559 394.46 475.279 391.62 476.719 389.1C478.199 386.58 480.179 384.6 482.659 383.16C485.179 381.68 487.999 380.94 491.119 380.94C494.239 380.94 497.039 381.68 499.519 383.16C501.999 384.6 503.959 386.58 505.399 389.1C506.879 391.62 507.619 394.46 507.619 397.62V411C507.619 411.88 507.319 412.62 506.719 413.22C506.159 413.78 505.439 414.06 504.559 414.06C503.679 414.06 502.939 413.78 502.339 413.22C501.779 412.62 501.499 411.88 501.499 411V408.78C500.099 410.46 498.399 411.8 496.399 412.8C494.439 413.76 492.279 414.24 489.919 414.24ZM491.119 408.84C493.159 408.84 494.979 408.36 496.579 407.4C498.179 406.4 499.439 405.06 500.359 403.38C501.279 401.66 501.739 399.74 501.739 397.62C501.739 395.46 501.279 393.54 500.359 391.86C499.439 390.14 498.179 388.8 496.579 387.84C494.979 386.84 493.159 386.34 491.119 386.34C489.119 386.34 487.299 386.84 485.659 387.84C484.059 388.8 482.779 390.14 481.819 391.86C480.899 393.54 480.439 395.46 480.439 397.62C480.439 399.74 480.899 401.66 481.819 403.38C482.779 405.06 484.059 406.4 485.659 407.4C487.299 408.36 489.119 408.84 491.119 408.84ZM519.487 414C518.607 414 517.867 413.72 517.267 413.16C516.707 412.56 516.427 411.82 516.427 410.94V384.24C516.427 383.32 516.707 382.58 517.267 382.02C517.867 381.46 518.607 381.18 519.487 381.18C520.407 381.18 521.147 381.46 521.707 382.02C522.267 382.58 522.547 383.32 522.547 384.24V410.94C522.547 411.82 522.267 412.56 521.707 413.16C521.147 413.72 520.407 414 519.487 414ZM519.487 375.84C518.407 375.84 517.467 375.46 516.667 374.7C515.907 373.9 515.527 372.96 515.527 371.88C515.527 370.8 515.907 369.88 516.667 369.12C517.467 368.32 518.407 367.92 519.487 367.92C520.567 367.92 521.487 368.32 522.247 369.12C523.047 369.88 523.447 370.8 523.447 371.88C523.447 372.96 523.047 373.9 522.247 374.7C521.487 375.46 520.567 375.84 519.487 375.84ZM544.973 414C542.973 414 541.173 413.5 539.573 412.5C537.973 411.46 536.713 410.06 535.793 408.3C534.873 406.54 534.413 404.56 534.413 402.36V387.54H531.653C530.813 387.54 530.133 387.3 529.613 386.82C529.093 386.34 528.833 385.74 528.833 385.02C528.833 384.22 529.093 383.58 529.613 383.1C530.133 382.62 530.813 382.38 531.653 382.38H534.413V373.74C534.413 372.86 534.693 372.14 535.253 371.58C535.813 371.02 536.533 370.74 537.413 370.74C538.293 370.74 539.013 371.02 539.573 371.58C540.133 372.14 540.413 372.86 540.413 373.74V382.38H545.513C546.353 382.38 547.033 382.62 547.553 383.1C548.073 383.58 548.333 384.22 548.333 385.02C548.333 385.74 548.073 386.34 547.553 386.82C547.033 387.3 546.353 387.54 545.513 387.54H540.413V402.36C540.413 403.96 540.853 405.3 541.733 406.38C542.613 407.46 543.693 408 544.973 408H547.013C547.733 408 548.333 408.28 548.813 408.84C549.333 409.4 549.593 410.12 549.593 411C549.593 411.88 549.253 412.6 548.573 413.16C547.933 413.72 547.093 414 546.053 414H544.973ZM586.573 414.24C583.653 414.24 581.033 413.52 578.713 412.08C576.393 410.6 574.553 408.62 573.193 406.14C571.873 403.62 571.213 400.78 571.213 397.62C571.213 394.46 571.933 391.62 573.373 389.1C574.853 386.58 576.833 384.6 579.313 383.16C581.833 381.68 584.653 380.94 587.773 380.94C590.893 380.94 593.693 381.68 596.173 383.16C598.653 384.6 600.613 386.58 602.053 389.1C603.533 391.62 604.273 394.46 604.273 397.62V411C604.273 411.88 603.973 412.62 603.373 413.22C602.813 413.78 602.093 414.06 601.213 414.06C600.333 414.06 599.593 413.78 598.993 413.22C598.433 412.62 598.153 411.88 598.153 411V408.78C596.753 410.46 595.053 411.8 593.053 412.8C591.093 413.76 588.933 414.24 586.573 414.24ZM587.773 408.84C589.813 408.84 591.633 408.36 593.233 407.4C594.833 406.4 596.093 405.06 597.013 403.38C597.933 401.66 598.393 399.74 598.393 397.62C598.393 395.46 597.933 393.54 597.013 391.86C596.093 390.14 594.833 388.8 593.233 387.84C591.633 386.84 589.813 386.34 587.773 386.34C585.773 386.34 583.953 386.84 582.313 387.84C580.713 388.8 579.433 390.14 578.473 391.86C577.553 393.54 577.093 395.46 577.093 397.62C577.093 399.74 577.553 401.66 578.473 403.38C579.433 405.06 580.713 406.4 582.313 407.4C583.953 408.36 585.773 408.84 587.773 408.84ZM632.219 414.06C631.339 414.06 630.599 413.78 629.999 413.22C629.439 412.62 629.159 411.88 629.159 411V384.3C629.159 383.38 629.439 382.64 629.999 382.08C630.599 381.52 631.339 381.24 632.219 381.24C633.139 381.24 633.879 381.52 634.439 382.08C634.999 382.64 635.279 383.34 635.279 384.18C636.319 383.14 637.559 382.34 638.999 381.78C640.439 381.18 641.999 380.88 643.679 380.88C647.879 380.88 651.039 382.46 653.159 385.62C654.319 384.14 655.799 382.98 657.599 382.14C659.399 381.3 661.419 380.88 663.659 380.88C667.099 380.88 669.899 382 672.059 384.24C674.219 386.48 675.299 389.68 675.299 393.84V411C675.299 411.88 675.019 412.62 674.459 413.22C673.899 413.78 673.159 414.06 672.239 414.06C671.359 414.06 670.619 413.78 670.019 413.22C669.459 412.62 669.179 411.88 669.179 411V393.84C669.179 391.32 668.559 389.46 667.319 388.26C666.079 387.02 664.459 386.4 662.459 386.4C660.379 386.4 658.659 387.12 657.299 388.56C655.979 390 655.319 391.84 655.319 394.08V411C655.319 411.88 655.039 412.62 654.479 413.22C653.919 413.78 653.179 414.06 652.259 414.06C651.379 414.06 650.639 413.78 650.039 413.22C649.479 412.62 649.199 411.88 649.199 411V393.84C649.199 391.32 648.579 389.46 647.339 388.26C646.099 387.02 644.479 386.4 642.479 386.4C640.399 386.4 638.679 387.12 637.319 388.56C635.959 390 635.279 391.84 635.279 394.08V411C635.279 411.88 634.999 412.62 634.439 413.22C633.879 413.78 633.139 414.06 632.219 414.06ZM699.448 414.24C696.208 414.24 693.348 413.54 690.868 412.14C688.388 410.7 686.428 408.74 684.988 406.26C683.588 403.74 682.888 400.86 682.888 397.62C682.888 394.34 683.588 391.46 684.988 388.98C686.428 386.46 688.388 384.5 690.868 383.1C693.348 381.66 696.208 380.94 699.448 380.94C702.648 380.94 705.488 381.66 707.968 383.1C710.448 384.5 712.388 386.46 713.788 388.98C715.228 391.46 715.948 394.34 715.948 397.62C715.948 400.86 715.248 403.74 713.848 406.26C712.448 408.74 710.508 410.7 708.028 412.14C705.548 413.54 702.688 414.24 699.448 414.24ZM699.448 408.84C701.528 408.84 703.368 408.36 704.968 407.4C706.568 406.44 707.808 405.12 708.688 403.44C709.608 401.76 710.068 399.82 710.068 397.62C710.068 395.42 709.608 393.48 708.688 391.8C707.808 390.08 706.568 388.74 704.968 387.78C703.368 386.82 701.528 386.34 699.448 386.34C697.368 386.34 695.528 386.82 693.928 387.78C692.328 388.74 691.068 390.08 690.148 391.8C689.228 393.48 688.768 395.42 688.768 397.62C688.768 399.82 689.228 401.76 690.148 403.44C691.068 405.12 692.328 406.44 693.928 407.4C695.528 408.36 697.368 408.84 699.448 408.84ZM727.216 414.06C726.336 414.06 725.596 413.78 724.996 413.22C724.436 412.62 724.156 411.88 724.156 411V384.3C724.156 383.38 724.436 382.64 724.996 382.08C725.596 381.52 726.336 381.24 727.216 381.24C728.136 381.24 728.876 381.52 729.436 382.08C729.996 382.64 730.276 383.34 730.276 384.18C731.316 383.14 732.556 382.34 733.996 381.78C735.436 381.18 736.996 380.88 738.676 380.88C742.876 380.88 746.036 382.46 748.156 385.62C749.316 384.14 750.796 382.98 752.596 382.14C754.396 381.3 756.416 380.88 758.656 380.88C762.096 380.88 764.896 382 767.056 384.24C769.216 386.48 770.296 389.68 770.296 393.84V411C770.296 411.88 770.016 412.62 769.456 413.22C768.896 413.78 768.156 414.06 767.236 414.06C766.356 414.06 765.616 413.78 765.016 413.22C764.456 412.62 764.176 411.88 764.176 411V393.84C764.176 391.32 763.556 389.46 762.316 388.26C761.076 387.02 759.456 386.4 757.456 386.4C755.376 386.4 753.656 387.12 752.296 388.56C750.976 390 750.316 391.84 750.316 394.08V411C750.316 411.88 750.036 412.62 749.476 413.22C748.916 413.78 748.176 414.06 747.256 414.06C746.376 414.06 745.636 413.78 745.036 413.22C744.476 412.62 744.196 411.88 744.196 411V393.84C744.196 391.32 743.576 389.46 742.336 388.26C741.096 387.02 739.476 386.4 737.476 386.4C735.396 386.4 733.676 387.12 732.316 388.56C730.956 390 730.276 391.84 730.276 394.08V411C730.276 411.88 729.996 412.62 729.436 413.22C728.876 413.78 728.136 414.06 727.216 414.06ZM794.985 414.24C791.665 414.24 788.705 413.54 786.105 412.14C783.545 410.7 781.525 408.74 780.045 406.26C778.605 403.74 777.885 400.86 777.885 397.62C777.885 394.34 778.565 391.46 779.925 388.98C781.325 386.46 783.245 384.5 785.685 383.1C788.125 381.66 790.925 380.94 794.085 380.94C797.205 380.94 799.885 381.64 802.125 383.04C804.365 384.4 806.065 386.3 807.225 388.74C808.425 391.14 809.025 393.92 809.025 397.08C809.025 397.84 808.765 398.48 808.245 399C807.725 399.48 807.065 399.72 806.265 399.72H783.465C783.905 402.48 785.165 404.74 787.245 406.5C789.365 408.22 791.945 409.08 794.985 409.08C796.225 409.08 797.485 408.86 798.765 408.42C800.085 407.94 801.145 407.4 801.945 406.8C802.545 406.36 803.185 406.14 803.865 406.14C804.585 406.1 805.205 406.3 805.725 406.74C806.405 407.34 806.765 408 806.805 408.72C806.845 409.44 806.525 410.06 805.845 410.58C804.485 411.66 802.785 412.54 800.745 413.22C798.745 413.9 796.825 414.24 794.985 414.24ZM794.085 386.1C791.125 386.1 788.745 386.92 786.945 388.56C785.145 390.2 784.005 392.32 783.525 394.92H803.505C803.145 392.36 802.165 390.26 800.565 388.62C798.965 386.94 796.805 386.1 794.085 386.1ZM818.99 414.06C818.11 414.06 817.37 413.78 816.77 413.22C816.21 412.62 815.93 411.88 815.93 411V384.24C815.93 383.32 816.21 382.58 816.77 382.02C817.37 381.46 818.11 381.18 818.99 381.18C819.91 381.18 820.65 381.46 821.21 382.02C821.77 382.58 822.05 383.32 822.05 384.24V384.9C823.29 383.66 824.79 382.68 826.55 381.96C828.31 381.24 830.21 380.88 832.25 380.88C835.01 380.88 837.47 381.48 839.63 382.68C841.83 383.84 843.55 385.56 844.79 387.84C846.07 390.12 846.71 392.92 846.71 396.24V411C846.71 411.88 846.41 412.62 845.81 413.22C845.25 413.78 844.53 414.06 843.65 414.06C842.77 414.06 842.03 413.78 841.43 413.22C840.87 412.62 840.59 411.88 840.59 411V396.24C840.59 392.84 839.67 390.36 837.83 388.8C836.03 387.2 833.77 386.4 831.05 386.4C829.37 386.4 827.85 386.74 826.49 387.42C825.13 388.1 824.05 389.02 823.25 390.18C822.45 391.3 822.05 392.6 822.05 394.08V411C822.05 411.88 821.77 412.62 821.21 413.22C820.65 413.78 819.91 414.06 818.99 414.06ZM867.869 414C865.869 414 864.069 413.5 862.469 412.5C860.869 411.46 859.609 410.06 858.689 408.3C857.769 406.54 857.309 404.56 857.309 402.36V387.54H854.549C853.709 387.54 853.029 387.3 852.509 386.82C851.989 386.34 851.729 385.74 851.729 385.02C851.729 384.22 851.989 383.58 852.509 383.1C853.029 382.62 853.709 382.38 854.549 382.38H857.309V373.74C857.309 372.86 857.589 372.14 858.149 371.58C858.709 371.02 859.429 370.74 860.309 370.74C861.189 370.74 861.909 371.02 862.469 371.58C863.029 372.14 863.309 372.86 863.309 373.74V382.38H868.409C869.249 382.38 869.929 382.62 870.449 383.1C870.969 383.58 871.229 384.22 871.229 385.02C871.229 385.74 870.969 386.34 870.449 386.82C869.929 387.3 869.249 387.54 868.409 387.54H863.309V402.36C863.309 403.96 863.749 405.3 864.629 406.38C865.509 407.46 866.589 408 867.869 408H869.909C870.629 408 871.229 408.28 871.709 408.84C872.229 409.4 872.489 410.12 872.489 411C872.489 411.88 872.149 412.6 871.469 413.16C870.829 413.72 869.989 414 868.949 414H867.869ZM909.469 414.24C906.549 414.24 903.929 413.52 901.609 412.08C899.289 410.6 897.449 408.62 896.089 406.14C894.769 403.62 894.109 400.78 894.109 397.62C894.109 394.46 894.829 391.62 896.269 389.1C897.749 386.58 899.729 384.6 902.209 383.16C904.729 381.68 907.549 380.94 910.669 380.94C913.789 380.94 916.589 381.68 919.069 383.16C921.549 384.6 923.509 386.58 924.949 389.1C926.429 391.62 927.169 394.46 927.169 397.62V411C927.169 411.88 926.869 412.62 926.269 413.22C925.709 413.78 924.989 414.06 924.109 414.06C923.229 414.06 922.489 413.78 921.889 413.22C921.329 412.62 921.049 411.88 921.049 411V408.78C919.649 410.46 917.949 411.8 915.949 412.8C913.989 413.76 911.829 414.24 909.469 414.24ZM910.669 408.84C912.709 408.84 914.529 408.36 916.129 407.4C917.729 406.4 918.989 405.06 919.909 403.38C920.829 401.66 921.289 399.74 921.289 397.62C921.289 395.46 920.829 393.54 919.909 391.86C918.989 390.14 917.729 388.8 916.129 387.84C914.529 386.84 912.709 386.34 910.669 386.34C908.669 386.34 906.849 386.84 905.209 387.84C903.609 388.8 902.329 390.14 901.369 391.86C900.449 393.54 899.989 395.46 899.989 397.62C899.989 399.74 900.449 401.66 901.369 403.38C902.329 405.06 903.609 406.4 905.209 407.4C906.849 408.36 908.669 408.84 910.669 408.84ZM947.317 414.24C944.517 414.24 941.917 413.82 939.517 412.98C937.157 412.1 935.317 411 933.997 409.68C933.397 409.04 933.137 408.32 933.217 407.52C933.337 406.68 933.737 406 934.417 405.48C935.217 404.84 935.997 404.58 936.757 404.7C937.557 404.78 938.237 405.12 938.797 405.72C939.477 406.48 940.557 407.2 942.037 407.88C943.557 408.52 945.237 408.84 947.077 408.84C949.397 408.84 951.157 408.46 952.357 407.7C953.597 406.94 954.237 405.96 954.277 404.76C954.317 403.56 953.737 402.52 952.537 401.64C951.377 400.76 949.237 400.04 946.117 399.48C942.077 398.68 939.137 397.48 937.297 395.88C935.497 394.28 934.597 392.32 934.597 390C934.597 387.96 935.197 386.28 936.397 384.96C937.597 383.6 939.137 382.6 941.017 381.96C942.897 381.28 944.857 380.94 946.897 380.94C949.537 380.94 951.877 381.36 953.917 382.2C955.957 383.04 957.577 384.2 958.777 385.68C959.337 386.32 959.597 387 959.557 387.72C959.517 388.4 959.177 388.98 958.537 389.46C957.897 389.9 957.137 390.04 956.257 389.88C955.377 389.72 954.637 389.36 954.037 388.8C953.037 387.84 951.957 387.18 950.797 386.82C949.637 386.46 948.297 386.28 946.777 386.28C945.017 386.28 943.517 386.58 942.277 387.18C941.077 387.78 940.477 388.66 940.477 389.82C940.477 390.54 940.657 391.2 941.017 391.8C941.417 392.36 942.177 392.88 943.297 393.36C944.417 393.8 946.057 394.24 948.217 394.68C952.737 395.56 955.857 396.82 957.577 398.46C959.337 400.06 960.217 402.04 960.217 404.4C960.217 406.24 959.717 407.9 958.717 409.38C957.757 410.86 956.317 412.04 954.397 412.92C952.517 413.8 950.157 414.24 947.317 414.24ZM991.294 414C990.654 414 990.054 413.82 989.494 413.46C988.974 413.06 988.614 412.58 988.414 412.02L979.534 385.38C979.214 384.14 979.214 383.14 979.534 382.38C979.894 381.58 980.654 381.18 981.814 381.18C982.574 381.18 983.194 381.4 983.674 381.84C984.194 382.24 984.614 382.94 984.934 383.94L991.414 404.16L997.534 383.46C997.734 382.78 998.074 382.24 998.554 381.84C999.034 381.4 999.694 381.18 1000.53 381.18C1001.33 381.18 1001.97 381.4 1002.45 381.84C1002.97 382.24 1003.31 382.78 1003.47 383.46L1008.87 404.58L1015.47 383.94C1016.03 382.1 1017.07 381.18 1018.59 381.18C1019.71 381.18 1020.47 381.58 1020.87 382.38C1021.27 383.14 1021.25 384.14 1020.81 385.38L1011.93 412.02C1011.77 412.58 1011.43 413.06 1010.91 413.46C1010.39 413.82 1009.79 414 1009.11 414C1008.47 414 1007.87 413.82 1007.31 413.46C1006.75 413.06 1006.39 412.58 1006.23 412.02L1000.35 390.24L994.174 412.02C994.014 412.58 993.654 413.06 993.094 413.46C992.574 413.82 991.974 414 991.294 414ZM1040.73 414.24C1037.41 414.24 1034.45 413.54 1031.85 412.14C1029.29 410.7 1027.27 408.74 1025.79 406.26C1024.35 403.74 1023.63 400.86 1023.63 397.62C1023.63 394.34 1024.31 391.46 1025.67 388.98C1027.07 386.46 1028.99 384.5 1031.43 383.1C1033.87 381.66 1036.67 380.94 1039.83 380.94C1042.95 380.94 1045.63 381.64 1047.87 383.04C1050.11 384.4 1051.81 386.3 1052.97 388.74C1054.17 391.14 1054.77 393.92 1054.77 397.08C1054.77 397.84 1054.51 398.48 1053.99 399C1053.47 399.48 1052.81 399.72 1052.01 399.72H1029.21C1029.65 402.48 1030.91 404.74 1032.99 406.5C1035.11 408.22 1037.69 409.08 1040.73 409.08C1041.97 409.08 1043.23 408.86 1044.51 408.42C1045.83 407.94 1046.89 407.4 1047.69 406.8C1048.29 406.36 1048.93 406.14 1049.61 406.14C1050.33 406.1 1050.95 406.3 1051.47 406.74C1052.15 407.34 1052.51 408 1052.55 408.72C1052.59 409.44 1052.27 410.06 1051.59 410.58C1050.23 411.66 1048.53 412.54 1046.49 413.22C1044.49 413.9 1042.57 414.24 1040.73 414.24ZM1039.83 386.1C1036.87 386.1 1034.49 386.92 1032.69 388.56C1030.89 390.2 1029.75 392.32 1029.27 394.92H1049.25C1048.89 392.36 1047.91 390.26 1046.31 388.62C1044.71 386.94 1042.55 386.1 1039.83 386.1ZM1086.16 414C1084.4 414 1082.84 413.52 1081.48 412.56C1080.12 411.6 1079.06 410.3 1078.3 408.66C1077.54 406.98 1077.16 405.06 1077.16 402.9V370.14C1077.16 369.26 1077.44 368.54 1078 367.98C1078.56 367.42 1079.28 367.14 1080.16 367.14C1081.04 367.14 1081.76 367.42 1082.32 367.98C1082.88 368.54 1083.16 369.26 1083.16 370.14V402.9C1083.16 404.38 1083.44 405.6 1084 406.56C1084.56 407.52 1085.28 408 1086.16 408H1087.66C1088.46 408 1089.1 408.28 1089.58 408.84C1090.1 409.4 1090.36 410.12 1090.36 411C1090.36 411.88 1089.98 412.6 1089.22 413.16C1088.46 413.72 1087.48 414 1086.28 414H1086.16ZM1108.51 414.24C1105.27 414.24 1102.41 413.54 1099.93 412.14C1097.45 410.7 1095.49 408.74 1094.05 406.26C1092.65 403.74 1091.95 400.86 1091.95 397.62C1091.95 394.34 1092.65 391.46 1094.05 388.98C1095.49 386.46 1097.45 384.5 1099.93 383.1C1102.41 381.66 1105.27 380.94 1108.51 380.94C1111.71 380.94 1114.55 381.66 1117.03 383.1C1119.51 384.5 1121.45 386.46 1122.85 388.98C1124.29 391.46 1125.01 394.34 1125.01 397.62C1125.01 400.86 1124.31 403.74 1122.91 406.26C1121.51 408.74 1119.57 410.7 1117.09 412.14C1114.61 413.54 1111.75 414.24 1108.51 414.24ZM1108.51 408.84C1110.59 408.84 1112.43 408.36 1114.03 407.4C1115.63 406.44 1116.87 405.12 1117.75 403.44C1118.67 401.76 1119.13 399.82 1119.13 397.62C1119.13 395.42 1118.67 393.48 1117.75 391.8C1116.87 390.08 1115.63 388.74 1114.03 387.78C1112.43 386.82 1110.59 386.34 1108.51 386.34C1106.43 386.34 1104.59 386.82 1102.99 387.78C1101.39 388.74 1100.13 390.08 1099.21 391.8C1098.29 393.48 1097.83 395.42 1097.83 397.62C1097.83 399.82 1098.29 401.76 1099.21 403.44C1100.13 405.12 1101.39 406.44 1102.99 407.4C1104.59 408.36 1106.43 408.84 1108.51 408.84ZM1146.9 414.24C1143.9 414.24 1141.24 413.54 1138.92 412.14C1136.64 410.7 1134.84 408.74 1133.52 406.26C1132.2 403.74 1131.54 400.86 1131.54 397.62C1131.54 394.34 1132.24 391.46 1133.64 388.98C1135.08 386.46 1137.04 384.5 1139.52 383.1C1142 381.66 1144.86 380.94 1148.1 380.94C1151.3 380.94 1154.14 381.66 1156.62 383.1C1159.1 384.5 1161.04 386.46 1162.44 388.98C1163.88 391.46 1164.6 394.34 1164.6 397.62V410.58C1164.6 413.74 1163.9 416.6 1162.5 419.16C1161.1 421.76 1159.14 423.82 1156.62 425.34C1154.14 426.86 1151.26 427.62 1147.98 427.62C1145.14 427.62 1142.48 427.06 1140 425.94C1137.52 424.82 1135.42 423.18 1133.7 421.02C1133.18 420.34 1132.98 419.64 1133.1 418.92C1133.26 418.2 1133.66 417.62 1134.3 417.18C1135.02 416.7 1135.76 416.54 1136.52 416.7C1137.32 416.86 1137.96 417.26 1138.44 417.9C1139.52 419.26 1140.88 420.32 1142.52 421.08C1144.16 421.84 1146.02 422.22 1148.1 422.22C1150.02 422.22 1151.78 421.76 1153.38 420.84C1155.02 419.92 1156.32 418.56 1157.28 416.76C1158.24 414.96 1158.72 412.76 1158.72 410.16V407.22C1157.48 409.38 1155.84 411.1 1153.8 412.38C1151.76 413.62 1149.46 414.24 1146.9 414.24ZM1148.1 408.84C1150.18 408.84 1152.02 408.36 1153.62 407.4C1155.22 406.44 1156.46 405.12 1157.34 403.44C1158.26 401.76 1158.72 399.82 1158.72 397.62C1158.72 395.42 1158.26 393.48 1157.34 391.8C1156.46 390.08 1155.22 388.74 1153.62 387.78C1152.02 386.82 1150.18 386.34 1148.1 386.34C1146.02 386.34 1144.18 386.82 1142.58 387.78C1140.98 388.74 1139.72 390.08 1138.8 391.8C1137.88 393.48 1137.42 395.42 1137.42 397.62C1137.42 399.82 1137.88 401.76 1138.8 403.44C1139.72 405.12 1140.98 406.44 1142.58 407.4C1144.18 408.36 1146.02 408.84 1148.1 408.84ZM1195.36 428.4C1194.96 428.4 1194.48 428.28 1193.92 428.04C1192.16 427.24 1191.68 425.98 1192.48 424.26L1198.48 410.76L1184.98 385.14C1184.58 384.38 1184.52 383.66 1184.8 382.98C1185.12 382.26 1185.66 381.74 1186.42 381.42C1187.18 381.1 1187.9 381.08 1188.58 381.36C1189.26 381.6 1189.78 382.1 1190.14 382.86L1201.12 404.7L1210.78 382.92C1211.58 381.24 1212.84 380.76 1214.56 381.48C1216.36 382.24 1216.86 383.5 1216.06 385.26L1197.7 426.54C1197.22 427.78 1196.44 428.4 1195.36 428.4ZM1234.64 414.24C1231.4 414.24 1228.54 413.54 1226.06 412.14C1223.58 410.7 1221.62 408.74 1220.18 406.26C1218.78 403.74 1218.08 400.86 1218.08 397.62C1218.08 394.34 1218.78 391.46 1220.18 388.98C1221.62 386.46 1223.58 384.5 1226.06 383.1C1228.54 381.66 1231.4 380.94 1234.64 380.94C1237.84 380.94 1240.68 381.66 1243.16 383.1C1245.64 384.5 1247.58 386.46 1248.98 388.98C1250.42 391.46 1251.14 394.34 1251.14 397.62C1251.14 400.86 1250.44 403.74 1249.04 406.26C1247.64 408.74 1245.7 410.7 1243.22 412.14C1240.74 413.54 1237.88 414.24 1234.64 414.24ZM1234.64 408.84C1236.72 408.84 1238.56 408.36 1240.16 407.4C1241.76 406.44 1243 405.12 1243.88 403.44C1244.8 401.76 1245.26 399.82 1245.26 397.62C1245.26 395.42 1244.8 393.48 1243.88 391.8C1243 390.08 1241.76 388.74 1240.16 387.78C1238.56 386.82 1236.72 386.34 1234.64 386.34C1232.56 386.34 1230.72 386.82 1229.12 387.78C1227.52 388.74 1226.26 390.08 1225.34 391.8C1224.42 393.48 1223.96 395.42 1223.96 397.62C1223.96 399.82 1224.42 401.76 1225.34 403.44C1226.26 405.12 1227.52 406.44 1229.12 407.4C1230.72 408.36 1232.56 408.84 1234.64 408.84ZM1273.14 414.3C1270.38 414.3 1267.9 413.72 1265.7 412.56C1263.54 411.36 1261.82 409.62 1260.54 407.34C1259.3 405.06 1258.68 402.26 1258.68 398.94V384.18C1258.68 383.3 1258.96 382.58 1259.52 382.02C1260.12 381.42 1260.86 381.12 1261.74 381.12C1262.62 381.12 1263.34 381.42 1263.9 382.02C1264.5 382.58 1264.8 383.3 1264.8 384.18V398.94C1264.8 402.34 1265.7 404.84 1267.5 406.44C1269.34 408 1271.62 408.78 1274.34 408.78C1276.06 408.78 1277.58 408.44 1278.9 407.76C1280.26 407.08 1281.34 406.16 1282.14 405C1282.94 403.84 1283.34 402.54 1283.34 401.1V384.18C1283.34 383.26 1283.62 382.52 1284.18 381.96C1284.78 381.4 1285.52 381.12 1286.4 381.12C1287.32 381.12 1288.06 381.4 1288.62 381.96C1289.18 382.52 1289.46 383.26 1289.46 384.18V410.94C1289.46 411.82 1289.18 412.56 1288.62 413.16C1288.06 413.72 1287.32 414 1286.4 414C1285.52 414 1284.78 413.72 1284.18 413.16C1283.62 412.56 1283.34 411.82 1283.34 410.94V410.28C1282.1 411.52 1280.6 412.5 1278.84 413.22C1277.08 413.94 1275.18 414.3 1273.14 414.3ZM1319.68 414C1318.8 414 1318.06 413.72 1317.46 413.16C1316.9 412.56 1316.62 411.82 1316.62 410.94V384.24C1316.62 383.32 1316.9 382.58 1317.46 382.02C1318.06 381.46 1318.8 381.18 1319.68 381.18C1320.6 381.18 1321.34 381.46 1321.9 382.02C1322.46 382.58 1322.74 383.32 1322.74 384.24V410.94C1322.74 411.82 1322.46 412.56 1321.9 413.16C1321.34 413.72 1320.6 414 1319.68 414ZM1319.68 375.84C1318.6 375.84 1317.66 375.46 1316.86 374.7C1316.1 373.9 1315.72 372.96 1315.72 371.88C1315.72 370.8 1316.1 369.88 1316.86 369.12C1317.66 368.32 1318.6 367.92 1319.68 367.92C1320.76 367.92 1321.68 368.32 1322.44 369.12C1323.24 369.88 1323.64 370.8 1323.64 371.88C1323.64 372.96 1323.24 373.9 1322.44 374.7C1321.68 375.46 1320.76 375.84 1319.68 375.84ZM1336.29 414.06C1335.41 414.06 1334.67 413.78 1334.07 413.22C1333.51 412.62 1333.23 411.88 1333.23 411V384.24C1333.23 383.32 1333.51 382.58 1334.07 382.02C1334.67 381.46 1335.41 381.18 1336.29 381.18C1337.21 381.18 1337.95 381.46 1338.51 382.02C1339.07 382.58 1339.35 383.32 1339.35 384.24V384.9C1340.59 383.66 1342.09 382.68 1343.85 381.96C1345.61 381.24 1347.51 380.88 1349.55 380.88C1352.31 380.88 1354.77 381.48 1356.93 382.68C1359.13 383.84 1360.85 385.56 1362.09 387.84C1363.37 390.12 1364.01 392.92 1364.01 396.24V411C1364.01 411.88 1363.71 412.62 1363.11 413.22C1362.55 413.78 1361.83 414.06 1360.95 414.06C1360.07 414.06 1359.33 413.78 1358.73 413.22C1358.17 412.62 1357.89 411.88 1357.89 411V396.24C1357.89 392.84 1356.97 390.36 1355.13 388.8C1353.33 387.2 1351.07 386.4 1348.35 386.4C1346.67 386.4 1345.15 386.74 1343.79 387.42C1342.43 388.1 1341.35 389.02 1340.55 390.18C1339.75 391.3 1339.35 392.6 1339.35 394.08V411C1339.35 411.88 1339.07 412.62 1338.51 413.22C1337.95 413.78 1337.21 414.06 1336.29 414.06ZM1374.96 414.96C1373.84 414.96 1372.86 414.56 1372.02 413.76C1371.22 412.92 1370.82 411.94 1370.82 410.82C1370.82 409.66 1371.22 408.68 1372.02 407.88C1372.86 407.04 1373.84 406.62 1374.96 406.62C1376.12 406.62 1377.1 407.04 1377.9 407.88C1378.7 408.68 1379.1 409.66 1379.1 410.82C1379.1 411.94 1378.7 412.92 1377.9 413.76C1377.1 414.56 1376.12 414.96 1374.96 414.96Z" fill="black"/>
</svg>
