<svg width="1920" height="229" viewBox="0 0 1920 229" fill="none" xmlns="http://www.w3.org/2000/svg">
<path d="M0 0H1920V229H0V0Z" fill="#E5E5E5"/>
<g filter="url(#filter0_dd)">
<path d="M539.437 130C538.871 130 538.404 129.817 538.037 129.45C537.671 129.083 537.487 128.617 537.487 128.05V92.9C537.487 92.3333 537.671 91.8667 538.037 91.5C538.404 91.1333 538.871 90.95 539.437 90.95H549.437C551.904 90.95 554.087 91.5 555.987 92.6C557.887 93.6667 559.371 95.15 560.437 97.05C561.504 98.95 562.037 101.15 562.037 103.65C562.037 106.083 561.504 108.25 560.437 110.15C559.371 112.017 557.887 113.5 555.987 114.6C554.087 115.667 551.904 116.2 549.437 116.2H541.387V128.05C541.387 128.617 541.204 129.083 540.837 129.45C540.471 129.817 540.004 130 539.437 130ZM541.387 112.45H549.437C551.137 112.45 552.654 112.083 553.987 111.35C555.321 110.583 556.354 109.533 557.087 108.2C557.854 106.867 558.237 105.35 558.237 103.65C558.237 101.883 557.854 100.333 557.087 99C556.354 97.6667 555.321 96.6167 553.987 95.85C552.654 95.0833 551.137 94.7 549.437 94.7H541.387V112.45ZM577.926 130.25C575.359 130.25 573.059 129.65 571.026 128.45C568.993 127.217 567.376 125.55 566.176 123.45C565.009 121.35 564.426 118.983 564.426 116.35C564.426 113.683 565.026 111.3 566.226 109.2C567.459 107.1 569.126 105.45 571.226 104.25C573.326 103.017 575.693 102.4 578.326 102.4C580.959 102.4 583.309 103.017 585.376 104.25C587.476 105.45 589.126 107.1 590.326 109.2C591.559 111.3 592.193 113.683 592.226 116.35L590.676 117.55C590.676 119.95 590.109 122.117 588.976 124.05C587.876 125.95 586.359 127.467 584.426 128.6C582.526 129.7 580.359 130.25 577.926 130.25ZM578.326 126.75C580.259 126.75 581.976 126.3 583.476 125.4C585.009 124.5 586.209 123.267 587.076 121.7C587.976 120.1 588.426 118.317 588.426 116.35C588.426 114.35 587.976 112.567 587.076 111C586.209 109.433 585.009 108.2 583.476 107.3C581.976 106.367 580.259 105.9 578.326 105.9C576.426 105.9 574.709 106.367 573.176 107.3C571.643 108.2 570.426 109.433 569.526 111C568.626 112.567 568.176 114.35 568.176 116.35C568.176 118.317 568.626 120.1 569.526 121.7C570.426 123.267 571.643 124.5 573.176 125.4C574.709 126.3 576.426 126.75 578.326 126.75ZM590.276 130C589.709 130 589.243 129.833 588.876 129.5C588.509 129.133 588.326 128.667 588.326 128.1V119.55L589.276 115.6L592.226 116.35V128.1C592.226 128.667 592.043 129.133 591.676 129.5C591.309 129.833 590.843 130 590.276 130ZM608.514 130.25C606.547 130.25 604.597 129.917 602.664 129.25C600.731 128.583 599.164 127.583 597.964 126.25C597.597 125.85 597.447 125.4 597.514 124.9C597.581 124.4 597.831 123.967 598.264 123.6C598.731 123.267 599.214 123.133 599.714 123.2C600.214 123.267 600.631 123.483 600.964 123.85C601.764 124.783 602.814 125.5 604.114 126C605.447 126.5 606.914 126.75 608.514 126.75C610.981 126.75 612.764 126.333 613.864 125.5C614.964 124.633 615.531 123.6 615.564 122.4C615.564 121.2 614.997 120.217 613.864 119.45C612.731 118.65 610.864 118.033 608.264 117.6C604.897 117.067 602.431 116.133 600.864 114.8C599.297 113.467 598.514 111.883 598.514 110.05C598.514 108.35 598.964 106.933 599.864 105.8C600.764 104.667 601.964 103.817 603.464 103.25C604.964 102.683 606.614 102.4 608.414 102.4C610.647 102.4 612.564 102.783 614.164 103.55C615.797 104.317 617.114 105.35 618.114 106.65C618.447 107.083 618.581 107.533 618.514 108C618.447 108.467 618.181 108.85 617.714 109.15C617.314 109.383 616.847 109.467 616.314 109.4C615.814 109.3 615.381 109.05 615.014 108.65C614.181 107.683 613.214 106.983 612.114 106.55C611.014 106.083 609.747 105.85 608.314 105.85C606.481 105.85 605.014 106.233 603.914 107C602.814 107.733 602.264 108.667 602.264 109.8C602.264 110.567 602.464 111.233 602.864 111.8C603.297 112.367 604.014 112.867 605.014 113.3C606.047 113.733 607.481 114.1 609.314 114.4C611.814 114.8 613.781 115.4 615.214 116.2C616.681 116.967 617.714 117.883 618.314 118.95C618.947 119.983 619.264 121.117 619.264 122.35C619.264 123.917 618.797 125.3 617.864 126.5C616.964 127.667 615.697 128.583 614.064 129.25C612.464 129.917 610.614 130.25 608.514 130.25ZM634.717 130.25C632.75 130.25 630.8 129.917 628.867 129.25C626.934 128.583 625.367 127.583 624.167 126.25C623.8 125.85 623.65 125.4 623.717 124.9C623.784 124.4 624.034 123.967 624.467 123.6C624.934 123.267 625.417 123.133 625.917 123.2C626.417 123.267 626.834 123.483 627.167 123.85C627.967 124.783 629.017 125.5 630.317 126C631.65 126.5 633.117 126.75 634.717 126.75C637.184 126.75 638.967 126.333 640.067 125.5C641.167 124.633 641.734 123.6 641.767 122.4C641.767 121.2 641.2 120.217 640.067 119.45C638.934 118.65 637.067 118.033 634.467 117.6C631.1 117.067 628.634 116.133 627.067 114.8C625.5 113.467 624.717 111.883 624.717 110.05C624.717 108.35 625.167 106.933 626.067 105.8C626.967 104.667 628.167 103.817 629.667 103.25C631.167 102.683 632.817 102.4 634.617 102.4C636.85 102.4 638.767 102.783 640.367 103.55C642 104.317 643.317 105.35 644.317 106.65C644.65 107.083 644.784 107.533 644.717 108C644.65 108.467 644.384 108.85 643.917 109.15C643.517 109.383 643.05 109.467 642.517 109.4C642.017 109.3 641.584 109.05 641.217 108.65C640.384 107.683 639.417 106.983 638.317 106.55C637.217 106.083 635.95 105.85 634.517 105.85C632.684 105.85 631.217 106.233 630.117 107C629.017 107.733 628.467 108.667 628.467 109.8C628.467 110.567 628.667 111.233 629.067 111.8C629.5 112.367 630.217 112.867 631.217 113.3C632.25 113.733 633.684 114.1 635.517 114.4C638.017 114.8 639.984 115.4 641.417 116.2C642.884 116.967 643.917 117.883 644.517 118.95C645.15 119.983 645.467 121.117 645.467 122.35C645.467 123.917 645 125.3 644.067 126.5C643.167 127.667 641.9 128.583 640.267 129.25C638.667 129.917 636.817 130.25 634.717 130.25ZM657.57 130C657.137 130 656.753 129.883 656.42 129.65C656.087 129.417 655.853 129.117 655.72 128.75L647.92 105.35C647.72 104.517 647.737 103.867 647.97 103.4C648.203 102.9 648.67 102.65 649.37 102.65C649.803 102.65 650.187 102.767 650.52 103C650.853 103.233 651.103 103.6 651.27 104.1L658.22 125.35H657.12L663.57 104.15C663.703 103.717 663.92 103.367 664.22 103.1C664.553 102.8 664.97 102.65 665.47 102.65C665.97 102.65 666.37 102.783 666.67 103.05C667.003 103.317 667.237 103.683 667.37 104.15L673.52 124.85H672.67L679.47 104.1C679.803 103.133 680.42 102.65 681.32 102.65C682.053 102.65 682.553 102.933 682.82 103.5C683.087 104.033 683.087 104.65 682.82 105.35L675.02 128.75C674.887 129.117 674.653 129.417 674.32 129.65C674.02 129.883 673.653 130 673.22 130C672.787 130 672.387 129.883 672.02 129.65C671.687 129.417 671.47 129.117 671.37 128.75L665.07 107.85H665.67L659.37 128.75C659.237 129.15 659.003 129.467 658.67 129.7C658.337 129.9 657.97 130 657.57 130ZM699.105 130.25C696.439 130.25 694.055 129.65 691.955 128.45C689.855 127.25 688.205 125.6 687.005 123.5C685.805 121.4 685.205 119.017 685.205 116.35C685.205 113.65 685.805 111.25 687.005 109.15C688.205 107.05 689.855 105.4 691.955 104.2C694.055 103 696.439 102.4 699.105 102.4C701.772 102.4 704.139 103 706.205 104.2C708.305 105.4 709.955 107.05 711.155 109.15C712.355 111.25 712.972 113.65 713.005 116.35C713.005 119.017 712.389 121.4 711.155 123.5C709.955 125.6 708.305 127.25 706.205 128.45C704.139 129.65 701.772 130.25 699.105 130.25ZM699.105 126.75C701.039 126.75 702.772 126.3 704.305 125.4C705.839 124.5 707.039 123.267 707.905 121.7C708.772 120.133 709.205 118.35 709.205 116.35C709.205 114.35 708.772 112.567 707.905 111C707.039 109.4 705.839 108.15 704.305 107.25C702.772 106.35 701.039 105.9 699.105 105.9C697.172 105.9 695.439 106.35 693.905 107.25C692.372 108.15 691.155 109.4 690.255 111C689.389 112.567 688.955 114.35 688.955 116.35C688.955 118.35 689.389 120.133 690.255 121.7C691.155 123.267 692.372 124.5 693.905 125.4C695.439 126.3 697.172 126.75 699.105 126.75ZM721.343 113.15C721.443 111.083 721.976 109.233 722.943 107.6C723.943 105.967 725.226 104.683 726.793 103.75C728.393 102.817 730.16 102.35 732.093 102.35C733.626 102.35 734.81 102.567 735.643 103C736.476 103.433 736.793 104.067 736.593 104.9C736.46 105.4 736.226 105.733 735.893 105.9C735.593 106.067 735.21 106.133 734.743 106.1C734.31 106.067 733.81 106.033 733.243 106C731.376 105.833 729.71 106.033 728.243 106.6C726.81 107.133 725.66 107.967 724.793 109.1C723.96 110.233 723.543 111.583 723.543 113.15H721.343ZM721.643 130C721.043 130 720.576 129.833 720.243 129.5C719.91 129.167 719.743 128.7 719.743 128.1V104.55C719.743 103.95 719.91 103.483 720.243 103.15C720.576 102.817 721.043 102.65 721.643 102.65C722.243 102.65 722.71 102.817 723.043 103.15C723.376 103.483 723.543 103.95 723.543 104.55V128.1C723.543 128.7 723.376 129.167 723.043 129.5C722.71 129.833 722.243 130 721.643 130ZM752.342 130.25C749.708 130.25 747.342 129.65 745.242 128.45C743.142 127.217 741.475 125.55 740.242 123.45C739.042 121.35 738.442 118.967 738.442 116.3C738.442 113.667 739.025 111.3 740.192 109.2C741.392 107.1 743.008 105.45 745.042 104.25C747.075 103.017 749.375 102.4 751.942 102.4C754.175 102.4 756.192 102.883 757.992 103.85C759.792 104.783 761.242 106.033 762.342 107.6V92.9C762.342 92.3 762.525 91.8333 762.892 91.5C763.258 91.1333 763.725 90.95 764.292 90.95C764.858 90.95 765.325 91.1333 765.692 91.5C766.058 91.8333 766.242 92.3 766.242 92.9V116.5C766.175 119.1 765.525 121.45 764.292 123.55C763.092 125.617 761.442 127.25 759.342 128.45C757.275 129.65 754.942 130.25 752.342 130.25ZM752.342 126.75C754.275 126.75 755.992 126.3 757.492 125.4C759.025 124.467 760.225 123.217 761.092 121.65C761.992 120.083 762.442 118.3 762.442 116.3C762.442 114.333 761.992 112.567 761.092 111C760.225 109.4 759.025 108.15 757.492 107.25C755.992 106.35 754.275 105.9 752.342 105.9C750.442 105.9 748.725 106.35 747.192 107.25C745.658 108.15 744.442 109.4 743.542 111C742.642 112.567 742.192 114.333 742.192 116.3C742.192 118.3 742.642 120.083 743.542 121.65C744.442 123.217 745.658 124.467 747.192 125.4C748.725 126.3 750.442 126.75 752.342 126.75ZM790.842 130C790.308 130 789.842 129.817 789.442 129.45C789.075 129.05 788.892 128.583 788.892 128.05V92.9C788.892 92.3333 789.075 91.8667 789.442 91.5C789.842 91.1333 790.308 90.95 790.842 90.95C791.642 90.95 792.225 91.2833 792.592 91.95L809.442 125.45H807.742L824.292 91.95C824.692 91.2833 825.275 90.95 826.042 90.95C826.575 90.95 827.025 91.1333 827.392 91.5C827.758 91.8667 827.942 92.3333 827.942 92.9V128.05C827.942 128.583 827.758 129.05 827.392 129.45C827.025 129.817 826.575 130 826.042 130C825.475 130 824.992 129.817 824.592 129.45C824.225 129.05 824.042 128.583 824.042 128.05V97.95L824.892 98L810.142 128.15C809.775 128.783 809.208 129.1 808.442 129.1C807.608 129.1 807.008 128.7 806.642 127.9L791.792 98.2L792.792 97.95V128.05C792.792 128.583 792.592 129.05 792.192 129.45C791.825 129.817 791.375 130 790.842 130ZM839.464 130C838.864 130 838.381 129.833 838.014 129.5C837.681 129.133 837.514 128.65 837.514 128.05V104.6C837.514 104 837.681 103.533 838.014 103.2C838.381 102.833 838.864 102.65 839.464 102.65C840.031 102.65 840.481 102.833 840.814 103.2C841.181 103.533 841.364 104 841.364 104.6V128.05C841.364 128.65 841.181 129.133 840.814 129.5C840.481 129.833 840.031 130 839.464 130ZM839.414 97.45C838.681 97.45 838.047 97.1833 837.514 96.65C836.981 96.1167 836.714 95.4667 836.714 94.7C836.714 93.8667 836.981 93.2167 837.514 92.75C838.081 92.25 838.731 92 839.464 92C840.164 92 840.781 92.25 841.314 92.75C841.881 93.2167 842.164 93.8667 842.164 94.7C842.164 95.4667 841.897 96.1167 841.364 96.65C840.831 97.1833 840.181 97.45 839.414 97.45ZM859.967 130.25C858 130.25 856.05 129.917 854.117 129.25C852.184 128.583 850.617 127.583 849.417 126.25C849.05 125.85 848.9 125.4 848.967 124.9C849.034 124.4 849.284 123.967 849.717 123.6C850.184 123.267 850.667 123.133 851.167 123.2C851.667 123.267 852.084 123.483 852.417 123.85C853.217 124.783 854.267 125.5 855.567 126C856.9 126.5 858.367 126.75 859.967 126.75C862.434 126.75 864.217 126.333 865.317 125.5C866.417 124.633 866.984 123.6 867.017 122.4C867.017 121.2 866.45 120.217 865.317 119.45C864.184 118.65 862.317 118.033 859.717 117.6C856.35 117.067 853.884 116.133 852.317 114.8C850.75 113.467 849.967 111.883 849.967 110.05C849.967 108.35 850.417 106.933 851.317 105.8C852.217 104.667 853.417 103.817 854.917 103.25C856.417 102.683 858.067 102.4 859.867 102.4C862.1 102.4 864.017 102.783 865.617 103.55C867.25 104.317 868.567 105.35 869.567 106.65C869.9 107.083 870.034 107.533 869.967 108C869.9 108.467 869.634 108.85 869.167 109.15C868.767 109.383 868.3 109.467 867.767 109.4C867.267 109.3 866.834 109.05 866.467 108.65C865.634 107.683 864.667 106.983 863.567 106.55C862.467 106.083 861.2 105.85 859.767 105.85C857.934 105.85 856.467 106.233 855.367 107C854.267 107.733 853.717 108.667 853.717 109.8C853.717 110.567 853.917 111.233 854.317 111.8C854.75 112.367 855.467 112.867 856.467 113.3C857.5 113.733 858.934 114.1 860.767 114.4C863.267 114.8 865.234 115.4 866.667 116.2C868.134 116.967 869.167 117.883 869.767 118.95C870.4 119.983 870.717 121.117 870.717 122.35C870.717 123.917 870.25 125.3 869.317 126.5C868.417 127.667 867.15 128.583 865.517 129.25C863.917 129.917 862.067 130.25 859.967 130.25ZM886.17 130.25C884.203 130.25 882.253 129.917 880.32 129.25C878.387 128.583 876.82 127.583 875.62 126.25C875.253 125.85 875.103 125.4 875.17 124.9C875.237 124.4 875.487 123.967 875.92 123.6C876.387 123.267 876.87 123.133 877.37 123.2C877.87 123.267 878.287 123.483 878.62 123.85C879.42 124.783 880.47 125.5 881.77 126C883.103 126.5 884.57 126.75 886.17 126.75C888.637 126.75 890.42 126.333 891.52 125.5C892.62 124.633 893.187 123.6 893.22 122.4C893.22 121.2 892.653 120.217 891.52 119.45C890.387 118.65 888.52 118.033 885.92 117.6C882.553 117.067 880.087 116.133 878.52 114.8C876.953 113.467 876.17 111.883 876.17 110.05C876.17 108.35 876.62 106.933 877.52 105.8C878.42 104.667 879.62 103.817 881.12 103.25C882.62 102.683 884.27 102.4 886.07 102.4C888.303 102.4 890.22 102.783 891.82 103.55C893.453 104.317 894.77 105.35 895.77 106.65C896.103 107.083 896.237 107.533 896.17 108C896.103 108.467 895.837 108.85 895.37 109.15C894.97 109.383 894.503 109.467 893.97 109.4C893.47 109.3 893.037 109.05 892.67 108.65C891.837 107.683 890.87 106.983 889.77 106.55C888.67 106.083 887.403 105.85 885.97 105.85C884.137 105.85 882.67 106.233 881.57 107C880.47 107.733 879.92 108.667 879.92 109.8C879.92 110.567 880.12 111.233 880.52 111.8C880.953 112.367 881.67 112.867 882.67 113.3C883.703 113.733 885.137 114.1 886.97 114.4C889.47 114.8 891.437 115.4 892.87 116.2C894.337 116.967 895.37 117.883 895.97 118.95C896.603 119.983 896.92 121.117 896.92 122.35C896.92 123.917 896.453 125.3 895.52 126.5C894.62 127.667 893.353 128.583 891.72 129.25C890.12 129.917 888.27 130.25 886.17 130.25ZM939.773 130C939.207 130 938.74 129.833 938.373 129.5C938.007 129.133 937.823 128.667 937.823 128.1V113.7C937.823 111.333 937.207 109.467 935.973 108.1C934.74 106.7 933.157 106 931.223 106C929.157 106 927.457 106.7 926.123 108.1C924.823 109.467 924.19 111.3 924.223 113.6H920.773C920.807 111.367 921.29 109.4 922.223 107.7C923.157 106 924.44 104.683 926.073 103.75C927.707 102.817 929.557 102.35 931.623 102.35C933.59 102.35 935.323 102.817 936.823 103.75C938.357 104.683 939.54 106 940.373 107.7C941.24 109.4 941.673 111.4 941.673 113.7V128.1C941.673 128.667 941.49 129.133 941.123 129.5C940.79 129.833 940.34 130 939.773 130ZM904.773 130C904.173 130 903.69 129.833 903.323 129.5C902.99 129.133 902.823 128.667 902.823 128.1V104.6C902.823 104.033 902.99 103.567 903.323 103.2C903.69 102.833 904.173 102.65 904.773 102.65C905.34 102.65 905.79 102.833 906.123 103.2C906.49 103.567 906.673 104.033 906.673 104.6V128.1C906.673 128.667 906.49 129.133 906.123 129.5C905.79 129.833 905.34 130 904.773 130ZM922.323 130C921.757 130 921.29 129.833 920.923 129.5C920.557 129.133 920.373 128.667 920.373 128.1V113.7C920.373 111.333 919.757 109.467 918.523 108.1C917.29 106.7 915.707 106 913.773 106C911.707 106 910.007 106.683 908.673 108.05C907.34 109.383 906.673 111.133 906.673 113.3H903.923C903.99 111.167 904.457 109.283 905.323 107.65C906.223 105.983 907.44 104.683 908.973 103.75C910.507 102.817 912.24 102.35 914.173 102.35C916.14 102.35 917.873 102.817 919.373 103.75C920.907 104.683 922.09 106 922.923 107.7C923.79 109.4 924.223 111.4 924.223 113.7V128.1C924.223 128.667 924.04 129.133 923.673 129.5C923.34 129.833 922.89 130 922.323 130ZM961.487 130.25C958.92 130.25 956.62 129.65 954.587 128.45C952.553 127.217 950.937 125.55 949.737 123.45C948.57 121.35 947.987 118.983 947.987 116.35C947.987 113.683 948.587 111.3 949.787 109.2C951.02 107.1 952.687 105.45 954.787 104.25C956.887 103.017 959.253 102.4 961.887 102.4C964.52 102.4 966.87 103.017 968.937 104.25C971.037 105.45 972.687 107.1 973.887 109.2C975.12 111.3 975.753 113.683 975.787 116.35L974.237 117.55C974.237 119.95 973.67 122.117 972.537 124.05C971.437 125.95 969.92 127.467 967.987 128.6C966.087 129.7 963.92 130.25 961.487 130.25ZM961.887 126.75C963.82 126.75 965.537 126.3 967.037 125.4C968.57 124.5 969.77 123.267 970.637 121.7C971.537 120.1 971.987 118.317 971.987 116.35C971.987 114.35 971.537 112.567 970.637 111C969.77 109.433 968.57 108.2 967.037 107.3C965.537 106.367 963.82 105.9 961.887 105.9C959.987 105.9 958.27 106.367 956.737 107.3C955.203 108.2 953.987 109.433 953.087 111C952.187 112.567 951.737 114.35 951.737 116.35C951.737 118.317 952.187 120.1 953.087 121.7C953.987 123.267 955.203 124.5 956.737 125.4C958.27 126.3 959.987 126.75 961.887 126.75ZM973.837 130C973.27 130 972.803 129.833 972.437 129.5C972.07 129.133 971.887 128.667 971.887 128.1V119.55L972.837 115.6L975.787 116.35V128.1C975.787 128.667 975.603 129.133 975.237 129.5C974.87 129.833 974.403 130 973.837 130ZM993.224 130C991.458 130 989.874 129.583 988.474 128.75C987.108 127.917 986.024 126.783 985.224 125.35C984.424 123.883 984.024 122.217 984.024 120.35V95.9C984.024 95.3333 984.191 94.8667 984.524 94.5C984.891 94.1333 985.358 93.95 985.924 93.95C986.491 93.95 986.958 94.1333 987.324 94.5C987.691 94.8667 987.874 95.3333 987.874 95.9V120.35C987.874 122.05 988.374 123.45 989.374 124.55C990.374 125.617 991.658 126.15 993.224 126.15H994.574C995.108 126.15 995.541 126.333 995.874 126.7C996.208 127.067 996.374 127.533 996.374 128.1C996.374 128.667 996.174 129.133 995.774 129.5C995.374 129.833 994.874 130 994.274 130H993.224ZM980.774 107C980.274 107 979.858 106.85 979.524 106.55C979.191 106.217 979.024 105.817 979.024 105.35C979.024 104.85 979.191 104.45 979.524 104.15C979.858 103.817 980.274 103.65 980.774 103.65H993.524C994.024 103.65 994.441 103.817 994.774 104.15C995.108 104.45 995.274 104.85 995.274 105.35C995.274 105.817 995.108 106.217 994.774 106.55C994.441 106.85 994.024 107 993.524 107H980.774ZM1014.09 130.25C1011.46 130.25 1009.11 129.65 1007.04 128.45C1005.01 127.217 1003.39 125.55 1002.19 123.45C1001.02 121.35 1000.44 118.983 1000.44 116.35C1000.44 113.683 1001.01 111.3 1002.14 109.2C1003.27 107.1 1004.82 105.45 1006.79 104.25C1008.76 103.017 1011.02 102.4 1013.59 102.4C1015.62 102.4 1017.49 102.8 1019.19 103.6C1020.92 104.4 1022.44 105.6 1023.74 107.2C1024.11 107.6 1024.24 108.033 1024.14 108.5C1024.04 108.933 1023.76 109.317 1023.29 109.65C1022.92 109.917 1022.51 110.017 1022.04 109.95C1021.61 109.85 1021.22 109.6 1020.89 109.2C1018.96 107 1016.52 105.9 1013.59 105.9C1011.72 105.9 1010.07 106.35 1008.64 107.25C1007.24 108.15 1006.14 109.383 1005.34 110.95C1004.57 112.517 1004.19 114.317 1004.19 116.35C1004.19 118.35 1004.61 120.133 1005.44 121.7C1006.27 123.267 1007.44 124.5 1008.94 125.4C1010.44 126.3 1012.16 126.75 1014.09 126.75C1015.39 126.75 1016.57 126.583 1017.64 126.25C1018.74 125.883 1019.71 125.333 1020.54 124.6C1020.94 124.267 1021.36 124.083 1021.79 124.05C1022.22 124.017 1022.62 124.15 1022.99 124.45C1023.39 124.817 1023.61 125.233 1023.64 125.7C1023.71 126.167 1023.56 126.567 1023.19 126.9C1020.76 129.133 1017.72 130.25 1014.09 130.25ZM1054.38 130C1053.81 130 1053.34 129.817 1052.98 129.45C1052.61 129.083 1052.43 128.633 1052.43 128.1V115.1C1052.43 113.033 1052.03 111.333 1051.23 110C1050.46 108.667 1049.39 107.667 1048.03 107C1046.69 106.333 1045.18 106 1043.48 106C1041.84 106 1040.36 106.317 1039.03 106.95C1037.73 107.583 1036.69 108.45 1035.93 109.55C1035.16 110.65 1034.78 111.9 1034.78 113.3H1032.03C1032.09 111.2 1032.66 109.333 1033.73 107.7C1034.79 106.033 1036.21 104.733 1037.98 103.8C1039.74 102.833 1041.71 102.35 1043.88 102.35C1046.24 102.35 1048.36 102.85 1050.23 103.85C1052.09 104.817 1053.56 106.25 1054.63 108.15C1055.73 110.05 1056.28 112.367 1056.28 115.1V128.1C1056.28 128.633 1056.09 129.083 1055.73 129.45C1055.36 129.817 1054.91 130 1054.38 130ZM1032.88 130C1032.28 130 1031.79 129.833 1031.43 129.5C1031.09 129.133 1030.93 128.667 1030.93 128.1V104.6C1030.93 104 1031.09 103.533 1031.43 103.2C1031.79 102.833 1032.28 102.65 1032.88 102.65C1033.44 102.65 1033.89 102.833 1034.23 103.2C1034.59 103.533 1034.78 104 1034.78 104.6V128.1C1034.78 128.667 1034.59 129.133 1034.23 129.5C1033.89 129.833 1033.44 130 1032.88 130ZM1032.88 118.85C1032.28 118.85 1031.79 118.667 1031.43 118.3C1031.09 117.933 1030.93 117.467 1030.93 116.9V92.9C1030.93 92.3 1031.09 91.8333 1031.43 91.5C1031.79 91.1333 1032.28 90.95 1032.88 90.95C1033.44 90.95 1033.89 91.1333 1034.23 91.5C1034.59 91.8333 1034.78 92.3 1034.78 92.9V116.9C1034.78 117.467 1034.59 117.933 1034.23 118.3C1033.89 118.667 1033.44 118.85 1032.88 118.85ZM1064.91 121.15C1064.38 121.15 1063.91 120.967 1063.51 120.6C1063.15 120.2 1062.96 119.733 1062.96 119.2V92.9C1062.96 92.3333 1063.15 91.8667 1063.51 91.5C1063.91 91.1 1064.38 90.9 1064.91 90.9C1065.48 90.9 1065.95 91.1 1066.31 91.5C1066.68 91.8667 1066.86 92.3333 1066.86 92.9V119.2C1066.86 119.733 1066.66 120.2 1066.26 120.6C1065.86 120.967 1065.41 121.15 1064.91 121.15ZM1064.91 130C1064.11 130 1063.43 129.717 1062.86 129.15C1062.3 128.583 1062.01 127.9 1062.01 127.1C1062.01 126.267 1062.3 125.567 1062.86 125C1063.43 124.433 1064.11 124.15 1064.91 124.15C1065.71 124.15 1066.4 124.45 1066.96 125.05C1067.53 125.617 1067.81 126.3 1067.81 127.1C1067.81 127.9 1067.53 128.583 1066.96 129.15C1066.4 129.717 1065.71 130 1064.91 130ZM1092.89 130C1092.33 130 1091.86 129.817 1091.49 129.45C1091.13 129.083 1090.94 128.617 1090.94 128.05V92.9C1090.94 92.3333 1091.13 91.8667 1091.49 91.5C1091.86 91.1333 1092.33 90.95 1092.89 90.95H1102.89C1105.36 90.95 1107.54 91.5 1109.44 92.6C1111.34 93.6667 1112.83 95.15 1113.89 97.05C1114.96 98.95 1115.49 101.15 1115.49 103.65C1115.49 106.083 1114.96 108.25 1113.89 110.15C1112.83 112.017 1111.34 113.5 1109.44 114.6C1107.54 115.667 1105.36 116.2 1102.89 116.2H1094.84V128.05C1094.84 128.617 1094.66 129.083 1094.29 129.45C1093.93 129.817 1093.46 130 1092.89 130ZM1094.84 112.45H1102.89C1104.59 112.45 1106.11 112.083 1107.44 111.35C1108.78 110.583 1109.81 109.533 1110.54 108.2C1111.31 106.867 1111.69 105.35 1111.69 103.65C1111.69 101.883 1111.31 100.333 1110.54 99C1109.81 97.6667 1108.78 96.6167 1107.44 95.85C1106.11 95.0833 1104.59 94.7 1102.89 94.7H1094.84V112.45ZM1126.21 130C1124.88 130 1123.68 129.633 1122.61 128.9C1121.58 128.167 1120.76 127.15 1120.16 125.85C1119.59 124.55 1119.31 123.05 1119.31 121.35V92.85C1119.31 92.2833 1119.48 91.8333 1119.81 91.5C1120.18 91.1333 1120.64 90.95 1121.21 90.95C1121.78 90.95 1122.23 91.1333 1122.56 91.5C1122.93 91.8333 1123.11 92.2833 1123.11 92.85V121.35C1123.11 122.783 1123.39 123.95 1123.96 124.85C1124.56 125.75 1125.31 126.2 1126.21 126.2H1127.46C1127.96 126.2 1128.36 126.383 1128.66 126.75C1128.96 127.083 1129.11 127.533 1129.11 128.1C1129.11 128.667 1128.89 129.133 1128.46 129.5C1128.06 129.833 1127.53 130 1126.86 130H1126.21ZM1144.56 130.25C1141.86 130.25 1139.46 129.667 1137.36 128.5C1135.29 127.3 1133.66 125.65 1132.46 123.55C1131.29 121.45 1130.71 119.05 1130.71 116.35C1130.71 113.617 1131.26 111.217 1132.36 109.15C1133.49 107.05 1135.04 105.4 1137.01 104.2C1138.97 103 1141.24 102.4 1143.81 102.4C1146.34 102.4 1148.54 102.983 1150.41 104.15C1152.31 105.283 1153.77 106.867 1154.81 108.9C1155.84 110.933 1156.36 113.25 1156.36 115.85C1156.36 116.383 1156.19 116.817 1155.86 117.15C1155.52 117.45 1155.09 117.6 1154.56 117.6H1133.31V114.4H1154.96L1152.81 115.95C1152.84 114.017 1152.49 112.283 1151.76 110.75C1151.02 109.217 1149.97 108.017 1148.61 107.15C1147.27 106.283 1145.67 105.85 1143.81 105.85C1141.91 105.85 1140.24 106.3 1138.81 107.2C1137.37 108.1 1136.26 109.35 1135.46 110.95C1134.69 112.517 1134.31 114.317 1134.31 116.35C1134.31 118.383 1134.74 120.183 1135.61 121.75C1136.51 123.317 1137.72 124.55 1139.26 125.45C1140.79 126.35 1142.56 126.8 1144.56 126.8C1145.76 126.8 1146.96 126.6 1148.16 126.2C1149.39 125.767 1150.37 125.233 1151.11 124.6C1151.47 124.3 1151.89 124.15 1152.36 124.15C1152.82 124.117 1153.22 124.233 1153.56 124.5C1153.99 124.9 1154.21 125.333 1154.21 125.8C1154.24 126.267 1154.06 126.667 1153.66 127C1152.56 127.933 1151.16 128.717 1149.46 129.35C1147.76 129.95 1146.12 130.25 1144.56 130.25ZM1173.19 130.25C1170.63 130.25 1168.33 129.65 1166.29 128.45C1164.26 127.217 1162.64 125.55 1161.44 123.45C1160.28 121.35 1159.69 118.983 1159.69 116.35C1159.69 113.683 1160.29 111.3 1161.49 109.2C1162.73 107.1 1164.39 105.45 1166.49 104.25C1168.59 103.017 1170.96 102.4 1173.59 102.4C1176.23 102.4 1178.58 103.017 1180.64 104.25C1182.74 105.45 1184.39 107.1 1185.59 109.2C1186.83 111.3 1187.46 113.683 1187.49 116.35L1185.94 117.55C1185.94 119.95 1185.38 122.117 1184.24 124.05C1183.14 125.95 1181.63 127.467 1179.69 128.6C1177.79 129.7 1175.63 130.25 1173.19 130.25ZM1173.59 126.75C1175.53 126.75 1177.24 126.3 1178.74 125.4C1180.28 124.5 1181.48 123.267 1182.34 121.7C1183.24 120.1 1183.69 118.317 1183.69 116.35C1183.69 114.35 1183.24 112.567 1182.34 111C1181.48 109.433 1180.28 108.2 1178.74 107.3C1177.24 106.367 1175.53 105.9 1173.59 105.9C1171.69 105.9 1169.98 106.367 1168.44 107.3C1166.91 108.2 1165.69 109.433 1164.79 111C1163.89 112.567 1163.44 114.35 1163.44 116.35C1163.44 118.317 1163.89 120.1 1164.79 121.7C1165.69 123.267 1166.91 124.5 1168.44 125.4C1169.98 126.3 1171.69 126.75 1173.59 126.75ZM1185.54 130C1184.98 130 1184.51 129.833 1184.14 129.5C1183.78 129.133 1183.59 128.667 1183.59 128.1V119.55L1184.54 115.6L1187.49 116.35V128.1C1187.49 128.667 1187.31 129.133 1186.94 129.5C1186.58 129.833 1186.11 130 1185.54 130ZM1203.78 130.25C1201.81 130.25 1199.86 129.917 1197.93 129.25C1196 128.583 1194.43 127.583 1193.23 126.25C1192.86 125.85 1192.71 125.4 1192.78 124.9C1192.85 124.4 1193.1 123.967 1193.53 123.6C1194 123.267 1194.48 123.133 1194.98 123.2C1195.48 123.267 1195.9 123.483 1196.23 123.85C1197.03 124.783 1198.08 125.5 1199.38 126C1200.71 126.5 1202.18 126.75 1203.78 126.75C1206.25 126.75 1208.03 126.333 1209.13 125.5C1210.23 124.633 1210.8 123.6 1210.83 122.4C1210.83 121.2 1210.26 120.217 1209.13 119.45C1208 118.65 1206.13 118.033 1203.53 117.6C1200.16 117.067 1197.7 116.133 1196.13 114.8C1194.56 113.467 1193.78 111.883 1193.78 110.05C1193.78 108.35 1194.23 106.933 1195.13 105.8C1196.03 104.667 1197.23 103.817 1198.73 103.25C1200.23 102.683 1201.88 102.4 1203.68 102.4C1205.91 102.4 1207.83 102.783 1209.43 103.55C1211.06 104.317 1212.38 105.35 1213.38 106.65C1213.71 107.083 1213.85 107.533 1213.78 108C1213.71 108.467 1213.45 108.85 1212.98 109.15C1212.58 109.383 1212.11 109.467 1211.58 109.4C1211.08 109.3 1210.65 109.05 1210.28 108.65C1209.45 107.683 1208.48 106.983 1207.38 106.55C1206.28 106.083 1205.01 105.85 1203.58 105.85C1201.75 105.85 1200.28 106.233 1199.18 107C1198.08 107.733 1197.53 108.667 1197.53 109.8C1197.53 110.567 1197.73 111.233 1198.13 111.8C1198.56 112.367 1199.28 112.867 1200.28 113.3C1201.31 113.733 1202.75 114.1 1204.58 114.4C1207.08 114.8 1209.05 115.4 1210.48 116.2C1211.95 116.967 1212.98 117.883 1213.58 118.95C1214.21 119.983 1214.53 121.117 1214.53 122.35C1214.53 123.917 1214.06 125.3 1213.13 126.5C1212.23 127.667 1210.96 128.583 1209.33 129.25C1207.73 129.917 1205.88 130.25 1203.78 130.25ZM1232.83 130.25C1230.13 130.25 1227.73 129.667 1225.63 128.5C1223.57 127.3 1221.93 125.65 1220.73 123.55C1219.57 121.45 1218.98 119.05 1218.98 116.35C1218.98 113.617 1219.53 111.217 1220.63 109.15C1221.77 107.05 1223.32 105.4 1225.28 104.2C1227.25 103 1229.52 102.4 1232.08 102.4C1234.62 102.4 1236.82 102.983 1238.68 104.15C1240.58 105.283 1242.05 106.867 1243.08 108.9C1244.12 110.933 1244.63 113.25 1244.63 115.85C1244.63 116.383 1244.47 116.817 1244.13 117.15C1243.8 117.45 1243.37 117.6 1242.83 117.6H1221.58V114.4H1243.23L1241.08 115.95C1241.12 114.017 1240.77 112.283 1240.03 110.75C1239.3 109.217 1238.25 108.017 1236.88 107.15C1235.55 106.283 1233.95 105.85 1232.08 105.85C1230.18 105.85 1228.52 106.3 1227.08 107.2C1225.65 108.1 1224.53 109.35 1223.73 110.95C1222.97 112.517 1222.58 114.317 1222.58 116.35C1222.58 118.383 1223.02 120.183 1223.88 121.75C1224.78 123.317 1226 124.55 1227.53 125.45C1229.07 126.35 1230.83 126.8 1232.83 126.8C1234.03 126.8 1235.23 126.6 1236.43 126.2C1237.67 125.767 1238.65 125.233 1239.38 124.6C1239.75 124.3 1240.17 124.15 1240.63 124.15C1241.1 124.117 1241.5 124.233 1241.83 124.5C1242.27 124.9 1242.48 125.333 1242.48 125.8C1242.52 126.267 1242.33 126.667 1241.93 127C1240.83 127.933 1239.43 128.717 1237.73 129.35C1236.03 129.95 1234.4 130.25 1232.83 130.25ZM1275 130C1273.23 130 1271.65 129.583 1270.25 128.75C1268.88 127.917 1267.8 126.783 1267 125.35C1266.2 123.883 1265.8 122.217 1265.8 120.35V95.9C1265.8 95.3333 1265.96 94.8667 1266.3 94.5C1266.66 94.1333 1267.13 93.95 1267.7 93.95C1268.26 93.95 1268.73 94.1333 1269.1 94.5C1269.46 94.8667 1269.65 95.3333 1269.65 95.9V120.35C1269.65 122.05 1270.15 123.45 1271.15 124.55C1272.15 125.617 1273.43 126.15 1275 126.15H1276.35C1276.88 126.15 1277.31 126.333 1277.65 126.7C1277.98 127.067 1278.15 127.533 1278.15 128.1C1278.15 128.667 1277.95 129.133 1277.55 129.5C1277.15 129.833 1276.65 130 1276.05 130H1275ZM1262.55 107C1262.05 107 1261.63 106.85 1261.3 106.55C1260.96 106.217 1260.8 105.817 1260.8 105.35C1260.8 104.85 1260.96 104.45 1261.3 104.15C1261.63 103.817 1262.05 103.65 1262.55 103.65H1275.3C1275.8 103.65 1276.21 103.817 1276.55 104.15C1276.88 104.45 1277.05 104.85 1277.05 105.35C1277.05 105.817 1276.88 106.217 1276.55 106.55C1276.21 106.85 1275.8 107 1275.3 107H1262.55ZM1285.26 113.15C1285.36 111.083 1285.9 109.233 1286.86 107.6C1287.86 105.967 1289.15 104.683 1290.71 103.75C1292.31 102.817 1294.08 102.35 1296.01 102.35C1297.55 102.35 1298.73 102.567 1299.56 103C1300.4 103.433 1300.71 104.067 1300.51 104.9C1300.38 105.4 1300.15 105.733 1299.81 105.9C1299.51 106.067 1299.13 106.133 1298.66 106.1C1298.23 106.067 1297.73 106.033 1297.16 106C1295.3 105.833 1293.63 106.033 1292.16 106.6C1290.73 107.133 1289.58 107.967 1288.71 109.1C1287.88 110.233 1287.46 111.583 1287.46 113.15H1285.26ZM1285.56 130C1284.96 130 1284.5 129.833 1284.16 129.5C1283.83 129.167 1283.66 128.7 1283.66 128.1V104.55C1283.66 103.95 1283.83 103.483 1284.16 103.15C1284.5 102.817 1284.96 102.65 1285.56 102.65C1286.16 102.65 1286.63 102.817 1286.96 103.15C1287.3 103.483 1287.46 103.95 1287.46 104.55V128.1C1287.46 128.7 1287.3 129.167 1286.96 129.5C1286.63 129.833 1286.16 130 1285.56 130ZM1310.51 141.9C1310.25 141.9 1309.95 141.833 1309.61 141.7C1308.48 141.2 1308.16 140.4 1308.66 139.3L1324.81 103.7C1325.31 102.633 1326.11 102.333 1327.21 102.8C1328.35 103.267 1328.66 104.05 1328.16 105.15L1311.96 140.75C1311.63 141.517 1311.15 141.9 1310.51 141.9ZM1316.06 129.15C1315.56 129.383 1315.1 129.433 1314.66 129.3C1314.23 129.133 1313.88 128.8 1313.61 128.3L1302.46 105.2C1302.23 104.7 1302.2 104.233 1302.36 103.8C1302.53 103.367 1302.86 103.033 1303.36 102.8C1303.86 102.567 1304.33 102.533 1304.76 102.7C1305.2 102.833 1305.53 103.15 1305.76 103.65L1316.71 126.75C1316.98 127.25 1317.06 127.717 1316.96 128.15C1316.86 128.583 1316.56 128.917 1316.06 129.15ZM1358.4 130.25C1355.84 130.25 1353.54 129.65 1351.5 128.45C1349.47 127.217 1347.85 125.55 1346.65 123.45C1345.49 121.35 1344.9 118.983 1344.9 116.35C1344.9 113.683 1345.5 111.3 1346.7 109.2C1347.94 107.1 1349.6 105.45 1351.7 104.25C1353.8 103.017 1356.17 102.4 1358.8 102.4C1361.44 102.4 1363.79 103.017 1365.85 104.25C1367.95 105.45 1369.6 107.1 1370.8 109.2C1372.04 111.3 1372.67 113.683 1372.7 116.35L1371.15 117.55C1371.15 119.95 1370.59 122.117 1369.45 124.05C1368.35 125.95 1366.84 127.467 1364.9 128.6C1363 129.7 1360.84 130.25 1358.4 130.25ZM1358.8 126.75C1360.74 126.75 1362.45 126.3 1363.95 125.4C1365.49 124.5 1366.69 123.267 1367.55 121.7C1368.45 120.1 1368.9 118.317 1368.9 116.35C1368.9 114.35 1368.45 112.567 1367.55 111C1366.69 109.433 1365.49 108.2 1363.95 107.3C1362.45 106.367 1360.74 105.9 1358.8 105.9C1356.9 105.9 1355.19 106.367 1353.65 107.3C1352.12 108.2 1350.9 109.433 1350 111C1349.1 112.567 1348.65 114.35 1348.65 116.35C1348.65 118.317 1349.1 120.1 1350 121.7C1350.9 123.267 1352.12 124.5 1353.65 125.4C1355.19 126.3 1356.9 126.75 1358.8 126.75ZM1370.75 130C1370.19 130 1369.72 129.833 1369.35 129.5C1368.99 129.133 1368.8 128.667 1368.8 128.1V119.55L1369.75 115.6L1372.7 116.35V128.1C1372.7 128.667 1372.52 129.133 1372.15 129.5C1371.79 129.833 1371.32 130 1370.75 130ZM1391.49 130.25C1388.86 130.25 1386.53 129.667 1384.49 128.5C1382.46 127.3 1380.86 125.65 1379.69 123.55C1378.56 121.45 1377.99 119.05 1377.99 116.35C1377.99 113.617 1378.59 111.2 1379.79 109.1C1380.99 107 1382.64 105.367 1384.74 104.2C1386.84 103 1389.23 102.4 1391.89 102.4C1394.59 102.4 1396.98 103 1399.04 104.2C1401.14 105.367 1402.78 107 1403.94 109.1C1405.14 111.2 1405.76 113.617 1405.79 116.35L1403.54 117.55C1403.54 120.017 1403.03 122.217 1401.99 124.15C1400.96 126.05 1399.53 127.55 1397.69 128.65C1395.89 129.717 1393.83 130.25 1391.49 130.25ZM1391.99 140.8C1389.36 140.8 1387.04 140.3 1385.04 139.3C1383.04 138.333 1381.39 137 1380.09 135.3C1379.73 134.9 1379.56 134.467 1379.59 134C1379.66 133.533 1379.91 133.15 1380.34 132.85C1380.78 132.55 1381.26 132.45 1381.79 132.55C1382.33 132.65 1382.74 132.9 1383.04 133.3C1384.01 134.5 1385.24 135.467 1386.74 136.2C1388.28 136.933 1390.04 137.3 1392.04 137.3C1393.91 137.3 1395.59 136.85 1397.09 135.95C1398.59 135.05 1399.78 133.783 1400.64 132.15C1401.54 130.517 1401.99 128.6 1401.99 126.4V118.8L1403.44 115.9L1405.79 116.35V126.55C1405.79 129.25 1405.19 131.667 1403.99 133.8C1402.79 135.967 1401.16 137.667 1399.09 138.9C1397.03 140.167 1394.66 140.8 1391.99 140.8ZM1391.89 126.75C1393.86 126.75 1395.59 126.317 1397.09 125.45C1398.63 124.55 1399.83 123.317 1400.69 121.75C1401.56 120.183 1401.99 118.383 1401.99 116.35C1401.99 114.317 1401.56 112.517 1400.69 110.95C1399.83 109.35 1398.63 108.117 1397.09 107.25C1395.59 106.35 1393.86 105.9 1391.89 105.9C1389.93 105.9 1388.18 106.35 1386.64 107.25C1385.11 108.117 1383.91 109.35 1383.04 110.95C1382.18 112.517 1381.74 114.317 1381.74 116.35C1381.74 118.383 1382.18 120.183 1383.04 121.75C1383.91 123.317 1385.11 124.55 1386.64 125.45C1388.18 126.317 1389.93 126.75 1391.89 126.75ZM1424.58 130.25C1422.01 130.25 1419.71 129.65 1417.68 128.45C1415.65 127.217 1414.03 125.55 1412.83 123.45C1411.66 121.35 1411.08 118.983 1411.08 116.35C1411.08 113.683 1411.68 111.3 1412.88 109.2C1414.11 107.1 1415.78 105.45 1417.88 104.25C1419.98 103.017 1422.35 102.4 1424.98 102.4C1427.61 102.4 1429.96 103.017 1432.03 104.25C1434.13 105.45 1435.78 107.1 1436.98 109.2C1438.21 111.3 1438.85 113.683 1438.88 116.35L1437.33 117.55C1437.33 119.95 1436.76 122.117 1435.63 124.05C1434.53 125.95 1433.01 127.467 1431.08 128.6C1429.18 129.7 1427.01 130.25 1424.58 130.25ZM1424.98 126.75C1426.91 126.75 1428.63 126.3 1430.13 125.4C1431.66 124.5 1432.86 123.267 1433.73 121.7C1434.63 120.1 1435.08 118.317 1435.08 116.35C1435.08 114.35 1434.63 112.567 1433.73 111C1432.86 109.433 1431.66 108.2 1430.13 107.3C1428.63 106.367 1426.91 105.9 1424.98 105.9C1423.08 105.9 1421.36 106.367 1419.83 107.3C1418.3 108.2 1417.08 109.433 1416.18 111C1415.28 112.567 1414.83 114.35 1414.83 116.35C1414.83 118.317 1415.28 120.1 1416.18 121.7C1417.08 123.267 1418.3 124.5 1419.83 125.4C1421.36 126.3 1423.08 126.75 1424.98 126.75ZM1436.93 130C1436.36 130 1435.9 129.833 1435.53 129.5C1435.16 129.133 1434.98 128.667 1434.98 128.1V119.55L1435.93 115.6L1438.88 116.35V128.1C1438.88 128.667 1438.7 129.133 1438.33 129.5C1437.96 129.833 1437.5 130 1436.93 130ZM1448.37 130C1447.77 130 1447.28 129.833 1446.92 129.5C1446.58 129.133 1446.42 128.65 1446.42 128.05V104.6C1446.42 104 1446.58 103.533 1446.92 103.2C1447.28 102.833 1447.77 102.65 1448.37 102.65C1448.93 102.65 1449.38 102.833 1449.72 103.2C1450.08 103.533 1450.27 104 1450.27 104.6V128.05C1450.27 128.65 1450.08 129.133 1449.72 129.5C1449.38 129.833 1448.93 130 1448.37 130ZM1448.32 97.45C1447.58 97.45 1446.95 97.1833 1446.42 96.65C1445.88 96.1167 1445.62 95.4667 1445.62 94.7C1445.62 93.8667 1445.88 93.2167 1446.42 92.75C1446.98 92.25 1447.63 92 1448.37 92C1449.07 92 1449.68 92.25 1450.22 92.75C1450.78 93.2167 1451.07 93.8667 1451.07 94.7C1451.07 95.4667 1450.8 96.1167 1450.27 96.65C1449.73 97.1833 1449.08 97.45 1448.32 97.45ZM1482.77 130C1482.2 130 1481.74 129.817 1481.37 129.45C1481 129.083 1480.82 128.633 1480.82 128.1V115.1C1480.82 113.033 1480.42 111.333 1479.62 110C1478.85 108.667 1477.79 107.667 1476.42 107C1475.09 106.333 1473.57 106 1471.87 106C1470.24 106 1468.75 106.317 1467.42 106.95C1466.12 107.583 1465.09 108.45 1464.32 109.55C1463.55 110.65 1463.17 111.9 1463.17 113.3H1460.42C1460.49 111.2 1461.05 109.333 1462.12 107.7C1463.19 106.033 1464.6 104.733 1466.37 103.8C1468.14 102.833 1470.1 102.35 1472.27 102.35C1474.64 102.35 1476.75 102.85 1478.62 103.85C1480.49 104.817 1481.95 106.25 1483.02 108.15C1484.12 110.05 1484.67 112.367 1484.67 115.1V128.1C1484.67 128.633 1484.49 129.083 1484.12 129.45C1483.75 129.817 1483.3 130 1482.77 130ZM1461.27 130C1460.67 130 1460.19 129.833 1459.82 129.5C1459.49 129.133 1459.32 128.667 1459.32 128.1V104.6C1459.32 104 1459.49 103.533 1459.82 103.2C1460.19 102.833 1460.67 102.65 1461.27 102.65C1461.84 102.65 1462.29 102.833 1462.62 103.2C1462.99 103.533 1463.17 104 1463.17 104.6V128.1C1463.17 128.667 1462.99 129.133 1462.62 129.5C1462.29 129.833 1461.84 130 1461.27 130ZM1493.31 130.8C1492.51 130.8 1491.83 130.517 1491.26 129.95C1490.69 129.383 1490.41 128.7 1490.41 127.9C1490.41 127.067 1490.69 126.367 1491.26 125.8C1491.86 125.233 1492.54 124.95 1493.31 124.95C1494.11 124.95 1494.79 125.25 1495.36 125.85C1495.93 126.417 1496.21 127.1 1496.21 127.9C1496.21 128.667 1495.93 129.35 1495.36 129.95C1494.83 130.517 1494.14 130.8 1493.31 130.8Z" fill="black"/>
</g>
<defs>
<filter id="filter0_dd" x="533.487" y="90.9004" width="966.722" height="59" filterUnits="userSpaceOnUse" color-interpolation-filters="sRGB">
<feFlood flood-opacity="0" result="BackgroundImageFix"/>
<feColorMatrix in="SourceAlpha" type="matrix" values="0 0 0 0 0 0 0 0 0 0 0 0 0 0 0 0 0 0 127 0"/>
<feOffset dy="4"/>
<feGaussianBlur stdDeviation="2"/>
<feColorMatrix type="matrix" values="0 0 0 0 0 0 0 0 0 0 0 0 0 0 0 0 0 0 0.25 0"/>
<feBlend mode="normal" in2="BackgroundImageFix" result="effect1_dropShadow"/>
<feColorMatrix in="SourceAlpha" type="matrix" values="0 0 0 0 0 0 0 0 0 0 0 0 0 0 0 0 0 0 127 0"/>
<feOffset dy="4"/>
<feGaussianBlur stdDeviation="2"/>
<feColorMatrix type="matrix" values="0 0 0 0 0 0 0 0 0 0 0 0 0 0 0 0 0 0 0.25 0"/>
<feBlend mode="normal" in2="effect1_dropShadow" result="effect2_dropShadow"/>
<feBlend mode="normal" in="SourceGraphic" in2="effect2_dropShadow" result="shape"/>
</filter>
</defs>
</svg>
